<?xml version="1.0" encoding="utf-8" standalone="no"?>
<!DOCTYPE svg PUBLIC "-//W3C//DTD SVG 1.1//EN"
  "http://www.w3.org/Graphics/SVG/1.1/DTD/svg11.dtd">
<svg xmlns:xlink="http://www.w3.org/1999/xlink" width="1080pt" height="432pt" viewBox="0 0 1080 432" xmlns="http://www.w3.org/2000/svg" version="1.1">
 <metadata>
  <rdf:RDF xmlns:dc="http://purl.org/dc/elements/1.1/" xmlns:cc="http://creativecommons.org/ns#" xmlns:rdf="http://www.w3.org/1999/02/22-rdf-syntax-ns#">
   <cc:Work>
    <dc:type rdf:resource="http://purl.org/dc/dcmitype/StillImage"/>
    <dc:date>2026-04-08T15:59:46.520615</dc:date>
    <dc:format>image/svg+xml</dc:format>
    <dc:creator>
     <cc:Agent>
      <dc:title>Matplotlib v3.9.2, https://matplotlib.org/</dc:title>
     </cc:Agent>
    </dc:creator>
   </cc:Work>
  </rdf:RDF>
 </metadata>
 <defs>
  <style type="text/css">*{stroke-linejoin: round; stroke-linecap: butt}</style>
 </defs>
 <g id="figure_1">
  <g id="patch_1">
   <path d="M 0 432 
L 1080 432 
L 1080 0 
L 0 0 
z
" style="fill: #ffffff"/>
  </g>
  <g id="axes_1">
   <g id="patch_2">
    <path d="M 68.15 374.92 
L 1062.72 374.92 
L 1062.72 37.68 
L 68.15 37.68 
z
" style="fill: #ffffff"/>
   </g>
   <g id="matplotlib.axis_1">
    <g id="xtick_1">
     <g id="line2d_1">
      <path d="M 113.357727 374.92 
L 113.357727 37.68 
" clip-path="url(#pc223bb77ad)" style="fill: none; stroke: #b0b0b0; stroke-width: 0.8; stroke-linecap: square"/>
     </g>
     <g id="line2d_2">
      <defs>
       <path id="m9e8500c2eb" d="M 0 0 
L 0 3.5 
" style="stroke: #000000; stroke-width: 0.8"/>
      </defs>
      <g>
       <use xlink:href="#m9e8500c2eb" x="113.357727" y="374.92" style="stroke: #000000; stroke-width: 0.8"/>
      </g>
     </g>
     <g id="text_1">
      <!-- 0 -->
      <g transform="translate(108.267727 394.0775) scale(0.16 -0.16)">
       <defs>
        <path id="DejaVuSans-30" d="M 2034 4250 
Q 1547 4250 1301 3770 
Q 1056 3291 1056 2328 
Q 1056 1369 1301 889 
Q 1547 409 2034 409 
Q 2525 409 2770 889 
Q 3016 1369 3016 2328 
Q 3016 3291 2770 3770 
Q 2525 4250 2034 4250 
z
M 2034 4750 
Q 2819 4750 3233 4129 
Q 3647 3509 3647 2328 
Q 3647 1150 3233 529 
Q 2819 -91 2034 -91 
Q 1250 -91 836 529 
Q 422 1150 422 2328 
Q 422 3509 836 4129 
Q 1250 4750 2034 4750 
z
" transform="scale(0.015625)"/>
       </defs>
       <use xlink:href="#DejaVuSans-30"/>
      </g>
     </g>
    </g>
    <g id="xtick_2">
     <g id="line2d_3">
      <path d="M 235.540774 374.92 
L 235.540774 37.68 
" clip-path="url(#pc223bb77ad)" style="fill: none; stroke: #b0b0b0; stroke-width: 0.8; stroke-linecap: square"/>
     </g>
     <g id="line2d_4">
      <g>
       <use xlink:href="#m9e8500c2eb" x="235.540774" y="374.92" style="stroke: #000000; stroke-width: 0.8"/>
      </g>
     </g>
     <g id="text_2">
      <!-- 10000 -->
      <g transform="translate(210.090774 394.0775) scale(0.16 -0.16)">
       <defs>
        <path id="DejaVuSans-31" d="M 794 531 
L 1825 531 
L 1825 4091 
L 703 3866 
L 703 4441 
L 1819 4666 
L 2450 4666 
L 2450 531 
L 3481 531 
L 3481 0 
L 794 0 
L 794 531 
z
" transform="scale(0.015625)"/>
       </defs>
       <use xlink:href="#DejaVuSans-31"/>
       <use xlink:href="#DejaVuSans-30" x="63.623047"/>
       <use xlink:href="#DejaVuSans-30" x="127.246094"/>
       <use xlink:href="#DejaVuSans-30" x="190.869141"/>
       <use xlink:href="#DejaVuSans-30" x="254.492188"/>
      </g>
     </g>
    </g>
    <g id="xtick_3">
     <g id="line2d_5">
      <path d="M 357.723821 374.92 
L 357.723821 37.68 
" clip-path="url(#pc223bb77ad)" style="fill: none; stroke: #b0b0b0; stroke-width: 0.8; stroke-linecap: square"/>
     </g>
     <g id="line2d_6">
      <g>
       <use xlink:href="#m9e8500c2eb" x="357.723821" y="374.92" style="stroke: #000000; stroke-width: 0.8"/>
      </g>
     </g>
     <g id="text_3">
      <!-- 20000 -->
      <g transform="translate(332.273821 394.0775) scale(0.16 -0.16)">
       <defs>
        <path id="DejaVuSans-32" d="M 1228 531 
L 3431 531 
L 3431 0 
L 469 0 
L 469 531 
Q 828 903 1448 1529 
Q 2069 2156 2228 2338 
Q 2531 2678 2651 2914 
Q 2772 3150 2772 3378 
Q 2772 3750 2511 3984 
Q 2250 4219 1831 4219 
Q 1534 4219 1204 4116 
Q 875 4013 500 3803 
L 500 4441 
Q 881 4594 1212 4672 
Q 1544 4750 1819 4750 
Q 2544 4750 2975 4387 
Q 3406 4025 3406 3419 
Q 3406 3131 3298 2873 
Q 3191 2616 2906 2266 
Q 2828 2175 2409 1742 
Q 1991 1309 1228 531 
z
" transform="scale(0.015625)"/>
       </defs>
       <use xlink:href="#DejaVuSans-32"/>
       <use xlink:href="#DejaVuSans-30" x="63.623047"/>
       <use xlink:href="#DejaVuSans-30" x="127.246094"/>
       <use xlink:href="#DejaVuSans-30" x="190.869141"/>
       <use xlink:href="#DejaVuSans-30" x="254.492188"/>
      </g>
     </g>
    </g>
    <g id="xtick_4">
     <g id="line2d_7">
      <path d="M 479.906867 374.92 
L 479.906867 37.68 
" clip-path="url(#pc223bb77ad)" style="fill: none; stroke: #b0b0b0; stroke-width: 0.8; stroke-linecap: square"/>
     </g>
     <g id="line2d_8">
      <g>
       <use xlink:href="#m9e8500c2eb" x="479.906867" y="374.92" style="stroke: #000000; stroke-width: 0.8"/>
      </g>
     </g>
     <g id="text_4">
      <!-- 30000 -->
      <g transform="translate(454.456867 394.0775) scale(0.16 -0.16)">
       <defs>
        <path id="DejaVuSans-33" d="M 2597 2516 
Q 3050 2419 3304 2112 
Q 3559 1806 3559 1356 
Q 3559 666 3084 287 
Q 2609 -91 1734 -91 
Q 1441 -91 1130 -33 
Q 819 25 488 141 
L 488 750 
Q 750 597 1062 519 
Q 1375 441 1716 441 
Q 2309 441 2620 675 
Q 2931 909 2931 1356 
Q 2931 1769 2642 2001 
Q 2353 2234 1838 2234 
L 1294 2234 
L 1294 2753 
L 1863 2753 
Q 2328 2753 2575 2939 
Q 2822 3125 2822 3475 
Q 2822 3834 2567 4026 
Q 2313 4219 1838 4219 
Q 1578 4219 1281 4162 
Q 984 4106 628 3988 
L 628 4550 
Q 988 4650 1302 4700 
Q 1616 4750 1894 4750 
Q 2613 4750 3031 4423 
Q 3450 4097 3450 3541 
Q 3450 3153 3228 2886 
Q 3006 2619 2597 2516 
z
" transform="scale(0.015625)"/>
       </defs>
       <use xlink:href="#DejaVuSans-33"/>
       <use xlink:href="#DejaVuSans-30" x="63.623047"/>
       <use xlink:href="#DejaVuSans-30" x="127.246094"/>
       <use xlink:href="#DejaVuSans-30" x="190.869141"/>
       <use xlink:href="#DejaVuSans-30" x="254.492188"/>
      </g>
     </g>
    </g>
    <g id="xtick_5">
     <g id="line2d_9">
      <path d="M 602.089914 374.92 
L 602.089914 37.68 
" clip-path="url(#pc223bb77ad)" style="fill: none; stroke: #b0b0b0; stroke-width: 0.8; stroke-linecap: square"/>
     </g>
     <g id="line2d_10">
      <g>
       <use xlink:href="#m9e8500c2eb" x="602.089914" y="374.92" style="stroke: #000000; stroke-width: 0.8"/>
      </g>
     </g>
     <g id="text_5">
      <!-- 40000 -->
      <g transform="translate(576.639914 394.0775) scale(0.16 -0.16)">
       <defs>
        <path id="DejaVuSans-34" d="M 2419 4116 
L 825 1625 
L 2419 1625 
L 2419 4116 
z
M 2253 4666 
L 3047 4666 
L 3047 1625 
L 3713 1625 
L 3713 1100 
L 3047 1100 
L 3047 0 
L 2419 0 
L 2419 1100 
L 313 1100 
L 313 1709 
L 2253 4666 
z
" transform="scale(0.015625)"/>
       </defs>
       <use xlink:href="#DejaVuSans-34"/>
       <use xlink:href="#DejaVuSans-30" x="63.623047"/>
       <use xlink:href="#DejaVuSans-30" x="127.246094"/>
       <use xlink:href="#DejaVuSans-30" x="190.869141"/>
       <use xlink:href="#DejaVuSans-30" x="254.492188"/>
      </g>
     </g>
    </g>
    <g id="xtick_6">
     <g id="line2d_11">
      <path d="M 724.272961 374.92 
L 724.272961 37.68 
" clip-path="url(#pc223bb77ad)" style="fill: none; stroke: #b0b0b0; stroke-width: 0.8; stroke-linecap: square"/>
     </g>
     <g id="line2d_12">
      <g>
       <use xlink:href="#m9e8500c2eb" x="724.272961" y="374.92" style="stroke: #000000; stroke-width: 0.8"/>
      </g>
     </g>
     <g id="text_6">
      <!-- 50000 -->
      <g transform="translate(698.822961 394.0775) scale(0.16 -0.16)">
       <defs>
        <path id="DejaVuSans-35" d="M 691 4666 
L 3169 4666 
L 3169 4134 
L 1269 4134 
L 1269 2991 
Q 1406 3038 1543 3061 
Q 1681 3084 1819 3084 
Q 2600 3084 3056 2656 
Q 3513 2228 3513 1497 
Q 3513 744 3044 326 
Q 2575 -91 1722 -91 
Q 1428 -91 1123 -41 
Q 819 9 494 109 
L 494 744 
Q 775 591 1075 516 
Q 1375 441 1709 441 
Q 2250 441 2565 725 
Q 2881 1009 2881 1497 
Q 2881 1984 2565 2268 
Q 2250 2553 1709 2553 
Q 1456 2553 1204 2497 
Q 953 2441 691 2322 
L 691 4666 
z
" transform="scale(0.015625)"/>
       </defs>
       <use xlink:href="#DejaVuSans-35"/>
       <use xlink:href="#DejaVuSans-30" x="63.623047"/>
       <use xlink:href="#DejaVuSans-30" x="127.246094"/>
       <use xlink:href="#DejaVuSans-30" x="190.869141"/>
       <use xlink:href="#DejaVuSans-30" x="254.492188"/>
      </g>
     </g>
    </g>
    <g id="xtick_7">
     <g id="line2d_13">
      <path d="M 846.456007 374.92 
L 846.456007 37.68 
" clip-path="url(#pc223bb77ad)" style="fill: none; stroke: #b0b0b0; stroke-width: 0.8; stroke-linecap: square"/>
     </g>
     <g id="line2d_14">
      <g>
       <use xlink:href="#m9e8500c2eb" x="846.456007" y="374.92" style="stroke: #000000; stroke-width: 0.8"/>
      </g>
     </g>
     <g id="text_7">
      <!-- 60000 -->
      <g transform="translate(821.006007 394.0775) scale(0.16 -0.16)">
       <defs>
        <path id="DejaVuSans-36" d="M 2113 2584 
Q 1688 2584 1439 2293 
Q 1191 2003 1191 1497 
Q 1191 994 1439 701 
Q 1688 409 2113 409 
Q 2538 409 2786 701 
Q 3034 994 3034 1497 
Q 3034 2003 2786 2293 
Q 2538 2584 2113 2584 
z
M 3366 4563 
L 3366 3988 
Q 3128 4100 2886 4159 
Q 2644 4219 2406 4219 
Q 1781 4219 1451 3797 
Q 1122 3375 1075 2522 
Q 1259 2794 1537 2939 
Q 1816 3084 2150 3084 
Q 2853 3084 3261 2657 
Q 3669 2231 3669 1497 
Q 3669 778 3244 343 
Q 2819 -91 2113 -91 
Q 1303 -91 875 529 
Q 447 1150 447 2328 
Q 447 3434 972 4092 
Q 1497 4750 2381 4750 
Q 2619 4750 2861 4703 
Q 3103 4656 3366 4563 
z
" transform="scale(0.015625)"/>
       </defs>
       <use xlink:href="#DejaVuSans-36"/>
       <use xlink:href="#DejaVuSans-30" x="63.623047"/>
       <use xlink:href="#DejaVuSans-30" x="127.246094"/>
       <use xlink:href="#DejaVuSans-30" x="190.869141"/>
       <use xlink:href="#DejaVuSans-30" x="254.492188"/>
      </g>
     </g>
    </g>
    <g id="xtick_8">
     <g id="line2d_15">
      <path d="M 968.639054 374.92 
L 968.639054 37.68 
" clip-path="url(#pc223bb77ad)" style="fill: none; stroke: #b0b0b0; stroke-width: 0.8; stroke-linecap: square"/>
     </g>
     <g id="line2d_16">
      <g>
       <use xlink:href="#m9e8500c2eb" x="968.639054" y="374.92" style="stroke: #000000; stroke-width: 0.8"/>
      </g>
     </g>
     <g id="text_8">
      <!-- 70000 -->
      <g transform="translate(943.189054 394.0775) scale(0.16 -0.16)">
       <defs>
        <path id="DejaVuSans-37" d="M 525 4666 
L 3525 4666 
L 3525 4397 
L 1831 0 
L 1172 0 
L 2766 4134 
L 525 4134 
L 525 4666 
z
" transform="scale(0.015625)"/>
       </defs>
       <use xlink:href="#DejaVuSans-37"/>
       <use xlink:href="#DejaVuSans-30" x="63.623047"/>
       <use xlink:href="#DejaVuSans-30" x="127.246094"/>
       <use xlink:href="#DejaVuSans-30" x="190.869141"/>
       <use xlink:href="#DejaVuSans-30" x="254.492188"/>
      </g>
     </g>
    </g>
    <g id="text_9">
     <!-- Training Steps -->
     <g transform="translate(508.9475 413.5625) scale(0.16 -0.16)">
      <defs>
       <path id="DejaVuSans-54" d="M -19 4666 
L 3928 4666 
L 3928 4134 
L 2272 4134 
L 2272 0 
L 1638 0 
L 1638 4134 
L -19 4134 
L -19 4666 
z
" transform="scale(0.015625)"/>
       <path id="DejaVuSans-72" d="M 2631 2963 
Q 2534 3019 2420 3045 
Q 2306 3072 2169 3072 
Q 1681 3072 1420 2755 
Q 1159 2438 1159 1844 
L 1159 0 
L 581 0 
L 581 3500 
L 1159 3500 
L 1159 2956 
Q 1341 3275 1631 3429 
Q 1922 3584 2338 3584 
Q 2397 3584 2469 3576 
Q 2541 3569 2628 3553 
L 2631 2963 
z
" transform="scale(0.015625)"/>
       <path id="DejaVuSans-61" d="M 2194 1759 
Q 1497 1759 1228 1600 
Q 959 1441 959 1056 
Q 959 750 1161 570 
Q 1363 391 1709 391 
Q 2188 391 2477 730 
Q 2766 1069 2766 1631 
L 2766 1759 
L 2194 1759 
z
M 3341 1997 
L 3341 0 
L 2766 0 
L 2766 531 
Q 2569 213 2275 61 
Q 1981 -91 1556 -91 
Q 1019 -91 701 211 
Q 384 513 384 1019 
Q 384 1609 779 1909 
Q 1175 2209 1959 2209 
L 2766 2209 
L 2766 2266 
Q 2766 2663 2505 2880 
Q 2244 3097 1772 3097 
Q 1472 3097 1187 3025 
Q 903 2953 641 2809 
L 641 3341 
Q 956 3463 1253 3523 
Q 1550 3584 1831 3584 
Q 2591 3584 2966 3190 
Q 3341 2797 3341 1997 
z
" transform="scale(0.015625)"/>
       <path id="DejaVuSans-69" d="M 603 3500 
L 1178 3500 
L 1178 0 
L 603 0 
L 603 3500 
z
M 603 4863 
L 1178 4863 
L 1178 4134 
L 603 4134 
L 603 4863 
z
" transform="scale(0.015625)"/>
       <path id="DejaVuSans-6e" d="M 3513 2113 
L 3513 0 
L 2938 0 
L 2938 2094 
Q 2938 2591 2744 2837 
Q 2550 3084 2163 3084 
Q 1697 3084 1428 2787 
Q 1159 2491 1159 1978 
L 1159 0 
L 581 0 
L 581 3500 
L 1159 3500 
L 1159 2956 
Q 1366 3272 1645 3428 
Q 1925 3584 2291 3584 
Q 2894 3584 3203 3211 
Q 3513 2838 3513 2113 
z
" transform="scale(0.015625)"/>
       <path id="DejaVuSans-67" d="M 2906 1791 
Q 2906 2416 2648 2759 
Q 2391 3103 1925 3103 
Q 1463 3103 1205 2759 
Q 947 2416 947 1791 
Q 947 1169 1205 825 
Q 1463 481 1925 481 
Q 2391 481 2648 825 
Q 2906 1169 2906 1791 
z
M 3481 434 
Q 3481 -459 3084 -895 
Q 2688 -1331 1869 -1331 
Q 1566 -1331 1297 -1286 
Q 1028 -1241 775 -1147 
L 775 -588 
Q 1028 -725 1275 -790 
Q 1522 -856 1778 -856 
Q 2344 -856 2625 -561 
Q 2906 -266 2906 331 
L 2906 616 
Q 2728 306 2450 153 
Q 2172 0 1784 0 
Q 1141 0 747 490 
Q 353 981 353 1791 
Q 353 2603 747 3093 
Q 1141 3584 1784 3584 
Q 2172 3584 2450 3431 
Q 2728 3278 2906 2969 
L 2906 3500 
L 3481 3500 
L 3481 434 
z
" transform="scale(0.015625)"/>
       <path id="DejaVuSans-20" transform="scale(0.015625)"/>
       <path id="DejaVuSans-53" d="M 3425 4513 
L 3425 3897 
Q 3066 4069 2747 4153 
Q 2428 4238 2131 4238 
Q 1616 4238 1336 4038 
Q 1056 3838 1056 3469 
Q 1056 3159 1242 3001 
Q 1428 2844 1947 2747 
L 2328 2669 
Q 3034 2534 3370 2195 
Q 3706 1856 3706 1288 
Q 3706 609 3251 259 
Q 2797 -91 1919 -91 
Q 1588 -91 1214 -16 
Q 841 59 441 206 
L 441 856 
Q 825 641 1194 531 
Q 1563 422 1919 422 
Q 2459 422 2753 634 
Q 3047 847 3047 1241 
Q 3047 1584 2836 1778 
Q 2625 1972 2144 2069 
L 1759 2144 
Q 1053 2284 737 2584 
Q 422 2884 422 3419 
Q 422 4038 858 4394 
Q 1294 4750 2059 4750 
Q 2388 4750 2728 4690 
Q 3069 4631 3425 4513 
z
" transform="scale(0.015625)"/>
       <path id="DejaVuSans-74" d="M 1172 4494 
L 1172 3500 
L 2356 3500 
L 2356 3053 
L 1172 3053 
L 1172 1153 
Q 1172 725 1289 603 
Q 1406 481 1766 481 
L 2356 481 
L 2356 0 
L 1766 0 
Q 1100 0 847 248 
Q 594 497 594 1153 
L 594 3053 
L 172 3053 
L 172 3500 
L 594 3500 
L 594 4494 
L 1172 4494 
z
" transform="scale(0.015625)"/>
       <path id="DejaVuSans-65" d="M 3597 1894 
L 3597 1613 
L 953 1613 
Q 991 1019 1311 708 
Q 1631 397 2203 397 
Q 2534 397 2845 478 
Q 3156 559 3463 722 
L 3463 178 
Q 3153 47 2828 -22 
Q 2503 -91 2169 -91 
Q 1331 -91 842 396 
Q 353 884 353 1716 
Q 353 2575 817 3079 
Q 1281 3584 2069 3584 
Q 2775 3584 3186 3129 
Q 3597 2675 3597 1894 
z
M 3022 2063 
Q 3016 2534 2758 2815 
Q 2500 3097 2075 3097 
Q 1594 3097 1305 2825 
Q 1016 2553 972 2059 
L 3022 2063 
z
" transform="scale(0.015625)"/>
       <path id="DejaVuSans-70" d="M 1159 525 
L 1159 -1331 
L 581 -1331 
L 581 3500 
L 1159 3500 
L 1159 2969 
Q 1341 3281 1617 3432 
Q 1894 3584 2278 3584 
Q 2916 3584 3314 3078 
Q 3713 2572 3713 1747 
Q 3713 922 3314 415 
Q 2916 -91 2278 -91 
Q 1894 -91 1617 61 
Q 1341 213 1159 525 
z
M 3116 1747 
Q 3116 2381 2855 2742 
Q 2594 3103 2138 3103 
Q 1681 3103 1420 2742 
Q 1159 2381 1159 1747 
Q 1159 1113 1420 752 
Q 1681 391 2138 391 
Q 2594 391 2855 752 
Q 3116 1113 3116 1747 
z
" transform="scale(0.015625)"/>
       <path id="DejaVuSans-73" d="M 2834 3397 
L 2834 2853 
Q 2591 2978 2328 3040 
Q 2066 3103 1784 3103 
Q 1356 3103 1142 2972 
Q 928 2841 928 2578 
Q 928 2378 1081 2264 
Q 1234 2150 1697 2047 
L 1894 2003 
Q 2506 1872 2764 1633 
Q 3022 1394 3022 966 
Q 3022 478 2636 193 
Q 2250 -91 1575 -91 
Q 1294 -91 989 -36 
Q 684 19 347 128 
L 347 722 
Q 666 556 975 473 
Q 1284 391 1588 391 
Q 1994 391 2212 530 
Q 2431 669 2431 922 
Q 2431 1156 2273 1281 
Q 2116 1406 1581 1522 
L 1381 1569 
Q 847 1681 609 1914 
Q 372 2147 372 2553 
Q 372 3047 722 3315 
Q 1072 3584 1716 3584 
Q 2034 3584 2315 3537 
Q 2597 3491 2834 3397 
z
" transform="scale(0.015625)"/>
      </defs>
      <use xlink:href="#DejaVuSans-54"/>
      <use xlink:href="#DejaVuSans-72" x="46.333984"/>
      <use xlink:href="#DejaVuSans-61" x="87.447266"/>
      <use xlink:href="#DejaVuSans-69" x="148.726562"/>
      <use xlink:href="#DejaVuSans-6e" x="176.509766"/>
      <use xlink:href="#DejaVuSans-69" x="239.888672"/>
      <use xlink:href="#DejaVuSans-6e" x="267.671875"/>
      <use xlink:href="#DejaVuSans-67" x="331.050781"/>
      <use xlink:href="#DejaVuSans-20" x="394.527344"/>
      <use xlink:href="#DejaVuSans-53" x="426.314453"/>
      <use xlink:href="#DejaVuSans-74" x="489.791016"/>
      <use xlink:href="#DejaVuSans-65" x="529"/>
      <use xlink:href="#DejaVuSans-70" x="590.523438"/>
      <use xlink:href="#DejaVuSans-73" x="654"/>
     </g>
    </g>
   </g>
   <g id="matplotlib.axis_2">
    <g id="ytick_1">
     <g id="line2d_17">
      <path d="M 68.15 374.92 
L 1062.72 374.92 
" clip-path="url(#pc223bb77ad)" style="fill: none; stroke: #b0b0b0; stroke-width: 0.8; stroke-linecap: square"/>
     </g>
     <g id="line2d_18">
      <defs>
       <path id="m1101882da9" d="M 0 0 
L -3.5 0 
" style="stroke: #000000; stroke-width: 0.8"/>
      </defs>
      <g>
       <use xlink:href="#m1101882da9" x="68.15" y="374.92" style="stroke: #000000; stroke-width: 0.8"/>
      </g>
     </g>
     <g id="text_10">
      <!-- 1.0 -->
      <g transform="translate(35.705 380.99875) scale(0.16 -0.16)">
       <defs>
        <path id="DejaVuSans-2e" d="M 684 794 
L 1344 794 
L 1344 0 
L 684 0 
L 684 794 
z
" transform="scale(0.015625)"/>
       </defs>
       <use xlink:href="#DejaVuSans-31"/>
       <use xlink:href="#DejaVuSans-2e" x="63.623047"/>
       <use xlink:href="#DejaVuSans-30" x="95.410156"/>
      </g>
     </g>
    </g>
    <g id="ytick_2">
     <g id="line2d_19">
      <path d="M 68.15 307.472 
L 1062.72 307.472 
" clip-path="url(#pc223bb77ad)" style="fill: none; stroke: #b0b0b0; stroke-width: 0.8; stroke-linecap: square"/>
     </g>
     <g id="line2d_20">
      <g>
       <use xlink:href="#m1101882da9" x="68.15" y="307.472" style="stroke: #000000; stroke-width: 0.8"/>
      </g>
     </g>
     <g id="text_11">
      <!-- 1.2 -->
      <g transform="translate(35.705 313.55075) scale(0.16 -0.16)">
       <use xlink:href="#DejaVuSans-31"/>
       <use xlink:href="#DejaVuSans-2e" x="63.623047"/>
       <use xlink:href="#DejaVuSans-32" x="95.410156"/>
      </g>
     </g>
    </g>
    <g id="ytick_3">
     <g id="line2d_21">
      <path d="M 68.15 240.024 
L 1062.72 240.024 
" clip-path="url(#pc223bb77ad)" style="fill: none; stroke: #b0b0b0; stroke-width: 0.8; stroke-linecap: square"/>
     </g>
     <g id="line2d_22">
      <g>
       <use xlink:href="#m1101882da9" x="68.15" y="240.024" style="stroke: #000000; stroke-width: 0.8"/>
      </g>
     </g>
     <g id="text_12">
      <!-- 1.4 -->
      <g transform="translate(35.705 246.10275) scale(0.16 -0.16)">
       <use xlink:href="#DejaVuSans-31"/>
       <use xlink:href="#DejaVuSans-2e" x="63.623047"/>
       <use xlink:href="#DejaVuSans-34" x="95.410156"/>
      </g>
     </g>
    </g>
    <g id="ytick_4">
     <g id="line2d_23">
      <path d="M 68.15 172.576 
L 1062.72 172.576 
" clip-path="url(#pc223bb77ad)" style="fill: none; stroke: #b0b0b0; stroke-width: 0.8; stroke-linecap: square"/>
     </g>
     <g id="line2d_24">
      <g>
       <use xlink:href="#m1101882da9" x="68.15" y="172.576" style="stroke: #000000; stroke-width: 0.8"/>
      </g>
     </g>
     <g id="text_13">
      <!-- 1.6 -->
      <g transform="translate(35.705 178.65475) scale(0.16 -0.16)">
       <use xlink:href="#DejaVuSans-31"/>
       <use xlink:href="#DejaVuSans-2e" x="63.623047"/>
       <use xlink:href="#DejaVuSans-36" x="95.410156"/>
      </g>
     </g>
    </g>
    <g id="ytick_5">
     <g id="line2d_25">
      <path d="M 68.15 105.128 
L 1062.72 105.128 
" clip-path="url(#pc223bb77ad)" style="fill: none; stroke: #b0b0b0; stroke-width: 0.8; stroke-linecap: square"/>
     </g>
     <g id="line2d_26">
      <g>
       <use xlink:href="#m1101882da9" x="68.15" y="105.128" style="stroke: #000000; stroke-width: 0.8"/>
      </g>
     </g>
     <g id="text_14">
      <!-- 1.8 -->
      <g transform="translate(35.705 111.20675) scale(0.16 -0.16)">
       <defs>
        <path id="DejaVuSans-38" d="M 2034 2216 
Q 1584 2216 1326 1975 
Q 1069 1734 1069 1313 
Q 1069 891 1326 650 
Q 1584 409 2034 409 
Q 2484 409 2743 651 
Q 3003 894 3003 1313 
Q 3003 1734 2745 1975 
Q 2488 2216 2034 2216 
z
M 1403 2484 
Q 997 2584 770 2862 
Q 544 3141 544 3541 
Q 544 4100 942 4425 
Q 1341 4750 2034 4750 
Q 2731 4750 3128 4425 
Q 3525 4100 3525 3541 
Q 3525 3141 3298 2862 
Q 3072 2584 2669 2484 
Q 3125 2378 3379 2068 
Q 3634 1759 3634 1313 
Q 3634 634 3220 271 
Q 2806 -91 2034 -91 
Q 1263 -91 848 271 
Q 434 634 434 1313 
Q 434 1759 690 2068 
Q 947 2378 1403 2484 
z
M 1172 3481 
Q 1172 3119 1398 2916 
Q 1625 2713 2034 2713 
Q 2441 2713 2670 2916 
Q 2900 3119 2900 3481 
Q 2900 3844 2670 4047 
Q 2441 4250 2034 4250 
Q 1625 4250 1398 4047 
Q 1172 3844 1172 3481 
z
" transform="scale(0.015625)"/>
       </defs>
       <use xlink:href="#DejaVuSans-31"/>
       <use xlink:href="#DejaVuSans-2e" x="63.623047"/>
       <use xlink:href="#DejaVuSans-38" x="95.410156"/>
      </g>
     </g>
    </g>
    <g id="ytick_6">
     <g id="line2d_27">
      <path d="M 68.15 37.68 
L 1062.72 37.68 
" clip-path="url(#pc223bb77ad)" style="fill: none; stroke: #b0b0b0; stroke-width: 0.8; stroke-linecap: square"/>
     </g>
     <g id="line2d_28">
      <g>
       <use xlink:href="#m1101882da9" x="68.15" y="37.68" style="stroke: #000000; stroke-width: 0.8"/>
      </g>
     </g>
     <g id="text_15">
      <!-- 2.0 -->
      <g transform="translate(35.705 43.75875) scale(0.16 -0.16)">
       <use xlink:href="#DejaVuSans-32"/>
       <use xlink:href="#DejaVuSans-2e" x="63.623047"/>
       <use xlink:href="#DejaVuSans-30" x="95.410156"/>
      </g>
     </g>
    </g>
    <g id="text_16">
     <!-- Bits Per Character -->
     <g transform="translate(28.3775 278.64125) rotate(-90) scale(0.16 -0.16)">
      <defs>
       <path id="DejaVuSans-42" d="M 1259 2228 
L 1259 519 
L 2272 519 
Q 2781 519 3026 730 
Q 3272 941 3272 1375 
Q 3272 1813 3026 2020 
Q 2781 2228 2272 2228 
L 1259 2228 
z
M 1259 4147 
L 1259 2741 
L 2194 2741 
Q 2656 2741 2882 2914 
Q 3109 3088 3109 3444 
Q 3109 3797 2882 3972 
Q 2656 4147 2194 4147 
L 1259 4147 
z
M 628 4666 
L 2241 4666 
Q 2963 4666 3353 4366 
Q 3744 4066 3744 3513 
Q 3744 3084 3544 2831 
Q 3344 2578 2956 2516 
Q 3422 2416 3680 2098 
Q 3938 1781 3938 1306 
Q 3938 681 3513 340 
Q 3088 0 2303 0 
L 628 0 
L 628 4666 
z
" transform="scale(0.015625)"/>
       <path id="DejaVuSans-50" d="M 1259 4147 
L 1259 2394 
L 2053 2394 
Q 2494 2394 2734 2622 
Q 2975 2850 2975 3272 
Q 2975 3691 2734 3919 
Q 2494 4147 2053 4147 
L 1259 4147 
z
M 628 4666 
L 2053 4666 
Q 2838 4666 3239 4311 
Q 3641 3956 3641 3272 
Q 3641 2581 3239 2228 
Q 2838 1875 2053 1875 
L 1259 1875 
L 1259 0 
L 628 0 
L 628 4666 
z
" transform="scale(0.015625)"/>
       <path id="DejaVuSans-43" d="M 4122 4306 
L 4122 3641 
Q 3803 3938 3442 4084 
Q 3081 4231 2675 4231 
Q 1875 4231 1450 3742 
Q 1025 3253 1025 2328 
Q 1025 1406 1450 917 
Q 1875 428 2675 428 
Q 3081 428 3442 575 
Q 3803 722 4122 1019 
L 4122 359 
Q 3791 134 3420 21 
Q 3050 -91 2638 -91 
Q 1578 -91 968 557 
Q 359 1206 359 2328 
Q 359 3453 968 4101 
Q 1578 4750 2638 4750 
Q 3056 4750 3426 4639 
Q 3797 4528 4122 4306 
z
" transform="scale(0.015625)"/>
       <path id="DejaVuSans-68" d="M 3513 2113 
L 3513 0 
L 2938 0 
L 2938 2094 
Q 2938 2591 2744 2837 
Q 2550 3084 2163 3084 
Q 1697 3084 1428 2787 
Q 1159 2491 1159 1978 
L 1159 0 
L 581 0 
L 581 4863 
L 1159 4863 
L 1159 2956 
Q 1366 3272 1645 3428 
Q 1925 3584 2291 3584 
Q 2894 3584 3203 3211 
Q 3513 2838 3513 2113 
z
" transform="scale(0.015625)"/>
       <path id="DejaVuSans-63" d="M 3122 3366 
L 3122 2828 
Q 2878 2963 2633 3030 
Q 2388 3097 2138 3097 
Q 1578 3097 1268 2742 
Q 959 2388 959 1747 
Q 959 1106 1268 751 
Q 1578 397 2138 397 
Q 2388 397 2633 464 
Q 2878 531 3122 666 
L 3122 134 
Q 2881 22 2623 -34 
Q 2366 -91 2075 -91 
Q 1284 -91 818 406 
Q 353 903 353 1747 
Q 353 2603 823 3093 
Q 1294 3584 2113 3584 
Q 2378 3584 2631 3529 
Q 2884 3475 3122 3366 
z
" transform="scale(0.015625)"/>
      </defs>
      <use xlink:href="#DejaVuSans-42"/>
      <use xlink:href="#DejaVuSans-69" x="68.603516"/>
      <use xlink:href="#DejaVuSans-74" x="96.386719"/>
      <use xlink:href="#DejaVuSans-73" x="135.595703"/>
      <use xlink:href="#DejaVuSans-20" x="187.695312"/>
      <use xlink:href="#DejaVuSans-50" x="219.482422"/>
      <use xlink:href="#DejaVuSans-65" x="276.160156"/>
      <use xlink:href="#DejaVuSans-72" x="337.683594"/>
      <use xlink:href="#DejaVuSans-20" x="378.796875"/>
      <use xlink:href="#DejaVuSans-43" x="410.583984"/>
      <use xlink:href="#DejaVuSans-68" x="480.408203"/>
      <use xlink:href="#DejaVuSans-61" x="543.787109"/>
      <use xlink:href="#DejaVuSans-72" x="605.066406"/>
      <use xlink:href="#DejaVuSans-61" x="646.179688"/>
      <use xlink:href="#DejaVuSans-63" x="707.458984"/>
      <use xlink:href="#DejaVuSans-74" x="762.439453"/>
      <use xlink:href="#DejaVuSans-65" x="801.648438"/>
      <use xlink:href="#DejaVuSans-72" x="863.171875"/>
     </g>
    </g>
   </g>
   <g id="line2d_29">
    <path d="M 121.005947 -1 
L 121.299625 12.488172 
L 121.910541 29.653688 
L 122.521456 62.736932 
L 123.132371 37.646276 
L 124.354201 75.214812 
L 124.965117 78.013904 
L 125.576032 89.682408 
L 126.186947 87.895036 
L 126.797862 102.396356 
L 127.408778 98.450648 
L 128.019693 130.151208 
L 128.630608 132.646784 
L 129.852439 113.626448 
L 130.463354 138.548484 
L 131.074269 124.68792 
L 131.685184 130.050036 
L 132.2961 153.01608 
L 132.907015 129.139488 
L 134.128845 155.477932 
L 134.73976 139.391584 
L 135.350676 159.76088 
L 135.961591 154.601108 
L 136.572506 138.244968 
L 137.183421 132.1072 
L 137.794337 143.000052 
L 138.405252 142.831432 
L 139.016167 169.405944 
L 140.237998 158.310748 
L 140.848913 164.448516 
L 141.459828 158.41192 
L 142.681658 174.734336 
L 143.292574 162.29018 
L 143.903489 172.07014 
L 144.514404 159.288744 
L 145.125319 164.414792 
L 145.736235 171.22704 
L 146.34715 186.301668 
L 146.958065 181.715204 
L 147.56898 169.911804 
L 148.179896 166.876644 
L 148.790811 186.200496 
L 149.401726 186.166772 
L 150.623557 192.13592 
L 151.234472 173.048136 
L 151.845387 182.558304 
L 152.456302 186.807528 
L 153.067217 196.216524 
L 153.678133 208.49206 
L 154.289048 178.848664 
L 154.899963 187.009872 
L 155.510878 188.999588 
L 156.121794 192.338264 
L 156.732709 190.146204 
L 157.343624 196.081628 
L 157.954539 193.518604 
L 158.565455 193.552328 
L 159.17637 210.414328 
L 159.787285 200.432024 
L 160.3982 199.487752 
L 161.009115 192.13592 
L 161.620031 191.157924 
L 162.230946 193.82212 
L 162.841861 202.118224 
L 163.452776 202.219396 
L 164.063692 187.549456 
L 164.674607 189.168208 
L 165.285522 207.075652 
L 165.896437 208.053648 
L 166.507353 215.203136 
L 167.118268 202.185672 
L 167.729183 198.509756 
L 168.340098 189.77524 
L 168.951014 198.610928 
L 169.561929 200.162232 
L 170.172844 199.588924 
L 170.783759 213.280868 
L 171.394674 221.914212 
L 172.00559 214.427484 
L 172.616505 204.546352 
L 173.22742 217.125404 
L 173.838335 218.676708 
L 175.060166 202.050776 
L 175.671081 198.071344 
L 176.281996 204.917316 
L 176.892912 208.121096 
L 177.503827 215.978788 
L 178.114742 202.185672 
L 178.725657 201.207676 
L 179.336572 196.418868 
L 179.947488 206.266276 
L 180.558403 207.210548 
L 181.169318 210.245708 
L 181.780233 211.763288 
L 182.391149 217.76616 
L 183.002064 220.46408 
L 183.612979 221.914212 
L 184.223894 230.277764 
L 184.83481 228.692736 
L 185.445725 225.01682 
L 186.05664 213.71928 
L 186.667555 222.65614 
L 187.278471 214.123968 
L 187.889386 211.69584 
L 188.500301 200.432024 
L 189.111216 225.725024 
L 189.722131 221.610696 
L 190.333047 209.908468 
L 190.943962 216.484648 
L 191.554877 220.362908 
L 192.165792 214.89962 
L 192.776708 198.003896 
L 193.998538 212.943628 
L 194.609453 214.697276 
L 195.220369 220.059392 
L 195.831284 200.90416 
L 197.053114 217.732436 
L 197.664029 222.925932 
L 198.274945 237.83194 
L 198.88586 224.477236 
L 199.496775 233.515268 
L 200.10769 235.370088 
L 200.718606 236.6516 
L 201.329521 238.438972 
L 201.940436 219.418636 
L 202.551351 216.889336 
L 203.162267 220.598976 
L 203.773182 221.206008 
L 204.384097 238.405248 
L 204.995012 246.903696 
L 205.605928 249.97258 
L 206.216843 240.462412 
L 206.827758 236.213188 
L 207.438673 228.89508 
L 208.049588 232.233756 
L 208.660504 228.456668 
L 209.271419 235.13402 
L 209.882334 233.987404 
L 210.493249 255.267248 
L 211.104165 250.242372 
L 211.71508 227.107708 
L 212.325995 237.123736 
L 212.93691 241.37296 
L 213.547826 239.01228 
L 214.158741 241.339236 
L 214.769656 236.550428 
L 215.380571 245.386116 
L 215.991486 238.641316 
L 216.602402 257.762824 
L 217.213317 254.221804 
L 217.824232 240.091448 
L 218.435147 237.629596 
L 219.046063 255.469592 
L 220.267893 239.1809 
L 220.878808 254.997456 
L 221.489724 235.538708 
L 222.100639 247.982864 
L 222.711554 246.499008 
L 223.322469 237.629596 
L 223.933385 249.669064 
L 224.5443 246.465284 
L 225.155215 227.647292 
L 225.76613 219.047672 
L 226.377045 227.984532 
L 226.987961 230.007972 
L 227.598876 247.746796 
L 228.209791 246.161768 
L 228.820706 241.03572 
L 229.431622 241.7102 
L 230.042537 236.280636 
L 230.653452 246.229216 
L 231.264367 242.89054 
L 231.875283 237.359804 
L 232.486198 244.846532 
L 233.097113 233.987404 
L 233.708028 235.774776 
L 234.318943 241.238064 
L 234.929859 257.526756 
L 235.540774 245.0826 
L 236.151689 236.044568 
L 236.762604 236.010844 
L 237.37352 256.245244 
L 237.984435 248.151484 
L 238.59535 254.053184 
L 239.206265 249.399272 
L 239.817181 235.032848 
L 240.428096 247.94914 
L 241.039011 247.915416 
L 241.649926 259.010612 
L 242.260842 257.7291 
L 242.871757 236.516704 
L 243.482672 248.320104 
L 244.093587 244.91398 
L 244.704502 247.982864 
L 245.315418 241.54158 
L 245.926333 254.963732 
L 246.537248 243.194056 
L 247.148163 251.085472 
L 247.759079 264.709968 
L 248.369994 251.861124 
L 248.980909 251.8274 
L 249.591824 244.711636 
L 250.20274 245.284944 
L 250.813655 240.69848 
L 251.42457 253.142636 
L 252.035485 252.940292 
L 252.6464 230.91852 
L 253.868231 256.447588 
L 254.479146 258.605924 
L 255.090061 257.526756 
L 255.700977 252.805396 
L 256.311892 237.427252 
L 256.922807 233.78506 
L 257.533722 248.185208 
L 258.144638 241.811372 
L 258.755553 246.060596 
L 259.977383 265.451896 
L 260.588299 254.154356 
L 261.199214 245.58846 
L 261.810129 263.192388 
L 263.031959 251.557608 
L 263.642875 239.85538 
L 264.25379 242.114888 
L 264.864705 241.54158 
L 265.47562 253.378704 
L 266.086536 253.918288 
L 266.697451 241.676476 
L 267.308366 244.138328 
L 267.919281 229.56956 
L 268.530197 249.736512 
L 269.141112 250.81568 
L 269.752027 246.229216 
L 270.362942 254.053184 
L 270.973857 254.69394 
L 271.584773 261.303844 
L 272.195688 255.604488 
L 272.806603 269.768568 
L 273.417518 269.228984 
L 274.028434 254.69394 
L 274.639349 253.108912 
L 275.250264 261.168948 
L 275.861179 248.252656 
L 276.472095 241.474132 
L 277.08301 240.597308 
L 277.693925 256.177796 
L 278.30484 255.233524 
L 278.915756 246.195492 
L 279.526671 248.11776 
L 280.137586 253.210084 
L 280.748501 249.432996 
L 281.359416 228.861356 
L 281.970332 237.562148 
L 282.581247 248.691068 
L 283.192162 246.09432 
L 283.803077 250.613336 
L 284.413993 233.44782 
L 285.024908 244.2395 
L 285.635823 249.702788 
L 286.857654 266.49734 
L 287.468569 251.759952 
L 288.079484 271.859456 
L 288.690399 262.146944 
L 289.301314 266.463616 
L 289.91223 268.18354 
L 290.523145 250.276096 
L 291.13406 246.836248 
L 291.744975 250.883128 
L 292.355891 256.009176 
L 292.966806 267.913748 
L 294.188636 281.538244 
L 294.799552 262.686528 
L 295.410467 269.36388 
L 296.021382 254.795112 
L 296.632297 263.866868 
L 297.243213 258.336132 
L 297.854128 257.594204 
L 298.465043 266.362444 
L 299.075958 283.494236 
L 299.686873 278.267016 
L 300.297789 254.727664 
L 300.908704 267.070648 
L 301.519619 262.922596 
L 302.130534 268.487056 
L 302.74145 268.149816 
L 303.352365 271.05008 
L 303.96328 268.655676 
L 304.574195 266.969476 
L 305.185111 286.124708 
L 305.796026 276.985504 
L 306.406941 263.731972 
L 307.017856 266.902028 
L 307.628771 280.020664 
L 308.239687 278.098396 
L 308.850602 265.789136 
L 309.461517 275.299304 
L 310.072432 262.652804 
L 310.683348 273.07352 
L 311.294263 272.972348 
L 311.905178 263.495904 
L 312.516093 272.635108 
L 313.127009 265.418172 
L 313.737924 251.085472 
L 314.348839 244.57674 
L 314.959754 250.276096 
L 315.57067 257.290688 
L 316.181585 271.353596 
L 316.7925 263.46218 
L 317.403415 267.441612 
L 318.625246 260.629364 
L 319.236161 271.117528 
L 319.847076 266.193824 
L 320.457991 258.808268 
L 321.068907 266.294996 
L 321.679822 256.447588 
L 322.290737 259.179232 
L 322.901652 260.797984 
L 323.512568 289.564556 
L 324.123483 264.946036 
L 324.734398 255.604488 
L 325.345313 261.236396 
L 325.956229 279.076392 
L 326.567144 270.308152 
L 327.178059 273.478208 
L 327.788974 270.679116 
L 328.399889 260.08978 
L 329.010805 267.17182 
L 329.62172 268.992916 
L 330.232635 285.011816 
L 331.454466 257.526756 
L 332.065381 271.252424 
L 332.676296 269.127812 
L 333.287211 268.891744 
L 333.898127 258.841992 
L 334.509042 274.25386 
L 335.119957 264.64252 
L 336.341787 281.302176 
L 336.952703 275.333028 
L 337.563618 271.825732 
L 338.174533 266.564788 
L 338.785448 264.237832 
L 339.396364 263.226112 
L 340.007279 270.443048 
L 340.618194 273.444484 
L 341.229109 250.040028 
L 342.45094 277.052952 
L 343.061855 281.50452 
L 344.283686 268.385884 
L 344.894601 253.985736 
L 345.505516 253.5136 
L 346.116431 272.601384 
L 346.727346 254.390424 
L 347.338262 268.621952 
L 348.560092 283.595408 
L 349.781923 264.743692 
L 350.392838 277.423916 
L 351.003753 276.850608 
L 351.614668 269.397604 
L 352.225584 253.34498 
L 352.836499 265.48562 
L 353.447414 256.009176 
L 354.058329 269.667396 
L 354.669244 271.758284 
L 355.28016 260.123504 
L 355.891075 262.95632 
L 356.50199 247.78052 
L 357.112905 267.036924 
L 357.723821 271.252424 
L 358.334736 266.463616 
L 358.945651 268.6894 
L 359.556566 270.409324 
L 360.167482 280.695144 
L 360.778397 272.466488 
L 361.389312 284.843196 
L 362.000227 288.687732 
L 362.611143 270.03836 
L 363.222058 270.577944 
L 363.832973 277.28902 
L 364.443888 264.440176 
L 365.054803 254.86256 
L 365.665719 265.957756 
L 366.276634 268.116092 
L 366.887549 268.116092 
L 367.498464 266.092652 
L 368.10938 261.27012 
L 368.720295 272.39904 
L 369.33121 264.575072 
L 369.942125 243.22778 
L 371.774871 270.20698 
L 372.385786 260.966604 
L 372.996701 250.040028 
L 373.607617 262.45046 
L 374.218532 263.698248 
L 374.829447 275.063236 
L 375.440362 282.651136 
L 376.051278 266.362444 
L 376.662193 288.9238 
L 377.273108 277.187848 
L 377.884023 283.123272 
L 378.494939 277.423916 
L 379.105854 262.585356 
L 379.716769 266.564788 
L 380.327684 264.777416 
L 380.9386 276.074956 
L 381.549515 280.391628 
L 382.16043 288.148148 
L 382.771345 300.05272 
L 383.38226 280.83004 
L 383.993176 277.693708 
L 384.604091 268.756848 
L 385.215006 278.098396 
L 385.825921 271.657112 
L 386.436837 275.366752 
L 387.047752 280.627696 
L 387.658667 299.985272 
L 388.269582 290.475104 
L 388.880498 271.252424 
L 389.491413 280.15556 
L 390.102328 281.16728 
L 390.713243 279.379908 
L 391.324158 278.368188 
L 391.935074 295.83722 
L 392.545989 277.558812 
L 393.156904 284.337336 
L 393.767819 299.614308 
L 394.98965 276.61454 
L 395.600565 282.044104 
L 396.21148 293.47654 
L 396.822396 290.036692 
L 397.433311 283.932648 
L 398.044226 287.878356 
L 398.655141 278.233292 
L 399.266057 283.966372 
L 399.876972 284.303612 
L 400.487887 279.953216 
L 401.098802 287.777184 
L 401.709717 276.311024 
L 402.320633 262.383012 
L 402.931548 260.59564 
L 403.542463 259.718816 
L 404.153378 275.4342 
L 404.764294 285.517676 
L 405.375209 271.994352 
L 405.986124 280.560248 
L 406.597039 279.110116 
L 407.207955 272.56766 
L 407.81887 286.799188 
L 408.429785 276.547092 
L 409.0407 270.443048 
L 409.651615 278.874048 
L 410.262531 269.86974 
L 410.873446 271.960628 
L 411.484361 276.007508 
L 412.095276 302.818088 
L 412.706192 273.714276 
L 413.317107 269.937188 
L 413.928022 280.32418 
L 414.538937 288.350492 
L 415.149853 278.907772 
L 415.760768 288.283044 
L 416.371683 280.459076 
L 416.982598 277.154124 
L 417.593514 279.008944 
L 418.204429 281.302176 
L 418.815344 300.322512 
L 419.426259 276.78316 
L 420.037174 271.454768 
L 420.64809 283.898924 
L 421.259005 283.123272 
L 421.86992 277.997224 
L 422.480835 274.152688 
L 423.091751 284.168716 
L 423.702666 278.267016 
L 424.313581 291.149584 
L 424.924496 287.844632 
L 425.535412 290.542552 
L 426.146327 280.762592 
L 426.757242 278.199568 
L 427.368157 274.860892 
L 427.979072 277.929776 
L 428.589988 282.920928 
L 429.200903 282.988376 
L 429.811818 258.841992 
L 430.422733 280.290456 
L 431.033649 284.944368 
L 431.644564 294.65688 
L 432.255479 284.674576 
L 432.866394 280.560248 
L 433.47731 262.079496 
L 434.088225 272.162972 
L 434.69914 278.098396 
L 435.310055 268.318436 
L 435.920971 280.357904 
L 436.531886 290.137864 
L 437.142801 292.329924 
L 438.364631 275.4342 
L 438.975547 288.384216 
L 439.586462 291.554272 
L 440.197377 278.604256 
L 440.808292 259.550196 
L 441.419208 278.165844 
L 442.030123 267.17182 
L 442.641038 283.797752 
L 443.251953 280.425352 
L 443.862869 269.566224 
L 444.473784 273.140968 
L 445.084699 257.998892 
L 445.695614 280.121836 
L 446.306529 283.662856 
L 446.917445 274.017792 
L 447.52836 286.360776 
L 448.139275 274.894616 
L 448.75019 290.070416 
L 449.361106 286.05726 
L 450.582936 300.592304 
L 451.193851 278.267016 
L 451.804767 283.561684 
L 452.415682 286.05726 
L 453.637512 262.720252 
L 454.248428 280.357904 
L 454.859343 275.063236 
L 455.470258 276.007508 
L 456.081173 282.280172 
L 456.692088 270.308152 
L 457.303004 280.66142 
L 457.913919 272.702556 
L 458.524834 258.673372 
L 459.135749 256.481312 
L 460.35758 285.315332 
L 460.968495 265.721688 
L 461.57941 260.561916 
L 462.190326 276.243576 
L 462.801241 272.466488 
L 463.412156 285.5514 
L 464.023071 294.99412 
L 464.633986 274.658548 
L 465.244902 301.334232 
L 465.855817 287.203876 
L 466.466732 290.77862 
L 467.077647 281.808036 
L 467.688563 275.906336 
L 468.299478 275.164408 
L 468.910393 278.772876 
L 469.521308 287.541116 
L 470.132224 290.61 
L 470.743139 298.332796 
L 471.354054 303.323948 
L 471.964969 291.95896 
L 472.575885 288.822628 
L 473.1868 274.118964 
L 473.797715 287.170152 
L 474.40863 285.21416 
L 475.019545 285.450228 
L 475.630461 290.711172 
L 476.241376 308.753512 
L 477.463206 281.538244 
L 478.074122 292.80206 
L 478.685037 289.26104 
L 479.295952 290.744896 
L 479.906867 285.787468 
L 480.517783 308.65234 
L 481.128698 285.585124 
L 481.739613 292.667164 
L 482.350528 308.922132 
L 482.961443 295.769772 
L 483.572359 285.618848 
L 484.183274 297.253628 
L 484.794189 298.02928 
L 485.405104 302.649468 
L 486.01602 293.678884 
L 486.626935 288.519112 
L 487.23785 293.30792 
L 487.848765 295.736048 
L 488.459681 285.88864 
L 489.070596 295.567428 
L 489.681511 293.678884 
L 490.292426 283.291892 
L 490.903342 267.374164 
L 491.514257 275.26558 
L 492.125172 263.394732 
L 492.736087 287.338772 
L 493.347002 293.712608 
L 493.957918 281.84176 
L 494.568833 288.788904 
L 495.179748 284.87692 
L 495.790663 285.483952 
L 496.401579 295.904668 
L 497.012494 280.796316 
L 497.623409 285.72002 
L 498.234324 281.3359 
L 498.84524 279.042668 
L 499.456155 281.268452 
L 500.06707 289.497108 
L 500.677985 310.237368 
L 501.2889 280.897488 
L 501.899816 279.211288 
L 502.510731 290.340208 
L 503.121646 295.938392 
L 503.732561 285.315332 
L 504.343477 298.602588 
L 504.954392 289.159868 
L 505.565307 285.618848 
L 506.176222 287.439944 
L 506.787138 286.664292 
L 507.398053 313.947008 
L 508.008968 280.627696 
L 508.619883 282.077828 
L 509.230799 291.655444 
L 509.841714 292.734612 
L 510.452629 285.247884 
L 511.063544 285.652572 
L 511.674459 287.136428 
L 512.285375 290.576276 
L 512.89629 304.470564 
L 513.507205 291.79034 
L 514.11812 298.130452 
L 514.729036 286.866636 
L 515.339951 284.134992 
L 515.950866 287.305048 
L 516.561781 283.932648 
L 517.172697 293.611436 
L 517.783612 285.483952 
L 518.394527 269.262708 
L 519.005442 290.846068 
L 519.616357 292.768336 
L 520.227273 304.301944 
L 520.838188 289.227316 
L 521.449103 286.428224 
L 522.060018 269.262708 
L 522.670934 280.223008 
L 523.281849 285.281608 
L 523.892764 280.526524 
L 524.503679 292.12758 
L 525.114595 300.592304 
L 525.72551 298.433968 
L 526.336425 288.58656 
L 526.94734 285.416504 
L 527.558256 301.604024 
L 528.169171 291.587996 
L 528.780086 284.674576 
L 529.391001 266.699684 
L 530.001916 285.011816 
L 530.612832 275.400476 
L 531.223747 294.252192 
L 531.834662 287.878356 
L 532.445577 275.906336 
L 533.056493 280.593972 
L 533.667408 268.824296 
L 534.278323 283.8652 
L 534.889238 291.62172 
L 535.500154 282.145276 
L 536.111069 293.442816 
L 536.721984 286.73174 
L 537.332899 296.68032 
L 537.943814 297.085008 
L 538.55473 301.705196 
L 539.165645 304.234496 
L 539.77656 283.460512 
L 540.387475 294.791776 
L 541.609306 284.067544 
L 542.220221 267.138096 
L 542.831136 289.26104 
L 543.442052 282.549964 
L 544.052967 279.6497 
L 544.663882 290.542552 
L 545.274797 281.942932 
L 545.885713 289.294764 
L 546.496628 268.318436 
L 547.107543 272.500212 
L 547.718458 268.621952 
L 548.329373 277.154124 
L 548.940289 289.7669 
L 549.551204 272.803728 
L 550.162119 268.01492 
L 550.773034 285.686296 
L 551.38395 278.874048 
L 551.994865 296.477976 
L 552.60578 299.681756 
L 553.216695 284.404784 
L 553.827611 306.29166 
L 554.438526 294.31964 
L 555.049441 300.153892 
L 555.660356 283.69658 
L 556.271271 284.87692 
L 556.882187 278.97522 
L 557.493102 285.922364 
L 558.104017 298.164176 
L 558.714932 299.951548 
L 559.325848 306.12304 
L 559.936763 307.539448 
L 560.547678 295.736048 
L 561.158593 298.906104 
L 561.769509 281.84176 
L 562.380424 289.733176 
L 562.991339 293.881228 
L 563.602254 293.206748 
L 564.21317 301.165612 
L 564.824085 314.958728 
L 565.435 297.624592 
L 566.045915 286.360776 
L 566.65683 299.951548 
L 567.267746 297.624592 
L 567.878661 297.624592 
L 568.489576 297.928108 
L 569.100491 307.202208 
L 569.711407 296.00584 
L 570.322322 305.44856 
L 570.933237 310.709504 
L 571.544152 303.020432 
L 572.155068 290.677448 
L 572.765983 311.316536 
L 573.376898 300.018996 
L 573.987813 308.247652 
L 574.598729 301.604024 
L 575.209644 293.409092 
L 575.820559 298.265348 
L 576.431474 306.257936 
L 577.042389 290.137864 
L 577.653305 305.886972 
L 578.26422 300.018996 
L 579.48605 271.184976 
L 580.096966 285.787468 
L 580.707881 269.70112 
L 581.318796 297.995556 
L 581.929711 299.074724 
L 582.540627 289.665728 
L 583.151542 293.038128 
L 583.762457 291.689168 
L 584.373372 292.734612 
L 584.984287 303.2565 
L 585.595203 285.686296 
L 586.206118 297.489696 
L 586.817033 281.099832 
L 587.427948 284.640852 
L 588.038864 289.294764 
L 588.649779 304.032152 
L 589.260694 308.449996 
L 589.871609 286.192156 
L 590.482525 286.967808 
L 591.09344 300.55858 
L 591.704355 297.422248 
L 592.31527 297.118732 
L 592.926186 303.829808 
L 593.537101 289.058696 
L 594.148016 296.107012 
L 594.758931 291.048412 
L 595.369846 296.781492 
L 595.980762 319.848708 
L 596.591677 287.001532 
L 597.202592 291.95896 
L 597.813507 292.565992 
L 598.424423 298.501416 
L 599.035338 292.700888 
L 599.646253 292.093856 
L 600.257168 291.756616 
L 600.868084 298.1979 
L 601.478999 314.081904 
L 602.089914 297.051284 
L 602.700829 303.796084 
L 603.311744 288.890076 
L 603.92266 293.173024 
L 604.533575 291.385652 
L 605.14449 296.039564 
L 605.755405 297.961832 
L 606.366321 290.036692 
L 606.977236 276.513368 
L 607.588151 297.725764 
L 608.809982 307.775516 
L 609.420897 294.016124 
L 610.031812 291.318204 
L 610.642727 277.221572 
L 611.253643 285.112988 
L 611.864558 289.159868 
L 612.475473 288.788904 
L 613.086388 300.086444 
L 613.697303 309.1582 
L 614.308219 302.07616 
L 614.919134 291.149584 
L 615.530049 299.951548 
L 616.140964 303.290224 
L 617.362795 286.967808 
L 617.97371 274.894616 
L 618.584625 290.070416 
L 619.195541 283.966372 
L 619.806456 300.356236 
L 620.417371 290.744896 
L 621.028286 284.269888 
L 621.639201 283.156996 
L 622.250117 279.919492 
L 622.861032 288.9238 
L 623.471947 292.734612 
L 624.082862 293.847504 
L 624.693778 298.400244 
L 625.304693 291.992684 
L 625.915608 302.447124 
L 626.526523 305.684628 
L 627.137439 303.59374 
L 627.748354 309.933852 
L 628.359269 292.329924 
L 628.970184 297.01756 
L 629.5811 295.938392 
L 630.192015 287.507392 
L 630.80293 271.623388 
L 631.413845 298.096728 
L 632.635676 281.201004 
L 633.246591 297.995556 
L 633.857506 287.676012 
L 634.468421 295.230188 
L 635.079337 270.20698 
L 635.690252 275.838888 
L 636.301167 278.30074 
L 636.912082 287.136428 
L 637.522998 293.409092 
L 638.133913 273.444484 
L 638.744828 274.051516 
L 639.355743 295.803496 
L 639.966658 286.192156 
L 640.577574 306.392832 
L 641.188489 297.321076 
L 641.799404 294.623156 
L 642.410319 308.719788 
L 643.021235 301.90754 
L 643.63215 306.156764 
L 644.243065 287.170152 
L 644.85398 288.721456 
L 645.464896 289.564556 
L 646.075811 291.79034 
L 647.297641 310.0013 
L 647.908557 312.69922 
L 648.519472 310.203644 
L 649.130387 300.963268 
L 649.741302 302.042436 
L 650.352217 291.217032 
L 650.963133 295.297636 
L 652.184963 298.737484 
L 653.406794 323.221108 
L 654.017709 293.071852 
L 654.628624 297.928108 
L 655.239539 307.370828 
L 655.850455 299.580584 
L 656.46137 305.684628 
L 657.072285 301.40168 
L 657.6832 312.429428 
L 658.294115 301.604024 
L 658.905031 314.486592 
L 659.515946 312.564324 
L 660.126861 309.023304 
L 660.737776 295.027844 
L 661.348692 320.388292 
L 661.959607 305.077596 
L 662.570522 305.347388 
L 663.181437 313.238804 
L 663.792353 297.051284 
L 665.014183 311.249088 
L 665.625098 293.038128 
L 666.236014 314.081904 
L 666.846929 303.76236 
L 668.068759 274.456204 
L 668.679674 289.868072 
L 669.29059 280.762592 
L 669.901505 305.7858 
L 670.51242 299.917824 
L 671.123335 295.263912 
L 671.734251 297.624592 
L 672.345166 295.33136 
L 672.956081 303.155328 
L 673.566996 302.447124 
L 674.177912 290.643724 
L 674.788827 304.807804 
L 675.399742 289.26104 
L 676.010657 288.552836 
L 677.232488 308.618616 
L 677.843403 308.045308 
L 678.454318 294.184744 
L 679.065233 289.395936 
L 679.676149 309.259372 
L 680.287064 302.885536 
L 680.897979 304.841528 
L 681.508894 303.76236 
L 682.11981 295.095292 
L 682.730725 299.142172 
L 683.34164 298.501416 
L 683.952555 304.807804 
L 684.563471 319.2754 
L 685.174386 290.846068 
L 685.785301 300.626028 
L 686.396216 298.130452 
L 687.007131 300.38996 
L 687.618047 298.063004 
L 688.228962 299.108448 
L 688.839877 298.063004 
L 689.450792 301.840092 
L 690.061708 316.611204 
L 690.672623 306.831244 
L 691.283538 305.7858 
L 691.894453 294.690604 
L 692.505369 295.533704 
L 693.116284 296.882664 
L 693.727199 300.996992 
L 694.338114 302.716916 
L 694.949029 288.890076 
L 695.559945 286.158432 
L 696.17086 305.718352 
L 696.781775 307.64062 
L 697.39269 312.294532 
L 698.003606 296.545424 
L 698.614521 293.746332 
L 699.225436 281.740588 
L 699.836351 293.071852 
L 700.447267 293.47654 
L 701.058182 294.083572 
L 702.280012 316.341412 
L 703.501843 293.341644 
L 704.112758 305.853248 
L 704.723673 308.719788 
L 705.945504 291.048412 
L 706.556419 283.426788 
L 707.167334 293.004404 
L 707.778249 291.756616 
L 708.389165 304.9427 
L 709.00008 291.4531 
L 709.610995 289.868072 
L 710.22191 285.450228 
L 710.832826 291.824064 
L 711.443741 293.375368 
L 712.054656 294.555708 
L 712.665571 297.86066 
L 713.276486 304.133324 
L 713.887402 305.549732 
L 714.498317 304.43684 
L 715.109232 311.451432 
L 715.720147 308.112756 
L 716.331063 308.888408 
L 716.941978 297.624592 
L 717.552893 302.447124 
L 718.774724 291.891512 
L 719.385639 279.245012 
L 719.996554 302.683192 
L 720.607469 296.34308 
L 721.218385 286.259604 
L 721.8293 297.3548 
L 722.440215 298.771208 
L 723.05113 293.64516 
L 723.662045 274.793444 
L 724.272961 278.63798 
L 724.883876 287.541116 
L 725.494791 290.137864 
L 726.105706 294.117296 
L 726.716622 279.076392 
L 727.327537 284.505956 
L 727.938452 291.992684 
L 728.549367 295.263912 
L 729.160283 310.67578 
L 729.771198 298.400244 
L 730.382113 305.077596 
L 730.993028 309.697784 
L 731.603943 307.539448 
L 732.214859 311.552604 
L 732.825774 292.532268 
L 733.436689 290.980964 
L 734.047604 295.061568 
L 734.65852 295.567428 
L 735.269435 308.65234 
L 735.88035 317.015892 
L 736.491265 316.7461 
L 737.102181 309.630336 
L 737.713096 306.527728 
L 738.324011 300.018996 
L 738.934926 299.71548 
L 739.545842 297.725764 
L 740.156757 303.08788 
L 740.767672 302.042436 
L 741.378587 324.199104 
L 741.989502 318.26368 
L 742.600418 297.826936 
L 743.211333 305.11132 
L 743.822248 309.023304 
L 744.433163 307.438276 
L 745.044079 309.866404 
L 745.654994 306.864968 
L 746.265909 315.633208 
L 746.876824 305.145044 
L 747.48774 323.760692 
L 748.098655 317.791544 
L 748.70957 307.876688 
L 749.320485 303.121604 
L 749.9314 324.468896 
L 750.542316 311.721224 
L 751.153231 305.145044 
L 751.764146 318.735816 
L 752.375061 302.447124 
L 752.985977 311.282812 
L 753.596892 310.0013 
L 754.207807 299.614308 
L 754.818722 314.38542 
L 755.429638 308.213928 
L 756.040553 291.992684 
L 756.651468 280.020664 
L 757.262383 290.205312 
L 757.873299 289.395936 
L 758.484214 310.0013 
L 759.095129 304.9427 
L 760.927875 298.737484 
L 761.53879 309.66406 
L 762.149705 301.469128 
L 762.76062 297.18618 
L 763.371536 307.573172 
L 763.982451 295.83722 
L 764.593366 294.65688 
L 765.204281 300.524856 
L 765.815197 317.184512 
L 766.426112 308.079032 
L 767.037027 296.376804 
L 767.647942 294.926672 
L 768.258857 316.037896 
L 768.869773 305.246216 
L 769.480688 310.642056 
L 770.091603 308.180204 
L 770.702518 294.8255 
L 771.313434 307.337104 
L 771.924349 304.571736 
L 772.535264 314.014456 
L 773.146179 316.678652 
L 773.757095 292.700888 
L 774.36801 307.269656 
L 774.978925 300.929544 
L 775.58984 304.504288 
L 776.200756 299.850376 
L 776.811671 308.045308 
L 777.422586 301.030716 
L 778.033501 307.30338 
L 778.644416 322.47918 
L 779.255332 309.360544 
L 779.866247 308.48372 
L 780.477162 301.5703 
L 781.088077 300.38996 
L 781.698993 298.804932 
L 782.309908 305.212492 
L 782.920823 308.854684 
L 783.531738 286.73174 
L 784.142654 296.747768 
L 784.753569 311.552604 
L 785.364484 312.159636 
L 785.975399 314.250524 
L 786.586314 304.60546 
L 787.19723 290.61 
L 787.808145 287.91208 
L 788.41906 298.602588 
L 789.029975 297.118732 
L 789.640891 298.906104 
L 790.251806 310.271092 
L 790.862721 319.44402 
L 791.473636 306.325384 
L 792.084552 297.085008 
L 792.695467 315.666932 
L 793.306382 307.64062 
L 793.917297 302.548296 
L 794.528213 291.79034 
L 795.139128 291.520548 
L 795.750043 294.218468 
L 796.360958 301.840092 
L 796.971873 305.95442 
L 797.582789 294.99412 
L 798.193704 294.285916 
L 798.804619 283.831476 
L 799.415534 299.917824 
L 800.02645 302.042436 
L 800.637365 296.241908 
L 801.24828 303.189052 
L 801.859195 306.325384 
L 802.470111 312.564324 
L 803.081026 303.93098 
L 803.691941 318.634644 
L 804.302856 317.724096 
L 804.913771 304.740356 
L 805.524687 303.627464 
L 806.135602 310.136196 
L 806.746517 298.87238 
L 807.357432 290.171588 
L 807.968348 288.24932 
L 808.579263 304.470564 
L 809.190178 301.469128 
L 809.801093 293.881228 
L 811.022924 302.514572 
L 811.633839 296.00584 
L 812.244754 276.78316 
L 812.85567 284.37106 
L 813.466585 294.218468 
L 814.0775 292.734612 
L 814.688415 297.69204 
L 815.29933 279.31246 
L 815.910246 293.47654 
L 816.521161 296.17446 
L 817.132076 302.75064 
L 817.742991 313.71094 
L 818.353907 297.422248 
L 818.964822 315.970448 
L 819.575737 309.967576 
L 820.186652 310.473436 
L 820.797568 313.609768 
L 821.408483 299.411964 
L 822.019398 292.2962 
L 822.630313 298.096728 
L 823.241229 299.445688 
L 823.852144 315.093624 
L 824.463059 320.185948 
L 825.073974 323.82814 
L 825.684889 306.96614 
L 826.295805 314.452868 
L 826.90672 300.963268 
L 827.517635 307.741792 
L 828.12855 301.974988 
L 828.739466 304.167048 
L 829.350381 307.741792 
L 829.961296 329.460048 
L 830.572211 321.096496 
L 831.183127 301.840092 
L 831.794042 310.540884 
L 832.404957 308.618616 
L 833.015872 312.766668 
L 834.237703 314.38542 
L 834.848618 316.678652 
L 835.459533 310.743228 
L 836.070448 328.21226 
L 836.681364 319.713812 
L 837.292279 308.584892 
L 837.903194 311.721224 
L 838.514109 323.558348 
L 839.125025 321.332564 
L 839.73594 309.427992 
L 840.346855 318.4323 
L 840.95777 308.416272 
L 841.568686 313.845836 
L 842.179601 315.73438 
L 842.790516 305.516008 
L 843.401431 315.026176 
L 844.012346 307.067312 
L 844.623262 294.791776 
L 845.234177 286.529396 
L 845.845092 293.948676 
L 846.456007 295.736048 
L 847.066923 312.159636 
L 847.677838 305.684628 
L 848.288753 306.392832 
L 848.899668 306.561452 
L 849.510584 301.73892 
L 850.121499 313.812112 
L 850.732414 305.684628 
L 851.343329 300.89582 
L 851.954244 310.035024 
L 852.56516 298.063004 
L 853.176075 301.06444 
L 853.78699 302.480848 
L 854.397905 326.795852 
L 855.008821 307.775516 
L 855.619736 297.287352 
L 856.230651 302.345952 
L 856.841566 319.646364 
L 857.452482 307.370828 
L 858.063397 315.194796 
L 858.674312 310.878124 
L 859.285227 300.7272 
L 859.896143 309.529164 
L 860.507058 308.180204 
L 861.117973 322.47918 
L 861.728888 311.788672 
L 862.339803 297.422248 
L 862.950719 311.991016 
L 863.561634 307.573172 
L 864.172549 308.787236 
L 864.783464 298.433968 
L 865.39438 313.744664 
L 866.005295 304.234496 
L 867.227125 322.850144 
L 867.838041 312.86784 
L 868.448956 312.901564 
L 869.059871 305.516008 
L 869.670786 305.684628 
L 870.281701 302.109884 
L 870.892617 309.66406 
L 871.503532 311.046744 
L 872.114447 289.7669 
L 872.725362 301.165612 
L 873.336278 315.768104 
L 873.947193 318.870712 
L 874.558108 314.081904 
L 875.169023 307.067312 
L 875.779939 292.060132 
L 876.390854 292.060132 
L 877.001769 308.65234 
L 877.612684 293.341644 
L 878.834515 316.139068 
L 879.44543 323.963036 
L 880.056345 309.967576 
L 880.66726 302.345952 
L 881.278176 314.284248 
L 881.889091 313.508596 
L 882.500006 307.269656 
L 883.110921 290.913516 
L 883.721837 299.445688 
L 884.332752 294.184744 
L 884.943667 305.650904 
L 885.554582 310.136196 
L 886.165498 298.231624 
L 886.776413 300.659752 
L 887.387328 285.854916 
L 887.998243 301.502852 
L 888.609158 307.337104 
L 889.220074 301.974988 
L 889.830989 305.684628 
L 890.441904 308.14648 
L 891.052819 316.510032 
L 891.663735 308.382548 
L 892.27465 321.062772 
L 892.885565 323.625796 
L 893.49648 305.212492 
L 894.107396 306.156764 
L 894.718311 314.04818 
L 895.329226 301.266784 
L 895.940141 291.587996 
L 896.551057 298.467692 
L 897.161972 303.863532 
L 897.772887 302.447124 
L 898.383802 301.469128 
L 898.994717 297.590868 
L 899.605633 306.696348 
L 900.216548 299.37824 
L 900.827463 277.423916 
L 902.049294 296.309356 
L 902.660209 303.189052 
L 903.271124 298.501416 
L 903.882039 283.629132 
L 904.492955 298.265348 
L 905.10387 296.275632 
L 905.714785 309.66406 
L 906.3257 316.273964 
L 906.936615 299.681756 
L 907.547531 322.951316 
L 908.158446 311.991016 
L 908.769361 315.73438 
L 909.380276 313.171356 
L 909.991192 298.299072 
L 910.602107 300.794648 
L 911.213022 298.53514 
L 911.823937 309.023304 
L 912.434853 313.474872 
L 913.045768 322.748972 
L 913.656683 329.696116 
L 914.267598 312.800392 
L 914.878514 314.790108 
L 915.489429 302.548296 
L 916.100344 311.249088 
L 916.711259 306.021868 
L 917.322174 307.235932 
L 917.93309 313.238804 
L 918.544005 333.034792 
L 919.15492 323.794416 
L 919.765835 304.908976 
L 920.376751 313.339976 
L 920.987666 315.161072 
L 921.598581 312.631772 
L 922.209496 314.655212 
L 922.820412 328.245984 
L 923.431327 311.653776 
L 924.042242 316.611204 
L 924.653157 333.43948 
L 925.264072 320.320844 
L 925.874988 310.136196 
L 926.485903 315.161072 
L 927.096818 325.986476 
L 927.707733 323.760692 
L 928.318649 316.341412 
L 928.929564 320.489464 
L 929.540479 309.32682 
L 930.151394 317.960164 
L 930.76231 316.341412 
L 931.373225 311.822396 
L 931.98414 319.140504 
L 933.205971 296.545424 
L 933.816886 290.373932 
L 934.427801 293.510264 
L 935.649631 316.004172 
L 936.260547 303.796084 
L 936.871462 313.171356 
L 938.093292 305.27994 
L 938.704208 318.061336 
L 939.315123 307.97786 
L 939.926038 303.155328 
L 940.536953 313.609768 
L 941.147869 300.05272 
L 941.758784 304.571736 
L 942.369699 307.573172 
L 942.980614 333.6081 
L 943.591529 306.29166 
L 944.202445 301.73892 
L 945.424275 319.916156 
L 946.03519 310.911848 
L 946.646106 316.813548 
L 947.867936 307.202208 
L 948.478851 311.957292 
L 949.089767 311.788672 
L 949.700682 330.100804 
L 950.311597 308.112756 
L 950.922512 302.447124 
L 951.533428 315.700656 
L 952.755258 309.1582 
L 953.366173 303.728636 
L 953.977088 314.72266 
L 954.588004 309.596612 
L 955.198919 322.243112 
L 955.809834 319.005608 
L 956.420749 320.725532 
L 957.031665 313.070184 
L 958.253495 306.055592 
L 958.86441 306.730072 
L 959.475326 312.935288 
L 960.086241 313.744664 
L 960.697156 291.048412 
L 961.308071 308.449996 
L 961.918986 316.712376 
L 962.529902 323.254832 
L 963.140817 315.295968 
L 963.751732 310.136196 
L 964.362647 292.329924 
L 964.973563 299.074724 
L 965.584478 310.439712 
L 966.195393 298.02928 
L 967.417224 320.422016 
L 968.028139 323.794416 
L 968.639054 312.496876 
L 969.249969 304.740356 
L 969.860885 316.611204 
L 970.4718 321.703528 
L 971.082715 307.674344 
L 971.69363 288.856352 
L 972.304545 307.168484 
L 972.915461 295.904668 
L 973.526376 310.911848 
L 974.137291 311.35026 
L 974.748206 300.659752 
L 975.359122 302.649468 
L 975.970037 288.181872 
L 976.580952 308.449996 
L 977.191867 313.137632 
L 977.802783 302.952984 
L 978.413698 315.262244 
L 979.024613 304.908976 
L 979.635528 318.803264 
L 980.246443 313.171356 
L 980.857359 321.939596 
L 981.468274 328.785568 
L 982.079189 307.202208 
L 983.30102 316.037896 
L 983.911935 302.278504 
L 984.52285 293.105576 
L 985.133765 305.988144 
L 986.355596 302.75064 
L 986.966511 309.259372 
L 987.577426 300.322512 
L 988.188342 309.057028 
L 988.799257 302.548296 
L 989.410172 282.718584 
L 990.021087 286.967808 
L 991.242918 312.564324 
L 991.853833 294.252192 
L 992.464748 288.687732 
L 993.075663 304.065876 
L 993.686579 299.54686 
L 994.297494 313.778388 
L 994.908409 322.6478 
L 995.519324 300.120168 
L 996.13024 329.493772 
L 996.741155 312.766668 
L 997.35207 318.93816 
L 997.962985 311.51888 
L 998.5739 301.23306 
L 999.795731 306.156764 
L 1000.406646 313.980732 
L 1001.017561 318.466024 
L 1002.239392 331.146248 
L 1002.850307 318.229956 
L 1003.461222 315.026176 
L 1004.072138 302.07616 
L 1004.683053 315.801828 
L 1005.293968 309.360544 
L 1005.904883 311.51888 
L 1006.515799 317.622924 
L 1007.126714 336.1374 
L 1008.348544 310.0013 
L 1008.959459 317.5892 
L 1009.570375 318.196232 
L 1010.18129 316.40886 
L 1010.792205 314.04818 
L 1011.40312 336.272296 
L 1012.014036 313.54232 
L 1012.624951 319.511468 
L 1013.235866 333.979064 
L 1014.457697 313.070184 
L 1015.068612 322.276836 
L 1016.290442 328.414604 
L 1016.901357 321.096496 
L 1017.512273 315.73438 
L 1017.512273 315.73438 
" clip-path="url(#pc223bb77ad)" style="fill: none; stroke: #1f77b4; stroke-width: 1.5; stroke-linecap: square"/>
   </g>
   <g id="LineCollection_1">
    <path d="M 113.357727 354.6856 
L 1017.512273 354.6856 
" clip-path="url(#pc223bb77ad)" style="fill: none; stroke: #ff0000; stroke-width: 1.5"/>
   </g>
   <g id="LineCollection_2">
    <path d="M 113.357727 325.143376 
L 1017.512273 325.143376 
" clip-path="url(#pc223bb77ad)" style="fill: none; stroke: #008000; stroke-width: 1.5"/>
   </g>
   <g id="patch_3">
    <path d="M 68.15 374.92 
L 68.15 37.68 
" style="fill: none; stroke: #000000; stroke-width: 0.8; stroke-linejoin: miter; stroke-linecap: square"/>
   </g>
   <g id="patch_4">
    <path d="M 1062.72 374.92 
L 1062.72 37.68 
" style="fill: none; stroke: #000000; stroke-width: 0.8; stroke-linejoin: miter; stroke-linecap: square"/>
   </g>
   <g id="patch_5">
    <path d="M 68.15 374.92 
L 1062.72 374.92 
" style="fill: none; stroke: #000000; stroke-width: 0.8; stroke-linejoin: miter; stroke-linecap: square"/>
   </g>
   <g id="patch_6">
    <path d="M 68.15 37.68 
L 1062.72 37.68 
" style="fill: none; stroke: #000000; stroke-width: 0.8; stroke-linejoin: miter; stroke-linecap: square"/>
   </g>
   <g id="text_17">
    <!-- BPC vs. Training Steps for Enwik8 (41M) -->
    <g transform="translate(374.0575 31.68) scale(0.192 -0.192)">
     <defs>
      <path id="DejaVuSans-76" d="M 191 3500 
L 800 3500 
L 1894 563 
L 2988 3500 
L 3597 3500 
L 2284 0 
L 1503 0 
L 191 3500 
z
" transform="scale(0.015625)"/>
      <path id="DejaVuSans-66" d="M 2375 4863 
L 2375 4384 
L 1825 4384 
Q 1516 4384 1395 4259 
Q 1275 4134 1275 3809 
L 1275 3500 
L 2222 3500 
L 2222 3053 
L 1275 3053 
L 1275 0 
L 697 0 
L 697 3053 
L 147 3053 
L 147 3500 
L 697 3500 
L 697 3744 
Q 697 4328 969 4595 
Q 1241 4863 1831 4863 
L 2375 4863 
z
" transform="scale(0.015625)"/>
      <path id="DejaVuSans-6f" d="M 1959 3097 
Q 1497 3097 1228 2736 
Q 959 2375 959 1747 
Q 959 1119 1226 758 
Q 1494 397 1959 397 
Q 2419 397 2687 759 
Q 2956 1122 2956 1747 
Q 2956 2369 2687 2733 
Q 2419 3097 1959 3097 
z
M 1959 3584 
Q 2709 3584 3137 3096 
Q 3566 2609 3566 1747 
Q 3566 888 3137 398 
Q 2709 -91 1959 -91 
Q 1206 -91 779 398 
Q 353 888 353 1747 
Q 353 2609 779 3096 
Q 1206 3584 1959 3584 
z
" transform="scale(0.015625)"/>
      <path id="DejaVuSans-45" d="M 628 4666 
L 3578 4666 
L 3578 4134 
L 1259 4134 
L 1259 2753 
L 3481 2753 
L 3481 2222 
L 1259 2222 
L 1259 531 
L 3634 531 
L 3634 0 
L 628 0 
L 628 4666 
z
" transform="scale(0.015625)"/>
      <path id="DejaVuSans-77" d="M 269 3500 
L 844 3500 
L 1563 769 
L 2278 3500 
L 2956 3500 
L 3675 769 
L 4391 3500 
L 4966 3500 
L 4050 0 
L 3372 0 
L 2619 2869 
L 1863 0 
L 1184 0 
L 269 3500 
z
" transform="scale(0.015625)"/>
      <path id="DejaVuSans-6b" d="M 581 4863 
L 1159 4863 
L 1159 1991 
L 2875 3500 
L 3609 3500 
L 1753 1863 
L 3688 0 
L 2938 0 
L 1159 1709 
L 1159 0 
L 581 0 
L 581 4863 
z
" transform="scale(0.015625)"/>
      <path id="DejaVuSans-28" d="M 1984 4856 
Q 1566 4138 1362 3434 
Q 1159 2731 1159 2009 
Q 1159 1288 1364 580 
Q 1569 -128 1984 -844 
L 1484 -844 
Q 1016 -109 783 600 
Q 550 1309 550 2009 
Q 550 2706 781 3412 
Q 1013 4119 1484 4856 
L 1984 4856 
z
" transform="scale(0.015625)"/>
      <path id="DejaVuSans-4d" d="M 628 4666 
L 1569 4666 
L 2759 1491 
L 3956 4666 
L 4897 4666 
L 4897 0 
L 4281 0 
L 4281 4097 
L 3078 897 
L 2444 897 
L 1241 4097 
L 1241 0 
L 628 0 
L 628 4666 
z
" transform="scale(0.015625)"/>
      <path id="DejaVuSans-29" d="M 513 4856 
L 1013 4856 
Q 1481 4119 1714 3412 
Q 1947 2706 1947 2009 
Q 1947 1309 1714 600 
Q 1481 -109 1013 -844 
L 513 -844 
Q 928 -128 1133 580 
Q 1338 1288 1338 2009 
Q 1338 2731 1133 3434 
Q 928 4138 513 4856 
z
" transform="scale(0.015625)"/>
     </defs>
     <use xlink:href="#DejaVuSans-42"/>
     <use xlink:href="#DejaVuSans-50" x="68.603516"/>
     <use xlink:href="#DejaVuSans-43" x="128.90625"/>
     <use xlink:href="#DejaVuSans-20" x="198.730469"/>
     <use xlink:href="#DejaVuSans-76" x="230.517578"/>
     <use xlink:href="#DejaVuSans-73" x="289.697266"/>
     <use xlink:href="#DejaVuSans-2e" x="341.796875"/>
     <use xlink:href="#DejaVuSans-20" x="373.583984"/>
     <use xlink:href="#DejaVuSans-54" x="405.371094"/>
     <use xlink:href="#DejaVuSans-72" x="451.705078"/>
     <use xlink:href="#DejaVuSans-61" x="492.818359"/>
     <use xlink:href="#DejaVuSans-69" x="554.097656"/>
     <use xlink:href="#DejaVuSans-6e" x="581.880859"/>
     <use xlink:href="#DejaVuSans-69" x="645.259766"/>
     <use xlink:href="#DejaVuSans-6e" x="673.042969"/>
     <use xlink:href="#DejaVuSans-67" x="736.421875"/>
     <use xlink:href="#DejaVuSans-20" x="799.898438"/>
     <use xlink:href="#DejaVuSans-53" x="831.685547"/>
     <use xlink:href="#DejaVuSans-74" x="895.162109"/>
     <use xlink:href="#DejaVuSans-65" x="934.371094"/>
     <use xlink:href="#DejaVuSans-70" x="995.894531"/>
     <use xlink:href="#DejaVuSans-73" x="1059.371094"/>
     <use xlink:href="#DejaVuSans-20" x="1111.470703"/>
     <use xlink:href="#DejaVuSans-66" x="1143.257812"/>
     <use xlink:href="#DejaVuSans-6f" x="1178.462891"/>
     <use xlink:href="#DejaVuSans-72" x="1239.644531"/>
     <use xlink:href="#DejaVuSans-20" x="1280.757812"/>
     <use xlink:href="#DejaVuSans-45" x="1312.544922"/>
     <use xlink:href="#DejaVuSans-6e" x="1375.728516"/>
     <use xlink:href="#DejaVuSans-77" x="1439.107422"/>
     <use xlink:href="#DejaVuSans-69" x="1520.894531"/>
     <use xlink:href="#DejaVuSans-6b" x="1548.677734"/>
     <use xlink:href="#DejaVuSans-38" x="1606.587891"/>
     <use xlink:href="#DejaVuSans-20" x="1670.210938"/>
     <use xlink:href="#DejaVuSans-28" x="1701.998047"/>
     <use xlink:href="#DejaVuSans-34" x="1741.011719"/>
     <use xlink:href="#DejaVuSans-31" x="1804.634766"/>
     <use xlink:href="#DejaVuSans-4d" x="1868.257812"/>
     <use xlink:href="#DejaVuSans-29" x="1954.537109"/>
    </g>
   </g>
   <g id="legend_1">
    <g id="patch_7">
     <path d="M 783.2775 120.935 
L 1051.52 120.935 
Q 1054.72 120.935 1054.72 117.735 
L 1054.72 48.88 
Q 1054.72 45.68 1051.52 45.68 
L 783.2775 45.68 
Q 780.0775 45.68 780.0775 48.88 
L 780.0775 117.735 
Q 780.0775 120.935 783.2775 120.935 
z
" style="fill: #ffffff; opacity: 0.8; stroke: #cccccc; stroke-linejoin: miter"/>
    </g>
    <g id="line2d_30">
     <path d="M 786.4775 58.6375 
L 802.4775 58.6375 
L 818.4775 58.6375 
" style="fill: none; stroke: #1f77b4; stroke-width: 1.5; stroke-linecap: square"/>
    </g>
    <g id="text_18">
     <!-- BPC Value on Train Dataset -->
     <g transform="translate(831.2775 64.2375) scale(0.16 -0.16)">
      <defs>
       <path id="DejaVuSans-56" d="M 1831 0 
L 50 4666 
L 709 4666 
L 2188 738 
L 3669 4666 
L 4325 4666 
L 2547 0 
L 1831 0 
z
" transform="scale(0.015625)"/>
       <path id="DejaVuSans-6c" d="M 603 4863 
L 1178 4863 
L 1178 0 
L 603 0 
L 603 4863 
z
" transform="scale(0.015625)"/>
       <path id="DejaVuSans-75" d="M 544 1381 
L 544 3500 
L 1119 3500 
L 1119 1403 
Q 1119 906 1312 657 
Q 1506 409 1894 409 
Q 2359 409 2629 706 
Q 2900 1003 2900 1516 
L 2900 3500 
L 3475 3500 
L 3475 0 
L 2900 0 
L 2900 538 
Q 2691 219 2414 64 
Q 2138 -91 1772 -91 
Q 1169 -91 856 284 
Q 544 659 544 1381 
z
M 1991 3584 
L 1991 3584 
z
" transform="scale(0.015625)"/>
       <path id="DejaVuSans-44" d="M 1259 4147 
L 1259 519 
L 2022 519 
Q 2988 519 3436 956 
Q 3884 1394 3884 2338 
Q 3884 3275 3436 3711 
Q 2988 4147 2022 4147 
L 1259 4147 
z
M 628 4666 
L 1925 4666 
Q 3281 4666 3915 4102 
Q 4550 3538 4550 2338 
Q 4550 1131 3912 565 
Q 3275 0 1925 0 
L 628 0 
L 628 4666 
z
" transform="scale(0.015625)"/>
      </defs>
      <use xlink:href="#DejaVuSans-42"/>
      <use xlink:href="#DejaVuSans-50" x="68.603516"/>
      <use xlink:href="#DejaVuSans-43" x="128.90625"/>
      <use xlink:href="#DejaVuSans-20" x="198.730469"/>
      <use xlink:href="#DejaVuSans-56" x="230.517578"/>
      <use xlink:href="#DejaVuSans-61" x="291.175781"/>
      <use xlink:href="#DejaVuSans-6c" x="352.455078"/>
      <use xlink:href="#DejaVuSans-75" x="380.238281"/>
      <use xlink:href="#DejaVuSans-65" x="443.617188"/>
      <use xlink:href="#DejaVuSans-20" x="505.140625"/>
      <use xlink:href="#DejaVuSans-6f" x="536.927734"/>
      <use xlink:href="#DejaVuSans-6e" x="598.109375"/>
      <use xlink:href="#DejaVuSans-20" x="661.488281"/>
      <use xlink:href="#DejaVuSans-54" x="693.275391"/>
      <use xlink:href="#DejaVuSans-72" x="739.609375"/>
      <use xlink:href="#DejaVuSans-61" x="780.722656"/>
      <use xlink:href="#DejaVuSans-69" x="842.001953"/>
      <use xlink:href="#DejaVuSans-6e" x="869.785156"/>
      <use xlink:href="#DejaVuSans-20" x="933.164062"/>
      <use xlink:href="#DejaVuSans-44" x="964.951172"/>
      <use xlink:href="#DejaVuSans-61" x="1041.953125"/>
      <use xlink:href="#DejaVuSans-74" x="1103.232422"/>
      <use xlink:href="#DejaVuSans-61" x="1142.441406"/>
      <use xlink:href="#DejaVuSans-73" x="1203.720703"/>
      <use xlink:href="#DejaVuSans-65" x="1255.820312"/>
      <use xlink:href="#DejaVuSans-74" x="1317.34375"/>
     </g>
    </g>
    <g id="line2d_31">
     <path d="M 786.4775 82.1225 
L 818.4775 82.1225 
" style="fill: none; stroke: #ff0000; stroke-width: 1.5"/>
    </g>
    <g id="text_19">
     <!-- Target BPC Value -->
     <g transform="translate(831.2775 87.7225) scale(0.16 -0.16)">
      <use xlink:href="#DejaVuSans-54"/>
      <use xlink:href="#DejaVuSans-61" x="44.583984"/>
      <use xlink:href="#DejaVuSans-72" x="105.863281"/>
      <use xlink:href="#DejaVuSans-67" x="145.226562"/>
      <use xlink:href="#DejaVuSans-65" x="208.703125"/>
      <use xlink:href="#DejaVuSans-74" x="270.226562"/>
      <use xlink:href="#DejaVuSans-20" x="309.435547"/>
      <use xlink:href="#DejaVuSans-42" x="341.222656"/>
      <use xlink:href="#DejaVuSans-50" x="409.826172"/>
      <use xlink:href="#DejaVuSans-43" x="470.128906"/>
      <use xlink:href="#DejaVuSans-20" x="539.953125"/>
      <use xlink:href="#DejaVuSans-56" x="571.740234"/>
      <use xlink:href="#DejaVuSans-61" x="632.398438"/>
      <use xlink:href="#DejaVuSans-6c" x="693.677734"/>
      <use xlink:href="#DejaVuSans-75" x="721.460938"/>
      <use xlink:href="#DejaVuSans-65" x="784.839844"/>
     </g>
    </g>
    <g id="line2d_32">
     <path d="M 786.4775 105.6075 
L 818.4775 105.6075 
" style="fill: none; stroke: #008000; stroke-width: 1.5"/>
    </g>
    <g id="text_20">
     <!-- Final Test BPC Value -->
     <g transform="translate(831.2775 111.2075) scale(0.16 -0.16)">
      <defs>
       <path id="DejaVuSans-46" d="M 628 4666 
L 3309 4666 
L 3309 4134 
L 1259 4134 
L 1259 2759 
L 3109 2759 
L 3109 2228 
L 1259 2228 
L 1259 0 
L 628 0 
L 628 4666 
z
" transform="scale(0.015625)"/>
      </defs>
      <use xlink:href="#DejaVuSans-46"/>
      <use xlink:href="#DejaVuSans-69" x="50.269531"/>
      <use xlink:href="#DejaVuSans-6e" x="78.052734"/>
      <use xlink:href="#DejaVuSans-61" x="141.431641"/>
      <use xlink:href="#DejaVuSans-6c" x="202.710938"/>
      <use xlink:href="#DejaVuSans-20" x="230.494141"/>
      <use xlink:href="#DejaVuSans-54" x="262.28125"/>
      <use xlink:href="#DejaVuSans-65" x="306.365234"/>
      <use xlink:href="#DejaVuSans-73" x="367.888672"/>
      <use xlink:href="#DejaVuSans-74" x="419.988281"/>
      <use xlink:href="#DejaVuSans-20" x="459.197266"/>
      <use xlink:href="#DejaVuSans-42" x="490.984375"/>
      <use xlink:href="#DejaVuSans-50" x="559.587891"/>
      <use xlink:href="#DejaVuSans-43" x="619.890625"/>
      <use xlink:href="#DejaVuSans-20" x="689.714844"/>
      <use xlink:href="#DejaVuSans-56" x="721.501953"/>
      <use xlink:href="#DejaVuSans-61" x="782.160156"/>
      <use xlink:href="#DejaVuSans-6c" x="843.439453"/>
      <use xlink:href="#DejaVuSans-75" x="871.222656"/>
      <use xlink:href="#DejaVuSans-65" x="934.601562"/>
     </g>
    </g>
   </g>
  </g>
 </g>
 <defs>
  <clipPath id="pc223bb77ad">
   <rect x="68.15" y="37.68" width="994.57" height="337.24"/>
  </clipPath>
 </defs>
</svg>
