<?xml version="1.0" encoding="utf-8" standalone="no"?>
<!DOCTYPE svg PUBLIC "-//W3C//DTD SVG 1.1//EN"
  "http://www.w3.org/Graphics/SVG/1.1/DTD/svg11.dtd">
<svg xmlns:xlink="http://www.w3.org/1999/xlink" width="1080pt" height="432pt" viewBox="0 0 1080 432" xmlns="http://www.w3.org/2000/svg" version="1.1">
 <metadata>
  <rdf:RDF xmlns:dc="http://purl.org/dc/elements/1.1/" xmlns:cc="http://creativecommons.org/ns#" xmlns:rdf="http://www.w3.org/1999/02/22-rdf-syntax-ns#">
   <cc:Work>
    <dc:type rdf:resource="http://purl.org/dc/dcmitype/StillImage"/>
    <dc:date>2026-04-08T15:59:43.158231</dc:date>
    <dc:format>image/svg+xml</dc:format>
    <dc:creator>
     <cc:Agent>
      <dc:title>Matplotlib v3.9.2, https://matplotlib.org/</dc:title>
     </cc:Agent>
    </dc:creator>
   </cc:Work>
  </rdf:RDF>
 </metadata>
 <defs>
  <style type="text/css">*{stroke-linejoin: round; stroke-linecap: butt}</style>
 </defs>
 <g id="figure_1">
  <g id="patch_1">
   <path d="M 0 432 
L 1080 432 
L 1080 0 
L 0 0 
z
" style="fill: #ffffff"/>
  </g>
  <g id="axes_1">
   <g id="patch_2">
    <path d="M 73.37 374.92 
L 1062.72 374.92 
L 1062.72 37.68 
L 73.37 37.68 
z
" style="fill: #ffffff"/>
   </g>
   <g id="matplotlib.axis_1">
    <g id="xtick_1">
     <g id="line2d_1">
      <path d="M 118.340455 374.92 
L 118.340455 37.68 
" clip-path="url(#p7ea616e93a)" style="fill: none; stroke: #b0b0b0; stroke-width: 0.8; stroke-linecap: square"/>
     </g>
     <g id="line2d_2">
      <defs>
       <path id="m46e66e7954" d="M 0 0 
L 0 3.5 
" style="stroke: #000000; stroke-width: 0.8"/>
      </defs>
      <g>
       <use xlink:href="#m46e66e7954" x="118.340455" y="374.92" style="stroke: #000000; stroke-width: 0.8"/>
      </g>
     </g>
     <g id="text_1">
      <!-- 0 -->
      <g transform="translate(113.250455 394.0775) scale(0.16 -0.16)">
       <defs>
        <path id="DejaVuSans-30" d="M 2034 4250 
Q 1547 4250 1301 3770 
Q 1056 3291 1056 2328 
Q 1056 1369 1301 889 
Q 1547 409 2034 409 
Q 2525 409 2770 889 
Q 3016 1369 3016 2328 
Q 3016 3291 2770 3770 
Q 2525 4250 2034 4250 
z
M 2034 4750 
Q 2819 4750 3233 4129 
Q 3647 3509 3647 2328 
Q 3647 1150 3233 529 
Q 2819 -91 2034 -91 
Q 1250 -91 836 529 
Q 422 1150 422 2328 
Q 422 3509 836 4129 
Q 1250 4750 2034 4750 
z
" transform="scale(0.015625)"/>
       </defs>
       <use xlink:href="#DejaVuSans-30"/>
      </g>
     </g>
    </g>
    <g id="xtick_2">
     <g id="line2d_3">
      <path d="M 278.662931 374.92 
L 278.662931 37.68 
" clip-path="url(#p7ea616e93a)" style="fill: none; stroke: #b0b0b0; stroke-width: 0.8; stroke-linecap: square"/>
     </g>
     <g id="line2d_4">
      <g>
       <use xlink:href="#m46e66e7954" x="278.662931" y="374.92" style="stroke: #000000; stroke-width: 0.8"/>
      </g>
     </g>
     <g id="text_2">
      <!-- 10000 -->
      <g transform="translate(253.212931 394.0775) scale(0.16 -0.16)">
       <defs>
        <path id="DejaVuSans-31" d="M 794 531 
L 1825 531 
L 1825 4091 
L 703 3866 
L 703 4441 
L 1819 4666 
L 2450 4666 
L 2450 531 
L 3481 531 
L 3481 0 
L 794 0 
L 794 531 
z
" transform="scale(0.015625)"/>
       </defs>
       <use xlink:href="#DejaVuSans-31"/>
       <use xlink:href="#DejaVuSans-30" x="63.623047"/>
       <use xlink:href="#DejaVuSans-30" x="127.246094"/>
       <use xlink:href="#DejaVuSans-30" x="190.869141"/>
       <use xlink:href="#DejaVuSans-30" x="254.492188"/>
      </g>
     </g>
    </g>
    <g id="xtick_3">
     <g id="line2d_5">
      <path d="M 438.985407 374.92 
L 438.985407 37.68 
" clip-path="url(#p7ea616e93a)" style="fill: none; stroke: #b0b0b0; stroke-width: 0.8; stroke-linecap: square"/>
     </g>
     <g id="line2d_6">
      <g>
       <use xlink:href="#m46e66e7954" x="438.985407" y="374.92" style="stroke: #000000; stroke-width: 0.8"/>
      </g>
     </g>
     <g id="text_3">
      <!-- 20000 -->
      <g transform="translate(413.535407 394.0775) scale(0.16 -0.16)">
       <defs>
        <path id="DejaVuSans-32" d="M 1228 531 
L 3431 531 
L 3431 0 
L 469 0 
L 469 531 
Q 828 903 1448 1529 
Q 2069 2156 2228 2338 
Q 2531 2678 2651 2914 
Q 2772 3150 2772 3378 
Q 2772 3750 2511 3984 
Q 2250 4219 1831 4219 
Q 1534 4219 1204 4116 
Q 875 4013 500 3803 
L 500 4441 
Q 881 4594 1212 4672 
Q 1544 4750 1819 4750 
Q 2544 4750 2975 4387 
Q 3406 4025 3406 3419 
Q 3406 3131 3298 2873 
Q 3191 2616 2906 2266 
Q 2828 2175 2409 1742 
Q 1991 1309 1228 531 
z
" transform="scale(0.015625)"/>
       </defs>
       <use xlink:href="#DejaVuSans-32"/>
       <use xlink:href="#DejaVuSans-30" x="63.623047"/>
       <use xlink:href="#DejaVuSans-30" x="127.246094"/>
       <use xlink:href="#DejaVuSans-30" x="190.869141"/>
       <use xlink:href="#DejaVuSans-30" x="254.492188"/>
      </g>
     </g>
    </g>
    <g id="xtick_4">
     <g id="line2d_7">
      <path d="M 599.307883 374.92 
L 599.307883 37.68 
" clip-path="url(#p7ea616e93a)" style="fill: none; stroke: #b0b0b0; stroke-width: 0.8; stroke-linecap: square"/>
     </g>
     <g id="line2d_8">
      <g>
       <use xlink:href="#m46e66e7954" x="599.307883" y="374.92" style="stroke: #000000; stroke-width: 0.8"/>
      </g>
     </g>
     <g id="text_4">
      <!-- 30000 -->
      <g transform="translate(573.857883 394.0775) scale(0.16 -0.16)">
       <defs>
        <path id="DejaVuSans-33" d="M 2597 2516 
Q 3050 2419 3304 2112 
Q 3559 1806 3559 1356 
Q 3559 666 3084 287 
Q 2609 -91 1734 -91 
Q 1441 -91 1130 -33 
Q 819 25 488 141 
L 488 750 
Q 750 597 1062 519 
Q 1375 441 1716 441 
Q 2309 441 2620 675 
Q 2931 909 2931 1356 
Q 2931 1769 2642 2001 
Q 2353 2234 1838 2234 
L 1294 2234 
L 1294 2753 
L 1863 2753 
Q 2328 2753 2575 2939 
Q 2822 3125 2822 3475 
Q 2822 3834 2567 4026 
Q 2313 4219 1838 4219 
Q 1578 4219 1281 4162 
Q 984 4106 628 3988 
L 628 4550 
Q 988 4650 1302 4700 
Q 1616 4750 1894 4750 
Q 2613 4750 3031 4423 
Q 3450 4097 3450 3541 
Q 3450 3153 3228 2886 
Q 3006 2619 2597 2516 
z
" transform="scale(0.015625)"/>
       </defs>
       <use xlink:href="#DejaVuSans-33"/>
       <use xlink:href="#DejaVuSans-30" x="63.623047"/>
       <use xlink:href="#DejaVuSans-30" x="127.246094"/>
       <use xlink:href="#DejaVuSans-30" x="190.869141"/>
       <use xlink:href="#DejaVuSans-30" x="254.492188"/>
      </g>
     </g>
    </g>
    <g id="xtick_5">
     <g id="line2d_9">
      <path d="M 759.630359 374.92 
L 759.630359 37.68 
" clip-path="url(#p7ea616e93a)" style="fill: none; stroke: #b0b0b0; stroke-width: 0.8; stroke-linecap: square"/>
     </g>
     <g id="line2d_10">
      <g>
       <use xlink:href="#m46e66e7954" x="759.630359" y="374.92" style="stroke: #000000; stroke-width: 0.8"/>
      </g>
     </g>
     <g id="text_5">
      <!-- 40000 -->
      <g transform="translate(734.180359 394.0775) scale(0.16 -0.16)">
       <defs>
        <path id="DejaVuSans-34" d="M 2419 4116 
L 825 1625 
L 2419 1625 
L 2419 4116 
z
M 2253 4666 
L 3047 4666 
L 3047 1625 
L 3713 1625 
L 3713 1100 
L 3047 1100 
L 3047 0 
L 2419 0 
L 2419 1100 
L 313 1100 
L 313 1709 
L 2253 4666 
z
" transform="scale(0.015625)"/>
       </defs>
       <use xlink:href="#DejaVuSans-34"/>
       <use xlink:href="#DejaVuSans-30" x="63.623047"/>
       <use xlink:href="#DejaVuSans-30" x="127.246094"/>
       <use xlink:href="#DejaVuSans-30" x="190.869141"/>
       <use xlink:href="#DejaVuSans-30" x="254.492188"/>
      </g>
     </g>
    </g>
    <g id="xtick_6">
     <g id="line2d_11">
      <path d="M 919.952835 374.92 
L 919.952835 37.68 
" clip-path="url(#p7ea616e93a)" style="fill: none; stroke: #b0b0b0; stroke-width: 0.8; stroke-linecap: square"/>
     </g>
     <g id="line2d_12">
      <g>
       <use xlink:href="#m46e66e7954" x="919.952835" y="374.92" style="stroke: #000000; stroke-width: 0.8"/>
      </g>
     </g>
     <g id="text_6">
      <!-- 50000 -->
      <g transform="translate(894.502835 394.0775) scale(0.16 -0.16)">
       <defs>
        <path id="DejaVuSans-35" d="M 691 4666 
L 3169 4666 
L 3169 4134 
L 1269 4134 
L 1269 2991 
Q 1406 3038 1543 3061 
Q 1681 3084 1819 3084 
Q 2600 3084 3056 2656 
Q 3513 2228 3513 1497 
Q 3513 744 3044 326 
Q 2575 -91 1722 -91 
Q 1428 -91 1123 -41 
Q 819 9 494 109 
L 494 744 
Q 775 591 1075 516 
Q 1375 441 1709 441 
Q 2250 441 2565 725 
Q 2881 1009 2881 1497 
Q 2881 1984 2565 2268 
Q 2250 2553 1709 2553 
Q 1456 2553 1204 2497 
Q 953 2441 691 2322 
L 691 4666 
z
" transform="scale(0.015625)"/>
       </defs>
       <use xlink:href="#DejaVuSans-35"/>
       <use xlink:href="#DejaVuSans-30" x="63.623047"/>
       <use xlink:href="#DejaVuSans-30" x="127.246094"/>
       <use xlink:href="#DejaVuSans-30" x="190.869141"/>
       <use xlink:href="#DejaVuSans-30" x="254.492188"/>
      </g>
     </g>
    </g>
    <g id="text_7">
     <!-- Training Steps -->
     <g transform="translate(511.5575 413.5625) scale(0.16 -0.16)">
      <defs>
       <path id="DejaVuSans-54" d="M -19 4666 
L 3928 4666 
L 3928 4134 
L 2272 4134 
L 2272 0 
L 1638 0 
L 1638 4134 
L -19 4134 
L -19 4666 
z
" transform="scale(0.015625)"/>
       <path id="DejaVuSans-72" d="M 2631 2963 
Q 2534 3019 2420 3045 
Q 2306 3072 2169 3072 
Q 1681 3072 1420 2755 
Q 1159 2438 1159 1844 
L 1159 0 
L 581 0 
L 581 3500 
L 1159 3500 
L 1159 2956 
Q 1341 3275 1631 3429 
Q 1922 3584 2338 3584 
Q 2397 3584 2469 3576 
Q 2541 3569 2628 3553 
L 2631 2963 
z
" transform="scale(0.015625)"/>
       <path id="DejaVuSans-61" d="M 2194 1759 
Q 1497 1759 1228 1600 
Q 959 1441 959 1056 
Q 959 750 1161 570 
Q 1363 391 1709 391 
Q 2188 391 2477 730 
Q 2766 1069 2766 1631 
L 2766 1759 
L 2194 1759 
z
M 3341 1997 
L 3341 0 
L 2766 0 
L 2766 531 
Q 2569 213 2275 61 
Q 1981 -91 1556 -91 
Q 1019 -91 701 211 
Q 384 513 384 1019 
Q 384 1609 779 1909 
Q 1175 2209 1959 2209 
L 2766 2209 
L 2766 2266 
Q 2766 2663 2505 2880 
Q 2244 3097 1772 3097 
Q 1472 3097 1187 3025 
Q 903 2953 641 2809 
L 641 3341 
Q 956 3463 1253 3523 
Q 1550 3584 1831 3584 
Q 2591 3584 2966 3190 
Q 3341 2797 3341 1997 
z
" transform="scale(0.015625)"/>
       <path id="DejaVuSans-69" d="M 603 3500 
L 1178 3500 
L 1178 0 
L 603 0 
L 603 3500 
z
M 603 4863 
L 1178 4863 
L 1178 4134 
L 603 4134 
L 603 4863 
z
" transform="scale(0.015625)"/>
       <path id="DejaVuSans-6e" d="M 3513 2113 
L 3513 0 
L 2938 0 
L 2938 2094 
Q 2938 2591 2744 2837 
Q 2550 3084 2163 3084 
Q 1697 3084 1428 2787 
Q 1159 2491 1159 1978 
L 1159 0 
L 581 0 
L 581 3500 
L 1159 3500 
L 1159 2956 
Q 1366 3272 1645 3428 
Q 1925 3584 2291 3584 
Q 2894 3584 3203 3211 
Q 3513 2838 3513 2113 
z
" transform="scale(0.015625)"/>
       <path id="DejaVuSans-67" d="M 2906 1791 
Q 2906 2416 2648 2759 
Q 2391 3103 1925 3103 
Q 1463 3103 1205 2759 
Q 947 2416 947 1791 
Q 947 1169 1205 825 
Q 1463 481 1925 481 
Q 2391 481 2648 825 
Q 2906 1169 2906 1791 
z
M 3481 434 
Q 3481 -459 3084 -895 
Q 2688 -1331 1869 -1331 
Q 1566 -1331 1297 -1286 
Q 1028 -1241 775 -1147 
L 775 -588 
Q 1028 -725 1275 -790 
Q 1522 -856 1778 -856 
Q 2344 -856 2625 -561 
Q 2906 -266 2906 331 
L 2906 616 
Q 2728 306 2450 153 
Q 2172 0 1784 0 
Q 1141 0 747 490 
Q 353 981 353 1791 
Q 353 2603 747 3093 
Q 1141 3584 1784 3584 
Q 2172 3584 2450 3431 
Q 2728 3278 2906 2969 
L 2906 3500 
L 3481 3500 
L 3481 434 
z
" transform="scale(0.015625)"/>
       <path id="DejaVuSans-20" transform="scale(0.015625)"/>
       <path id="DejaVuSans-53" d="M 3425 4513 
L 3425 3897 
Q 3066 4069 2747 4153 
Q 2428 4238 2131 4238 
Q 1616 4238 1336 4038 
Q 1056 3838 1056 3469 
Q 1056 3159 1242 3001 
Q 1428 2844 1947 2747 
L 2328 2669 
Q 3034 2534 3370 2195 
Q 3706 1856 3706 1288 
Q 3706 609 3251 259 
Q 2797 -91 1919 -91 
Q 1588 -91 1214 -16 
Q 841 59 441 206 
L 441 856 
Q 825 641 1194 531 
Q 1563 422 1919 422 
Q 2459 422 2753 634 
Q 3047 847 3047 1241 
Q 3047 1584 2836 1778 
Q 2625 1972 2144 2069 
L 1759 2144 
Q 1053 2284 737 2584 
Q 422 2884 422 3419 
Q 422 4038 858 4394 
Q 1294 4750 2059 4750 
Q 2388 4750 2728 4690 
Q 3069 4631 3425 4513 
z
" transform="scale(0.015625)"/>
       <path id="DejaVuSans-74" d="M 1172 4494 
L 1172 3500 
L 2356 3500 
L 2356 3053 
L 1172 3053 
L 1172 1153 
Q 1172 725 1289 603 
Q 1406 481 1766 481 
L 2356 481 
L 2356 0 
L 1766 0 
Q 1100 0 847 248 
Q 594 497 594 1153 
L 594 3053 
L 172 3053 
L 172 3500 
L 594 3500 
L 594 4494 
L 1172 4494 
z
" transform="scale(0.015625)"/>
       <path id="DejaVuSans-65" d="M 3597 1894 
L 3597 1613 
L 953 1613 
Q 991 1019 1311 708 
Q 1631 397 2203 397 
Q 2534 397 2845 478 
Q 3156 559 3463 722 
L 3463 178 
Q 3153 47 2828 -22 
Q 2503 -91 2169 -91 
Q 1331 -91 842 396 
Q 353 884 353 1716 
Q 353 2575 817 3079 
Q 1281 3584 2069 3584 
Q 2775 3584 3186 3129 
Q 3597 2675 3597 1894 
z
M 3022 2063 
Q 3016 2534 2758 2815 
Q 2500 3097 2075 3097 
Q 1594 3097 1305 2825 
Q 1016 2553 972 2059 
L 3022 2063 
z
" transform="scale(0.015625)"/>
       <path id="DejaVuSans-70" d="M 1159 525 
L 1159 -1331 
L 581 -1331 
L 581 3500 
L 1159 3500 
L 1159 2969 
Q 1341 3281 1617 3432 
Q 1894 3584 2278 3584 
Q 2916 3584 3314 3078 
Q 3713 2572 3713 1747 
Q 3713 922 3314 415 
Q 2916 -91 2278 -91 
Q 1894 -91 1617 61 
Q 1341 213 1159 525 
z
M 3116 1747 
Q 3116 2381 2855 2742 
Q 2594 3103 2138 3103 
Q 1681 3103 1420 2742 
Q 1159 2381 1159 1747 
Q 1159 1113 1420 752 
Q 1681 391 2138 391 
Q 2594 391 2855 752 
Q 3116 1113 3116 1747 
z
" transform="scale(0.015625)"/>
       <path id="DejaVuSans-73" d="M 2834 3397 
L 2834 2853 
Q 2591 2978 2328 3040 
Q 2066 3103 1784 3103 
Q 1356 3103 1142 2972 
Q 928 2841 928 2578 
Q 928 2378 1081 2264 
Q 1234 2150 1697 2047 
L 1894 2003 
Q 2506 1872 2764 1633 
Q 3022 1394 3022 966 
Q 3022 478 2636 193 
Q 2250 -91 1575 -91 
Q 1294 -91 989 -36 
Q 684 19 347 128 
L 347 722 
Q 666 556 975 473 
Q 1284 391 1588 391 
Q 1994 391 2212 530 
Q 2431 669 2431 922 
Q 2431 1156 2273 1281 
Q 2116 1406 1581 1522 
L 1381 1569 
Q 847 1681 609 1914 
Q 372 2147 372 2553 
Q 372 3047 722 3315 
Q 1072 3584 1716 3584 
Q 2034 3584 2315 3537 
Q 2597 3491 2834 3397 
z
" transform="scale(0.015625)"/>
      </defs>
      <use xlink:href="#DejaVuSans-54"/>
      <use xlink:href="#DejaVuSans-72" x="46.333984"/>
      <use xlink:href="#DejaVuSans-61" x="87.447266"/>
      <use xlink:href="#DejaVuSans-69" x="148.726562"/>
      <use xlink:href="#DejaVuSans-6e" x="176.509766"/>
      <use xlink:href="#DejaVuSans-69" x="239.888672"/>
      <use xlink:href="#DejaVuSans-6e" x="267.671875"/>
      <use xlink:href="#DejaVuSans-67" x="331.050781"/>
      <use xlink:href="#DejaVuSans-20" x="394.527344"/>
      <use xlink:href="#DejaVuSans-53" x="426.314453"/>
      <use xlink:href="#DejaVuSans-74" x="489.791016"/>
      <use xlink:href="#DejaVuSans-65" x="529"/>
      <use xlink:href="#DejaVuSans-70" x="590.523438"/>
      <use xlink:href="#DejaVuSans-73" x="654"/>
     </g>
    </g>
   </g>
   <g id="matplotlib.axis_2">
    <g id="ytick_1">
     <g id="line2d_13">
      <path d="M 73.37 374.92 
L 1062.72 374.92 
" clip-path="url(#p7ea616e93a)" style="fill: none; stroke: #b0b0b0; stroke-width: 0.8; stroke-linecap: square"/>
     </g>
     <g id="line2d_14">
      <defs>
       <path id="mc1f6f54d6a" d="M 0 0 
L -3.5 0 
" style="stroke: #000000; stroke-width: 0.8"/>
      </defs>
      <g>
       <use xlink:href="#mc1f6f54d6a" x="73.37" y="374.92" style="stroke: #000000; stroke-width: 0.8"/>
      </g>
     </g>
     <g id="text_8">
      <!-- 20 -->
      <g transform="translate(46.01 380.99875) scale(0.16 -0.16)">
       <use xlink:href="#DejaVuSans-32"/>
       <use xlink:href="#DejaVuSans-30" x="63.623047"/>
      </g>
     </g>
    </g>
    <g id="ytick_2">
     <g id="line2d_15">
      <path d="M 73.37 332.765 
L 1062.72 332.765 
" clip-path="url(#p7ea616e93a)" style="fill: none; stroke: #b0b0b0; stroke-width: 0.8; stroke-linecap: square"/>
     </g>
     <g id="line2d_16">
      <g>
       <use xlink:href="#mc1f6f54d6a" x="73.37" y="332.765" style="stroke: #000000; stroke-width: 0.8"/>
      </g>
     </g>
     <g id="text_9">
      <!-- 30 -->
      <g transform="translate(46.01 338.84375) scale(0.16 -0.16)">
       <use xlink:href="#DejaVuSans-33"/>
       <use xlink:href="#DejaVuSans-30" x="63.623047"/>
      </g>
     </g>
    </g>
    <g id="ytick_3">
     <g id="line2d_17">
      <path d="M 73.37 290.61 
L 1062.72 290.61 
" clip-path="url(#p7ea616e93a)" style="fill: none; stroke: #b0b0b0; stroke-width: 0.8; stroke-linecap: square"/>
     </g>
     <g id="line2d_18">
      <g>
       <use xlink:href="#mc1f6f54d6a" x="73.37" y="290.61" style="stroke: #000000; stroke-width: 0.8"/>
      </g>
     </g>
     <g id="text_10">
      <!-- 40 -->
      <g transform="translate(46.01 296.68875) scale(0.16 -0.16)">
       <use xlink:href="#DejaVuSans-34"/>
       <use xlink:href="#DejaVuSans-30" x="63.623047"/>
      </g>
     </g>
    </g>
    <g id="ytick_4">
     <g id="line2d_19">
      <path d="M 73.37 248.455 
L 1062.72 248.455 
" clip-path="url(#p7ea616e93a)" style="fill: none; stroke: #b0b0b0; stroke-width: 0.8; stroke-linecap: square"/>
     </g>
     <g id="line2d_20">
      <g>
       <use xlink:href="#mc1f6f54d6a" x="73.37" y="248.455" style="stroke: #000000; stroke-width: 0.8"/>
      </g>
     </g>
     <g id="text_11">
      <!-- 50 -->
      <g transform="translate(46.01 254.53375) scale(0.16 -0.16)">
       <use xlink:href="#DejaVuSans-35"/>
       <use xlink:href="#DejaVuSans-30" x="63.623047"/>
      </g>
     </g>
    </g>
    <g id="ytick_5">
     <g id="line2d_21">
      <path d="M 73.37 206.3 
L 1062.72 206.3 
" clip-path="url(#p7ea616e93a)" style="fill: none; stroke: #b0b0b0; stroke-width: 0.8; stroke-linecap: square"/>
     </g>
     <g id="line2d_22">
      <g>
       <use xlink:href="#mc1f6f54d6a" x="73.37" y="206.3" style="stroke: #000000; stroke-width: 0.8"/>
      </g>
     </g>
     <g id="text_12">
      <!-- 60 -->
      <g transform="translate(46.01 212.37875) scale(0.16 -0.16)">
       <defs>
        <path id="DejaVuSans-36" d="M 2113 2584 
Q 1688 2584 1439 2293 
Q 1191 2003 1191 1497 
Q 1191 994 1439 701 
Q 1688 409 2113 409 
Q 2538 409 2786 701 
Q 3034 994 3034 1497 
Q 3034 2003 2786 2293 
Q 2538 2584 2113 2584 
z
M 3366 4563 
L 3366 3988 
Q 3128 4100 2886 4159 
Q 2644 4219 2406 4219 
Q 1781 4219 1451 3797 
Q 1122 3375 1075 2522 
Q 1259 2794 1537 2939 
Q 1816 3084 2150 3084 
Q 2853 3084 3261 2657 
Q 3669 2231 3669 1497 
Q 3669 778 3244 343 
Q 2819 -91 2113 -91 
Q 1303 -91 875 529 
Q 447 1150 447 2328 
Q 447 3434 972 4092 
Q 1497 4750 2381 4750 
Q 2619 4750 2861 4703 
Q 3103 4656 3366 4563 
z
" transform="scale(0.015625)"/>
       </defs>
       <use xlink:href="#DejaVuSans-36"/>
       <use xlink:href="#DejaVuSans-30" x="63.623047"/>
      </g>
     </g>
    </g>
    <g id="ytick_6">
     <g id="line2d_23">
      <path d="M 73.37 164.145 
L 1062.72 164.145 
" clip-path="url(#p7ea616e93a)" style="fill: none; stroke: #b0b0b0; stroke-width: 0.8; stroke-linecap: square"/>
     </g>
     <g id="line2d_24">
      <g>
       <use xlink:href="#mc1f6f54d6a" x="73.37" y="164.145" style="stroke: #000000; stroke-width: 0.8"/>
      </g>
     </g>
     <g id="text_13">
      <!-- 70 -->
      <g transform="translate(46.01 170.22375) scale(0.16 -0.16)">
       <defs>
        <path id="DejaVuSans-37" d="M 525 4666 
L 3525 4666 
L 3525 4397 
L 1831 0 
L 1172 0 
L 2766 4134 
L 525 4134 
L 525 4666 
z
" transform="scale(0.015625)"/>
       </defs>
       <use xlink:href="#DejaVuSans-37"/>
       <use xlink:href="#DejaVuSans-30" x="63.623047"/>
      </g>
     </g>
    </g>
    <g id="ytick_7">
     <g id="line2d_25">
      <path d="M 73.37 121.99 
L 1062.72 121.99 
" clip-path="url(#p7ea616e93a)" style="fill: none; stroke: #b0b0b0; stroke-width: 0.8; stroke-linecap: square"/>
     </g>
     <g id="line2d_26">
      <g>
       <use xlink:href="#mc1f6f54d6a" x="73.37" y="121.99" style="stroke: #000000; stroke-width: 0.8"/>
      </g>
     </g>
     <g id="text_14">
      <!-- 80 -->
      <g transform="translate(46.01 128.06875) scale(0.16 -0.16)">
       <defs>
        <path id="DejaVuSans-38" d="M 2034 2216 
Q 1584 2216 1326 1975 
Q 1069 1734 1069 1313 
Q 1069 891 1326 650 
Q 1584 409 2034 409 
Q 2484 409 2743 651 
Q 3003 894 3003 1313 
Q 3003 1734 2745 1975 
Q 2488 2216 2034 2216 
z
M 1403 2484 
Q 997 2584 770 2862 
Q 544 3141 544 3541 
Q 544 4100 942 4425 
Q 1341 4750 2034 4750 
Q 2731 4750 3128 4425 
Q 3525 4100 3525 3541 
Q 3525 3141 3298 2862 
Q 3072 2584 2669 2484 
Q 3125 2378 3379 2068 
Q 3634 1759 3634 1313 
Q 3634 634 3220 271 
Q 2806 -91 2034 -91 
Q 1263 -91 848 271 
Q 434 634 434 1313 
Q 434 1759 690 2068 
Q 947 2378 1403 2484 
z
M 1172 3481 
Q 1172 3119 1398 2916 
Q 1625 2713 2034 2713 
Q 2441 2713 2670 2916 
Q 2900 3119 2900 3481 
Q 2900 3844 2670 4047 
Q 2441 4250 2034 4250 
Q 1625 4250 1398 4047 
Q 1172 3844 1172 3481 
z
" transform="scale(0.015625)"/>
       </defs>
       <use xlink:href="#DejaVuSans-38"/>
       <use xlink:href="#DejaVuSans-30" x="63.623047"/>
      </g>
     </g>
    </g>
    <g id="ytick_8">
     <g id="line2d_27">
      <path d="M 73.37 79.835 
L 1062.72 79.835 
" clip-path="url(#p7ea616e93a)" style="fill: none; stroke: #b0b0b0; stroke-width: 0.8; stroke-linecap: square"/>
     </g>
     <g id="line2d_28">
      <g>
       <use xlink:href="#mc1f6f54d6a" x="73.37" y="79.835" style="stroke: #000000; stroke-width: 0.8"/>
      </g>
     </g>
     <g id="text_15">
      <!-- 90 -->
      <g transform="translate(46.01 85.91375) scale(0.16 -0.16)">
       <defs>
        <path id="DejaVuSans-39" d="M 703 97 
L 703 672 
Q 941 559 1184 500 
Q 1428 441 1663 441 
Q 2288 441 2617 861 
Q 2947 1281 2994 2138 
Q 2813 1869 2534 1725 
Q 2256 1581 1919 1581 
Q 1219 1581 811 2004 
Q 403 2428 403 3163 
Q 403 3881 828 4315 
Q 1253 4750 1959 4750 
Q 2769 4750 3195 4129 
Q 3622 3509 3622 2328 
Q 3622 1225 3098 567 
Q 2575 -91 1691 -91 
Q 1453 -91 1209 -44 
Q 966 3 703 97 
z
M 1959 2075 
Q 2384 2075 2632 2365 
Q 2881 2656 2881 3163 
Q 2881 3666 2632 3958 
Q 2384 4250 1959 4250 
Q 1534 4250 1286 3958 
Q 1038 3666 1038 3163 
Q 1038 2656 1286 2365 
Q 1534 2075 1959 2075 
z
" transform="scale(0.015625)"/>
       </defs>
       <use xlink:href="#DejaVuSans-39"/>
       <use xlink:href="#DejaVuSans-30" x="63.623047"/>
      </g>
     </g>
    </g>
    <g id="ytick_9">
     <g id="line2d_29">
      <path d="M 73.37 37.68 
L 1062.72 37.68 
" clip-path="url(#p7ea616e93a)" style="fill: none; stroke: #b0b0b0; stroke-width: 0.8; stroke-linecap: square"/>
     </g>
     <g id="line2d_30">
      <g>
       <use xlink:href="#mc1f6f54d6a" x="73.37" y="37.68" style="stroke: #000000; stroke-width: 0.8"/>
      </g>
     </g>
     <g id="text_16">
      <!-- 100 -->
      <g transform="translate(35.83 43.75875) scale(0.16 -0.16)">
       <use xlink:href="#DejaVuSans-31"/>
       <use xlink:href="#DejaVuSans-30" x="63.623047"/>
       <use xlink:href="#DejaVuSans-30" x="127.246094"/>
      </g>
     </g>
    </g>
    <g id="text_17">
     <!-- Perplexity -->
     <g transform="translate(28.5025 245.9575) rotate(-90) scale(0.16 -0.16)">
      <defs>
       <path id="DejaVuSans-50" d="M 1259 4147 
L 1259 2394 
L 2053 2394 
Q 2494 2394 2734 2622 
Q 2975 2850 2975 3272 
Q 2975 3691 2734 3919 
Q 2494 4147 2053 4147 
L 1259 4147 
z
M 628 4666 
L 2053 4666 
Q 2838 4666 3239 4311 
Q 3641 3956 3641 3272 
Q 3641 2581 3239 2228 
Q 2838 1875 2053 1875 
L 1259 1875 
L 1259 0 
L 628 0 
L 628 4666 
z
" transform="scale(0.015625)"/>
       <path id="DejaVuSans-6c" d="M 603 4863 
L 1178 4863 
L 1178 0 
L 603 0 
L 603 4863 
z
" transform="scale(0.015625)"/>
       <path id="DejaVuSans-78" d="M 3513 3500 
L 2247 1797 
L 3578 0 
L 2900 0 
L 1881 1375 
L 863 0 
L 184 0 
L 1544 1831 
L 300 3500 
L 978 3500 
L 1906 2253 
L 2834 3500 
L 3513 3500 
z
" transform="scale(0.015625)"/>
       <path id="DejaVuSans-79" d="M 2059 -325 
Q 1816 -950 1584 -1140 
Q 1353 -1331 966 -1331 
L 506 -1331 
L 506 -850 
L 844 -850 
Q 1081 -850 1212 -737 
Q 1344 -625 1503 -206 
L 1606 56 
L 191 3500 
L 800 3500 
L 1894 763 
L 2988 3500 
L 3597 3500 
L 2059 -325 
z
" transform="scale(0.015625)"/>
      </defs>
      <use xlink:href="#DejaVuSans-50"/>
      <use xlink:href="#DejaVuSans-65" x="56.677734"/>
      <use xlink:href="#DejaVuSans-72" x="118.201172"/>
      <use xlink:href="#DejaVuSans-70" x="159.314453"/>
      <use xlink:href="#DejaVuSans-6c" x="222.791016"/>
      <use xlink:href="#DejaVuSans-65" x="250.574219"/>
      <use xlink:href="#DejaVuSans-78" x="310.347656"/>
      <use xlink:href="#DejaVuSans-69" x="369.527344"/>
      <use xlink:href="#DejaVuSans-74" x="397.310547"/>
      <use xlink:href="#DejaVuSans-79" x="436.519531"/>
     </g>
    </g>
   </g>
   <g id="line2d_31">
    <path d="M 161.33417 -1 
L 161.627523 14.874145 
L 162.429135 12.091915 
L 163.230748 16.897585 
L 164.03236 35.614405 
L 164.833973 24.316865 
L 165.36948 -1 
M 165.902283 -1 
L 166.437197 24.232555 
L 167.23881 33.97036 
L 168.040422 60.19077 
L 168.842035 17.19267 
L 169.643647 35.06639 
L 170.445259 38.5231 
L 171.246872 55.595875 
L 172.048484 58.92612 
L 172.850096 49.14616 
L 173.651709 82.53292 
L 174.453321 72.92158 
L 175.254934 73.891145 
L 176.056546 83.924035 
L 176.858158 53.36166 
L 177.659771 50.537275 
L 178.461383 67.146345 
L 179.262995 70.603055 
L 180.064608 83.502485 
L 180.86622 75.19795 
L 181.667833 74.481315 
L 182.469445 71.82555 
L 183.271057 97.87734 
L 184.07267 95.43235 
L 184.874282 94.42063 
L 185.675895 90.247285 
L 186.477507 102.725165 
L 187.279119 89.741425 
L 188.080732 103.77904 
L 188.882344 105.591705 
L 189.683956 114.06486 
L 190.485569 81.984905 
L 191.287181 108.24747 
L 192.088794 128.776955 
L 192.890406 131.137635 
L 193.692018 119.03915 
L 194.493631 120.55673 
L 195.295243 128.39756 
L 196.096855 107.91023 
L 196.898468 122.706635 
L 197.70008 110.1866 
L 198.501693 114.90796 
L 199.303305 147.95748 
L 200.104917 127.72308 
L 200.90653 114.73934 
L 201.708142 137.966745 
L 202.509754 151.83574 
L 203.311367 148.1261 
L 204.112979 134.510035 
L 204.914592 165.74689 
L 205.716204 148.336875 
L 206.517816 136.23839 
L 207.319429 141.97147 
L 208.121041 144.33215 
L 208.922654 122.622325 
L 209.724266 161.151995 
L 210.525878 143.278275 
L 211.327491 150.40247 
L 212.129103 155.37676 
L 212.930715 161.36277 
L 213.732328 159.044245 
L 214.53394 161.02553 
L 215.335553 156.852185 
L 216.137165 156.936495 
L 216.938777 182.18734 
L 217.74039 170.763335 
L 218.542002 144.458615 
L 219.343614 146.77714 
L 220.145227 152.889615 
L 220.946839 175.69547 
L 221.748452 157.105115 
L 222.550064 183.45199 
L 223.351676 178.941405 
L 224.153289 179.65804 
L 224.954901 174.641595 
L 225.756514 180.41683 
L 226.558126 173.376945 
L 227.359738 174.59944 
L 228.161351 177.97184 
L 228.962963 174.59944 
L 229.764575 174.304355 
L 230.566188 177.38167 
L 231.3678 190.87127 
L 232.169413 182.6932 
L 232.971025 206.510775 
L 233.772637 175.653315 
L 234.57425 199.007185 
L 235.375862 198.12193 
L 236.177474 185.13819 
L 236.979087 183.241215 
L 237.780699 191.334975 
L 238.582312 191.63006 
L 239.383924 207.859735 
L 240.185536 196.68866 
L 240.987149 187.119475 
L 241.788761 184.505865 
L 242.590374 183.831385 
L 243.391986 205.920605 
L 244.193598 185.47543 
L 244.995211 189.77524 
L 245.796823 197.869 
L 246.598435 192.599625 
L 247.400048 197.70038 
L 248.20166 192.178075 
L 249.003273 206.3 
L 249.804885 200.777695 
L 250.606497 193.56919 
L 251.40811 201.83157 
L 252.209722 194.07505 
L 253.011334 196.140645 
L 254.614559 207.944045 
L 255.416172 202.969755 
L 256.217784 195.92987 
L 257.019396 207.73327 
L 257.821009 196.393575 
L 258.622621 203.18053 
L 259.424234 190.997735 
L 260.225846 219.28374 
L 261.027458 206.63724 
L 261.829071 203.85501 
L 262.630683 202.33743 
L 263.432295 210.59981 
L 264.233908 205.11966 
L 265.03552 219.11512 
L 265.837133 208.534215 
L 266.638745 212.37032 
L 267.440357 205.077505 
L 268.24197 215.784875 
L 269.043582 204.740265 
L 269.845194 201.367865 
L 270.646807 205.54121 
L 271.448419 198.7121 
L 272.250032 217.976935 
L 273.051644 214.857465 
L 273.853256 225.733455 
L 274.654869 210.894895 
L 275.456481 219.11512 
L 276.258094 223.49924 
L 277.059706 207.1431 
L 277.861318 203.60208 
L 278.662931 222.3189 
L 279.464543 207.016635 
L 280.266155 232.77334 
L 281.067768 235.30264 
L 281.86938 216.290735 
L 282.670993 222.445365 
L 283.472605 213.0448 
L 285.07583 236.73591 
L 285.877442 213.930055 
L 286.679054 210.17826 
L 288.282279 230.83421 
L 289.083892 219.072965 
L 289.885504 235.260485 
L 290.687116 228.72646 
L 291.488729 232.141015 
L 292.290341 218.35633 
L 293.091953 232.4361 
L 293.893566 218.651415 
L 294.695178 206.97448 
L 295.496791 228.38922 
L 296.298403 218.735725 
L 297.100015 221.89735 
L 297.901628 233.86937 
L 298.70324 203.981475 
L 299.504853 241.836665 
L 300.306465 230.707745 
L 301.108077 225.480525 
L 301.90969 222.023815 
L 302.711302 233.70075 
L 303.512914 241.62589 
L 304.314527 235.429105 
L 305.116139 241.96313 
L 305.917752 252.41757 
L 306.719364 242.38468 
L 307.520976 229.105855 
L 308.322589 236.187895 
L 309.124201 239.644605 
L 309.925813 235.63988 
L 310.727426 240.69848 
L 311.529038 251.785245 
L 312.330651 253.09205 
L 313.132263 239.054435 
L 313.933875 234.417385 
L 314.735488 235.47126 
L 315.5371 232.393945 
L 316.338713 257.181085 
L 317.140325 251.616625 
L 317.941937 241.668045 
L 318.74355 238.295645 
L 319.545162 237.452545 
L 320.346774 242.173905 
L 321.148387 249.761805 
L 321.949999 247.86483 
L 322.751612 247.906985 
L 323.553224 241.37296 
L 324.354836 252.33326 
L 325.156449 245.293375 
L 325.958061 255.53704 
L 326.759673 240.8671 
L 327.561286 251.869555 
L 328.362898 253.85084 
L 329.164511 248.11776 
L 329.966123 244.281655 
L 330.767735 247.44328 
L 331.569348 248.665775 
L 332.37096 257.855565 
L 333.172573 242.13175 
L 333.974185 233.995835 
L 334.775797 240.36124 
L 335.57741 250.1412 
L 336.379022 252.16464 
L 337.180634 251.195075 
L 337.982247 245.84139 
L 338.783859 244.365965 
L 339.585472 259.963315 
L 340.387084 248.70793 
L 341.188696 246.642335 
L 341.990309 258.530045 
L 342.791921 253.218515 
L 343.593533 255.36842 
L 344.395146 245.967855 
L 345.196758 254.820405 
L 345.998371 268.984485 
L 346.799983 259.07806 
L 347.601595 258.40358 
L 348.403208 266.58165 
L 349.20482 251.49016 
L 350.006433 248.37069 
L 350.808045 252.628345 
L 351.609657 269.5325 
L 352.41127 259.24668 
L 353.212882 247.232505 
L 354.014494 259.58392 
L 354.816107 256.21152 
L 355.617719 264.97976 
L 356.419332 253.59791 
L 357.220944 268.60509 
L 358.022556 266.91889 
L 358.824169 266.58165 
L 359.625781 259.204525 
L 360.427393 265.949325 
L 361.229006 247.02173 
L 362.030618 258.82513 
L 362.832231 264.010195 
L 363.633843 258.5722 
L 364.435455 261.86029 
L 365.237068 254.77825 
L 366.03868 260.84857 
L 366.840292 257.81341 
L 367.641905 261.69167 
L 368.443517 269.743275 
L 369.24513 259.794695 
L 370.046742 258.5722 
L 370.848354 263.79942 
L 371.649967 262.53477 
L 372.451579 266.58165 
L 373.253192 265.65424 
L 374.054804 253.892995 
L 374.856416 258.277115 
L 375.658029 270.080515 
L 376.459641 277.54195 
L 377.261253 266.41303 
L 378.062866 266.539495 
L 378.864478 270.333445 
L 379.666091 269.321725 
L 380.467703 262.492615 
L 381.269315 257.64479 
L 382.070928 256.085055 
L 382.87254 278.595825 
L 383.674152 268.478625 
L 384.475765 263.841575 
L 385.277377 260.131935 
L 386.07899 271.682405 
L 386.880602 278.04781 
L 387.682214 266.792425 
L 388.483827 283.317185 
L 389.285439 272.103955 
L 390.087052 270.754995 
L 390.888664 261.565205 
L 391.690276 276.825315 
L 392.491889 257.98203 
L 393.293501 270.88146 
L 394.095113 266.370875 
L 394.896726 271.2187 
L 395.698338 267.59337 
L 396.499951 279.90263 
L 397.301563 269.19526 
L 398.103175 275.51851 
L 399.7064 266.75027 
L 400.508012 281.50452 
L 401.309625 277.837035 
L 402.111237 271.007925 
L 402.91285 255.62135 
L 404.516074 272.98921 
L 405.317687 276.403765 
L 406.119299 275.26558 
L 406.920912 286.47881 
L 407.722524 279.101685 
L 408.524136 276.2773 
L 409.325749 278.89091 
L 410.127361 276.403765 
L 410.928973 277.20471 
L 411.730586 276.235145 
L 412.532198 272.0618 
L 413.333811 275.34989 
L 414.135423 271.429475 
L 414.937035 282.43193 
L 415.738648 278.97522 
L 416.54026 286.605275 
L 417.341872 285.087695 
L 418.143485 275.897905 
L 418.945097 289.387505 
L 419.74671 281.799605 
L 420.548322 271.55594 
L 421.349934 282.811325 
L 422.151547 277.54195 
L 422.953159 285.46709 
L 423.754772 286.942515 
L 425.357996 270.417755 
L 426.159609 278.38505 
L 426.961221 282.93779 
L 427.762833 279.185995 
L 428.564446 279.48108 
L 429.366058 277.921345 
L 430.167671 277.45764 
L 430.969283 280.32418 
L 431.770895 277.752725 
L 432.572508 275.644975 
L 433.37412 291.073705 
L 434.175732 275.054805 
L 434.977345 280.15556 
L 435.778957 274.548945 
L 436.58057 275.77144 
L 437.382182 284.11813 
L 438.183794 284.919075 
L 438.985407 283.317185 
L 439.787019 270.670685 
L 440.588632 285.38278 
L 441.390244 274.25386 
L 442.191856 283.27503 
L 442.993469 271.05008 
L 443.795081 283.148565 
L 444.596693 284.919075 
L 445.398306 278.72229 
L 446.199918 276.36161 
L 447.001531 278.30074 
L 447.803143 286.858205 
L 448.604755 283.10641 
L 449.406368 283.10641 
L 450.20798 284.834765 
L 451.009592 275.307735 
L 451.811205 287.06898 
L 452.612817 275.85575 
L 453.41443 278.005655 
L 454.216042 274.33817 
L 455.017654 271.345165 
L 455.819267 286.73174 
L 456.620879 282.34762 
L 457.422491 287.74346 
L 458.224104 282.727015 
L 459.025716 281.42021 
L 459.827329 288.544405 
L 460.628941 283.991665 
L 461.430553 274.42248 
L 462.232166 279.776165 
L 463.033778 280.619265 
L 463.835391 282.93779 
L 464.637003 298.36652 
L 465.438615 284.79261 
L 466.240228 283.10641 
L 467.04184 283.823045 
L 467.843452 282.305465 
L 468.645065 289.00811 
L 469.446677 285.087695 
L 470.24829 272.31473 
L 471.049902 279.354615 
L 471.851514 289.26104 
L 472.653127 278.680135 
L 473.454739 291.11586 
L 474.256351 289.42966 
L 475.057964 291.158015 
L 475.859576 286.015105 
L 476.661189 281.715295 
L 477.462801 288.9238 
L 478.264413 275.644975 
L 479.066026 273.452915 
L 479.867638 286.98467 
L 480.669251 280.99866 
L 481.470863 285.38278 
L 482.272475 275.68713 
L 483.074088 287.15329 
L 483.8757 293.05499 
L 484.677312 279.438925 
L 485.478925 283.738735 
L 486.280537 284.834765 
L 487.08215 290.77862 
L 487.883762 294.530415 
L 488.685374 287.616995 
L 489.486987 300.98013 
L 491.090211 287.616995 
L 491.891824 288.0807 
L 492.693436 285.340625 
L 493.495049 289.09242 
L 494.296661 286.90036 
L 495.098273 297.312645 
L 495.899886 303.2565 
L 496.701498 290.314915 
L 498.304723 282.979945 
L 499.106335 288.122855 
L 499.907948 294.90981 
L 500.70956 302.877105 
L 501.511172 288.75518 
L 502.312785 290.399225 
L 503.114397 279.6497 
L 503.91601 289.00811 
L 504.717622 292.001115 
L 505.519234 296.469545 
L 506.320847 291.832495 
L 507.122459 289.724745 
L 507.924071 292.422665 
L 508.725684 293.9824 
L 509.527296 294.40395 
L 510.328909 292.422665 
L 511.130521 294.48826 
L 511.932133 299.673325 
L 512.733746 287.74346 
L 513.535358 297.43911 
L 514.336971 283.317185 
L 515.138583 293.265765 
L 515.940195 297.27049 
L 516.741808 287.026825 
L 518.345032 282.01038 
L 519.146645 291.36879 
L 519.948257 291.073705 
L 520.74987 293.30792 
L 521.551482 287.06898 
L 522.353094 291.242325 
L 523.154707 292.591285 
L 523.956319 297.86066 
L 524.757931 285.04554 
L 525.559544 295.626445 
L 526.361156 295.879375 
L 527.162769 294.530415 
L 528.765993 287.111135 
L 529.567606 306.671055 
L 530.369218 298.11359 
L 531.17083 297.94497 
L 531.972443 304.26822 
L 533.575668 285.509245 
L 534.37728 293.22361 
L 535.178892 298.53514 
L 535.980505 302.455555 
L 536.782117 286.605275 
L 537.58373 296.34308 
L 538.385342 290.314915 
L 539.186954 298.324365 
L 539.988567 296.17446 
L 540.790179 297.52342 
L 541.591791 305.95442 
L 542.393404 298.745915 
L 543.195016 295.963685 
L 543.996629 304.9427 
L 544.798241 288.965955 
L 545.599853 291.11586 
L 546.401466 298.1979 
L 547.203078 296.93325 
L 548.00469 298.240055 
L 548.806303 292.12758 
L 549.607915 294.23533 
L 550.409528 291.410945 
L 551.21114 301.781075 
L 552.012752 298.1979 
L 552.814365 293.30792 
L 553.615977 295.963685 
L 554.41759 300.22134 
L 555.219202 293.56085 
L 556.020814 296.93325 
L 556.822427 296.975405 
L 557.624039 298.408675 
L 558.425651 285.846485 
L 560.028876 308.14648 
L 560.830489 301.612455 
L 561.632101 299.841945 
L 562.433713 302.91926 
L 563.235326 301.865385 
L 564.036938 294.783345 
L 564.83855 294.277485 
L 565.640163 292.338355 
L 566.441775 296.42739 
L 567.243388 306.671055 
L 568.846612 291.62172 
L 569.648225 301.190905 
L 570.449837 309.368975 
L 571.25145 301.612455 
L 572.053062 300.179185 
L 572.854674 309.66406 
L 573.656287 305.27994 
L 574.457899 291.916805 
L 575.259511 302.58202 
L 576.061124 296.68032 
L 576.862736 293.64516 
L 577.664349 306.37597 
L 578.465961 296.216615 
L 579.267573 298.998845 
L 580.069186 302.24478 
L 580.870798 302.58202 
L 581.67241 302.16047 
L 582.474023 304.26822 
L 583.275635 297.312645 
L 584.077248 301.99185 
L 584.87886 310.633625 
L 586.482085 290.86293 
L 587.283697 292.04327 
L 588.08531 295.879375 
L 588.886922 311.18164 
L 589.688534 299.589015 
L 590.490147 312.319825 
L 591.291759 308.610185 
L 592.093371 305.575025 
L 592.894984 305.11132 
L 593.696596 305.069165 
L 594.498209 303.551585 
L 595.299821 303.298655 
L 596.101433 301.06444 
L 596.903046 304.9427 
L 597.704658 298.78807 
L 599.307883 311.01302 
L 600.109495 304.563305 
L 600.911108 316.872565 
L 601.71272 297.3548 
L 602.514332 315.607915 
L 603.315945 309.49544 
L 604.117557 299.926255 
L 604.91917 305.87011 
L 605.720782 306.586745 
L 606.522394 308.14648 
L 607.324007 313.87956 
L 608.125619 308.14648 
L 608.927231 299.79979 
L 609.728844 301.106595 
L 610.530456 303.50943 
L 611.332069 312.36198 
L 612.133681 304.43684 
L 612.935293 301.5703 
L 613.736906 307.851395 
L 614.538518 303.214345 
L 615.34013 304.984855 
L 616.141743 301.443835 
L 616.943355 315.270675 
L 617.744968 302.455555 
L 618.54658 304.226065 
L 619.348192 302.286935 
L 620.149805 303.76236 
L 620.951417 305.743645 
L 621.753029 306.96614 
L 622.554642 306.502435 
L 623.356254 302.792795 
L 624.157867 303.888825 
L 624.959479 305.27994 
L 625.761091 304.43684 
L 626.562704 304.057445 
L 627.364316 298.95669 
L 628.165929 312.10905 
L 628.967541 303.42512 
L 629.769153 300.937975 
L 630.570766 302.118315 
L 631.372378 310.127765 
L 632.17399 303.214345 
L 632.975603 311.35026 
L 633.777215 307.21907 
L 634.578828 305.237785 
L 635.38044 303.67805 
L 636.182052 306.12304 
L 636.983665 302.877105 
L 637.785277 298.61945 
L 638.586889 299.841945 
L 639.388502 302.24478 
L 640.190114 306.923985 
L 640.991727 304.731925 
L 641.793339 312.151205 
L 642.594951 303.00357 
L 643.396564 310.67578 
L 644.198176 312.572755 
L 644.999789 299.29393 
L 645.801401 296.76463 
L 646.603013 312.066895 
L 647.404626 300.30565 
L 648.206238 314.55404 
L 649.00785 315.607915 
L 649.809463 301.90754 
L 650.611075 309.116045 
L 651.412688 302.07616 
L 652.2143 308.525875 
L 653.015912 312.61491 
L 653.817525 297.734195 
L 654.619137 299.673325 
L 655.420749 305.996575 
L 656.222362 306.839675 
L 657.023974 303.42512 
L 657.825587 317.631355 
L 658.627199 309.116045 
L 659.428811 312.86784 
L 660.230424 303.635895 
L 661.032036 312.572755 
L 661.833649 301.359525 
L 662.635261 295.07843 
L 663.436873 307.514155 
L 664.238486 299.041 
L 665.040098 307.05045 
L 665.84171 308.610185 
L 666.643323 297.396955 
L 667.444935 315.607915 
L 668.246548 305.322095 
L 669.04816 303.34081 
L 669.849772 305.27994 
L 670.651385 308.188635 
L 671.452997 315.31283 
L 672.254609 306.54459 
L 673.056222 317.799975 
L 673.857834 317.631355 
L 674.659447 310.92871 
L 675.461059 306.6289 
L 676.262671 305.36425 
L 677.064284 311.01302 
L 677.865896 304.52115 
L 678.667509 314.933435 
L 679.469121 317.125495 
L 680.270733 316.788255 
L 681.072346 306.71321 
L 681.873958 306.165195 
L 682.67557 306.20735 
L 683.477183 305.27994 
L 684.278795 322.184095 
L 685.080408 312.86784 
L 685.88202 308.06217 
L 686.683632 305.70149 
L 687.485245 307.176915 
L 688.286857 308.020015 
L 689.088469 316.07162 
L 689.890082 311.94043 
L 690.691694 309.24251 
L 691.493307 308.39941 
L 692.294919 313.921715 
L 693.096531 308.441565 
L 693.898144 317.462735 
L 694.699756 307.261225 
L 695.501368 316.535325 
L 696.302981 311.51888 
L 697.104593 313.20508 
L 697.906206 306.165195 
L 698.707818 312.488445 
L 699.50943 311.055175 
L 700.311043 311.18164 
L 701.112655 304.647615 
L 701.914268 300.263495 
L 702.71588 304.563305 
L 703.517492 309.49544 
L 704.319105 313.45801 
L 705.120717 308.82096 
L 705.922329 309.07389 
L 706.723942 304.731925 
L 707.525554 318.052905 
L 708.327167 304.0996 
L 709.128779 311.898275 
L 709.930391 315.39714 
L 710.732004 311.898275 
L 711.533616 310.549315 
L 712.335228 305.27994 
L 713.136841 315.903 
L 713.938453 320.9616 
L 714.740066 316.07162 
L 715.541678 315.523605 
L 716.34329 318.643075 
L 717.144903 304.52115 
L 717.946515 309.116045 
L 718.748128 310.16992 
L 719.54974 320.20281 
L 720.351352 309.1582 
L 721.152965 309.874835 
L 721.954577 309.959145 
L 722.756189 311.392415 
L 723.557802 316.956875 
L 724.359414 310.0013 
L 725.161027 320.37143 
L 725.962639 314.89128 
L 726.764251 315.65007 
L 727.565864 315.102055 
L 728.367476 315.102055 
L 729.169088 306.923985 
L 730.772313 317.799975 
L 731.573926 312.69922 
L 732.375538 312.69922 
L 733.17715 308.90527 
L 733.978763 308.778805 
L 734.780375 312.404135 
L 735.581988 312.61491 
L 736.3836 316.366705 
L 737.986825 311.055175 
L 738.788437 310.970865 
L 740.391662 315.65007 
L 741.193274 312.78353 
L 741.994887 304.0996 
L 742.796499 307.13476 
L 743.598111 320.20281 
L 744.399724 323.23797 
L 745.201336 314.2168 
L 746.002948 314.427575 
L 746.804561 318.4323 
L 747.606173 315.439295 
L 748.407786 311.898275 
L 749.209398 306.165195 
L 750.01101 305.912265 
L 750.812623 325.303565 
L 751.614235 314.97559 
L 752.415848 312.151205 
L 753.21746 313.79525 
L 754.019072 318.052905 
L 754.820685 319.78126 
L 755.622297 313.584475 
L 756.423909 326.18882 
L 757.225522 317.75782 
L 758.027134 312.909995 
L 758.828747 311.6875 
L 759.630359 319.78126 
L 760.431971 305.406405 
L 761.233584 321.13022 
L 762.035196 308.98958 
L 762.836808 316.113775 
L 763.638421 313.162925 
L 764.440033 321.172375 
L 765.241646 316.24024 
L 766.043258 317.67351 
L 766.84487 316.07162 
L 767.646483 310.67578 
L 768.448095 324.123225 
L 769.249708 316.451015 
L 770.05132 311.77181 
L 770.852932 307.767085 
L 771.654545 309.790525 
L 772.456157 319.44402 
L 773.257769 317.547045 
L 774.059382 323.74383 
L 774.860994 324.123225 
L 775.662607 320.70867 
L 776.464219 318.34799 
L 777.265831 320.79298 
L 778.067444 316.029465 
L 778.869056 318.34799 
L 779.670668 317.547045 
L 780.472281 316.49317 
L 781.273893 315.860845 
L 782.075506 315.017745 
L 782.877118 322.6478 
L 783.67873 316.24024 
L 784.480343 330.193545 
L 785.281955 322.268405 
L 786.083567 319.233245 
L 786.88518 325.09279 
L 787.686792 319.570485 
L 788.488405 313.162925 
L 789.290017 321.003755 
L 790.091629 319.570485 
L 790.893242 326.652525 
L 791.694854 323.15366 
L 792.496467 318.558765 
L 793.298079 311.6875 
L 794.099691 320.37143 
L 794.901304 321.846855 
L 795.702916 317.631355 
L 796.504528 319.61264 
L 797.306141 319.78126 
L 798.107753 315.523605 
L 798.909366 318.51661 
L 799.710978 316.788255 
L 800.51259 319.35971 
L 801.314203 324.50262 
L 802.115815 316.282395 
L 802.917427 316.91472 
L 803.71904 315.270675 
L 804.520652 316.366705 
L 805.322265 321.509615 
L 806.123877 322.942885 
L 806.925489 320.37143 
L 807.727102 313.078615 
L 808.528714 322.184095 
L 809.330327 310.76009 
L 810.131939 322.39487 
L 810.933551 310.25423 
L 811.735164 322.015475 
L 812.536776 319.78126 
L 813.338388 317.041185 
L 814.140001 315.22852 
L 815.743226 319.69695 
L 816.544838 325.1771 
L 817.34645 315.523605 
L 818.148063 321.72039 
L 818.949675 313.753095 
L 819.751287 323.32228 
L 820.5529 315.14421 
L 821.354512 315.017745 
L 822.156125 314.343265 
L 822.957737 308.3151 
L 823.759349 323.32228 
L 824.560962 314.933435 
L 825.362574 325.387875 
L 826.164187 317.50489 
L 826.965799 320.45574 
L 827.767411 324.08107 
L 829.370636 311.139485 
L 830.172248 322.31056 
L 830.973861 312.994305 
L 831.775473 321.63608 
L 832.577086 328.04364 
L 833.378698 318.137215 
L 834.18031 319.61264 
L 834.981923 318.643075 
L 835.783535 316.7461 
L 836.585147 325.59865 
L 837.38676 313.331545 
L 838.188372 309.284665 
L 838.989985 314.596195 
L 839.791597 324.83986 
L 840.593209 314.258955 
L 841.394822 325.85158 
L 842.196434 323.111505 
L 842.998047 325.303565 
L 843.799659 319.44402 
L 844.601271 319.486175 
L 845.402884 318.76954 
L 846.204496 310.380695 
L 847.807721 318.01075 
L 848.609333 313.03646 
L 849.410946 321.04591 
L 850.212558 308.06217 
L 851.01417 324.038915 
L 851.815783 321.762545 
L 852.617395 315.39714 
L 853.419007 316.91472 
L 854.22062 320.160655 
L 855.022232 322.31056 
L 855.823845 323.870295 
L 856.625457 320.87729 
L 857.427069 331.58466 
L 858.228682 323.40659 
L 859.030294 317.42058 
L 859.831906 320.582205 
L 860.633519 318.85385 
L 862.236744 317.968595 
L 863.038356 329.64553 
L 863.839968 330.615095 
L 864.641581 319.823415 
L 865.443193 315.81869 
L 866.244806 318.68523 
L 867.046418 318.896005 
L 867.84803 327.242695 
L 868.649643 328.97105 
L 869.451255 320.87729 
L 870.252867 319.148935 
L 871.05448 312.825685 
L 871.856092 319.44402 
L 872.657705 324.629085 
L 873.459317 324.460465 
L 874.260929 323.40659 
L 875.062542 319.739105 
L 875.864154 322.689955 
L 876.665766 322.015475 
L 877.467379 325.809425 
L 878.268991 320.329275 
L 879.070604 323.785985 
L 879.872216 328.001485 
L 880.673828 316.535325 
L 881.475441 324.75555 
L 882.277053 316.32455 
L 883.078666 320.919445 
L 883.880278 326.52606 
L 884.68189 316.029465 
L 885.483503 312.69922 
L 886.285115 313.837405 
L 887.086727 321.088065 
L 887.88834 322.22625 
L 888.689952 322.22625 
L 889.491565 317.209805 
L 890.293177 316.66179 
L 891.094789 324.713395 
L 891.896402 322.774265 
L 892.698014 315.903 
L 893.499626 325.1771 
L 894.301239 323.954605 
L 895.102851 322.184095 
L 895.904464 318.60092 
L 896.706076 317.209805 
L 890.293177 316.66179 
L 891.094789 324.713395 
L 891.896402 322.774265 
L 892.698014 315.903 
L 893.499626 325.1771 
L 894.301239 323.954605 
L 895.102851 322.184095 
L 895.904464 318.60092 
L 896.706076 317.209805 
L 897.507688 336.55895 
L 898.309301 324.038915 
L 899.110913 323.99676 
L 899.912526 330.57294 
L 900.714138 320.329275 
L 901.51575 317.547045 
L 902.317363 317.884285 
L 903.118975 327.495625 
L 903.920587 326.146665 
L 904.7222 314.13249 
L 905.523812 325.00848 
L 906.325425 318.811695 
L 907.127037 325.00848 
L 907.928649 321.21453 
L 908.730262 327.87502 
L 909.531874 328.001485 
L 910.333486 327.074075 
L 911.135099 321.04591 
L 911.936711 330.193545 
L 912.738324 315.186365 
L 913.539936 322.689955 
L 914.341548 325.050635 
L 915.143161 323.701675 
L 915.944773 323.870295 
L 916.746386 318.305835 
L 917.547998 322.774265 
L 918.34961 318.34799 
L 919.151223 325.640805 
L 919.952835 325.134945 
L 920.754447 323.533055 
L 921.55606 318.85385 
L 922.357672 325.26141 
L 923.159285 321.55177 
L 923.960897 323.06935 
L 924.762509 323.701675 
L 926.365734 315.692225 
L 927.167346 324.882015 
L 927.968959 332.68069 
L 928.770571 324.207535 
L 929.572184 323.32228 
L 930.373796 327.62209 
L 931.175408 326.52606 
L 931.977021 323.785985 
L 932.778633 315.945155 
L 933.580246 318.727385 
L 934.381858 327.074075 
L 935.18347 328.338725 
L 935.985083 324.334 
L 936.786695 318.390145 
L 937.588307 326.315285 
L 938.38992 331.16311 
L 939.191532 324.544775 
L 939.993145 330.74156 
L 940.794757 327.242695 
L 941.596369 326.8633 
L 942.397982 319.401865 
L 943.199594 328.97105 
L 944.001206 318.474455 
L 944.802819 321.256685 
L 945.604431 327.28485 
L 946.406044 322.099785 
L 947.207656 323.82814 
L 948.009268 328.21226 
L 948.810881 324.08107 
L 949.612493 327.53778 
L 950.414105 326.18882 
L 951.215718 320.835135 
L 952.01733 328.423035 
L 952.818943 330.57294 
L 953.620555 324.629085 
L 954.422167 315.945155 
L 955.22378 316.703945 
L 956.025392 323.617365 
L 956.827005 331.83759 
L 957.628617 326.10451 
L 958.430229 334.87275 
L 959.231842 330.48863 
L 960.033454 328.675965 
L 960.835066 329.05536 
L 961.636679 327.242695 
L 962.438291 325.93589 
L 963.239904 327.28485 
L 964.041516 322.22625 
L 964.843128 327.36916 
L 965.644741 323.06935 
L 966.446353 328.21226 
L 967.247965 332.09052 
L 968.049578 328.71812 
L 968.85119 336.30602 
L 969.652803 323.954605 
L 970.454415 335.673695 
L 971.256027 329.519065 
L 972.05764 322.47918 
L 972.859252 330.699405 
L 973.660865 327.917175 
L 974.462477 329.47691 
L 975.264089 336.685415 
L 976.065702 329.3926 
L 976.867314 319.94988 
L 977.668926 327.158385 
L 978.470539 328.254415 
L 979.272151 331.036645 
L 980.073764 326.905455 
L 980.875376 326.10451 
L 981.676988 326.315285 
L 982.478601 327.11623 
L 983.280213 326.821145 
L 984.081825 325.134945 
L 984.883438 336.516795 
L 985.68505 323.74383 
L 986.486663 326.652525 
L 987.288275 322.56349 
L 988.8915 329.940615 
L 989.693112 329.56122 
L 990.494725 327.7064 
L 991.296337 322.56349 
L 992.097949 329.3926 
L 992.899562 323.74383 
L 993.701174 329.47691 
L 994.502786 323.32228 
L 995.304399 322.81642 
L 996.106011 330.109235 
L 996.907624 326.315285 
L 997.709236 325.09279 
L 998.510848 322.73211 
L 999.312461 333.01793 
L 1000.114073 325.809425 
L 1000.915685 330.952335 
L 1001.717298 329.13967 
L 1002.51891 324.544775 
L 1003.320523 328.12795 
L 1004.122135 324.67124 
L 1004.923747 325.68296 
L 1005.72536 320.37143 
L 1006.526972 322.437025 
L 1007.328585 325.93589 
L 1008.130197 327.327005 
L 1008.931809 328.170105 
L 1009.733422 330.91018 
L 1010.535034 323.4909 
L 1011.336646 332.59638 
L 1012.138259 330.40432 
L 1012.939871 321.21453 
L 1013.741484 321.55177 
L 1014.543096 329.519065 
L 1015.344708 324.291845 
L 1016.146321 335.589385 
L 1016.947933 331.879745 
L 1017.749545 323.40659 
L 1017.749545 323.40659 
" clip-path="url(#p7ea616e93a)" style="fill: none; stroke: #1f77b4; stroke-width: 1.5; stroke-linecap: square"/>
   </g>
   <g id="LineCollection_1">
    <path d="M 118.340455 358.058 
L 1017.749545 358.058 
" clip-path="url(#p7ea616e93a)" style="fill: none; stroke: #ff0000; stroke-width: 1.5"/>
   </g>
   <g id="LineCollection_2">
    <path d="M 118.340455 334.02965 
L 1017.749545 334.02965 
" clip-path="url(#p7ea616e93a)" style="fill: none; stroke: #008000; stroke-width: 1.5"/>
   </g>
   <g id="patch_3">
    <path d="M 73.37 374.92 
L 73.37 37.68 
" style="fill: none; stroke: #000000; stroke-width: 0.8; stroke-linejoin: miter; stroke-linecap: square"/>
   </g>
   <g id="patch_4">
    <path d="M 1062.72 374.92 
L 1062.72 37.68 
" style="fill: none; stroke: #000000; stroke-width: 0.8; stroke-linejoin: miter; stroke-linecap: square"/>
   </g>
   <g id="patch_5">
    <path d="M 73.37 374.92 
L 1062.72 374.92 
" style="fill: none; stroke: #000000; stroke-width: 0.8; stroke-linejoin: miter; stroke-linecap: square"/>
   </g>
   <g id="patch_6">
    <path d="M 73.37 37.68 
L 1062.72 37.68 
" style="fill: none; stroke: #000000; stroke-width: 0.8; stroke-linejoin: miter; stroke-linecap: square"/>
   </g>
   <g id="text_18">
    <!-- Perplexity vs. Training Steps for WikiText-103 (151M) -->
    <g transform="translate(315.0115 31.68) scale(0.192 -0.192)">
     <defs>
      <path id="DejaVuSans-76" d="M 191 3500 
L 800 3500 
L 1894 563 
L 2988 3500 
L 3597 3500 
L 2284 0 
L 1503 0 
L 191 3500 
z
" transform="scale(0.015625)"/>
      <path id="DejaVuSans-2e" d="M 684 794 
L 1344 794 
L 1344 0 
L 684 0 
L 684 794 
z
" transform="scale(0.015625)"/>
      <path id="DejaVuSans-66" d="M 2375 4863 
L 2375 4384 
L 1825 4384 
Q 1516 4384 1395 4259 
Q 1275 4134 1275 3809 
L 1275 3500 
L 2222 3500 
L 2222 3053 
L 1275 3053 
L 1275 0 
L 697 0 
L 697 3053 
L 147 3053 
L 147 3500 
L 697 3500 
L 697 3744 
Q 697 4328 969 4595 
Q 1241 4863 1831 4863 
L 2375 4863 
z
" transform="scale(0.015625)"/>
      <path id="DejaVuSans-6f" d="M 1959 3097 
Q 1497 3097 1228 2736 
Q 959 2375 959 1747 
Q 959 1119 1226 758 
Q 1494 397 1959 397 
Q 2419 397 2687 759 
Q 2956 1122 2956 1747 
Q 2956 2369 2687 2733 
Q 2419 3097 1959 3097 
z
M 1959 3584 
Q 2709 3584 3137 3096 
Q 3566 2609 3566 1747 
Q 3566 888 3137 398 
Q 2709 -91 1959 -91 
Q 1206 -91 779 398 
Q 353 888 353 1747 
Q 353 2609 779 3096 
Q 1206 3584 1959 3584 
z
" transform="scale(0.015625)"/>
      <path id="DejaVuSans-57" d="M 213 4666 
L 850 4666 
L 1831 722 
L 2809 4666 
L 3519 4666 
L 4500 722 
L 5478 4666 
L 6119 4666 
L 4947 0 
L 4153 0 
L 3169 4050 
L 2175 0 
L 1381 0 
L 213 4666 
z
" transform="scale(0.015625)"/>
      <path id="DejaVuSans-6b" d="M 581 4863 
L 1159 4863 
L 1159 1991 
L 2875 3500 
L 3609 3500 
L 1753 1863 
L 3688 0 
L 2938 0 
L 1159 1709 
L 1159 0 
L 581 0 
L 581 4863 
z
" transform="scale(0.015625)"/>
      <path id="DejaVuSans-2d" d="M 313 2009 
L 1997 2009 
L 1997 1497 
L 313 1497 
L 313 2009 
z
" transform="scale(0.015625)"/>
      <path id="DejaVuSans-28" d="M 1984 4856 
Q 1566 4138 1362 3434 
Q 1159 2731 1159 2009 
Q 1159 1288 1364 580 
Q 1569 -128 1984 -844 
L 1484 -844 
Q 1016 -109 783 600 
Q 550 1309 550 2009 
Q 550 2706 781 3412 
Q 1013 4119 1484 4856 
L 1984 4856 
z
" transform="scale(0.015625)"/>
      <path id="DejaVuSans-4d" d="M 628 4666 
L 1569 4666 
L 2759 1491 
L 3956 4666 
L 4897 4666 
L 4897 0 
L 4281 0 
L 4281 4097 
L 3078 897 
L 2444 897 
L 1241 4097 
L 1241 0 
L 628 0 
L 628 4666 
z
" transform="scale(0.015625)"/>
      <path id="DejaVuSans-29" d="M 513 4856 
L 1013 4856 
Q 1481 4119 1714 3412 
Q 1947 2706 1947 2009 
Q 1947 1309 1714 600 
Q 1481 -109 1013 -844 
L 513 -844 
Q 928 -128 1133 580 
Q 1338 1288 1338 2009 
Q 1338 2731 1133 3434 
Q 928 4138 513 4856 
z
" transform="scale(0.015625)"/>
     </defs>
     <use xlink:href="#DejaVuSans-50"/>
     <use xlink:href="#DejaVuSans-65" x="56.677734"/>
     <use xlink:href="#DejaVuSans-72" x="118.201172"/>
     <use xlink:href="#DejaVuSans-70" x="159.314453"/>
     <use xlink:href="#DejaVuSans-6c" x="222.791016"/>
     <use xlink:href="#DejaVuSans-65" x="250.574219"/>
     <use xlink:href="#DejaVuSans-78" x="310.347656"/>
     <use xlink:href="#DejaVuSans-69" x="369.527344"/>
     <use xlink:href="#DejaVuSans-74" x="397.310547"/>
     <use xlink:href="#DejaVuSans-79" x="436.519531"/>
     <use xlink:href="#DejaVuSans-20" x="495.699219"/>
     <use xlink:href="#DejaVuSans-76" x="527.486328"/>
     <use xlink:href="#DejaVuSans-73" x="586.666016"/>
     <use xlink:href="#DejaVuSans-2e" x="638.765625"/>
     <use xlink:href="#DejaVuSans-20" x="670.552734"/>
     <use xlink:href="#DejaVuSans-54" x="702.339844"/>
     <use xlink:href="#DejaVuSans-72" x="748.673828"/>
     <use xlink:href="#DejaVuSans-61" x="789.787109"/>
     <use xlink:href="#DejaVuSans-69" x="851.066406"/>
     <use xlink:href="#DejaVuSans-6e" x="878.849609"/>
     <use xlink:href="#DejaVuSans-69" x="942.228516"/>
     <use xlink:href="#DejaVuSans-6e" x="970.011719"/>
     <use xlink:href="#DejaVuSans-67" x="1033.390625"/>
     <use xlink:href="#DejaVuSans-20" x="1096.867188"/>
     <use xlink:href="#DejaVuSans-53" x="1128.654297"/>
     <use xlink:href="#DejaVuSans-74" x="1192.130859"/>
     <use xlink:href="#DejaVuSans-65" x="1231.339844"/>
     <use xlink:href="#DejaVuSans-70" x="1292.863281"/>
     <use xlink:href="#DejaVuSans-73" x="1356.339844"/>
     <use xlink:href="#DejaVuSans-20" x="1408.439453"/>
     <use xlink:href="#DejaVuSans-66" x="1440.226562"/>
     <use xlink:href="#DejaVuSans-6f" x="1475.431641"/>
     <use xlink:href="#DejaVuSans-72" x="1536.613281"/>
     <use xlink:href="#DejaVuSans-20" x="1577.726562"/>
     <use xlink:href="#DejaVuSans-57" x="1609.513672"/>
     <use xlink:href="#DejaVuSans-69" x="1706.140625"/>
     <use xlink:href="#DejaVuSans-6b" x="1733.923828"/>
     <use xlink:href="#DejaVuSans-69" x="1791.833984"/>
     <use xlink:href="#DejaVuSans-54" x="1819.617188"/>
     <use xlink:href="#DejaVuSans-65" x="1863.701172"/>
     <use xlink:href="#DejaVuSans-78" x="1923.474609"/>
     <use xlink:href="#DejaVuSans-74" x="1982.654297"/>
     <use xlink:href="#DejaVuSans-2d" x="2021.863281"/>
     <use xlink:href="#DejaVuSans-31" x="2057.947266"/>
     <use xlink:href="#DejaVuSans-30" x="2121.570312"/>
     <use xlink:href="#DejaVuSans-33" x="2185.193359"/>
     <use xlink:href="#DejaVuSans-20" x="2248.816406"/>
     <use xlink:href="#DejaVuSans-28" x="2280.603516"/>
     <use xlink:href="#DejaVuSans-31" x="2319.617188"/>
     <use xlink:href="#DejaVuSans-35" x="2383.240234"/>
     <use xlink:href="#DejaVuSans-31" x="2446.863281"/>
     <use xlink:href="#DejaVuSans-4d" x="2510.486328"/>
     <use xlink:href="#DejaVuSans-29" x="2596.765625"/>
    </g>
   </g>
   <g id="legend_1">
    <g id="patch_7">
     <path d="M 786.865 120.935 
L 1051.52 120.935 
Q 1054.72 120.935 1054.72 117.735 
L 1054.72 48.88 
Q 1054.72 45.68 1051.52 45.68 
L 786.865 45.68 
Q 783.665 45.68 783.665 48.88 
L 783.665 117.735 
Q 783.665 120.935 786.865 120.935 
z
" style="fill: #ffffff; opacity: 0.8; stroke: #cccccc; stroke-linejoin: miter"/>
    </g>
    <g id="line2d_32">
     <path d="M 790.065 58.6375 
L 806.065 58.6375 
L 822.065 58.6375 
" style="fill: none; stroke: #1f77b4; stroke-width: 1.5; stroke-linecap: square"/>
    </g>
    <g id="text_19">
     <!-- PPL Value on Train Dataset -->
     <g transform="translate(834.865 64.2375) scale(0.16 -0.16)">
      <defs>
       <path id="DejaVuSans-4c" d="M 628 4666 
L 1259 4666 
L 1259 531 
L 3531 531 
L 3531 0 
L 628 0 
L 628 4666 
z
" transform="scale(0.015625)"/>
       <path id="DejaVuSans-56" d="M 1831 0 
L 50 4666 
L 709 4666 
L 2188 738 
L 3669 4666 
L 4325 4666 
L 2547 0 
L 1831 0 
z
" transform="scale(0.015625)"/>
       <path id="DejaVuSans-75" d="M 544 1381 
L 544 3500 
L 1119 3500 
L 1119 1403 
Q 1119 906 1312 657 
Q 1506 409 1894 409 
Q 2359 409 2629 706 
Q 2900 1003 2900 1516 
L 2900 3500 
L 3475 3500 
L 3475 0 
L 2900 0 
L 2900 538 
Q 2691 219 2414 64 
Q 2138 -91 1772 -91 
Q 1169 -91 856 284 
Q 544 659 544 1381 
z
M 1991 3584 
L 1991 3584 
z
" transform="scale(0.015625)"/>
       <path id="DejaVuSans-44" d="M 1259 4147 
L 1259 519 
L 2022 519 
Q 2988 519 3436 956 
Q 3884 1394 3884 2338 
Q 3884 3275 3436 3711 
Q 2988 4147 2022 4147 
L 1259 4147 
z
M 628 4666 
L 1925 4666 
Q 3281 4666 3915 4102 
Q 4550 3538 4550 2338 
Q 4550 1131 3912 565 
Q 3275 0 1925 0 
L 628 0 
L 628 4666 
z
" transform="scale(0.015625)"/>
      </defs>
      <use xlink:href="#DejaVuSans-50"/>
      <use xlink:href="#DejaVuSans-50" x="60.302734"/>
      <use xlink:href="#DejaVuSans-4c" x="120.605469"/>
      <use xlink:href="#DejaVuSans-20" x="176.318359"/>
      <use xlink:href="#DejaVuSans-56" x="208.105469"/>
      <use xlink:href="#DejaVuSans-61" x="268.763672"/>
      <use xlink:href="#DejaVuSans-6c" x="330.042969"/>
      <use xlink:href="#DejaVuSans-75" x="357.826172"/>
      <use xlink:href="#DejaVuSans-65" x="421.205078"/>
      <use xlink:href="#DejaVuSans-20" x="482.728516"/>
      <use xlink:href="#DejaVuSans-6f" x="514.515625"/>
      <use xlink:href="#DejaVuSans-6e" x="575.697266"/>
      <use xlink:href="#DejaVuSans-20" x="639.076172"/>
      <use xlink:href="#DejaVuSans-54" x="670.863281"/>
      <use xlink:href="#DejaVuSans-72" x="717.197266"/>
      <use xlink:href="#DejaVuSans-61" x="758.310547"/>
      <use xlink:href="#DejaVuSans-69" x="819.589844"/>
      <use xlink:href="#DejaVuSans-6e" x="847.373047"/>
      <use xlink:href="#DejaVuSans-20" x="910.751953"/>
      <use xlink:href="#DejaVuSans-44" x="942.539062"/>
      <use xlink:href="#DejaVuSans-61" x="1019.541016"/>
      <use xlink:href="#DejaVuSans-74" x="1080.820312"/>
      <use xlink:href="#DejaVuSans-61" x="1120.029297"/>
      <use xlink:href="#DejaVuSans-73" x="1181.308594"/>
      <use xlink:href="#DejaVuSans-65" x="1233.408203"/>
      <use xlink:href="#DejaVuSans-74" x="1294.931641"/>
     </g>
    </g>
    <g id="line2d_33">
     <path d="M 790.065 82.1225 
L 822.065 82.1225 
" style="fill: none; stroke: #ff0000; stroke-width: 1.5"/>
    </g>
    <g id="text_20">
     <!-- Target PPL Value -->
     <g transform="translate(834.865 87.7225) scale(0.16 -0.16)">
      <use xlink:href="#DejaVuSans-54"/>
      <use xlink:href="#DejaVuSans-61" x="44.583984"/>
      <use xlink:href="#DejaVuSans-72" x="105.863281"/>
      <use xlink:href="#DejaVuSans-67" x="145.226562"/>
      <use xlink:href="#DejaVuSans-65" x="208.703125"/>
      <use xlink:href="#DejaVuSans-74" x="270.226562"/>
      <use xlink:href="#DejaVuSans-20" x="309.435547"/>
      <use xlink:href="#DejaVuSans-50" x="341.222656"/>
      <use xlink:href="#DejaVuSans-50" x="401.525391"/>
      <use xlink:href="#DejaVuSans-4c" x="461.828125"/>
      <use xlink:href="#DejaVuSans-20" x="517.541016"/>
      <use xlink:href="#DejaVuSans-56" x="549.328125"/>
      <use xlink:href="#DejaVuSans-61" x="609.986328"/>
      <use xlink:href="#DejaVuSans-6c" x="671.265625"/>
      <use xlink:href="#DejaVuSans-75" x="699.048828"/>
      <use xlink:href="#DejaVuSans-65" x="762.427734"/>
     </g>
    </g>
    <g id="line2d_34">
     <path d="M 790.065 105.6075 
L 822.065 105.6075 
" style="fill: none; stroke: #008000; stroke-width: 1.5"/>
    </g>
    <g id="text_21">
     <!-- Final Test PPL Value -->
     <g transform="translate(834.865 111.2075) scale(0.16 -0.16)">
      <defs>
       <path id="DejaVuSans-46" d="M 628 4666 
L 3309 4666 
L 3309 4134 
L 1259 4134 
L 1259 2759 
L 3109 2759 
L 3109 2228 
L 1259 2228 
L 1259 0 
L 628 0 
L 628 4666 
z
" transform="scale(0.015625)"/>
      </defs>
      <use xlink:href="#DejaVuSans-46"/>
      <use xlink:href="#DejaVuSans-69" x="50.269531"/>
      <use xlink:href="#DejaVuSans-6e" x="78.052734"/>
      <use xlink:href="#DejaVuSans-61" x="141.431641"/>
      <use xlink:href="#DejaVuSans-6c" x="202.710938"/>
      <use xlink:href="#DejaVuSans-20" x="230.494141"/>
      <use xlink:href="#DejaVuSans-54" x="262.28125"/>
      <use xlink:href="#DejaVuSans-65" x="306.365234"/>
      <use xlink:href="#DejaVuSans-73" x="367.888672"/>
      <use xlink:href="#DejaVuSans-74" x="419.988281"/>
      <use xlink:href="#DejaVuSans-20" x="459.197266"/>
      <use xlink:href="#DejaVuSans-50" x="490.984375"/>
      <use xlink:href="#DejaVuSans-50" x="551.287109"/>
      <use xlink:href="#DejaVuSans-4c" x="611.589844"/>
      <use xlink:href="#DejaVuSans-20" x="667.302734"/>
      <use xlink:href="#DejaVuSans-56" x="699.089844"/>
      <use xlink:href="#DejaVuSans-61" x="759.748047"/>
      <use xlink:href="#DejaVuSans-6c" x="821.027344"/>
      <use xlink:href="#DejaVuSans-75" x="848.810547"/>
      <use xlink:href="#DejaVuSans-65" x="912.189453"/>
     </g>
    </g>
   </g>
  </g>
 </g>
 <defs>
  <clipPath id="p7ea616e93a">
   <rect x="73.37" y="37.68" width="989.35" height="337.24"/>
  </clipPath>
 </defs>
</svg>
