<?xml version="1.0" encoding="utf-8" standalone="no"?>
<!DOCTYPE svg PUBLIC "-//W3C//DTD SVG 1.1//EN"
  "http://www.w3.org/Graphics/SVG/1.1/DTD/svg11.dtd">
<svg xmlns:xlink="http://www.w3.org/1999/xlink" width="1080pt" height="576pt" viewBox="0 0 1080 576" xmlns="http://www.w3.org/2000/svg" version="1.1">
 <metadata>
  <rdf:RDF xmlns:dc="http://purl.org/dc/elements/1.1/" xmlns:cc="http://creativecommons.org/ns#" xmlns:rdf="http://www.w3.org/1999/02/22-rdf-syntax-ns#">
   <cc:Work>
    <dc:type rdf:resource="http://purl.org/dc/dcmitype/StillImage"/>
    <dc:date>2026-04-02T13:32:28.536633</dc:date>
    <dc:format>image/svg+xml</dc:format>
    <dc:creator>
     <cc:Agent>
      <dc:title>Matplotlib v3.8.3, https://matplotlib.org/</dc:title>
     </cc:Agent>
    </dc:creator>
   </cc:Work>
  </rdf:RDF>
 </metadata>
 <defs>
  <style type="text/css">*{stroke-linejoin: round; stroke-linecap: butt}</style>
 </defs>
 <g id="figure_1">
  <g id="patch_1">
   <path d="M 0 576 
L 1080 576 
L 1080 0 
L 0 0 
z
" style="fill: #ffffff"/>
  </g>
  <g id="axes_1">
   <g id="patch_2">
    <path d="M 135 512.64 
L 972 512.64 
L 972 69.12 
L 135 69.12 
z
" style="fill: #ffffff"/>
   </g>
   <g id="matplotlib.axis_1">
    <g id="xtick_1">
     <g id="line2d_1">
      <path d="M 173.045455 512.64 
L 173.045455 69.12 
" clip-path="url(#pdb5d769d53)" style="fill: none; stroke: #b0b0b0; stroke-width: 0.8; stroke-linecap: square"/>
     </g>
     <g id="line2d_2">
      <defs>
       <path id="m8ea42d8231" d="M 0 0 
L 0 3.5 
" style="stroke: #000000; stroke-width: 0.8"/>
      </defs>
      <g>
       <use xlink:href="#m8ea42d8231" x="173.045455" y="512.64" style="stroke: #000000; stroke-width: 0.8"/>
      </g>
     </g>
     <g id="text_1">
      <!-- 0 -->
      <g transform="translate(167.955455 531.7975) scale(0.16 -0.16)">
       <defs>
        <path id="DejaVuSans-30" d="M 2034 4250 
Q 1547 4250 1301 3770 
Q 1056 3291 1056 2328 
Q 1056 1369 1301 889 
Q 1547 409 2034 409 
Q 2525 409 2770 889 
Q 3016 1369 3016 2328 
Q 3016 3291 2770 3770 
Q 2525 4250 2034 4250 
z
M 2034 4750 
Q 2819 4750 3233 4129 
Q 3647 3509 3647 2328 
Q 3647 1150 3233 529 
Q 2819 -91 2034 -91 
Q 1250 -91 836 529 
Q 422 1150 422 2328 
Q 422 3509 836 4129 
Q 1250 4750 2034 4750 
z
" transform="scale(0.015625)"/>
       </defs>
       <use xlink:href="#DejaVuSans-30"/>
      </g>
     </g>
    </g>
    <g id="xtick_2">
     <g id="line2d_3">
      <path d="M 268.159091 512.64 
L 268.159091 69.12 
" clip-path="url(#pdb5d769d53)" style="fill: none; stroke: #b0b0b0; stroke-width: 0.8; stroke-linecap: square"/>
     </g>
     <g id="line2d_4">
      <g>
       <use xlink:href="#m8ea42d8231" x="268.159091" y="512.64" style="stroke: #000000; stroke-width: 0.8"/>
      </g>
     </g>
     <g id="text_2">
      <!-- 5000 -->
      <g transform="translate(247.799091 531.7975) scale(0.16 -0.16)">
       <defs>
        <path id="DejaVuSans-35" d="M 691 4666 
L 3169 4666 
L 3169 4134 
L 1269 4134 
L 1269 2991 
Q 1406 3038 1543 3061 
Q 1681 3084 1819 3084 
Q 2600 3084 3056 2656 
Q 3513 2228 3513 1497 
Q 3513 744 3044 326 
Q 2575 -91 1722 -91 
Q 1428 -91 1123 -41 
Q 819 9 494 109 
L 494 744 
Q 775 591 1075 516 
Q 1375 441 1709 441 
Q 2250 441 2565 725 
Q 2881 1009 2881 1497 
Q 2881 1984 2565 2268 
Q 2250 2553 1709 2553 
Q 1456 2553 1204 2497 
Q 953 2441 691 2322 
L 691 4666 
z
" transform="scale(0.015625)"/>
       </defs>
       <use xlink:href="#DejaVuSans-35"/>
       <use xlink:href="#DejaVuSans-30" x="63.623047"/>
       <use xlink:href="#DejaVuSans-30" x="127.246094"/>
       <use xlink:href="#DejaVuSans-30" x="190.869141"/>
      </g>
     </g>
    </g>
    <g id="xtick_3">
     <g id="line2d_5">
      <path d="M 363.272727 512.64 
L 363.272727 69.12 
" clip-path="url(#pdb5d769d53)" style="fill: none; stroke: #b0b0b0; stroke-width: 0.8; stroke-linecap: square"/>
     </g>
     <g id="line2d_6">
      <g>
       <use xlink:href="#m8ea42d8231" x="363.272727" y="512.64" style="stroke: #000000; stroke-width: 0.8"/>
      </g>
     </g>
     <g id="text_3">
      <!-- 10000 -->
      <g transform="translate(337.822727 531.7975) scale(0.16 -0.16)">
       <defs>
        <path id="DejaVuSans-31" d="M 794 531 
L 1825 531 
L 1825 4091 
L 703 3866 
L 703 4441 
L 1819 4666 
L 2450 4666 
L 2450 531 
L 3481 531 
L 3481 0 
L 794 0 
L 794 531 
z
" transform="scale(0.015625)"/>
       </defs>
       <use xlink:href="#DejaVuSans-31"/>
       <use xlink:href="#DejaVuSans-30" x="63.623047"/>
       <use xlink:href="#DejaVuSans-30" x="127.246094"/>
       <use xlink:href="#DejaVuSans-30" x="190.869141"/>
       <use xlink:href="#DejaVuSans-30" x="254.492188"/>
      </g>
     </g>
    </g>
    <g id="xtick_4">
     <g id="line2d_7">
      <path d="M 458.386364 512.64 
L 458.386364 69.12 
" clip-path="url(#pdb5d769d53)" style="fill: none; stroke: #b0b0b0; stroke-width: 0.8; stroke-linecap: square"/>
     </g>
     <g id="line2d_8">
      <g>
       <use xlink:href="#m8ea42d8231" x="458.386364" y="512.64" style="stroke: #000000; stroke-width: 0.8"/>
      </g>
     </g>
     <g id="text_4">
      <!-- 15000 -->
      <g transform="translate(432.936364 531.7975) scale(0.16 -0.16)">
       <use xlink:href="#DejaVuSans-31"/>
       <use xlink:href="#DejaVuSans-35" x="63.623047"/>
       <use xlink:href="#DejaVuSans-30" x="127.246094"/>
       <use xlink:href="#DejaVuSans-30" x="190.869141"/>
       <use xlink:href="#DejaVuSans-30" x="254.492188"/>
      </g>
     </g>
    </g>
    <g id="xtick_5">
     <g id="line2d_9">
      <path d="M 553.5 512.64 
L 553.5 69.12 
" clip-path="url(#pdb5d769d53)" style="fill: none; stroke: #b0b0b0; stroke-width: 0.8; stroke-linecap: square"/>
     </g>
     <g id="line2d_10">
      <g>
       <use xlink:href="#m8ea42d8231" x="553.5" y="512.64" style="stroke: #000000; stroke-width: 0.8"/>
      </g>
     </g>
     <g id="text_5">
      <!-- 20000 -->
      <g transform="translate(528.05 531.7975) scale(0.16 -0.16)">
       <defs>
        <path id="DejaVuSans-32" d="M 1228 531 
L 3431 531 
L 3431 0 
L 469 0 
L 469 531 
Q 828 903 1448 1529 
Q 2069 2156 2228 2338 
Q 2531 2678 2651 2914 
Q 2772 3150 2772 3378 
Q 2772 3750 2511 3984 
Q 2250 4219 1831 4219 
Q 1534 4219 1204 4116 
Q 875 4013 500 3803 
L 500 4441 
Q 881 4594 1212 4672 
Q 1544 4750 1819 4750 
Q 2544 4750 2975 4387 
Q 3406 4025 3406 3419 
Q 3406 3131 3298 2873 
Q 3191 2616 2906 2266 
Q 2828 2175 2409 1742 
Q 1991 1309 1228 531 
z
" transform="scale(0.015625)"/>
       </defs>
       <use xlink:href="#DejaVuSans-32"/>
       <use xlink:href="#DejaVuSans-30" x="63.623047"/>
       <use xlink:href="#DejaVuSans-30" x="127.246094"/>
       <use xlink:href="#DejaVuSans-30" x="190.869141"/>
       <use xlink:href="#DejaVuSans-30" x="254.492188"/>
      </g>
     </g>
    </g>
    <g id="xtick_6">
     <g id="line2d_11">
      <path d="M 648.613636 512.64 
L 648.613636 69.12 
" clip-path="url(#pdb5d769d53)" style="fill: none; stroke: #b0b0b0; stroke-width: 0.8; stroke-linecap: square"/>
     </g>
     <g id="line2d_12">
      <g>
       <use xlink:href="#m8ea42d8231" x="648.613636" y="512.64" style="stroke: #000000; stroke-width: 0.8"/>
      </g>
     </g>
     <g id="text_6">
      <!-- 25000 -->
      <g transform="translate(623.163636 531.7975) scale(0.16 -0.16)">
       <use xlink:href="#DejaVuSans-32"/>
       <use xlink:href="#DejaVuSans-35" x="63.623047"/>
       <use xlink:href="#DejaVuSans-30" x="127.246094"/>
       <use xlink:href="#DejaVuSans-30" x="190.869141"/>
       <use xlink:href="#DejaVuSans-30" x="254.492188"/>
      </g>
     </g>
    </g>
    <g id="xtick_7">
     <g id="line2d_13">
      <path d="M 743.727273 512.64 
L 743.727273 69.12 
" clip-path="url(#pdb5d769d53)" style="fill: none; stroke: #b0b0b0; stroke-width: 0.8; stroke-linecap: square"/>
     </g>
     <g id="line2d_14">
      <g>
       <use xlink:href="#m8ea42d8231" x="743.727273" y="512.64" style="stroke: #000000; stroke-width: 0.8"/>
      </g>
     </g>
     <g id="text_7">
      <!-- 30000 -->
      <g transform="translate(718.277273 531.7975) scale(0.16 -0.16)">
       <defs>
        <path id="DejaVuSans-33" d="M 2597 2516 
Q 3050 2419 3304 2112 
Q 3559 1806 3559 1356 
Q 3559 666 3084 287 
Q 2609 -91 1734 -91 
Q 1441 -91 1130 -33 
Q 819 25 488 141 
L 488 750 
Q 750 597 1062 519 
Q 1375 441 1716 441 
Q 2309 441 2620 675 
Q 2931 909 2931 1356 
Q 2931 1769 2642 2001 
Q 2353 2234 1838 2234 
L 1294 2234 
L 1294 2753 
L 1863 2753 
Q 2328 2753 2575 2939 
Q 2822 3125 2822 3475 
Q 2822 3834 2567 4026 
Q 2313 4219 1838 4219 
Q 1578 4219 1281 4162 
Q 984 4106 628 3988 
L 628 4550 
Q 988 4650 1302 4700 
Q 1616 4750 1894 4750 
Q 2613 4750 3031 4423 
Q 3450 4097 3450 3541 
Q 3450 3153 3228 2886 
Q 3006 2619 2597 2516 
z
" transform="scale(0.015625)"/>
       </defs>
       <use xlink:href="#DejaVuSans-33"/>
       <use xlink:href="#DejaVuSans-30" x="63.623047"/>
       <use xlink:href="#DejaVuSans-30" x="127.246094"/>
       <use xlink:href="#DejaVuSans-30" x="190.869141"/>
       <use xlink:href="#DejaVuSans-30" x="254.492188"/>
      </g>
     </g>
    </g>
    <g id="xtick_8">
     <g id="line2d_15">
      <path d="M 838.840909 512.64 
L 838.840909 69.12 
" clip-path="url(#pdb5d769d53)" style="fill: none; stroke: #b0b0b0; stroke-width: 0.8; stroke-linecap: square"/>
     </g>
     <g id="line2d_16">
      <g>
       <use xlink:href="#m8ea42d8231" x="838.840909" y="512.64" style="stroke: #000000; stroke-width: 0.8"/>
      </g>
     </g>
     <g id="text_8">
      <!-- 35000 -->
      <g transform="translate(813.390909 531.7975) scale(0.16 -0.16)">
       <use xlink:href="#DejaVuSans-33"/>
       <use xlink:href="#DejaVuSans-35" x="63.623047"/>
       <use xlink:href="#DejaVuSans-30" x="127.246094"/>
       <use xlink:href="#DejaVuSans-30" x="190.869141"/>
       <use xlink:href="#DejaVuSans-30" x="254.492188"/>
      </g>
     </g>
    </g>
    <g id="xtick_9">
     <g id="line2d_17">
      <path d="M 933.954545 512.64 
L 933.954545 69.12 
" clip-path="url(#pdb5d769d53)" style="fill: none; stroke: #b0b0b0; stroke-width: 0.8; stroke-linecap: square"/>
     </g>
     <g id="line2d_18">
      <g>
       <use xlink:href="#m8ea42d8231" x="933.954545" y="512.64" style="stroke: #000000; stroke-width: 0.8"/>
      </g>
     </g>
     <g id="text_9">
      <!-- 40000 -->
      <g transform="translate(908.504545 531.7975) scale(0.16 -0.16)">
       <defs>
        <path id="DejaVuSans-34" d="M 2419 4116 
L 825 1625 
L 2419 1625 
L 2419 4116 
z
M 2253 4666 
L 3047 4666 
L 3047 1625 
L 3713 1625 
L 3713 1100 
L 3047 1100 
L 3047 0 
L 2419 0 
L 2419 1100 
L 313 1100 
L 313 1709 
L 2253 4666 
z
" transform="scale(0.015625)"/>
       </defs>
       <use xlink:href="#DejaVuSans-34"/>
       <use xlink:href="#DejaVuSans-30" x="63.623047"/>
       <use xlink:href="#DejaVuSans-30" x="127.246094"/>
       <use xlink:href="#DejaVuSans-30" x="190.869141"/>
       <use xlink:href="#DejaVuSans-30" x="254.492188"/>
      </g>
     </g>
    </g>
    <g id="text_10">
     <!-- Training Steps -->
     <g transform="translate(497.0125 551.2825) scale(0.16 -0.16)">
      <defs>
       <path id="DejaVuSans-54" d="M -19 4666 
L 3928 4666 
L 3928 4134 
L 2272 4134 
L 2272 0 
L 1638 0 
L 1638 4134 
L -19 4134 
L -19 4666 
z
" transform="scale(0.015625)"/>
       <path id="DejaVuSans-72" d="M 2631 2963 
Q 2534 3019 2420 3045 
Q 2306 3072 2169 3072 
Q 1681 3072 1420 2755 
Q 1159 2438 1159 1844 
L 1159 0 
L 581 0 
L 581 3500 
L 1159 3500 
L 1159 2956 
Q 1341 3275 1631 3429 
Q 1922 3584 2338 3584 
Q 2397 3584 2469 3576 
Q 2541 3569 2628 3553 
L 2631 2963 
z
" transform="scale(0.015625)"/>
       <path id="DejaVuSans-61" d="M 2194 1759 
Q 1497 1759 1228 1600 
Q 959 1441 959 1056 
Q 959 750 1161 570 
Q 1363 391 1709 391 
Q 2188 391 2477 730 
Q 2766 1069 2766 1631 
L 2766 1759 
L 2194 1759 
z
M 3341 1997 
L 3341 0 
L 2766 0 
L 2766 531 
Q 2569 213 2275 61 
Q 1981 -91 1556 -91 
Q 1019 -91 701 211 
Q 384 513 384 1019 
Q 384 1609 779 1909 
Q 1175 2209 1959 2209 
L 2766 2209 
L 2766 2266 
Q 2766 2663 2505 2880 
Q 2244 3097 1772 3097 
Q 1472 3097 1187 3025 
Q 903 2953 641 2809 
L 641 3341 
Q 956 3463 1253 3523 
Q 1550 3584 1831 3584 
Q 2591 3584 2966 3190 
Q 3341 2797 3341 1997 
z
" transform="scale(0.015625)"/>
       <path id="DejaVuSans-69" d="M 603 3500 
L 1178 3500 
L 1178 0 
L 603 0 
L 603 3500 
z
M 603 4863 
L 1178 4863 
L 1178 4134 
L 603 4134 
L 603 4863 
z
" transform="scale(0.015625)"/>
       <path id="DejaVuSans-6e" d="M 3513 2113 
L 3513 0 
L 2938 0 
L 2938 2094 
Q 2938 2591 2744 2837 
Q 2550 3084 2163 3084 
Q 1697 3084 1428 2787 
Q 1159 2491 1159 1978 
L 1159 0 
L 581 0 
L 581 3500 
L 1159 3500 
L 1159 2956 
Q 1366 3272 1645 3428 
Q 1925 3584 2291 3584 
Q 2894 3584 3203 3211 
Q 3513 2838 3513 2113 
z
" transform="scale(0.015625)"/>
       <path id="DejaVuSans-67" d="M 2906 1791 
Q 2906 2416 2648 2759 
Q 2391 3103 1925 3103 
Q 1463 3103 1205 2759 
Q 947 2416 947 1791 
Q 947 1169 1205 825 
Q 1463 481 1925 481 
Q 2391 481 2648 825 
Q 2906 1169 2906 1791 
z
M 3481 434 
Q 3481 -459 3084 -895 
Q 2688 -1331 1869 -1331 
Q 1566 -1331 1297 -1286 
Q 1028 -1241 775 -1147 
L 775 -588 
Q 1028 -725 1275 -790 
Q 1522 -856 1778 -856 
Q 2344 -856 2625 -561 
Q 2906 -266 2906 331 
L 2906 616 
Q 2728 306 2450 153 
Q 2172 0 1784 0 
Q 1141 0 747 490 
Q 353 981 353 1791 
Q 353 2603 747 3093 
Q 1141 3584 1784 3584 
Q 2172 3584 2450 3431 
Q 2728 3278 2906 2969 
L 2906 3500 
L 3481 3500 
L 3481 434 
z
" transform="scale(0.015625)"/>
       <path id="DejaVuSans-20" transform="scale(0.015625)"/>
       <path id="DejaVuSans-53" d="M 3425 4513 
L 3425 3897 
Q 3066 4069 2747 4153 
Q 2428 4238 2131 4238 
Q 1616 4238 1336 4038 
Q 1056 3838 1056 3469 
Q 1056 3159 1242 3001 
Q 1428 2844 1947 2747 
L 2328 2669 
Q 3034 2534 3370 2195 
Q 3706 1856 3706 1288 
Q 3706 609 3251 259 
Q 2797 -91 1919 -91 
Q 1588 -91 1214 -16 
Q 841 59 441 206 
L 441 856 
Q 825 641 1194 531 
Q 1563 422 1919 422 
Q 2459 422 2753 634 
Q 3047 847 3047 1241 
Q 3047 1584 2836 1778 
Q 2625 1972 2144 2069 
L 1759 2144 
Q 1053 2284 737 2584 
Q 422 2884 422 3419 
Q 422 4038 858 4394 
Q 1294 4750 2059 4750 
Q 2388 4750 2728 4690 
Q 3069 4631 3425 4513 
z
" transform="scale(0.015625)"/>
       <path id="DejaVuSans-74" d="M 1172 4494 
L 1172 3500 
L 2356 3500 
L 2356 3053 
L 1172 3053 
L 1172 1153 
Q 1172 725 1289 603 
Q 1406 481 1766 481 
L 2356 481 
L 2356 0 
L 1766 0 
Q 1100 0 847 248 
Q 594 497 594 1153 
L 594 3053 
L 172 3053 
L 172 3500 
L 594 3500 
L 594 4494 
L 1172 4494 
z
" transform="scale(0.015625)"/>
       <path id="DejaVuSans-65" d="M 3597 1894 
L 3597 1613 
L 953 1613 
Q 991 1019 1311 708 
Q 1631 397 2203 397 
Q 2534 397 2845 478 
Q 3156 559 3463 722 
L 3463 178 
Q 3153 47 2828 -22 
Q 2503 -91 2169 -91 
Q 1331 -91 842 396 
Q 353 884 353 1716 
Q 353 2575 817 3079 
Q 1281 3584 2069 3584 
Q 2775 3584 3186 3129 
Q 3597 2675 3597 1894 
z
M 3022 2063 
Q 3016 2534 2758 2815 
Q 2500 3097 2075 3097 
Q 1594 3097 1305 2825 
Q 1016 2553 972 2059 
L 3022 2063 
z
" transform="scale(0.015625)"/>
       <path id="DejaVuSans-70" d="M 1159 525 
L 1159 -1331 
L 581 -1331 
L 581 3500 
L 1159 3500 
L 1159 2969 
Q 1341 3281 1617 3432 
Q 1894 3584 2278 3584 
Q 2916 3584 3314 3078 
Q 3713 2572 3713 1747 
Q 3713 922 3314 415 
Q 2916 -91 2278 -91 
Q 1894 -91 1617 61 
Q 1341 213 1159 525 
z
M 3116 1747 
Q 3116 2381 2855 2742 
Q 2594 3103 2138 3103 
Q 1681 3103 1420 2742 
Q 1159 2381 1159 1747 
Q 1159 1113 1420 752 
Q 1681 391 2138 391 
Q 2594 391 2855 752 
Q 3116 1113 3116 1747 
z
" transform="scale(0.015625)"/>
       <path id="DejaVuSans-73" d="M 2834 3397 
L 2834 2853 
Q 2591 2978 2328 3040 
Q 2066 3103 1784 3103 
Q 1356 3103 1142 2972 
Q 928 2841 928 2578 
Q 928 2378 1081 2264 
Q 1234 2150 1697 2047 
L 1894 2003 
Q 2506 1872 2764 1633 
Q 3022 1394 3022 966 
Q 3022 478 2636 193 
Q 2250 -91 1575 -91 
Q 1294 -91 989 -36 
Q 684 19 347 128 
L 347 722 
Q 666 556 975 473 
Q 1284 391 1588 391 
Q 1994 391 2212 530 
Q 2431 669 2431 922 
Q 2431 1156 2273 1281 
Q 2116 1406 1581 1522 
L 1381 1569 
Q 847 1681 609 1914 
Q 372 2147 372 2553 
Q 372 3047 722 3315 
Q 1072 3584 1716 3584 
Q 2034 3584 2315 3537 
Q 2597 3491 2834 3397 
z
" transform="scale(0.015625)"/>
      </defs>
      <use xlink:href="#DejaVuSans-54"/>
      <use xlink:href="#DejaVuSans-72" x="46.333984"/>
      <use xlink:href="#DejaVuSans-61" x="87.447266"/>
      <use xlink:href="#DejaVuSans-69" x="148.726562"/>
      <use xlink:href="#DejaVuSans-6e" x="176.509766"/>
      <use xlink:href="#DejaVuSans-69" x="239.888672"/>
      <use xlink:href="#DejaVuSans-6e" x="267.671875"/>
      <use xlink:href="#DejaVuSans-67" x="331.050781"/>
      <use xlink:href="#DejaVuSans-20" x="394.527344"/>
      <use xlink:href="#DejaVuSans-53" x="426.314453"/>
      <use xlink:href="#DejaVuSans-74" x="489.791016"/>
      <use xlink:href="#DejaVuSans-65" x="529"/>
      <use xlink:href="#DejaVuSans-70" x="590.523438"/>
      <use xlink:href="#DejaVuSans-73" x="654"/>
     </g>
    </g>
   </g>
   <g id="matplotlib.axis_2">
    <g id="ytick_1">
     <g id="line2d_19">
      <path d="M 135 512.64 
L 972 512.64 
" clip-path="url(#pdb5d769d53)" style="fill: none; stroke: #b0b0b0; stroke-width: 0.8; stroke-linecap: square"/>
     </g>
     <g id="line2d_20">
      <defs>
       <path id="m3b6ce1fe06" d="M 0 0 
L -3.5 0 
" style="stroke: #000000; stroke-width: 0.8"/>
      </defs>
      <g>
       <use xlink:href="#m3b6ce1fe06" x="135" y="512.64" style="stroke: #000000; stroke-width: 0.8"/>
      </g>
     </g>
     <g id="text_11">
      <!-- 1.0 -->
      <g transform="translate(102.555 518.71875) scale(0.16 -0.16)">
       <defs>
        <path id="DejaVuSans-2e" d="M 684 794 
L 1344 794 
L 1344 0 
L 684 0 
L 684 794 
z
" transform="scale(0.015625)"/>
       </defs>
       <use xlink:href="#DejaVuSans-31"/>
       <use xlink:href="#DejaVuSans-2e" x="63.623047"/>
       <use xlink:href="#DejaVuSans-30" x="95.410156"/>
      </g>
     </g>
    </g>
    <g id="ytick_2">
     <g id="line2d_21">
      <path d="M 135 423.936 
L 972 423.936 
" clip-path="url(#pdb5d769d53)" style="fill: none; stroke: #b0b0b0; stroke-width: 0.8; stroke-linecap: square"/>
     </g>
     <g id="line2d_22">
      <g>
       <use xlink:href="#m3b6ce1fe06" x="135" y="423.936" style="stroke: #000000; stroke-width: 0.8"/>
      </g>
     </g>
     <g id="text_12">
      <!-- 1.2 -->
      <g transform="translate(102.555 430.01475) scale(0.16 -0.16)">
       <use xlink:href="#DejaVuSans-31"/>
       <use xlink:href="#DejaVuSans-2e" x="63.623047"/>
       <use xlink:href="#DejaVuSans-32" x="95.410156"/>
      </g>
     </g>
    </g>
    <g id="ytick_3">
     <g id="line2d_23">
      <path d="M 135 335.232 
L 972 335.232 
" clip-path="url(#pdb5d769d53)" style="fill: none; stroke: #b0b0b0; stroke-width: 0.8; stroke-linecap: square"/>
     </g>
     <g id="line2d_24">
      <g>
       <use xlink:href="#m3b6ce1fe06" x="135" y="335.232" style="stroke: #000000; stroke-width: 0.8"/>
      </g>
     </g>
     <g id="text_13">
      <!-- 1.4 -->
      <g transform="translate(102.555 341.31075) scale(0.16 -0.16)">
       <use xlink:href="#DejaVuSans-31"/>
       <use xlink:href="#DejaVuSans-2e" x="63.623047"/>
       <use xlink:href="#DejaVuSans-34" x="95.410156"/>
      </g>
     </g>
    </g>
    <g id="ytick_4">
     <g id="line2d_25">
      <path d="M 135 246.528 
L 972 246.528 
" clip-path="url(#pdb5d769d53)" style="fill: none; stroke: #b0b0b0; stroke-width: 0.8; stroke-linecap: square"/>
     </g>
     <g id="line2d_26">
      <g>
       <use xlink:href="#m3b6ce1fe06" x="135" y="246.528" style="stroke: #000000; stroke-width: 0.8"/>
      </g>
     </g>
     <g id="text_14">
      <!-- 1.6 -->
      <g transform="translate(102.555 252.60675) scale(0.16 -0.16)">
       <defs>
        <path id="DejaVuSans-36" d="M 2113 2584 
Q 1688 2584 1439 2293 
Q 1191 2003 1191 1497 
Q 1191 994 1439 701 
Q 1688 409 2113 409 
Q 2538 409 2786 701 
Q 3034 994 3034 1497 
Q 3034 2003 2786 2293 
Q 2538 2584 2113 2584 
z
M 3366 4563 
L 3366 3988 
Q 3128 4100 2886 4159 
Q 2644 4219 2406 4219 
Q 1781 4219 1451 3797 
Q 1122 3375 1075 2522 
Q 1259 2794 1537 2939 
Q 1816 3084 2150 3084 
Q 2853 3084 3261 2657 
Q 3669 2231 3669 1497 
Q 3669 778 3244 343 
Q 2819 -91 2113 -91 
Q 1303 -91 875 529 
Q 447 1150 447 2328 
Q 447 3434 972 4092 
Q 1497 4750 2381 4750 
Q 2619 4750 2861 4703 
Q 3103 4656 3366 4563 
z
" transform="scale(0.015625)"/>
       </defs>
       <use xlink:href="#DejaVuSans-31"/>
       <use xlink:href="#DejaVuSans-2e" x="63.623047"/>
       <use xlink:href="#DejaVuSans-36" x="95.410156"/>
      </g>
     </g>
    </g>
    <g id="ytick_5">
     <g id="line2d_27">
      <path d="M 135 157.824 
L 972 157.824 
" clip-path="url(#pdb5d769d53)" style="fill: none; stroke: #b0b0b0; stroke-width: 0.8; stroke-linecap: square"/>
     </g>
     <g id="line2d_28">
      <g>
       <use xlink:href="#m3b6ce1fe06" x="135" y="157.824" style="stroke: #000000; stroke-width: 0.8"/>
      </g>
     </g>
     <g id="text_15">
      <!-- 1.8 -->
      <g transform="translate(102.555 163.90275) scale(0.16 -0.16)">
       <defs>
        <path id="DejaVuSans-38" d="M 2034 2216 
Q 1584 2216 1326 1975 
Q 1069 1734 1069 1313 
Q 1069 891 1326 650 
Q 1584 409 2034 409 
Q 2484 409 2743 651 
Q 3003 894 3003 1313 
Q 3003 1734 2745 1975 
Q 2488 2216 2034 2216 
z
M 1403 2484 
Q 997 2584 770 2862 
Q 544 3141 544 3541 
Q 544 4100 942 4425 
Q 1341 4750 2034 4750 
Q 2731 4750 3128 4425 
Q 3525 4100 3525 3541 
Q 3525 3141 3298 2862 
Q 3072 2584 2669 2484 
Q 3125 2378 3379 2068 
Q 3634 1759 3634 1313 
Q 3634 634 3220 271 
Q 2806 -91 2034 -91 
Q 1263 -91 848 271 
Q 434 634 434 1313 
Q 434 1759 690 2068 
Q 947 2378 1403 2484 
z
M 1172 3481 
Q 1172 3119 1398 2916 
Q 1625 2713 2034 2713 
Q 2441 2713 2670 2916 
Q 2900 3119 2900 3481 
Q 2900 3844 2670 4047 
Q 2441 4250 2034 4250 
Q 1625 4250 1398 4047 
Q 1172 3844 1172 3481 
z
" transform="scale(0.015625)"/>
       </defs>
       <use xlink:href="#DejaVuSans-31"/>
       <use xlink:href="#DejaVuSans-2e" x="63.623047"/>
       <use xlink:href="#DejaVuSans-38" x="95.410156"/>
      </g>
     </g>
    </g>
    <g id="ytick_6">
     <g id="line2d_29">
      <path d="M 135 69.12 
L 972 69.12 
" clip-path="url(#pdb5d769d53)" style="fill: none; stroke: #b0b0b0; stroke-width: 0.8; stroke-linecap: square"/>
     </g>
     <g id="line2d_30">
      <g>
       <use xlink:href="#m3b6ce1fe06" x="135" y="69.12" style="stroke: #000000; stroke-width: 0.8"/>
      </g>
     </g>
     <g id="text_16">
      <!-- 2.0 -->
      <g transform="translate(102.555 75.19875) scale(0.16 -0.16)">
       <use xlink:href="#DejaVuSans-32"/>
       <use xlink:href="#DejaVuSans-2e" x="63.623047"/>
       <use xlink:href="#DejaVuSans-30" x="95.410156"/>
      </g>
     </g>
    </g>
    <g id="text_17">
     <!-- Bits Per Character -->
     <g transform="translate(95.2275 363.22125) rotate(-90) scale(0.16 -0.16)">
      <defs>
       <path id="DejaVuSans-42" d="M 1259 2228 
L 1259 519 
L 2272 519 
Q 2781 519 3026 730 
Q 3272 941 3272 1375 
Q 3272 1813 3026 2020 
Q 2781 2228 2272 2228 
L 1259 2228 
z
M 1259 4147 
L 1259 2741 
L 2194 2741 
Q 2656 2741 2882 2914 
Q 3109 3088 3109 3444 
Q 3109 3797 2882 3972 
Q 2656 4147 2194 4147 
L 1259 4147 
z
M 628 4666 
L 2241 4666 
Q 2963 4666 3353 4366 
Q 3744 4066 3744 3513 
Q 3744 3084 3544 2831 
Q 3344 2578 2956 2516 
Q 3422 2416 3680 2098 
Q 3938 1781 3938 1306 
Q 3938 681 3513 340 
Q 3088 0 2303 0 
L 628 0 
L 628 4666 
z
" transform="scale(0.015625)"/>
       <path id="DejaVuSans-50" d="M 1259 4147 
L 1259 2394 
L 2053 2394 
Q 2494 2394 2734 2622 
Q 2975 2850 2975 3272 
Q 2975 3691 2734 3919 
Q 2494 4147 2053 4147 
L 1259 4147 
z
M 628 4666 
L 2053 4666 
Q 2838 4666 3239 4311 
Q 3641 3956 3641 3272 
Q 3641 2581 3239 2228 
Q 2838 1875 2053 1875 
L 1259 1875 
L 1259 0 
L 628 0 
L 628 4666 
z
" transform="scale(0.015625)"/>
       <path id="DejaVuSans-43" d="M 4122 4306 
L 4122 3641 
Q 3803 3938 3442 4084 
Q 3081 4231 2675 4231 
Q 1875 4231 1450 3742 
Q 1025 3253 1025 2328 
Q 1025 1406 1450 917 
Q 1875 428 2675 428 
Q 3081 428 3442 575 
Q 3803 722 4122 1019 
L 4122 359 
Q 3791 134 3420 21 
Q 3050 -91 2638 -91 
Q 1578 -91 968 557 
Q 359 1206 359 2328 
Q 359 3453 968 4101 
Q 1578 4750 2638 4750 
Q 3056 4750 3426 4639 
Q 3797 4528 4122 4306 
z
" transform="scale(0.015625)"/>
       <path id="DejaVuSans-68" d="M 3513 2113 
L 3513 0 
L 2938 0 
L 2938 2094 
Q 2938 2591 2744 2837 
Q 2550 3084 2163 3084 
Q 1697 3084 1428 2787 
Q 1159 2491 1159 1978 
L 1159 0 
L 581 0 
L 581 4863 
L 1159 4863 
L 1159 2956 
Q 1366 3272 1645 3428 
Q 1925 3584 2291 3584 
Q 2894 3584 3203 3211 
Q 3513 2838 3513 2113 
z
" transform="scale(0.015625)"/>
       <path id="DejaVuSans-63" d="M 3122 3366 
L 3122 2828 
Q 2878 2963 2633 3030 
Q 2388 3097 2138 3097 
Q 1578 3097 1268 2742 
Q 959 2388 959 1747 
Q 959 1106 1268 751 
Q 1578 397 2138 397 
Q 2388 397 2633 464 
Q 2878 531 3122 666 
L 3122 134 
Q 2881 22 2623 -34 
Q 2366 -91 2075 -91 
Q 1284 -91 818 406 
Q 353 903 353 1747 
Q 353 2603 823 3093 
Q 1294 3584 2113 3584 
Q 2378 3584 2631 3529 
Q 2884 3475 3122 3366 
z
" transform="scale(0.015625)"/>
      </defs>
      <use xlink:href="#DejaVuSans-42"/>
      <use xlink:href="#DejaVuSans-69" x="68.603516"/>
      <use xlink:href="#DejaVuSans-74" x="96.386719"/>
      <use xlink:href="#DejaVuSans-73" x="135.595703"/>
      <use xlink:href="#DejaVuSans-20" x="187.695312"/>
      <use xlink:href="#DejaVuSans-50" x="219.482422"/>
      <use xlink:href="#DejaVuSans-65" x="276.160156"/>
      <use xlink:href="#DejaVuSans-72" x="337.683594"/>
      <use xlink:href="#DejaVuSans-20" x="378.796875"/>
      <use xlink:href="#DejaVuSans-43" x="410.583984"/>
      <use xlink:href="#DejaVuSans-68" x="480.408203"/>
      <use xlink:href="#DejaVuSans-61" x="543.787109"/>
      <use xlink:href="#DejaVuSans-72" x="605.066406"/>
      <use xlink:href="#DejaVuSans-61" x="646.179688"/>
      <use xlink:href="#DejaVuSans-63" x="707.458984"/>
      <use xlink:href="#DejaVuSans-74" x="762.439453"/>
      <use xlink:href="#DejaVuSans-65" x="801.648438"/>
      <use xlink:href="#DejaVuSans-72" x="863.171875"/>
     </g>
    </g>
   </g>
   <g id="line2d_31">
    <path d="M 184.537217 -1 
L 185.410227 32.707008 
L 186.361364 56.9232 
L 187.3125 100.476864 
L 188.263636 65.660544 
L 189.214773 95.198976 
L 190.165909 114.935616 
L 191.117045 120.213504 
L 192.068182 135.293184 
L 193.019318 133.075584 
L 193.970455 152.235648 
L 194.921591 147.667392 
L 195.872727 189.047808 
L 196.823864 191.75328 
L 197.775 178.048512 
L 198.726136 169.35552 
L 199.677273 202.220352 
L 200.628409 184.169088 
L 201.579545 189.09216 
L 202.530682 220.36032 
L 203.481818 188.338176 
L 205.384091 222.001344 
L 206.335227 199.9584 
L 207.286364 227.190528 
L 208.2375 218.719296 
L 209.188636 197.873856 
L 210.139773 187.98336 
L 211.090909 203.639616 
L 212.042045 204.349248 
L 212.993182 239.121216 
L 214.895455 224.085888 
L 215.846591 232.246656 
L 216.797727 223.642368 
L 218.7 243.245952 
L 219.651136 228.609792 
L 220.602273 241.737984 
L 221.553409 222.932736 
L 222.504545 228.34368 
L 223.455682 239.121216 
L 224.406818 257.749056 
L 225.357955 252.648576 
L 226.309091 237.258432 
L 227.260227 232.645824 
L 228.211364 260.188416 
L 229.1625 257.39424 
L 230.113636 261.208512 
L 231.064773 266.087232 
L 232.015909 240.984 
L 232.967045 254.644416 
L 233.918182 259.257024 
L 234.869318 271.941696 
L 235.820455 287.509248 
L 236.771591 246.97152 
L 237.722727 259.39008 
L 238.673864 262.672128 
L 239.625 267.15168 
L 240.576136 263.293056 
L 241.527273 271.099008 
L 242.478409 268.03872 
L 243.429545 267.905664 
L 244.380682 288.706752 
L 245.331818 277.13088 
L 246.282955 275.401152 
L 247.234091 265.688064 
L 248.185227 263.026944 
L 249.136364 268.615296 
L 250.0875 278.46144 
L 251.038636 278.284032 
L 251.989773 258.369984 
L 252.940909 261.518976 
L 253.892045 284.271552 
L 254.843182 286.489152 
L 255.794318 294.960384 
L 256.745455 278.195328 
L 257.696591 271.941696 
L 258.647727 262.184256 
L 259.598864 273.58272 
L 260.55 276.155136 
L 261.501136 272.69568 
L 262.452273 292.121856 
L 263.403409 303.475968 
L 264.354545 293.98464 
L 265.305682 281.12256 
L 266.256818 297.08928 
L 267.207955 299.661696 
L 268.159091 287.686656 
L 269.110227 277.618752 
L 270.061364 273.272256 
L 271.0125 280.9008 
L 271.963636 286.311744 
L 272.914773 294.87168 
L 273.865909 278.150976 
L 274.817045 276.199488 
L 275.768182 271.232064 
L 276.719318 283.78368 
L 277.670455 284.759424 
L 279.572727 291.944448 
L 280.523864 297.665856 
L 281.475 302.234112 
L 282.426136 305.427456 
L 283.377273 313.27776 
L 284.328409 312.39072 
L 285.279545 306.358848 
L 286.230682 292.698432 
L 287.181818 304.895232 
L 288.132955 292.742784 
L 289.084091 289.061568 
L 290.035227 275.711616 
L 290.986364 308.443392 
L 291.9375 303.52032 
L 292.888636 288.529344 
L 293.839773 297.08928 
L 294.790909 302.056704 
L 295.742045 295.403904 
L 296.693182 271.58688 
L 298.595455 292.121856 
L 299.546591 294.295104 
L 300.497727 300.726144 
L 301.448864 274.514112 
L 302.4 287.154432 
L 303.351136 297.488448 
L 304.302273 305.07264 
L 305.253409 324.942336 
L 306.204545 307.112832 
L 307.155682 317.846016 
L 310.009091 326.760768 
L 310.960227 302.145408 
L 311.911364 297.577152 
L 312.8625 303.209856 
L 313.813636 299.794752 
L 314.764773 325.341504 
L 315.715909 336.873024 
L 316.667045 342.949248 
L 317.618182 329.46624 
L 318.569318 322.680384 
L 319.520455 313.72128 
L 320.471591 318.15648 
L 321.422727 313.366464 
L 322.373864 322.458624 
L 323.325 319.886208 
L 324.276136 347.827968 
L 325.227273 342.32832 
L 326.178409 311.28192 
L 327.129545 325.518912 
L 328.080682 330.7968 
L 329.031818 326.716416 
L 329.982955 328.978368 
L 330.934091 325.03104 
L 331.885227 333.857088 
L 332.836364 326.760768 
L 333.7875 351.553536 
L 334.738636 346.630464 
L 335.689773 327.825216 
L 336.640909 327.4704 
L 337.592045 350.08992 
L 338.543182 339.755904 
L 339.494318 327.780864 
L 340.445455 348.182784 
L 341.396591 324.055296 
L 342.347727 338.247936 
L 343.298864 337.67136 
L 344.25 324.676224 
L 345.201136 341.929152 
L 346.152273 335.941632 
L 347.103409 311.148864 
L 348.054545 301.391424 
L 349.005682 313.366464 
L 349.956818 316.870272 
L 350.907955 339.622848 
L 351.859091 336.739968 
L 352.810227 331.24032 
L 353.761364 332.437824 
L 354.7125 323.789184 
L 355.663636 335.852928 
L 356.614773 332.970048 
L 357.565909 325.208448 
L 358.517045 336.606912 
L 359.468182 320.418432 
L 360.419318 323.345664 
L 361.370455 330.619392 
L 362.321591 352.174464 
L 363.272727 336.606912 
L 364.223864 324.80928 
L 365.175 324.986688 
L 366.126136 350.001216 
L 367.077273 339.534144 
L 368.028409 347.162688 
L 368.979545 341.707392 
L 369.930682 322.414272 
L 370.881818 341.396928 
L 371.832955 340.022016 
L 372.784091 355.057344 
L 373.735227 351.908352 
L 374.686364 324.631872 
L 375.6375 340.687296 
L 376.588636 337.493952 
L 377.539773 341.086464 
L 378.490909 331.816896 
L 379.442045 350.134272 
L 380.393182 333.812736 
L 381.344318 343.525824 
L 382.295455 360.645696 
L 383.246591 345.920832 
L 384.197727 345.87648 
L 385.148864 335.542464 
L 386.1 336.78432 
L 387.051136 333.058752 
L 388.002273 346.940928 
L 388.953409 347.073984 
L 389.904545 317.446848 
L 390.855682 336.56256 
L 391.806818 352.617984 
L 392.757955 354.480768 
L 393.709091 351.775296 
L 394.660227 347.4288 
L 395.611364 326.405952 
L 396.5625 322.857792 
L 397.513636 341.21952 
L 398.464773 333.369216 
L 399.415909 337.848768 
L 400.367045 352.706688 
L 401.318182 364.94784 
L 402.269318 349.335936 
L 403.220455 338.159232 
L 404.171591 361.310976 
L 405.122727 351.730944 
L 406.073864 344.191104 
L 407.025 330.441984 
L 407.976136 334.389312 
L 408.927273 332.925696 
L 409.878409 349.335936 
L 410.829545 349.557696 
L 411.780682 334.300608 
L 412.731818 336.207744 
L 413.682955 317.535552 
L 414.634091 345.033792 
L 415.585227 346.009536 
L 416.536364 338.913216 
L 417.4875 351.42048 
L 418.438636 349.602048 
L 419.389773 358.915968 
L 420.340909 351.42048 
L 421.292045 369.6048 
L 422.243182 370.802304 
L 423.194318 349.690752 
L 424.145455 348.493248 
L 425.096591 360.202176 
L 426.047727 342.017856 
L 426.998864 333.502272 
L 427.95 332.216064 
L 428.901136 352.706688 
L 429.852273 350.7552 
L 430.803409 340.731648 
L 431.754545 343.570176 
L 432.705682 349.114176 
L 433.656818 343.392768 
L 434.607955 316.60416 
L 435.559091 328.268736 
L 436.510227 342.77184 
L 437.461364 339.800256 
L 438.4125 345.344256 
L 439.363636 322.636032 
L 440.314773 336.11904 
L 441.265909 344.235456 
L 443.168182 367.431552 
L 444.119318 347.606208 
L 445.070455 373.419072 
L 446.021591 361.39968 
L 446.972727 367.653312 
L 447.923864 369.915264 
L 448.875 347.20704 
L 449.826136 342.283968 
L 450.777273 347.4288 
L 451.728409 351.331776 
L 452.679545 370.092672 
L 453.630682 380.071872 
L 454.581818 388.4544 
L 455.532955 363.972096 
L 456.484091 371.866752 
L 457.435227 352.573632 
L 458.386364 365.923584 
L 459.3375 359.049024 
L 460.288636 357.18624 
L 461.239773 367.875072 
L 462.190909 390.494592 
L 463.142045 384.374016 
L 464.093182 354.214656 
L 465.044318 371.423232 
L 465.995455 365.302656 
L 466.946591 370.891008 
L 467.897727 371.15712 
L 468.848864 375.193152 
L 469.8 371.201472 
L 470.751136 369.82656 
L 471.702273 394.353216 
L 472.653409 383.220864 
L 473.604545 365.746176 
L 474.555682 371.866752 
L 475.506818 387.877824 
L 476.457955 385.57152 
L 477.409091 369.516096 
L 478.360227 381.535488 
L 479.311364 364.814784 
L 480.2625 376.168896 
L 481.213636 377.676864 
L 482.164773 366.367104 
L 483.115909 377.854272 
L 484.067045 367.431552 
L 485.018182 349.069824 
L 485.969318 340.288128 
L 486.920455 348.626304 
L 487.871591 358.5168 
L 488.822727 376.390656 
L 489.773864 366.05664 
L 490.725 372.04416 
L 491.676136 368.096832 
L 492.627273 363.085056 
L 493.578409 375.681024 
L 494.529545 369.249984 
L 495.480682 360.246528 
L 496.431818 370.536192 
L 497.382955 356.476608 
L 498.334091 360.202176 
L 499.285227 363.17376 
L 500.236364 400.252032 
L 501.1875 369.338688 
L 502.138636 356.96448 
L 503.089773 363.883392 
L 504.040909 386.414208 
L 504.992045 374.572224 
L 505.943182 380.116224 
L 506.894318 376.568064 
L 507.845455 362.375424 
L 508.796591 374.306112 
L 509.747727 374.173056 
L 510.698864 396.570816 
L 511.65 375.902784 
L 512.601136 359.270784 
L 513.552273 377.765568 
L 514.503409 375.59232 
L 515.454545 375.858432 
L 516.405682 361.444032 
L 517.356818 383.708736 
L 518.307955 369.294336 
L 520.210227 389.78496 
L 521.161364 383.620032 
L 522.1125 380.02752 
L 523.063636 370.891008 
L 524.014773 368.629056 
L 524.965909 369.471744 
L 525.917045 377.58816 
L 526.868182 380.870208 
L 527.819318 351.243072 
L 529.721591 386.414208 
L 530.672727 391.736448 
L 532.575 375.015744 
L 533.526136 355.811328 
L 534.477273 355.766976 
L 535.428409 381.047616 
L 536.379545 357.762816 
L 537.330682 375.237504 
L 539.232955 395.462016 
L 541.135227 369.693504 
L 542.086364 386.635968 
L 543.0375 386.01504 
L 543.988636 375.503616 
L 544.939773 356.07744 
L 545.890909 370.092672 
L 546.842045 360.246528 
L 547.793182 377.277696 
L 548.744318 380.204928 
L 549.695455 366.100992 
L 550.646591 368.008128 
L 551.597727 348.581952 
L 552.548864 375.1488 
L 553.5 378.785664 
L 554.451136 373.197312 
L 555.402273 377.3664 
L 556.353409 379.672704 
L 557.304545 393.200064 
L 558.255682 381.446784 
L 559.206818 397.679616 
L 560.157955 402.780096 
L 561.109091 377.543808 
L 562.060227 380.02752 
L 563.011364 388.986624 
L 563.9625 370.891008 
L 564.913636 359.18208 
L 565.864773 373.59648 
L 566.815909 376.47936 
L 567.767045 375.1488 
L 568.718182 374.882688 
L 569.669318 369.072576 
L 570.620455 381.13632 
L 571.571591 371.334528 
L 572.522727 343.037952 
L 575.376136 379.495296 
L 577.278409 353.726784 
L 578.229545 369.116928 
L 579.180682 370.802304 
L 580.131818 386.103744 
L 581.082955 396.304704 
L 582.034091 374.26176 
L 582.985227 405.0864 
L 583.936364 389.962368 
L 584.8875 397.369152 
L 585.838636 390.627648 
L 586.789773 372.088512 
L 587.740909 376.346304 
L 588.692045 372.177216 
L 589.643182 387.611712 
L 590.594318 395.1072 
L 591.545455 404.554176 
L 592.496591 419.766912 
L 593.447727 396.482112 
L 594.398864 390.89376 
L 595.35 380.116224 
L 596.301136 392.534784 
L 597.252273 383.886144 
L 598.203409 387.922176 
L 599.154545 395.32896 
L 600.105682 419.988672 
L 601.056818 408.235392 
L 602.007955 383.664384 
L 602.959091 396.836928 
L 603.910227 397.10304 
L 604.861364 393.200064 
L 605.8125 392.800896 
L 606.763636 415.109952 
L 607.714773 392.268672 
L 608.665909 401.449536 
L 609.617045 420.299136 
L 611.519318 392.268672 
L 612.470455 400.030272 
L 613.421591 414.489024 
L 614.372727 409.255488 
L 615.323864 401.53824 
L 616.275 404.64288 
L 617.226136 393.11136 
L 618.177273 399.941568 
L 619.128409 401.006016 
L 620.079545 396.260352 
L 621.030682 405.662976 
L 622.932955 372.398976 
L 623.884091 369.116928 
L 624.835227 368.762112 
L 625.786364 390.139776 
L 626.7375 403.445376 
L 627.688636 386.502912 
L 628.639773 398.256192 
L 629.590909 395.1072 
L 630.542045 387.12384 
L 631.493182 403.578432 
L 632.444318 391.159872 
L 633.395455 384.68448 
L 634.346591 396.349056 
L 635.297727 382.555584 
L 636.248864 385.438464 
L 637.2 391.913856 
L 638.151136 425.665728 
L 639.102273 389.34144 
L 640.053409 383.309568 
L 641.004545 397.99008 
L 641.955682 407.52576 
L 642.906818 394.264512 
L 643.857955 406.683072 
L 644.809091 397.54656 
L 645.760227 394.22016 
L 646.711364 397.014336 
L 647.6625 399.364992 
L 648.613636 424.645632 
L 649.564773 390.538944 
L 650.515909 387.78912 
L 651.467045 402.780096 
L 652.418182 401.893056 
L 654.320455 389.918016 
L 655.271591 403.223616 
L 656.222727 395.55072 
L 657.173864 411.916608 
L 658.125 406.86048 
L 659.076136 411.96096 
L 660.027273 398.477952 
L 660.978409 395.816832 
L 661.929545 392.179968 
L 662.880682 396.570816 
L 663.831818 401.98176 
L 664.782955 402.20352 
L 665.734091 371.778048 
L 666.685227 397.812672 
L 667.636364 405.396864 
L 668.5875 416.573568 
L 669.538636 404.19936 
L 670.489773 398.078784 
L 671.440909 374.527872 
L 672.392045 387.56736 
L 673.343182 396.88128 
L 674.294318 384.68448 
L 675.245455 399.187584 
L 676.196591 411.384384 
L 677.147727 414.267264 
L 679.05 392.579136 
L 680.001136 409.565952 
L 680.952273 411.251328 
L 681.903409 395.506368 
L 682.854545 370.891008 
L 683.805682 394.530624 
L 684.756818 382.378176 
L 685.707955 403.622784 
L 686.659091 400.961664 
L 687.610227 385.926336 
L 688.561364 390.494592 
L 689.5125 370.979712 
L 690.463636 399.897216 
L 691.414773 403.001856 
L 692.365909 391.470336 
L 693.317045 409.388544 
L 694.268182 392.712192 
L 695.219318 413.06976 
L 696.170455 407.481408 
L 697.121591 415.996992 
L 698.072727 425.798784 
L 699.023864 395.728128 
L 699.975 406.150848 
L 700.926136 407.74752 
L 701.877273 391.204224 
L 702.828409 376.789824 
L 703.779545 399.98592 
L 704.730682 393.11136 
L 705.681818 392.845248 
L 706.632955 404.110656 
L 707.584091 388.543104 
L 708.535227 400.739904 
L 709.486364 389.11968 
L 710.4375 370.757952 
L 711.388636 368.584704 
L 713.290909 406.239552 
L 714.242045 380.870208 
L 715.193182 373.507776 
L 716.144318 394.66368 
L 717.095455 390.184128 
L 718.046591 407.96928 
L 718.997727 418.436352 
L 719.948864 392.091264 
L 720.9 429.213888 
L 721.851136 409.787712 
L 722.802273 414.62208 
L 723.753409 404.066304 
L 724.704545 396.393408 
L 725.655682 394.974144 
L 726.606818 395.816832 
L 727.557955 411.162624 
L 728.509091 414.267264 
L 729.460227 423.71424 
L 730.411364 431.653248 
L 731.3625 417.682368 
L 732.313636 412.271424 
L 733.264773 393.643584 
L 734.215909 410.719104 
L 735.167045 408.85632 
L 736.118182 407.52576 
L 737.069318 415.642176 
L 738.020455 438.971328 
L 739.922727 403.888896 
L 740.873864 419.012928 
L 741.825 413.335872 
L 742.776136 414.666432 
L 743.727273 409.876416 
L 744.678409 437.419008 
L 745.629545 409.432896 
L 746.580682 418.125888 
L 747.531818 438.217344 
L 748.482955 422.294976 
L 749.434091 410.319936 
L 750.385227 425.443968 
L 751.336364 426.419712 
L 752.2875 431.91936 
L 753.238636 420.83136 
L 754.189773 412.803648 
L 755.140909 418.037184 
L 756.092045 421.984512 
L 757.043182 410.142528 
L 757.994318 421.7184 
L 758.945455 420.121728 
L 759.896591 404.465472 
L 760.847727 383.620032 
L 761.798864 394.574976 
L 762.75 378.874368 
L 763.701136 412.537536 
L 764.652273 420.6096 
L 765.603409 405.884736 
L 766.554545 414.444672 
L 767.505682 408.235392 
L 768.456818 409.29984 
L 769.407955 420.565248 
L 770.359091 402.20352 
L 771.310227 409.432896 
L 773.2125 399.5424 
L 774.163636 403.667136 
L 775.114773 414.799488 
L 776.065909 439.68096 
L 777.017045 404.64288 
L 777.968182 400.42944 
L 778.919318 416.263104 
L 779.870455 422.915904 
L 780.821591 408.235392 
L 781.772727 426.109248 
L 782.723864 412.892352 
L 783.675 410.098176 
L 784.626136 412.138368 
L 785.577273 411.694848 
L 786.528409 446.954688 
L 787.479545 400.784256 
L 788.430682 405.130752 
L 789.381818 418.081536 
L 790.332955 420.033024 
L 791.284091 409.211136 
L 792.235227 409.610304 
L 793.186364 412.227072 
L 794.1375 416.83968 
L 795.088636 432.8064 
L 796.039773 416.884032 
L 796.990909 426.464064 
L 797.942045 411.029568 
L 798.893182 407.924928 
L 799.844318 413.601984 
L 800.795455 408.945024 
L 801.746591 421.05312 
L 802.697727 409.787712 
L 803.648864 389.252736 
L 804.6 416.884032 
L 805.551136 419.190336 
L 806.502273 433.116864 
L 807.453409 415.642176 
L 808.404545 409.699008 
L 809.355682 387.389952 
L 810.306818 401.050368 
L 811.257955 409.832064 
L 812.209091 402.602688 
L 813.160227 418.569408 
L 814.111364 426.774528 
L 815.0625 425.310912 
L 816.013636 411.251328 
L 816.964773 407.924928 
L 817.915909 429.391296 
L 818.867045 414.40032 
L 819.818182 407.74752 
L 820.769318 383.708736 
L 821.720455 406.63872 
L 822.671591 396.792576 
L 823.622727 421.05312 
L 824.573864 413.557632 
L 825.525 397.723968 
L 826.476136 402.8688 
L 827.427273 388.67616 
L 828.378409 409.255488 
L 829.329545 414.62208 
L 830.280682 404.554176 
L 831.231818 420.920064 
L 832.182955 411.561792 
L 833.134091 425.177856 
L 834.085227 423.004608 
L 835.036364 429.25824 
L 835.9875 432.318528 
L 836.938636 404.908992 
L 837.889773 424.37952 
L 838.840909 414.311616 
L 839.792045 406.683072 
L 840.743182 385.261056 
L 841.694318 413.468928 
L 842.645455 404.554176 
L 843.596591 400.739904 
L 844.547727 417.105792 
L 845.498864 404.86464 
L 846.45 414.311616 
L 847.401136 384.90624 
L 848.352273 389.78496 
L 849.303409 386.68032 
L 850.254545 398.078784 
L 851.205682 413.202816 
L 852.156818 392.845248 
L 853.107955 386.635968 
L 854.059091 407.74752 
L 855.010227 401.050368 
L 855.961364 423.936 
L 856.9125 425.0448 
L 857.863636 407.437056 
L 858.814773 437.374656 
L 859.765909 420.964416 
L 860.717045 427.173696 
L 861.668182 408.590208 
L 862.619318 409.432896 
L 863.570455 400.340736 
L 864.521591 408.279744 
L 865.472727 426.064896 
L 866.423864 427.794624 
L 867.375 435.68928 
L 868.326136 438.527808 
L 869.277273 423.891648 
L 870.228409 427.395456 
L 871.179545 404.155008 
L 872.130682 415.28736 
L 873.081818 419.72256 
L 874.032955 419.94432 
L 874.984091 429.967872 
L 875.935227 446.99904 
L 876.886364 425.443968 
L 877.8375 410.319936 
L 878.788636 427.838976 
L 879.739773 424.867392 
L 880.690909 424.202112 
L 881.642045 425.177856 
L 882.593182 435.290112 
L 883.544318 423.004608 
L 884.495455 435.955392 
L 885.446591 439.769664 
L 886.397727 432.540288 
L 887.348864 416.130048 
L 888.3 444.470976 
L 889.251136 430.056576 
L 890.202273 439.01568 
L 891.153409 430.322688 
L 892.104545 418.569408 
L 893.055682 423.847296 
L 894.006818 435.955392 
L 894.957955 413.779392 
L 895.909091 435.91104 
L 896.860227 428.105088 
L 897.811364 405.884736 
L 898.7625 387.478656 
L 899.713636 407.259648 
L 900.664773 386.547264 
L 901.615909 425.665728 
L 902.567045 426.064896 
L 903.518182 415.73088 
L 904.469318 419.05728 
L 905.420455 416.440512 
L 906.371591 418.037184 
L 907.322727 428.726016 
L 908.273864 407.52576 
L 909.225 424.689984 
L 910.176136 401.050368 
L 911.127273 406.594368 
L 912.078409 413.158464 
L 913.029545 432.495936 
L 913.980682 437.862528 
L 914.931818 410.098176 
L 915.882955 410.098176 
L 916.834091 427.439808 
L 918.736364 421.363584 
L 919.6875 430.943616 
L 920.638636 411.029568 
L 921.589773 421.186176 
L 922.540909 416.041344 
L 923.492045 423.536832 
L 924.443182 452.942208 
L 925.394318 408.013632 
L 926.345455 415.908288 
L 927.296591 418.436352 
L 928.247727 426.286656 
L 929.198864 416.706624 
L 930.15 416.884032 
L 931.101136 415.50912 
L 932.052273 424.689984 
L 933.003409 443.096064 
L 933.954545 421.762752 
L 933.954545 421.762752 
" clip-path="url(#pdb5d769d53)" style="fill: none; stroke: #1f77b4; stroke-width: 1.5; stroke-linecap: square"/>
   </g>
   <g id="LineCollection_1">
    <path d="M 173.045455 486.0288 
L 933.954545 486.0288 
" clip-path="url(#pdb5d769d53)" style="fill: none; stroke: #ff0000; stroke-width: 1.5"/>
   </g>
   <g id="LineCollection_2">
    <path d="M 173.045455 447.176448 
L 933.954545 447.176448 
" clip-path="url(#pdb5d769d53)" style="fill: none; stroke: #008000; stroke-width: 1.5"/>
   </g>
   <g id="patch_3">
    <path d="M 135 512.64 
L 135 69.12 
" style="fill: none; stroke: #000000; stroke-width: 0.8; stroke-linejoin: miter; stroke-linecap: square"/>
   </g>
   <g id="patch_4">
    <path d="M 972 512.64 
L 972 69.12 
" style="fill: none; stroke: #000000; stroke-width: 0.8; stroke-linejoin: miter; stroke-linecap: square"/>
   </g>
   <g id="patch_5">
    <path d="M 135 512.64 
L 972 512.64 
" style="fill: none; stroke: #000000; stroke-width: 0.8; stroke-linejoin: miter; stroke-linecap: square"/>
   </g>
   <g id="patch_6">
    <path d="M 135 69.12 
L 972 69.12 
" style="fill: none; stroke: #000000; stroke-width: 0.8; stroke-linejoin: miter; stroke-linecap: square"/>
   </g>
   <g id="text_18">
    <!-- BPC vs. Training Steps for Enwik8 (41M) - 256 context window -->
    <g transform="translate(255.525 63.12) scale(0.192 -0.192)">
     <defs>
      <path id="DejaVuSans-76" d="M 191 3500 
L 800 3500 
L 1894 563 
L 2988 3500 
L 3597 3500 
L 2284 0 
L 1503 0 
L 191 3500 
z
" transform="scale(0.015625)"/>
      <path id="DejaVuSans-66" d="M 2375 4863 
L 2375 4384 
L 1825 4384 
Q 1516 4384 1395 4259 
Q 1275 4134 1275 3809 
L 1275 3500 
L 2222 3500 
L 2222 3053 
L 1275 3053 
L 1275 0 
L 697 0 
L 697 3053 
L 147 3053 
L 147 3500 
L 697 3500 
L 697 3744 
Q 697 4328 969 4595 
Q 1241 4863 1831 4863 
L 2375 4863 
z
" transform="scale(0.015625)"/>
      <path id="DejaVuSans-6f" d="M 1959 3097 
Q 1497 3097 1228 2736 
Q 959 2375 959 1747 
Q 959 1119 1226 758 
Q 1494 397 1959 397 
Q 2419 397 2687 759 
Q 2956 1122 2956 1747 
Q 2956 2369 2687 2733 
Q 2419 3097 1959 3097 
z
M 1959 3584 
Q 2709 3584 3137 3096 
Q 3566 2609 3566 1747 
Q 3566 888 3137 398 
Q 2709 -91 1959 -91 
Q 1206 -91 779 398 
Q 353 888 353 1747 
Q 353 2609 779 3096 
Q 1206 3584 1959 3584 
z
" transform="scale(0.015625)"/>
      <path id="DejaVuSans-45" d="M 628 4666 
L 3578 4666 
L 3578 4134 
L 1259 4134 
L 1259 2753 
L 3481 2753 
L 3481 2222 
L 1259 2222 
L 1259 531 
L 3634 531 
L 3634 0 
L 628 0 
L 628 4666 
z
" transform="scale(0.015625)"/>
      <path id="DejaVuSans-77" d="M 269 3500 
L 844 3500 
L 1563 769 
L 2278 3500 
L 2956 3500 
L 3675 769 
L 4391 3500 
L 4966 3500 
L 4050 0 
L 3372 0 
L 2619 2869 
L 1863 0 
L 1184 0 
L 269 3500 
z
" transform="scale(0.015625)"/>
      <path id="DejaVuSans-6b" d="M 581 4863 
L 1159 4863 
L 1159 1991 
L 2875 3500 
L 3609 3500 
L 1753 1863 
L 3688 0 
L 2938 0 
L 1159 1709 
L 1159 0 
L 581 0 
L 581 4863 
z
" transform="scale(0.015625)"/>
      <path id="DejaVuSans-28" d="M 1984 4856 
Q 1566 4138 1362 3434 
Q 1159 2731 1159 2009 
Q 1159 1288 1364 580 
Q 1569 -128 1984 -844 
L 1484 -844 
Q 1016 -109 783 600 
Q 550 1309 550 2009 
Q 550 2706 781 3412 
Q 1013 4119 1484 4856 
L 1984 4856 
z
" transform="scale(0.015625)"/>
      <path id="DejaVuSans-4d" d="M 628 4666 
L 1569 4666 
L 2759 1491 
L 3956 4666 
L 4897 4666 
L 4897 0 
L 4281 0 
L 4281 4097 
L 3078 897 
L 2444 897 
L 1241 4097 
L 1241 0 
L 628 0 
L 628 4666 
z
" transform="scale(0.015625)"/>
      <path id="DejaVuSans-29" d="M 513 4856 
L 1013 4856 
Q 1481 4119 1714 3412 
Q 1947 2706 1947 2009 
Q 1947 1309 1714 600 
Q 1481 -109 1013 -844 
L 513 -844 
Q 928 -128 1133 580 
Q 1338 1288 1338 2009 
Q 1338 2731 1133 3434 
Q 928 4138 513 4856 
z
" transform="scale(0.015625)"/>
      <path id="DejaVuSans-2d" d="M 313 2009 
L 1997 2009 
L 1997 1497 
L 313 1497 
L 313 2009 
z
" transform="scale(0.015625)"/>
      <path id="DejaVuSans-78" d="M 3513 3500 
L 2247 1797 
L 3578 0 
L 2900 0 
L 1881 1375 
L 863 0 
L 184 0 
L 1544 1831 
L 300 3500 
L 978 3500 
L 1906 2253 
L 2834 3500 
L 3513 3500 
z
" transform="scale(0.015625)"/>
      <path id="DejaVuSans-64" d="M 2906 2969 
L 2906 4863 
L 3481 4863 
L 3481 0 
L 2906 0 
L 2906 525 
Q 2725 213 2448 61 
Q 2172 -91 1784 -91 
Q 1150 -91 751 415 
Q 353 922 353 1747 
Q 353 2572 751 3078 
Q 1150 3584 1784 3584 
Q 2172 3584 2448 3432 
Q 2725 3281 2906 2969 
z
M 947 1747 
Q 947 1113 1208 752 
Q 1469 391 1925 391 
Q 2381 391 2643 752 
Q 2906 1113 2906 1747 
Q 2906 2381 2643 2742 
Q 2381 3103 1925 3103 
Q 1469 3103 1208 2742 
Q 947 2381 947 1747 
z
" transform="scale(0.015625)"/>
     </defs>
     <use xlink:href="#DejaVuSans-42"/>
     <use xlink:href="#DejaVuSans-50" x="68.603516"/>
     <use xlink:href="#DejaVuSans-43" x="128.90625"/>
     <use xlink:href="#DejaVuSans-20" x="198.730469"/>
     <use xlink:href="#DejaVuSans-76" x="230.517578"/>
     <use xlink:href="#DejaVuSans-73" x="289.697266"/>
     <use xlink:href="#DejaVuSans-2e" x="341.796875"/>
     <use xlink:href="#DejaVuSans-20" x="373.583984"/>
     <use xlink:href="#DejaVuSans-54" x="405.371094"/>
     <use xlink:href="#DejaVuSans-72" x="451.705078"/>
     <use xlink:href="#DejaVuSans-61" x="492.818359"/>
     <use xlink:href="#DejaVuSans-69" x="554.097656"/>
     <use xlink:href="#DejaVuSans-6e" x="581.880859"/>
     <use xlink:href="#DejaVuSans-69" x="645.259766"/>
     <use xlink:href="#DejaVuSans-6e" x="673.042969"/>
     <use xlink:href="#DejaVuSans-67" x="736.421875"/>
     <use xlink:href="#DejaVuSans-20" x="799.898438"/>
     <use xlink:href="#DejaVuSans-53" x="831.685547"/>
     <use xlink:href="#DejaVuSans-74" x="895.162109"/>
     <use xlink:href="#DejaVuSans-65" x="934.371094"/>
     <use xlink:href="#DejaVuSans-70" x="995.894531"/>
     <use xlink:href="#DejaVuSans-73" x="1059.371094"/>
     <use xlink:href="#DejaVuSans-20" x="1111.470703"/>
     <use xlink:href="#DejaVuSans-66" x="1143.257812"/>
     <use xlink:href="#DejaVuSans-6f" x="1178.462891"/>
     <use xlink:href="#DejaVuSans-72" x="1239.644531"/>
     <use xlink:href="#DejaVuSans-20" x="1280.757812"/>
     <use xlink:href="#DejaVuSans-45" x="1312.544922"/>
     <use xlink:href="#DejaVuSans-6e" x="1375.728516"/>
     <use xlink:href="#DejaVuSans-77" x="1439.107422"/>
     <use xlink:href="#DejaVuSans-69" x="1520.894531"/>
     <use xlink:href="#DejaVuSans-6b" x="1548.677734"/>
     <use xlink:href="#DejaVuSans-38" x="1606.587891"/>
     <use xlink:href="#DejaVuSans-20" x="1670.210938"/>
     <use xlink:href="#DejaVuSans-28" x="1701.998047"/>
     <use xlink:href="#DejaVuSans-34" x="1741.011719"/>
     <use xlink:href="#DejaVuSans-31" x="1804.634766"/>
     <use xlink:href="#DejaVuSans-4d" x="1868.257812"/>
     <use xlink:href="#DejaVuSans-29" x="1954.537109"/>
     <use xlink:href="#DejaVuSans-20" x="1993.550781"/>
     <use xlink:href="#DejaVuSans-2d" x="2025.337891"/>
     <use xlink:href="#DejaVuSans-20" x="2061.421875"/>
     <use xlink:href="#DejaVuSans-32" x="2093.208984"/>
     <use xlink:href="#DejaVuSans-35" x="2156.832031"/>
     <use xlink:href="#DejaVuSans-36" x="2220.455078"/>
     <use xlink:href="#DejaVuSans-20" x="2284.078125"/>
     <use xlink:href="#DejaVuSans-63" x="2315.865234"/>
     <use xlink:href="#DejaVuSans-6f" x="2370.845703"/>
     <use xlink:href="#DejaVuSans-6e" x="2432.027344"/>
     <use xlink:href="#DejaVuSans-74" x="2495.40625"/>
     <use xlink:href="#DejaVuSans-65" x="2534.615234"/>
     <use xlink:href="#DejaVuSans-78" x="2594.388672"/>
     <use xlink:href="#DejaVuSans-74" x="2653.568359"/>
     <use xlink:href="#DejaVuSans-20" x="2692.777344"/>
     <use xlink:href="#DejaVuSans-77" x="2724.564453"/>
     <use xlink:href="#DejaVuSans-69" x="2806.351562"/>
     <use xlink:href="#DejaVuSans-6e" x="2834.134766"/>
     <use xlink:href="#DejaVuSans-64" x="2897.513672"/>
     <use xlink:href="#DejaVuSans-6f" x="2960.990234"/>
     <use xlink:href="#DejaVuSans-77" x="3022.171875"/>
    </g>
   </g>
   <g id="legend_1">
    <g id="patch_7">
     <path d="M 692.5575 152.375 
L 960.8 152.375 
Q 964 152.375 964 149.175 
L 964 80.32 
Q 964 77.12 960.8 77.12 
L 692.5575 77.12 
Q 689.3575 77.12 689.3575 80.32 
L 689.3575 149.175 
Q 689.3575 152.375 692.5575 152.375 
z
" style="fill: #ffffff; opacity: 0.8; stroke: #cccccc; stroke-linejoin: miter"/>
    </g>
    <g id="line2d_32">
     <path d="M 695.7575 90.0775 
L 711.7575 90.0775 
L 727.7575 90.0775 
" style="fill: none; stroke: #1f77b4; stroke-width: 1.5; stroke-linecap: square"/>
    </g>
    <g id="text_19">
     <!-- BPC Value on Train Dataset -->
     <g transform="translate(740.5575 95.6775) scale(0.16 -0.16)">
      <defs>
       <path id="DejaVuSans-56" d="M 1831 0 
L 50 4666 
L 709 4666 
L 2188 738 
L 3669 4666 
L 4325 4666 
L 2547 0 
L 1831 0 
z
" transform="scale(0.015625)"/>
       <path id="DejaVuSans-6c" d="M 603 4863 
L 1178 4863 
L 1178 0 
L 603 0 
L 603 4863 
z
" transform="scale(0.015625)"/>
       <path id="DejaVuSans-75" d="M 544 1381 
L 544 3500 
L 1119 3500 
L 1119 1403 
Q 1119 906 1312 657 
Q 1506 409 1894 409 
Q 2359 409 2629 706 
Q 2900 1003 2900 1516 
L 2900 3500 
L 3475 3500 
L 3475 0 
L 2900 0 
L 2900 538 
Q 2691 219 2414 64 
Q 2138 -91 1772 -91 
Q 1169 -91 856 284 
Q 544 659 544 1381 
z
M 1991 3584 
L 1991 3584 
z
" transform="scale(0.015625)"/>
       <path id="DejaVuSans-44" d="M 1259 4147 
L 1259 519 
L 2022 519 
Q 2988 519 3436 956 
Q 3884 1394 3884 2338 
Q 3884 3275 3436 3711 
Q 2988 4147 2022 4147 
L 1259 4147 
z
M 628 4666 
L 1925 4666 
Q 3281 4666 3915 4102 
Q 4550 3538 4550 2338 
Q 4550 1131 3912 565 
Q 3275 0 1925 0 
L 628 0 
L 628 4666 
z
" transform="scale(0.015625)"/>
      </defs>
      <use xlink:href="#DejaVuSans-42"/>
      <use xlink:href="#DejaVuSans-50" x="68.603516"/>
      <use xlink:href="#DejaVuSans-43" x="128.90625"/>
      <use xlink:href="#DejaVuSans-20" x="198.730469"/>
      <use xlink:href="#DejaVuSans-56" x="230.517578"/>
      <use xlink:href="#DejaVuSans-61" x="291.175781"/>
      <use xlink:href="#DejaVuSans-6c" x="352.455078"/>
      <use xlink:href="#DejaVuSans-75" x="380.238281"/>
      <use xlink:href="#DejaVuSans-65" x="443.617188"/>
      <use xlink:href="#DejaVuSans-20" x="505.140625"/>
      <use xlink:href="#DejaVuSans-6f" x="536.927734"/>
      <use xlink:href="#DejaVuSans-6e" x="598.109375"/>
      <use xlink:href="#DejaVuSans-20" x="661.488281"/>
      <use xlink:href="#DejaVuSans-54" x="693.275391"/>
      <use xlink:href="#DejaVuSans-72" x="739.609375"/>
      <use xlink:href="#DejaVuSans-61" x="780.722656"/>
      <use xlink:href="#DejaVuSans-69" x="842.001953"/>
      <use xlink:href="#DejaVuSans-6e" x="869.785156"/>
      <use xlink:href="#DejaVuSans-20" x="933.164062"/>
      <use xlink:href="#DejaVuSans-44" x="964.951172"/>
      <use xlink:href="#DejaVuSans-61" x="1041.953125"/>
      <use xlink:href="#DejaVuSans-74" x="1103.232422"/>
      <use xlink:href="#DejaVuSans-61" x="1142.441406"/>
      <use xlink:href="#DejaVuSans-73" x="1203.720703"/>
      <use xlink:href="#DejaVuSans-65" x="1255.820312"/>
      <use xlink:href="#DejaVuSans-74" x="1317.34375"/>
     </g>
    </g>
    <g id="line2d_33">
     <path d="M 695.7575 113.5625 
L 727.7575 113.5625 
" style="fill: none; stroke: #ff0000; stroke-width: 1.5"/>
    </g>
    <g id="text_20">
     <!-- Target BPC Value -->
     <g transform="translate(740.5575 119.1625) scale(0.16 -0.16)">
      <use xlink:href="#DejaVuSans-54"/>
      <use xlink:href="#DejaVuSans-61" x="44.583984"/>
      <use xlink:href="#DejaVuSans-72" x="105.863281"/>
      <use xlink:href="#DejaVuSans-67" x="145.226562"/>
      <use xlink:href="#DejaVuSans-65" x="208.703125"/>
      <use xlink:href="#DejaVuSans-74" x="270.226562"/>
      <use xlink:href="#DejaVuSans-20" x="309.435547"/>
      <use xlink:href="#DejaVuSans-42" x="341.222656"/>
      <use xlink:href="#DejaVuSans-50" x="409.826172"/>
      <use xlink:href="#DejaVuSans-43" x="470.128906"/>
      <use xlink:href="#DejaVuSans-20" x="539.953125"/>
      <use xlink:href="#DejaVuSans-56" x="571.740234"/>
      <use xlink:href="#DejaVuSans-61" x="632.398438"/>
      <use xlink:href="#DejaVuSans-6c" x="693.677734"/>
      <use xlink:href="#DejaVuSans-75" x="721.460938"/>
      <use xlink:href="#DejaVuSans-65" x="784.839844"/>
     </g>
    </g>
    <g id="line2d_34">
     <path d="M 695.7575 137.0475 
L 727.7575 137.0475 
" style="fill: none; stroke: #008000; stroke-width: 1.5"/>
    </g>
    <g id="text_21">
     <!-- Final Test BPC Value -->
     <g transform="translate(740.5575 142.6475) scale(0.16 -0.16)">
      <defs>
       <path id="DejaVuSans-46" d="M 628 4666 
L 3309 4666 
L 3309 4134 
L 1259 4134 
L 1259 2759 
L 3109 2759 
L 3109 2228 
L 1259 2228 
L 1259 0 
L 628 0 
L 628 4666 
z
" transform="scale(0.015625)"/>
      </defs>
      <use xlink:href="#DejaVuSans-46"/>
      <use xlink:href="#DejaVuSans-69" x="50.269531"/>
      <use xlink:href="#DejaVuSans-6e" x="78.052734"/>
      <use xlink:href="#DejaVuSans-61" x="141.431641"/>
      <use xlink:href="#DejaVuSans-6c" x="202.710938"/>
      <use xlink:href="#DejaVuSans-20" x="230.494141"/>
      <use xlink:href="#DejaVuSans-54" x="262.28125"/>
      <use xlink:href="#DejaVuSans-65" x="306.365234"/>
      <use xlink:href="#DejaVuSans-73" x="367.888672"/>
      <use xlink:href="#DejaVuSans-74" x="419.988281"/>
      <use xlink:href="#DejaVuSans-20" x="459.197266"/>
      <use xlink:href="#DejaVuSans-42" x="490.984375"/>
      <use xlink:href="#DejaVuSans-50" x="559.587891"/>
      <use xlink:href="#DejaVuSans-43" x="619.890625"/>
      <use xlink:href="#DejaVuSans-20" x="689.714844"/>
      <use xlink:href="#DejaVuSans-56" x="721.501953"/>
      <use xlink:href="#DejaVuSans-61" x="782.160156"/>
      <use xlink:href="#DejaVuSans-6c" x="843.439453"/>
      <use xlink:href="#DejaVuSans-75" x="871.222656"/>
      <use xlink:href="#DejaVuSans-65" x="934.601562"/>
     </g>
    </g>
   </g>
  </g>
 </g>
 <defs>
  <clipPath id="pdb5d769d53">
   <rect x="135" y="69.12" width="837" height="443.52"/>
  </clipPath>
 </defs>
</svg>
