<?xml version="1.0" encoding="utf-8" standalone="no"?>
<!DOCTYPE svg PUBLIC "-//W3C//DTD SVG 1.1//EN"
  "http://www.w3.org/Graphics/SVG/1.1/DTD/svg11.dtd">
<svg xmlns:xlink="http://www.w3.org/1999/xlink" width="1080pt" height="432pt" viewBox="0 0 1080 432" xmlns="http://www.w3.org/2000/svg" version="1.1">
 <metadata>
  <rdf:RDF xmlns:dc="http://purl.org/dc/elements/1.1/" xmlns:cc="http://creativecommons.org/ns#" xmlns:rdf="http://www.w3.org/1999/02/22-rdf-syntax-ns#">
   <cc:Work>
    <dc:type rdf:resource="http://purl.org/dc/dcmitype/StillImage"/>
    <dc:date>2026-04-08T16:56:04.757519</dc:date>
    <dc:format>image/svg+xml</dc:format>
    <dc:creator>
     <cc:Agent>
      <dc:title>Matplotlib v3.9.2, https://matplotlib.org/</dc:title>
     </cc:Agent>
    </dc:creator>
   </cc:Work>
  </rdf:RDF>
 </metadata>
 <defs>
  <style type="text/css">*{stroke-linejoin: round; stroke-linecap: butt}</style>
 </defs>
 <g id="figure_1">
  <g id="patch_1">
   <path d="M 0 432 
L 1080 432 
L 1080 0 
L 0 0 
z
" style="fill: #ffffff"/>
  </g>
  <g id="axes_1">
   <g id="patch_2">
    <path d="M 68.15 374.92 
L 1037.115 374.92 
L 1037.115 37.68 
L 68.15 37.68 
z
" style="fill: #ffffff"/>
   </g>
   <g id="matplotlib.axis_1">
    <g id="xtick_1">
     <g id="line2d_1">
      <path d="M 68.15 374.92 
L 68.15 37.68 
" clip-path="url(#pabede794b6)" style="fill: none; stroke: #b0b0b0; stroke-width: 0.8; stroke-linecap: square"/>
     </g>
     <g id="line2d_2">
      <defs>
       <path id="mffd209e20e" d="M 0 0 
L 0 3.5 
" style="stroke: #000000; stroke-width: 0.8"/>
      </defs>
      <g>
       <use xlink:href="#mffd209e20e" x="68.15" y="374.92" style="stroke: #000000; stroke-width: 0.8"/>
      </g>
     </g>
     <g id="text_1">
      <!-- 0 -->
      <g transform="translate(63.06 394.0775) scale(0.16 -0.16)">
       <defs>
        <path id="DejaVuSans-30" d="M 2034 4250 
Q 1547 4250 1301 3770 
Q 1056 3291 1056 2328 
Q 1056 1369 1301 889 
Q 1547 409 2034 409 
Q 2525 409 2770 889 
Q 3016 1369 3016 2328 
Q 3016 3291 2770 3770 
Q 2525 4250 2034 4250 
z
M 2034 4750 
Q 2819 4750 3233 4129 
Q 3647 3509 3647 2328 
Q 3647 1150 3233 529 
Q 2819 -91 2034 -91 
Q 1250 -91 836 529 
Q 422 1150 422 2328 
Q 422 3509 836 4129 
Q 1250 4750 2034 4750 
z
" transform="scale(0.015625)"/>
       </defs>
       <use xlink:href="#DejaVuSans-30"/>
      </g>
     </g>
    </g>
    <g id="xtick_2">
     <g id="line2d_3">
      <path d="M 261.943 374.92 
L 261.943 37.68 
" clip-path="url(#pabede794b6)" style="fill: none; stroke: #b0b0b0; stroke-width: 0.8; stroke-linecap: square"/>
     </g>
     <g id="line2d_4">
      <g>
       <use xlink:href="#mffd209e20e" x="261.943" y="374.92" style="stroke: #000000; stroke-width: 0.8"/>
      </g>
     </g>
     <g id="text_2">
      <!-- 2000 -->
      <g transform="translate(241.583 394.0775) scale(0.16 -0.16)">
       <defs>
        <path id="DejaVuSans-32" d="M 1228 531 
L 3431 531 
L 3431 0 
L 469 0 
L 469 531 
Q 828 903 1448 1529 
Q 2069 2156 2228 2338 
Q 2531 2678 2651 2914 
Q 2772 3150 2772 3378 
Q 2772 3750 2511 3984 
Q 2250 4219 1831 4219 
Q 1534 4219 1204 4116 
Q 875 4013 500 3803 
L 500 4441 
Q 881 4594 1212 4672 
Q 1544 4750 1819 4750 
Q 2544 4750 2975 4387 
Q 3406 4025 3406 3419 
Q 3406 3131 3298 2873 
Q 3191 2616 2906 2266 
Q 2828 2175 2409 1742 
Q 1991 1309 1228 531 
z
" transform="scale(0.015625)"/>
       </defs>
       <use xlink:href="#DejaVuSans-32"/>
       <use xlink:href="#DejaVuSans-30" x="63.623047"/>
       <use xlink:href="#DejaVuSans-30" x="127.246094"/>
       <use xlink:href="#DejaVuSans-30" x="190.869141"/>
      </g>
     </g>
    </g>
    <g id="xtick_3">
     <g id="line2d_5">
      <path d="M 455.736 374.92 
L 455.736 37.68 
" clip-path="url(#pabede794b6)" style="fill: none; stroke: #b0b0b0; stroke-width: 0.8; stroke-linecap: square"/>
     </g>
     <g id="line2d_6">
      <g>
       <use xlink:href="#mffd209e20e" x="455.736" y="374.92" style="stroke: #000000; stroke-width: 0.8"/>
      </g>
     </g>
     <g id="text_3">
      <!-- 4000 -->
      <g transform="translate(435.376 394.0775) scale(0.16 -0.16)">
       <defs>
        <path id="DejaVuSans-34" d="M 2419 4116 
L 825 1625 
L 2419 1625 
L 2419 4116 
z
M 2253 4666 
L 3047 4666 
L 3047 1625 
L 3713 1625 
L 3713 1100 
L 3047 1100 
L 3047 0 
L 2419 0 
L 2419 1100 
L 313 1100 
L 313 1709 
L 2253 4666 
z
" transform="scale(0.015625)"/>
       </defs>
       <use xlink:href="#DejaVuSans-34"/>
       <use xlink:href="#DejaVuSans-30" x="63.623047"/>
       <use xlink:href="#DejaVuSans-30" x="127.246094"/>
       <use xlink:href="#DejaVuSans-30" x="190.869141"/>
      </g>
     </g>
    </g>
    <g id="xtick_4">
     <g id="line2d_7">
      <path d="M 649.529 374.92 
L 649.529 37.68 
" clip-path="url(#pabede794b6)" style="fill: none; stroke: #b0b0b0; stroke-width: 0.8; stroke-linecap: square"/>
     </g>
     <g id="line2d_8">
      <g>
       <use xlink:href="#mffd209e20e" x="649.529" y="374.92" style="stroke: #000000; stroke-width: 0.8"/>
      </g>
     </g>
     <g id="text_4">
      <!-- 6000 -->
      <g transform="translate(629.169 394.0775) scale(0.16 -0.16)">
       <defs>
        <path id="DejaVuSans-36" d="M 2113 2584 
Q 1688 2584 1439 2293 
Q 1191 2003 1191 1497 
Q 1191 994 1439 701 
Q 1688 409 2113 409 
Q 2538 409 2786 701 
Q 3034 994 3034 1497 
Q 3034 2003 2786 2293 
Q 2538 2584 2113 2584 
z
M 3366 4563 
L 3366 3988 
Q 3128 4100 2886 4159 
Q 2644 4219 2406 4219 
Q 1781 4219 1451 3797 
Q 1122 3375 1075 2522 
Q 1259 2794 1537 2939 
Q 1816 3084 2150 3084 
Q 2853 3084 3261 2657 
Q 3669 2231 3669 1497 
Q 3669 778 3244 343 
Q 2819 -91 2113 -91 
Q 1303 -91 875 529 
Q 447 1150 447 2328 
Q 447 3434 972 4092 
Q 1497 4750 2381 4750 
Q 2619 4750 2861 4703 
Q 3103 4656 3366 4563 
z
" transform="scale(0.015625)"/>
       </defs>
       <use xlink:href="#DejaVuSans-36"/>
       <use xlink:href="#DejaVuSans-30" x="63.623047"/>
       <use xlink:href="#DejaVuSans-30" x="127.246094"/>
       <use xlink:href="#DejaVuSans-30" x="190.869141"/>
      </g>
     </g>
    </g>
    <g id="xtick_5">
     <g id="line2d_9">
      <path d="M 843.322 374.92 
L 843.322 37.68 
" clip-path="url(#pabede794b6)" style="fill: none; stroke: #b0b0b0; stroke-width: 0.8; stroke-linecap: square"/>
     </g>
     <g id="line2d_10">
      <g>
       <use xlink:href="#mffd209e20e" x="843.322" y="374.92" style="stroke: #000000; stroke-width: 0.8"/>
      </g>
     </g>
     <g id="text_5">
      <!-- 8000 -->
      <g transform="translate(822.962 394.0775) scale(0.16 -0.16)">
       <defs>
        <path id="DejaVuSans-38" d="M 2034 2216 
Q 1584 2216 1326 1975 
Q 1069 1734 1069 1313 
Q 1069 891 1326 650 
Q 1584 409 2034 409 
Q 2484 409 2743 651 
Q 3003 894 3003 1313 
Q 3003 1734 2745 1975 
Q 2488 2216 2034 2216 
z
M 1403 2484 
Q 997 2584 770 2862 
Q 544 3141 544 3541 
Q 544 4100 942 4425 
Q 1341 4750 2034 4750 
Q 2731 4750 3128 4425 
Q 3525 4100 3525 3541 
Q 3525 3141 3298 2862 
Q 3072 2584 2669 2484 
Q 3125 2378 3379 2068 
Q 3634 1759 3634 1313 
Q 3634 634 3220 271 
Q 2806 -91 2034 -91 
Q 1263 -91 848 271 
Q 434 634 434 1313 
Q 434 1759 690 2068 
Q 947 2378 1403 2484 
z
M 1172 3481 
Q 1172 3119 1398 2916 
Q 1625 2713 2034 2713 
Q 2441 2713 2670 2916 
Q 2900 3119 2900 3481 
Q 2900 3844 2670 4047 
Q 2441 4250 2034 4250 
Q 1625 4250 1398 4047 
Q 1172 3844 1172 3481 
z
" transform="scale(0.015625)"/>
       </defs>
       <use xlink:href="#DejaVuSans-38"/>
       <use xlink:href="#DejaVuSans-30" x="63.623047"/>
       <use xlink:href="#DejaVuSans-30" x="127.246094"/>
       <use xlink:href="#DejaVuSans-30" x="190.869141"/>
      </g>
     </g>
    </g>
    <g id="xtick_6">
     <g id="line2d_11">
      <path d="M 1037.115 374.92 
L 1037.115 37.68 
" clip-path="url(#pabede794b6)" style="fill: none; stroke: #b0b0b0; stroke-width: 0.8; stroke-linecap: square"/>
     </g>
     <g id="line2d_12">
      <g>
       <use xlink:href="#mffd209e20e" x="1037.115" y="374.92" style="stroke: #000000; stroke-width: 0.8"/>
      </g>
     </g>
     <g id="text_6">
      <!-- 10000 -->
      <g transform="translate(1011.665 394.0775) scale(0.16 -0.16)">
       <defs>
        <path id="DejaVuSans-31" d="M 794 531 
L 1825 531 
L 1825 4091 
L 703 3866 
L 703 4441 
L 1819 4666 
L 2450 4666 
L 2450 531 
L 3481 531 
L 3481 0 
L 794 0 
L 794 531 
z
" transform="scale(0.015625)"/>
       </defs>
       <use xlink:href="#DejaVuSans-31"/>
       <use xlink:href="#DejaVuSans-30" x="63.623047"/>
       <use xlink:href="#DejaVuSans-30" x="127.246094"/>
       <use xlink:href="#DejaVuSans-30" x="190.869141"/>
       <use xlink:href="#DejaVuSans-30" x="254.492188"/>
      </g>
     </g>
    </g>
    <g id="text_7">
     <!-- Training Steps -->
     <g transform="translate(496.145 413.5625) scale(0.16 -0.16)">
      <defs>
       <path id="DejaVuSans-54" d="M -19 4666 
L 3928 4666 
L 3928 4134 
L 2272 4134 
L 2272 0 
L 1638 0 
L 1638 4134 
L -19 4134 
L -19 4666 
z
" transform="scale(0.015625)"/>
       <path id="DejaVuSans-72" d="M 2631 2963 
Q 2534 3019 2420 3045 
Q 2306 3072 2169 3072 
Q 1681 3072 1420 2755 
Q 1159 2438 1159 1844 
L 1159 0 
L 581 0 
L 581 3500 
L 1159 3500 
L 1159 2956 
Q 1341 3275 1631 3429 
Q 1922 3584 2338 3584 
Q 2397 3584 2469 3576 
Q 2541 3569 2628 3553 
L 2631 2963 
z
" transform="scale(0.015625)"/>
       <path id="DejaVuSans-61" d="M 2194 1759 
Q 1497 1759 1228 1600 
Q 959 1441 959 1056 
Q 959 750 1161 570 
Q 1363 391 1709 391 
Q 2188 391 2477 730 
Q 2766 1069 2766 1631 
L 2766 1759 
L 2194 1759 
z
M 3341 1997 
L 3341 0 
L 2766 0 
L 2766 531 
Q 2569 213 2275 61 
Q 1981 -91 1556 -91 
Q 1019 -91 701 211 
Q 384 513 384 1019 
Q 384 1609 779 1909 
Q 1175 2209 1959 2209 
L 2766 2209 
L 2766 2266 
Q 2766 2663 2505 2880 
Q 2244 3097 1772 3097 
Q 1472 3097 1187 3025 
Q 903 2953 641 2809 
L 641 3341 
Q 956 3463 1253 3523 
Q 1550 3584 1831 3584 
Q 2591 3584 2966 3190 
Q 3341 2797 3341 1997 
z
" transform="scale(0.015625)"/>
       <path id="DejaVuSans-69" d="M 603 3500 
L 1178 3500 
L 1178 0 
L 603 0 
L 603 3500 
z
M 603 4863 
L 1178 4863 
L 1178 4134 
L 603 4134 
L 603 4863 
z
" transform="scale(0.015625)"/>
       <path id="DejaVuSans-6e" d="M 3513 2113 
L 3513 0 
L 2938 0 
L 2938 2094 
Q 2938 2591 2744 2837 
Q 2550 3084 2163 3084 
Q 1697 3084 1428 2787 
Q 1159 2491 1159 1978 
L 1159 0 
L 581 0 
L 581 3500 
L 1159 3500 
L 1159 2956 
Q 1366 3272 1645 3428 
Q 1925 3584 2291 3584 
Q 2894 3584 3203 3211 
Q 3513 2838 3513 2113 
z
" transform="scale(0.015625)"/>
       <path id="DejaVuSans-67" d="M 2906 1791 
Q 2906 2416 2648 2759 
Q 2391 3103 1925 3103 
Q 1463 3103 1205 2759 
Q 947 2416 947 1791 
Q 947 1169 1205 825 
Q 1463 481 1925 481 
Q 2391 481 2648 825 
Q 2906 1169 2906 1791 
z
M 3481 434 
Q 3481 -459 3084 -895 
Q 2688 -1331 1869 -1331 
Q 1566 -1331 1297 -1286 
Q 1028 -1241 775 -1147 
L 775 -588 
Q 1028 -725 1275 -790 
Q 1522 -856 1778 -856 
Q 2344 -856 2625 -561 
Q 2906 -266 2906 331 
L 2906 616 
Q 2728 306 2450 153 
Q 2172 0 1784 0 
Q 1141 0 747 490 
Q 353 981 353 1791 
Q 353 2603 747 3093 
Q 1141 3584 1784 3584 
Q 2172 3584 2450 3431 
Q 2728 3278 2906 2969 
L 2906 3500 
L 3481 3500 
L 3481 434 
z
" transform="scale(0.015625)"/>
       <path id="DejaVuSans-20" transform="scale(0.015625)"/>
       <path id="DejaVuSans-53" d="M 3425 4513 
L 3425 3897 
Q 3066 4069 2747 4153 
Q 2428 4238 2131 4238 
Q 1616 4238 1336 4038 
Q 1056 3838 1056 3469 
Q 1056 3159 1242 3001 
Q 1428 2844 1947 2747 
L 2328 2669 
Q 3034 2534 3370 2195 
Q 3706 1856 3706 1288 
Q 3706 609 3251 259 
Q 2797 -91 1919 -91 
Q 1588 -91 1214 -16 
Q 841 59 441 206 
L 441 856 
Q 825 641 1194 531 
Q 1563 422 1919 422 
Q 2459 422 2753 634 
Q 3047 847 3047 1241 
Q 3047 1584 2836 1778 
Q 2625 1972 2144 2069 
L 1759 2144 
Q 1053 2284 737 2584 
Q 422 2884 422 3419 
Q 422 4038 858 4394 
Q 1294 4750 2059 4750 
Q 2388 4750 2728 4690 
Q 3069 4631 3425 4513 
z
" transform="scale(0.015625)"/>
       <path id="DejaVuSans-74" d="M 1172 4494 
L 1172 3500 
L 2356 3500 
L 2356 3053 
L 1172 3053 
L 1172 1153 
Q 1172 725 1289 603 
Q 1406 481 1766 481 
L 2356 481 
L 2356 0 
L 1766 0 
Q 1100 0 847 248 
Q 594 497 594 1153 
L 594 3053 
L 172 3053 
L 172 3500 
L 594 3500 
L 594 4494 
L 1172 4494 
z
" transform="scale(0.015625)"/>
       <path id="DejaVuSans-65" d="M 3597 1894 
L 3597 1613 
L 953 1613 
Q 991 1019 1311 708 
Q 1631 397 2203 397 
Q 2534 397 2845 478 
Q 3156 559 3463 722 
L 3463 178 
Q 3153 47 2828 -22 
Q 2503 -91 2169 -91 
Q 1331 -91 842 396 
Q 353 884 353 1716 
Q 353 2575 817 3079 
Q 1281 3584 2069 3584 
Q 2775 3584 3186 3129 
Q 3597 2675 3597 1894 
z
M 3022 2063 
Q 3016 2534 2758 2815 
Q 2500 3097 2075 3097 
Q 1594 3097 1305 2825 
Q 1016 2553 972 2059 
L 3022 2063 
z
" transform="scale(0.015625)"/>
       <path id="DejaVuSans-70" d="M 1159 525 
L 1159 -1331 
L 581 -1331 
L 581 3500 
L 1159 3500 
L 1159 2969 
Q 1341 3281 1617 3432 
Q 1894 3584 2278 3584 
Q 2916 3584 3314 3078 
Q 3713 2572 3713 1747 
Q 3713 922 3314 415 
Q 2916 -91 2278 -91 
Q 1894 -91 1617 61 
Q 1341 213 1159 525 
z
M 3116 1747 
Q 3116 2381 2855 2742 
Q 2594 3103 2138 3103 
Q 1681 3103 1420 2742 
Q 1159 2381 1159 1747 
Q 1159 1113 1420 752 
Q 1681 391 2138 391 
Q 2594 391 2855 752 
Q 3116 1113 3116 1747 
z
" transform="scale(0.015625)"/>
       <path id="DejaVuSans-73" d="M 2834 3397 
L 2834 2853 
Q 2591 2978 2328 3040 
Q 2066 3103 1784 3103 
Q 1356 3103 1142 2972 
Q 928 2841 928 2578 
Q 928 2378 1081 2264 
Q 1234 2150 1697 2047 
L 1894 2003 
Q 2506 1872 2764 1633 
Q 3022 1394 3022 966 
Q 3022 478 2636 193 
Q 2250 -91 1575 -91 
Q 1294 -91 989 -36 
Q 684 19 347 128 
L 347 722 
Q 666 556 975 473 
Q 1284 391 1588 391 
Q 1994 391 2212 530 
Q 2431 669 2431 922 
Q 2431 1156 2273 1281 
Q 2116 1406 1581 1522 
L 1381 1569 
Q 847 1681 609 1914 
Q 372 2147 372 2553 
Q 372 3047 722 3315 
Q 1072 3584 1716 3584 
Q 2034 3584 2315 3537 
Q 2597 3491 2834 3397 
z
" transform="scale(0.015625)"/>
      </defs>
      <use xlink:href="#DejaVuSans-54"/>
      <use xlink:href="#DejaVuSans-72" x="46.333984"/>
      <use xlink:href="#DejaVuSans-61" x="87.447266"/>
      <use xlink:href="#DejaVuSans-69" x="148.726562"/>
      <use xlink:href="#DejaVuSans-6e" x="176.509766"/>
      <use xlink:href="#DejaVuSans-69" x="239.888672"/>
      <use xlink:href="#DejaVuSans-6e" x="267.671875"/>
      <use xlink:href="#DejaVuSans-67" x="331.050781"/>
      <use xlink:href="#DejaVuSans-20" x="394.527344"/>
      <use xlink:href="#DejaVuSans-53" x="426.314453"/>
      <use xlink:href="#DejaVuSans-74" x="489.791016"/>
      <use xlink:href="#DejaVuSans-65" x="529"/>
      <use xlink:href="#DejaVuSans-70" x="590.523438"/>
      <use xlink:href="#DejaVuSans-73" x="654"/>
     </g>
    </g>
   </g>
   <g id="matplotlib.axis_2">
    <g id="ytick_1">
     <g id="line2d_13">
      <path d="M 68.15 374.92 
L 1037.115 374.92 
" clip-path="url(#pabede794b6)" style="fill: none; stroke: #b0b0b0; stroke-width: 0.8; stroke-linecap: square"/>
     </g>
     <g id="line2d_14">
      <defs>
       <path id="m412da0f5c3" d="M 0 0 
L -3.5 0 
" style="stroke: #000000; stroke-width: 0.8"/>
      </defs>
      <g>
       <use xlink:href="#m412da0f5c3" x="68.15" y="374.92" style="stroke: #000000; stroke-width: 0.8"/>
      </g>
     </g>
     <g id="text_8">
      <!-- 2.4 -->
      <g transform="translate(35.705 380.99875) scale(0.16 -0.16)">
       <defs>
        <path id="DejaVuSans-2e" d="M 684 794 
L 1344 794 
L 1344 0 
L 684 0 
L 684 794 
z
" transform="scale(0.015625)"/>
       </defs>
       <use xlink:href="#DejaVuSans-32"/>
       <use xlink:href="#DejaVuSans-2e" x="63.623047"/>
       <use xlink:href="#DejaVuSans-34" x="95.410156"/>
      </g>
     </g>
    </g>
    <g id="ytick_2">
     <g id="line2d_15">
      <path d="M 68.15 332.765 
L 1037.115 332.765 
" clip-path="url(#pabede794b6)" style="fill: none; stroke: #b0b0b0; stroke-width: 0.8; stroke-linecap: square"/>
     </g>
     <g id="line2d_16">
      <g>
       <use xlink:href="#m412da0f5c3" x="68.15" y="332.765" style="stroke: #000000; stroke-width: 0.8"/>
      </g>
     </g>
     <g id="text_9">
      <!-- 2.6 -->
      <g transform="translate(35.705 338.84375) scale(0.16 -0.16)">
       <use xlink:href="#DejaVuSans-32"/>
       <use xlink:href="#DejaVuSans-2e" x="63.623047"/>
       <use xlink:href="#DejaVuSans-36" x="95.410156"/>
      </g>
     </g>
    </g>
    <g id="ytick_3">
     <g id="line2d_17">
      <path d="M 68.15 290.61 
L 1037.115 290.61 
" clip-path="url(#pabede794b6)" style="fill: none; stroke: #b0b0b0; stroke-width: 0.8; stroke-linecap: square"/>
     </g>
     <g id="line2d_18">
      <g>
       <use xlink:href="#m412da0f5c3" x="68.15" y="290.61" style="stroke: #000000; stroke-width: 0.8"/>
      </g>
     </g>
     <g id="text_10">
      <!-- 2.8 -->
      <g transform="translate(35.705 296.68875) scale(0.16 -0.16)">
       <use xlink:href="#DejaVuSans-32"/>
       <use xlink:href="#DejaVuSans-2e" x="63.623047"/>
       <use xlink:href="#DejaVuSans-38" x="95.410156"/>
      </g>
     </g>
    </g>
    <g id="ytick_4">
     <g id="line2d_19">
      <path d="M 68.15 248.455 
L 1037.115 248.455 
" clip-path="url(#pabede794b6)" style="fill: none; stroke: #b0b0b0; stroke-width: 0.8; stroke-linecap: square"/>
     </g>
     <g id="line2d_20">
      <g>
       <use xlink:href="#m412da0f5c3" x="68.15" y="248.455" style="stroke: #000000; stroke-width: 0.8"/>
      </g>
     </g>
     <g id="text_11">
      <!-- 3.0 -->
      <g transform="translate(35.705 254.53375) scale(0.16 -0.16)">
       <defs>
        <path id="DejaVuSans-33" d="M 2597 2516 
Q 3050 2419 3304 2112 
Q 3559 1806 3559 1356 
Q 3559 666 3084 287 
Q 2609 -91 1734 -91 
Q 1441 -91 1130 -33 
Q 819 25 488 141 
L 488 750 
Q 750 597 1062 519 
Q 1375 441 1716 441 
Q 2309 441 2620 675 
Q 2931 909 2931 1356 
Q 2931 1769 2642 2001 
Q 2353 2234 1838 2234 
L 1294 2234 
L 1294 2753 
L 1863 2753 
Q 2328 2753 2575 2939 
Q 2822 3125 2822 3475 
Q 2822 3834 2567 4026 
Q 2313 4219 1838 4219 
Q 1578 4219 1281 4162 
Q 984 4106 628 3988 
L 628 4550 
Q 988 4650 1302 4700 
Q 1616 4750 1894 4750 
Q 2613 4750 3031 4423 
Q 3450 4097 3450 3541 
Q 3450 3153 3228 2886 
Q 3006 2619 2597 2516 
z
" transform="scale(0.015625)"/>
       </defs>
       <use xlink:href="#DejaVuSans-33"/>
       <use xlink:href="#DejaVuSans-2e" x="63.623047"/>
       <use xlink:href="#DejaVuSans-30" x="95.410156"/>
      </g>
     </g>
    </g>
    <g id="ytick_5">
     <g id="line2d_21">
      <path d="M 68.15 206.3 
L 1037.115 206.3 
" clip-path="url(#pabede794b6)" style="fill: none; stroke: #b0b0b0; stroke-width: 0.8; stroke-linecap: square"/>
     </g>
     <g id="line2d_22">
      <g>
       <use xlink:href="#m412da0f5c3" x="68.15" y="206.3" style="stroke: #000000; stroke-width: 0.8"/>
      </g>
     </g>
     <g id="text_12">
      <!-- 3.2 -->
      <g transform="translate(35.705 212.37875) scale(0.16 -0.16)">
       <use xlink:href="#DejaVuSans-33"/>
       <use xlink:href="#DejaVuSans-2e" x="63.623047"/>
       <use xlink:href="#DejaVuSans-32" x="95.410156"/>
      </g>
     </g>
    </g>
    <g id="ytick_6">
     <g id="line2d_23">
      <path d="M 68.15 164.145 
L 1037.115 164.145 
" clip-path="url(#pabede794b6)" style="fill: none; stroke: #b0b0b0; stroke-width: 0.8; stroke-linecap: square"/>
     </g>
     <g id="line2d_24">
      <g>
       <use xlink:href="#m412da0f5c3" x="68.15" y="164.145" style="stroke: #000000; stroke-width: 0.8"/>
      </g>
     </g>
     <g id="text_13">
      <!-- 3.4 -->
      <g transform="translate(35.705 170.22375) scale(0.16 -0.16)">
       <use xlink:href="#DejaVuSans-33"/>
       <use xlink:href="#DejaVuSans-2e" x="63.623047"/>
       <use xlink:href="#DejaVuSans-34" x="95.410156"/>
      </g>
     </g>
    </g>
    <g id="ytick_7">
     <g id="line2d_25">
      <path d="M 68.15 121.99 
L 1037.115 121.99 
" clip-path="url(#pabede794b6)" style="fill: none; stroke: #b0b0b0; stroke-width: 0.8; stroke-linecap: square"/>
     </g>
     <g id="line2d_26">
      <g>
       <use xlink:href="#m412da0f5c3" x="68.15" y="121.99" style="stroke: #000000; stroke-width: 0.8"/>
      </g>
     </g>
     <g id="text_14">
      <!-- 3.6 -->
      <g transform="translate(35.705 128.06875) scale(0.16 -0.16)">
       <use xlink:href="#DejaVuSans-33"/>
       <use xlink:href="#DejaVuSans-2e" x="63.623047"/>
       <use xlink:href="#DejaVuSans-36" x="95.410156"/>
      </g>
     </g>
    </g>
    <g id="ytick_8">
     <g id="line2d_27">
      <path d="M 68.15 79.835 
L 1037.115 79.835 
" clip-path="url(#pabede794b6)" style="fill: none; stroke: #b0b0b0; stroke-width: 0.8; stroke-linecap: square"/>
     </g>
     <g id="line2d_28">
      <g>
       <use xlink:href="#m412da0f5c3" x="68.15" y="79.835" style="stroke: #000000; stroke-width: 0.8"/>
      </g>
     </g>
     <g id="text_15">
      <!-- 3.8 -->
      <g transform="translate(35.705 85.91375) scale(0.16 -0.16)">
       <use xlink:href="#DejaVuSans-33"/>
       <use xlink:href="#DejaVuSans-2e" x="63.623047"/>
       <use xlink:href="#DejaVuSans-38" x="95.410156"/>
      </g>
     </g>
    </g>
    <g id="ytick_9">
     <g id="line2d_29">
      <path d="M 68.15 37.68 
L 1037.115 37.68 
" clip-path="url(#pabede794b6)" style="fill: none; stroke: #b0b0b0; stroke-width: 0.8; stroke-linecap: square"/>
     </g>
     <g id="line2d_30">
      <g>
       <use xlink:href="#m412da0f5c3" x="68.15" y="37.68" style="stroke: #000000; stroke-width: 0.8"/>
      </g>
     </g>
     <g id="text_16">
      <!-- 4.0 -->
      <g transform="translate(35.705 43.75875) scale(0.16 -0.16)">
       <use xlink:href="#DejaVuSans-34"/>
       <use xlink:href="#DejaVuSans-2e" x="63.623047"/>
       <use xlink:href="#DejaVuSans-30" x="95.410156"/>
      </g>
     </g>
    </g>
    <g id="text_17">
     <!-- Perplexity -->
     <g transform="translate(28.3775 245.9575) rotate(-90) scale(0.16 -0.16)">
      <defs>
       <path id="DejaVuSans-50" d="M 1259 4147 
L 1259 2394 
L 2053 2394 
Q 2494 2394 2734 2622 
Q 2975 2850 2975 3272 
Q 2975 3691 2734 3919 
Q 2494 4147 2053 4147 
L 1259 4147 
z
M 628 4666 
L 2053 4666 
Q 2838 4666 3239 4311 
Q 3641 3956 3641 3272 
Q 3641 2581 3239 2228 
Q 2838 1875 2053 1875 
L 1259 1875 
L 1259 0 
L 628 0 
L 628 4666 
z
" transform="scale(0.015625)"/>
       <path id="DejaVuSans-6c" d="M 603 4863 
L 1178 4863 
L 1178 0 
L 603 0 
L 603 4863 
z
" transform="scale(0.015625)"/>
       <path id="DejaVuSans-78" d="M 3513 3500 
L 2247 1797 
L 3578 0 
L 2900 0 
L 1881 1375 
L 863 0 
L 184 0 
L 1544 1831 
L 300 3500 
L 978 3500 
L 1906 2253 
L 2834 3500 
L 3513 3500 
z
" transform="scale(0.015625)"/>
       <path id="DejaVuSans-79" d="M 2059 -325 
Q 1816 -950 1584 -1140 
Q 1353 -1331 966 -1331 
L 506 -1331 
L 506 -850 
L 844 -850 
Q 1081 -850 1212 -737 
Q 1344 -625 1503 -206 
L 1606 56 
L 191 3500 
L 800 3500 
L 1894 763 
L 2988 3500 
L 3597 3500 
L 2059 -325 
z
" transform="scale(0.015625)"/>
      </defs>
      <use xlink:href="#DejaVuSans-50"/>
      <use xlink:href="#DejaVuSans-65" x="56.677734"/>
      <use xlink:href="#DejaVuSans-72" x="118.201172"/>
      <use xlink:href="#DejaVuSans-70" x="159.314453"/>
      <use xlink:href="#DejaVuSans-6c" x="222.791016"/>
      <use xlink:href="#DejaVuSans-65" x="250.574219"/>
      <use xlink:href="#DejaVuSans-78" x="310.347656"/>
      <use xlink:href="#DejaVuSans-69" x="369.527344"/>
      <use xlink:href="#DejaVuSans-74" x="397.310547"/>
      <use xlink:href="#DejaVuSans-79" x="436.519531"/>
     </g>
    </g>
   </g>
   <g id="line2d_31">
    <path d="M 139.896439 -1 
L 140.822375 10.27925 
L 141.949602 -1 
M 150.417464 -1 
L 150.512025 -0.2595 
L 155.35685 39.78775 
L 165.0465 73.51175 
L 169.891325 77.72725 
L 174.73615 94.58925 
L 179.580975 88.266 
L 184.4258 143.0675 
L 189.270625 147.283 
L 194.11545 132.52875 
L 198.960275 119.88225 
L 203.8051 157.82175 
L 208.649925 136.74425 
L 213.49475 143.0675 
L 218.339575 178.89925 
L 223.1844 147.283 
L 228.029225 157.82175 
L 232.87405 183.11475 
L 237.718875 157.82175 
L 242.5637 183.11475 
L 247.408525 172.576 
L 252.25335 151.4985 
L 257.098175 147.283 
L 261.943 159.9295 
L 266.787825 164.145 
L 271.63265 202.0845 
L 276.477475 191.54575 
L 281.3223 185.2225 
L 286.167125 197.869 
L 291.01195 185.2225 
L 295.856775 193.6535 
L 300.7016 206.3 
L 305.546425 193.6535 
L 310.39125 204.19225 
L 315.236075 183.11475 
L 320.0809 189.438 
L 324.925725 197.869 
L 329.77055 221.05425 
L 334.615375 212.62325 
L 339.4602 202.0845 
L 344.305025 195.76125 
L 349.14985 221.05425 
L 358.8395 225.26975 
L 363.684325 229.48525 
L 368.52915 204.19225 
L 373.373975 216.83875 
L 378.2188 223.162 
L 383.063625 235.8085 
L 387.90845 250.56275 
L 392.753275 210.5155 
L 397.5981 223.162 
L 402.442925 229.48525 
L 407.28775 231.593 
L 412.132575 231.593 
L 416.9774 233.70075 
L 421.822225 229.48525 
L 426.66705 233.70075 
L 431.511875 248.455 
L 436.3567 240.024 
L 441.201525 240.024 
L 446.04635 225.26975 
L 450.891175 225.26975 
L 460.580825 246.34725 
L 465.42565 242.13175 
L 470.270475 225.26975 
L 475.1153 229.48525 
L 479.960125 250.56275 
L 484.80495 252.6705 
L 489.649775 258.99375 
L 494.4946 242.13175 
L 499.339425 237.91625 
L 504.18425 231.593 
L 509.029075 244.2395 
L 518.718725 240.024 
L 523.56355 254.77825 
L 528.408375 265.317 
L 533.2532 261.1015 
L 538.098025 246.34725 
L 542.94285 263.20925 
L 547.787675 263.20925 
L 557.477325 246.34725 
L 562.32215 242.13175 
L 567.166975 250.56275 
L 572.0118 250.56275 
L 576.856625 261.1015 
L 581.70145 242.13175 
L 586.546275 242.13175 
L 591.3911 235.8085 
L 596.235925 248.455 
L 605.925575 256.886 
L 610.7704 258.99375 
L 615.615225 267.42475 
L 620.46005 265.317 
L 630.1497 277.9635 
L 634.994525 275.85575 
L 639.83935 271.64025 
L 644.684175 258.99375 
L 649.529 269.5325 
L 654.373825 258.99375 
L 659.21865 256.886 
L 664.063475 240.024 
L 668.9083 271.64025 
L 673.753125 267.42475 
L 678.59795 254.77825 
L 683.442775 265.317 
L 688.2876 267.42475 
L 693.132425 261.1015 
L 697.97725 237.91625 
L 702.822075 246.34725 
L 707.6669 256.886 
L 712.511725 263.20925 
L 717.35655 263.20925 
L 722.201375 240.024 
L 727.0462 244.2395 
L 731.891025 261.1015 
L 736.73585 271.64025 
L 741.580675 288.50225 
L 746.4255 269.5325 
L 751.270325 277.9635 
L 756.11515 284.28675 
L 760.959975 286.3945 
L 765.8048 290.61 
L 770.649625 269.5325 
L 775.49445 263.20925 
L 780.339275 269.5325 
L 785.1841 258.99375 
L 790.028925 288.50225 
L 799.718575 305.36425 
L 804.5634 292.71775 
L 814.25305 275.85575 
L 819.097875 277.9635 
L 823.9427 277.9635 
L 828.787525 286.3945 
L 833.63235 286.3945 
L 838.477175 303.2565 
L 843.322 301.14875 
L 848.166825 271.64025 
L 853.01165 288.50225 
L 857.856475 290.61 
L 862.7013 290.61 
L 872.39095 286.3945 
L 877.235775 292.71775 
L 882.0806 288.50225 
L 886.925425 309.57975 
L 891.77025 307.472 
L 896.615075 290.61 
L 901.4599 290.61 
L 906.304725 309.57975 
L 911.14955 299.041 
L 915.994375 290.61 
L 920.8392 309.57975 
L 925.684025 288.50225 
L 930.52885 294.8255 
L 935.373675 294.8255 
L 940.2185 286.3945 
L 945.063325 299.041 
L 949.90815 288.50225 
L 954.752975 269.5325 
L 959.5978 261.1015 
L 964.442625 271.64025 
L 969.28745 277.9635 
L 974.132275 301.14875 
L 983.821925 292.71775 
L 988.66675 294.8255 
L 993.511575 284.28675 
L 998.3564 290.61 
L 1003.201225 288.50225 
L 1008.04605 284.28675 
L 1012.890875 292.71775 
L 1017.7357 277.9635 
L 1022.580525 280.07125 
L 1027.42535 284.28675 
L 1032.270175 305.36425 
L 1037.115 288.50225 
L 1037.115 288.50225 
" clip-path="url(#pabede794b6)" style="fill: none; stroke: #1f77b4; stroke-width: 1.5; stroke-linecap: square"/>
   </g>
   <g id="line2d_32">
    <path d="M 131.357206 -1 
L 135.97755 27.14125 
L 140.822375 84.0505 
L 145.6672 35.57225 
L 150.512025 73.51175 
L 155.35685 100.9125 
L 160.201675 103.02025 
L 165.0465 119.88225 
L 169.891325 117.7745 
L 174.73615 138.852 
L 179.580975 134.6365 
L 184.4258 178.89925 
L 189.270625 183.11475 
L 194.11545 168.3605 
L 198.960275 155.714 
L 203.8051 191.54575 
L 208.649925 172.576 
L 213.49475 178.89925 
L 218.339575 210.5155 
L 223.1844 176.7915 
L 228.029225 193.6535 
L 232.87405 214.731 
L 237.718875 189.438 
L 242.5637 216.83875 
L 247.408525 206.3 
L 252.25335 185.2225 
L 257.098175 176.7915 
L 261.943 193.6535 
L 266.787825 191.54575 
L 271.63265 229.48525 
L 276.477475 221.05425 
L 281.3223 214.731 
L 286.167125 225.26975 
L 291.01195 214.731 
L 300.7016 235.8085 
L 305.546425 221.05425 
L 310.39125 233.70075 
L 315.236075 214.731 
L 320.0809 221.05425 
L 324.925725 229.48525 
L 329.77055 250.56275 
L 334.615375 244.2395 
L 339.4602 231.593 
L 344.305025 223.162 
L 349.14985 250.56275 
L 353.994675 248.455 
L 363.684325 256.886 
L 368.52915 231.593 
L 373.373975 246.34725 
L 378.2188 250.56275 
L 383.063625 263.20925 
L 387.90845 277.9635 
L 392.753275 240.024 
L 397.5981 250.56275 
L 402.442925 256.886 
L 407.28775 261.1015 
L 412.132575 256.886 
L 416.9774 265.317 
L 421.822225 258.99375 
L 426.66705 261.1015 
L 431.511875 277.9635 
L 436.3567 269.5325 
L 441.201525 267.42475 
L 446.04635 256.886 
L 450.891175 254.77825 
L 455.736 261.1015 
L 460.580825 271.64025 
L 465.42565 269.5325 
L 470.270475 252.6705 
L 475.1153 256.886 
L 479.960125 275.85575 
L 484.80495 277.9635 
L 489.649775 286.3945 
L 494.4946 271.64025 
L 499.339425 265.317 
L 504.18425 254.77825 
L 509.029075 267.42475 
L 513.8739 269.5325 
L 518.718725 267.42475 
L 523.56355 284.28675 
L 528.408375 294.8255 
L 533.2532 288.50225 
L 538.098025 273.748 
L 542.94285 288.50225 
L 547.787675 290.61 
L 552.6325 280.07125 
L 557.477325 271.64025 
L 562.32215 267.42475 
L 567.166975 275.85575 
L 572.0118 277.9635 
L 576.856625 288.50225 
L 581.70145 271.64025 
L 586.546275 269.5325 
L 591.3911 263.20925 
L 596.235925 277.9635 
L 605.925575 282.179 
L 610.7704 286.3945 
L 615.615225 292.71775 
L 625.304875 296.93325 
L 630.1497 305.36425 
L 634.994525 303.2565 
L 639.83935 299.041 
L 644.684175 286.3945 
L 649.529 296.93325 
L 654.373825 286.3945 
L 659.21865 284.28675 
L 664.063475 269.5325 
L 668.9083 301.14875 
L 673.753125 294.8255 
L 678.59795 282.179 
L 683.442775 292.71775 
L 688.2876 294.8255 
L 693.132425 288.50225 
L 697.97725 265.317 
L 702.822075 273.748 
L 707.6669 284.28675 
L 717.35655 292.71775 
L 722.201375 269.5325 
L 727.0462 275.85575 
L 731.891025 290.61 
L 736.73585 299.041 
L 741.580675 315.903 
L 746.4255 296.93325 
L 751.270325 309.57975 
L 756.11515 313.79525 
L 760.959975 313.79525 
L 765.8048 315.903 
L 770.649625 294.8255 
L 775.49445 290.61 
L 780.339275 296.93325 
L 785.1841 290.61 
L 790.028925 313.79525 
L 794.87375 322.22625 
L 799.718575 328.5495 
L 804.5634 318.01075 
L 809.408225 311.6875 
L 814.25305 303.2565 
L 819.097875 305.36425 
L 823.9427 305.36425 
L 828.787525 311.6875 
L 833.63235 309.57975 
L 838.477175 332.765 
L 843.322 326.44175 
L 848.166825 299.041 
L 853.01165 313.79525 
L 857.856475 318.01075 
L 862.7013 315.903 
L 867.546125 318.01075 
L 872.39095 311.6875 
L 877.235775 320.1185 
L 882.0806 315.903 
L 886.925425 336.9805 
L 891.77025 332.765 
L 896.615075 318.01075 
L 901.4599 315.903 
L 906.304725 334.87275 
L 911.14955 326.44175 
L 915.994375 315.903 
L 920.8392 332.765 
L 925.684025 313.79525 
L 930.52885 322.22625 
L 935.373675 322.22625 
L 940.2185 311.6875 
L 945.063325 326.44175 
L 949.90815 318.01075 
L 954.752975 296.93325 
L 959.5978 286.3945 
L 964.442625 299.041 
L 969.28745 303.2565 
L 974.132275 326.44175 
L 978.9771 324.334 
L 983.821925 318.01075 
L 988.66675 318.01075 
L 993.511575 309.57975 
L 998.3564 318.01075 
L 1003.201225 315.903 
L 1008.04605 309.57975 
L 1012.890875 320.1185 
L 1017.7357 305.36425 
L 1022.580525 307.472 
L 1027.42535 311.6875 
L 1032.270175 332.765 
L 1037.115 318.01075 
L 1037.115 318.01075 
" clip-path="url(#pabede794b6)" style="fill: none; stroke: #ff7f0e; stroke-width: 1.5; stroke-linecap: square"/>
   </g>
   <g id="line2d_33">
    <path d="M 136.07576 -1 
L 140.822375 65.08075 
L 145.6672 27.14125 
L 150.512025 67.1885 
L 155.35685 92.4815 
L 160.201675 98.80475 
L 165.0465 117.7745 
L 169.891325 115.66675 
L 174.73615 138.852 
L 179.580975 132.52875 
L 184.4258 181.007 
L 189.270625 183.11475 
L 194.11545 168.3605 
L 198.960275 155.714 
L 203.8051 191.54575 
L 208.649925 172.576 
L 213.49475 178.89925 
L 218.339575 212.62325 
L 223.1844 178.89925 
L 228.029225 195.76125 
L 232.87405 216.83875 
L 237.718875 193.6535 
L 242.5637 218.9465 
L 247.408525 212.62325 
L 252.25335 189.438 
L 257.098175 181.007 
L 261.943 197.869 
L 266.787825 197.869 
L 271.63265 233.70075 
L 276.477475 227.3775 
L 281.3223 218.9465 
L 286.167125 229.48525 
L 291.01195 218.9465 
L 295.856775 231.593 
L 300.7016 242.13175 
L 305.546425 225.26975 
L 310.39125 240.024 
L 315.236075 218.9465 
L 320.0809 225.26975 
L 324.925725 235.8085 
L 329.77055 256.886 
L 334.615375 248.455 
L 339.4602 237.91625 
L 344.305025 231.593 
L 349.14985 256.886 
L 353.994675 254.77825 
L 363.684325 263.20925 
L 368.52915 237.91625 
L 373.373975 252.6705 
L 378.2188 256.886 
L 383.063625 269.5325 
L 387.90845 284.28675 
L 392.753275 246.34725 
L 397.5981 258.99375 
L 402.442925 261.1015 
L 407.28775 265.317 
L 412.132575 263.20925 
L 416.9774 269.5325 
L 421.822225 267.42475 
L 426.66705 267.42475 
L 431.511875 284.28675 
L 436.3567 275.85575 
L 441.201525 273.748 
L 446.04635 263.20925 
L 450.891175 263.20925 
L 455.736 267.42475 
L 460.580825 277.9635 
L 465.42565 277.9635 
L 470.270475 258.99375 
L 475.1153 263.20925 
L 479.960125 284.28675 
L 484.80495 284.28675 
L 489.649775 292.71775 
L 494.4946 277.9635 
L 499.339425 271.64025 
L 504.18425 263.20925 
L 509.029075 273.748 
L 513.8739 275.85575 
L 518.718725 273.748 
L 523.56355 290.61 
L 528.408375 301.14875 
L 533.2532 292.71775 
L 538.098025 282.179 
L 542.94285 296.93325 
L 547.787675 296.93325 
L 557.477325 280.07125 
L 562.32215 273.748 
L 567.166975 282.179 
L 572.0118 286.3945 
L 576.856625 296.93325 
L 581.70145 280.07125 
L 591.3911 271.64025 
L 596.235925 286.3945 
L 601.08075 286.3945 
L 605.925575 288.50225 
L 610.7704 292.71775 
L 615.615225 299.041 
L 620.46005 303.2565 
L 625.304875 305.36425 
L 630.1497 311.6875 
L 639.83935 307.472 
L 644.684175 294.8255 
L 649.529 305.36425 
L 654.373825 294.8255 
L 659.21865 290.61 
L 664.063475 277.9635 
L 668.9083 307.472 
L 673.753125 303.2565 
L 678.59795 290.61 
L 683.442775 299.041 
L 688.2876 301.14875 
L 693.132425 294.8255 
L 697.97725 273.748 
L 702.822075 282.179 
L 707.6669 292.71775 
L 712.511725 294.8255 
L 717.35655 301.14875 
L 722.201375 277.9635 
L 727.0462 286.3945 
L 731.891025 299.041 
L 736.73585 305.36425 
L 741.580675 322.22625 
L 746.4255 305.36425 
L 751.270325 315.903 
L 756.11515 320.1185 
L 760.959975 320.1185 
L 765.8048 324.334 
L 770.649625 301.14875 
L 775.49445 296.93325 
L 780.339275 303.2565 
L 785.1841 299.041 
L 790.028925 324.334 
L 794.87375 330.65725 
L 799.718575 334.87275 
L 804.5634 324.334 
L 809.408225 318.01075 
L 814.25305 309.57975 
L 819.097875 313.79525 
L 823.9427 309.57975 
L 828.787525 318.01075 
L 833.63235 315.903 
L 838.477175 336.9805 
L 843.322 332.765 
L 848.166825 307.472 
L 853.01165 320.1185 
L 857.856475 324.334 
L 862.7013 322.22625 
L 867.546125 324.334 
L 872.39095 320.1185 
L 877.235775 326.44175 
L 882.0806 324.334 
L 886.925425 343.30375 
L 891.77025 339.08825 
L 896.615075 324.334 
L 901.4599 322.22625 
L 906.304725 343.30375 
L 915.994375 322.22625 
L 920.8392 339.08825 
L 925.684025 320.1185 
L 930.52885 328.5495 
L 935.373675 328.5495 
L 940.2185 318.01075 
L 945.063325 334.87275 
L 949.90815 326.44175 
L 954.752975 305.36425 
L 959.5978 294.8255 
L 964.442625 305.36425 
L 969.28745 309.57975 
L 974.132275 332.765 
L 978.9771 330.65725 
L 983.821925 324.334 
L 988.66675 324.334 
L 993.511575 315.903 
L 998.3564 326.44175 
L 1003.201225 322.22625 
L 1008.04605 315.903 
L 1012.890875 326.44175 
L 1017.7357 311.6875 
L 1022.580525 313.79525 
L 1027.42535 320.1185 
L 1032.270175 339.08825 
L 1037.115 324.334 
L 1037.115 324.334 
" clip-path="url(#pabede794b6)" style="fill: none; stroke: #2ca02c; stroke-width: 1.5; stroke-linecap: square"/>
   </g>
   <g id="line2d_34">
    <path d="M 129.949223 -1 
L 131.132725 12.387 
L 135.97755 39.78775 
L 140.822375 90.37375 
L 145.6672 44.00325 
L 150.512025 79.835 
L 155.35685 105.128 
L 160.201675 111.45125 
L 165.0465 128.31325 
L 169.891325 124.09775 
L 174.73615 145.17525 
L 179.580975 138.852 
L 184.4258 187.33025 
L 189.270625 189.438 
L 194.11545 176.7915 
L 198.960275 162.03725 
L 203.8051 197.869 
L 208.649925 181.007 
L 213.49475 185.2225 
L 218.339575 218.9465 
L 223.1844 185.2225 
L 228.029225 204.19225 
L 232.87405 221.05425 
L 237.718875 197.869 
L 242.5637 227.3775 
L 247.408525 218.9465 
L 252.25335 195.76125 
L 257.098175 185.2225 
L 261.943 202.0845 
L 266.787825 202.0845 
L 271.63265 237.91625 
L 281.3223 225.26975 
L 286.167125 233.70075 
L 291.01195 223.162 
L 295.856775 235.8085 
L 300.7016 244.2395 
L 305.546425 229.48525 
L 310.39125 242.13175 
L 315.236075 223.162 
L 324.925725 240.024 
L 329.77055 258.99375 
L 334.615375 252.6705 
L 339.4602 240.024 
L 344.305025 233.70075 
L 349.14985 261.1015 
L 353.994675 258.99375 
L 363.684325 267.42475 
L 368.52915 242.13175 
L 373.373975 254.77825 
L 378.2188 261.1015 
L 383.063625 273.748 
L 387.90845 288.50225 
L 392.753275 250.56275 
L 397.5981 263.20925 
L 402.442925 263.20925 
L 407.28775 269.5325 
L 412.132575 265.317 
L 416.9774 273.748 
L 421.822225 269.5325 
L 426.66705 269.5325 
L 431.511875 288.50225 
L 436.3567 277.9635 
L 441.201525 277.9635 
L 446.04635 269.5325 
L 450.891175 267.42475 
L 455.736 271.64025 
L 460.580825 282.179 
L 465.42565 282.179 
L 470.270475 263.20925 
L 475.1153 267.42475 
L 479.960125 288.50225 
L 484.80495 288.50225 
L 489.649775 296.93325 
L 494.4946 282.179 
L 499.339425 275.85575 
L 504.18425 265.317 
L 509.029075 277.9635 
L 513.8739 280.07125 
L 518.718725 277.9635 
L 523.56355 294.8255 
L 528.408375 305.36425 
L 533.2532 296.93325 
L 538.098025 284.28675 
L 542.94285 301.14875 
L 547.787675 301.14875 
L 552.6325 292.71775 
L 557.477325 282.179 
L 562.32215 277.9635 
L 567.166975 286.3945 
L 572.0118 290.61 
L 576.856625 299.041 
L 581.70145 282.179 
L 586.546275 282.179 
L 591.3911 275.85575 
L 596.235925 288.50225 
L 601.08075 288.50225 
L 605.925575 292.71775 
L 610.7704 294.8255 
L 615.615225 303.2565 
L 625.304875 307.472 
L 630.1497 315.903 
L 634.994525 313.79525 
L 639.83935 309.57975 
L 644.684175 299.041 
L 649.529 309.57975 
L 654.373825 296.93325 
L 659.21865 294.8255 
L 664.063475 280.07125 
L 668.9083 311.6875 
L 673.753125 307.472 
L 678.59795 292.71775 
L 683.442775 301.14875 
L 688.2876 305.36425 
L 693.132425 299.041 
L 697.97725 275.85575 
L 707.6669 296.93325 
L 712.511725 299.041 
L 717.35655 303.2565 
L 722.201375 282.179 
L 727.0462 290.61 
L 731.891025 301.14875 
L 736.73585 309.57975 
L 741.580675 326.44175 
L 746.4255 309.57975 
L 751.270325 320.1185 
L 756.11515 324.334 
L 760.959975 324.334 
L 765.8048 328.5495 
L 770.649625 305.36425 
L 775.49445 301.14875 
L 780.339275 305.36425 
L 785.1841 305.36425 
L 790.028925 326.44175 
L 794.87375 332.765 
L 799.718575 336.9805 
L 804.5634 328.5495 
L 809.408225 322.22625 
L 814.25305 313.79525 
L 819.097875 315.903 
L 823.9427 313.79525 
L 828.787525 322.22625 
L 833.63235 320.1185 
L 838.477175 341.196 
L 843.322 336.9805 
L 848.166825 309.57975 
L 853.01165 322.22625 
L 857.856475 326.44175 
L 862.7013 326.44175 
L 867.546125 328.5495 
L 872.39095 322.22625 
L 877.235775 330.65725 
L 882.0806 326.44175 
L 886.925425 347.51925 
L 891.77025 343.30375 
L 896.615075 326.44175 
L 901.4599 324.334 
L 906.304725 345.4115 
L 915.994375 324.334 
L 920.8392 343.30375 
L 925.684025 322.22625 
L 930.52885 334.87275 
L 935.373675 330.65725 
L 940.2185 322.22625 
L 945.063325 336.9805 
L 949.90815 330.65725 
L 954.752975 309.57975 
L 959.5978 296.93325 
L 964.442625 309.57975 
L 969.28745 311.6875 
L 974.132275 334.87275 
L 978.9771 332.765 
L 983.821925 328.5495 
L 988.66675 328.5495 
L 993.511575 320.1185 
L 998.3564 330.65725 
L 1003.201225 326.44175 
L 1008.04605 318.01075 
L 1012.890875 328.5495 
L 1017.7357 315.903 
L 1022.580525 318.01075 
L 1027.42535 324.334 
L 1032.270175 343.30375 
L 1037.115 328.5495 
L 1037.115 328.5495 
" clip-path="url(#pabede794b6)" style="fill: none; stroke: #d62728; stroke-width: 1.5; stroke-linecap: square"/>
   </g>
   <g id="line2d_35">
    <path d="M 132.172561 -1 
L 135.97755 27.14125 
L 140.822375 86.15825 
L 145.6672 46.111 
L 150.512025 81.94275 
L 155.35685 107.23575 
L 160.201675 115.66675 
L 165.0465 136.74425 
L 169.891325 132.52875 
L 174.73615 155.714 
L 179.580975 149.39075 
L 184.4258 197.869 
L 189.270625 199.97675 
L 194.11545 185.2225 
L 198.960275 174.68375 
L 203.8051 210.5155 
L 208.649925 191.54575 
L 213.49475 197.869 
L 218.339575 231.593 
L 223.1844 197.869 
L 228.029225 218.9465 
L 232.87405 233.70075 
L 237.718875 212.62325 
L 242.5637 240.024 
L 247.408525 233.70075 
L 252.25335 212.62325 
L 257.098175 199.97675 
L 261.943 216.83875 
L 266.787825 216.83875 
L 271.63265 250.56275 
L 281.3223 237.91625 
L 286.167125 244.2395 
L 291.01195 237.91625 
L 295.856775 250.56275 
L 300.7016 256.886 
L 305.546425 242.13175 
L 310.39125 254.77825 
L 315.236075 237.91625 
L 320.0809 244.2395 
L 324.925725 254.77825 
L 329.77055 273.748 
L 334.615375 265.317 
L 339.4602 250.56275 
L 344.305025 246.34725 
L 349.14985 273.748 
L 353.994675 271.64025 
L 363.684325 280.07125 
L 368.52915 256.886 
L 373.373975 267.42475 
L 378.2188 271.64025 
L 383.063625 284.28675 
L 387.90845 301.14875 
L 392.753275 263.20925 
L 397.5981 271.64025 
L 407.28775 280.07125 
L 412.132575 275.85575 
L 416.9774 282.179 
L 426.66705 282.179 
L 431.511875 305.36425 
L 436.3567 290.61 
L 441.201525 290.61 
L 446.04635 282.179 
L 450.891175 280.07125 
L 455.736 282.179 
L 460.580825 290.61 
L 465.42565 292.71775 
L 470.270475 275.85575 
L 475.1153 277.9635 
L 479.960125 296.93325 
L 484.80495 299.041 
L 489.649775 307.472 
L 494.4946 292.71775 
L 499.339425 288.50225 
L 504.18425 277.9635 
L 509.029075 288.50225 
L 513.8739 290.61 
L 518.718725 288.50225 
L 523.56355 305.36425 
L 528.408375 315.903 
L 533.2532 307.472 
L 538.098025 296.93325 
L 542.94285 311.6875 
L 547.787675 313.79525 
L 557.477325 292.71775 
L 562.32215 288.50225 
L 572.0118 301.14875 
L 576.856625 309.57975 
L 581.70145 294.8255 
L 586.546275 292.71775 
L 591.3911 286.3945 
L 596.235925 301.14875 
L 601.08075 299.041 
L 605.925575 303.2565 
L 610.7704 305.36425 
L 615.615225 311.6875 
L 620.46005 315.903 
L 625.304875 318.01075 
L 630.1497 326.44175 
L 634.994525 324.334 
L 639.83935 320.1185 
L 644.684175 307.472 
L 649.529 320.1185 
L 654.373825 309.57975 
L 659.21865 305.36425 
L 664.063475 292.71775 
L 668.9083 322.22625 
L 673.753125 320.1185 
L 678.59795 303.2565 
L 683.442775 311.6875 
L 688.2876 315.903 
L 693.132425 309.57975 
L 697.97725 288.50225 
L 702.822075 299.041 
L 707.6669 307.472 
L 712.511725 311.6875 
L 717.35655 313.79525 
L 722.201375 292.71775 
L 727.0462 305.36425 
L 731.891025 313.79525 
L 736.73585 320.1185 
L 741.580675 336.9805 
L 746.4255 322.22625 
L 751.270325 330.65725 
L 756.11515 334.87275 
L 760.959975 334.87275 
L 765.8048 336.9805 
L 770.649625 315.903 
L 775.49445 311.6875 
L 780.339275 315.903 
L 785.1841 315.903 
L 790.028925 334.87275 
L 799.718575 347.51925 
L 804.5634 336.9805 
L 809.408225 332.765 
L 814.25305 322.22625 
L 819.097875 326.44175 
L 823.9427 324.334 
L 828.787525 330.65725 
L 833.63235 330.65725 
L 838.477175 351.73475 
L 843.322 345.4115 
L 848.166825 320.1185 
L 853.01165 330.65725 
L 857.856475 334.87275 
L 862.7013 334.87275 
L 867.546125 339.08825 
L 872.39095 332.765 
L 877.235775 341.196 
L 882.0806 336.9805 
L 886.925425 355.95025 
L 891.77025 351.73475 
L 896.615075 334.87275 
L 901.4599 332.765 
L 906.304725 351.73475 
L 915.994375 334.87275 
L 920.8392 351.73475 
L 925.684025 330.65725 
L 930.52885 343.30375 
L 935.373675 341.196 
L 940.2185 332.765 
L 945.063325 345.4115 
L 949.90815 341.196 
L 954.752975 320.1185 
L 959.5978 307.472 
L 964.442625 320.1185 
L 969.28745 322.22625 
L 974.132275 345.4115 
L 978.9771 343.30375 
L 983.821925 336.9805 
L 988.66675 336.9805 
L 993.511575 330.65725 
L 998.3564 341.196 
L 1003.201225 336.9805 
L 1008.04605 328.5495 
L 1012.890875 336.9805 
L 1017.7357 326.44175 
L 1022.580525 328.5495 
L 1027.42535 334.87275 
L 1032.270175 351.73475 
L 1037.115 336.9805 
L 1037.115 336.9805 
" clip-path="url(#pabede794b6)" style="fill: none; stroke: #9467bd; stroke-width: 1.5; stroke-linecap: square"/>
   </g>
   <g id="patch_3">
    <path d="M 68.15 374.92 
L 68.15 37.68 
" style="fill: none; stroke: #000000; stroke-width: 0.8; stroke-linejoin: miter; stroke-linecap: square"/>
   </g>
   <g id="patch_4">
    <path d="M 1037.115 374.92 
L 1037.115 37.68 
" style="fill: none; stroke: #000000; stroke-width: 0.8; stroke-linejoin: miter; stroke-linecap: square"/>
   </g>
   <g id="patch_5">
    <path d="M 68.15 374.92 
L 1037.115 374.92 
" style="fill: none; stroke: #000000; stroke-width: 0.8; stroke-linejoin: miter; stroke-linecap: square"/>
   </g>
   <g id="patch_6">
    <path d="M 68.15 37.68 
L 1037.115 37.68 
" style="fill: none; stroke: #000000; stroke-width: 0.8; stroke-linejoin: miter; stroke-linecap: square"/>
   </g>
   <g id="text_18">
    <!-- PPL vs. Training Steps for Enwik8 Over Different Context Windows (41M) -->
    <g transform="translate(205.444 31.68) scale(0.192 -0.192)">
     <defs>
      <path id="DejaVuSans-4c" d="M 628 4666 
L 1259 4666 
L 1259 531 
L 3531 531 
L 3531 0 
L 628 0 
L 628 4666 
z
" transform="scale(0.015625)"/>
      <path id="DejaVuSans-76" d="M 191 3500 
L 800 3500 
L 1894 563 
L 2988 3500 
L 3597 3500 
L 2284 0 
L 1503 0 
L 191 3500 
z
" transform="scale(0.015625)"/>
      <path id="DejaVuSans-66" d="M 2375 4863 
L 2375 4384 
L 1825 4384 
Q 1516 4384 1395 4259 
Q 1275 4134 1275 3809 
L 1275 3500 
L 2222 3500 
L 2222 3053 
L 1275 3053 
L 1275 0 
L 697 0 
L 697 3053 
L 147 3053 
L 147 3500 
L 697 3500 
L 697 3744 
Q 697 4328 969 4595 
Q 1241 4863 1831 4863 
L 2375 4863 
z
" transform="scale(0.015625)"/>
      <path id="DejaVuSans-6f" d="M 1959 3097 
Q 1497 3097 1228 2736 
Q 959 2375 959 1747 
Q 959 1119 1226 758 
Q 1494 397 1959 397 
Q 2419 397 2687 759 
Q 2956 1122 2956 1747 
Q 2956 2369 2687 2733 
Q 2419 3097 1959 3097 
z
M 1959 3584 
Q 2709 3584 3137 3096 
Q 3566 2609 3566 1747 
Q 3566 888 3137 398 
Q 2709 -91 1959 -91 
Q 1206 -91 779 398 
Q 353 888 353 1747 
Q 353 2609 779 3096 
Q 1206 3584 1959 3584 
z
" transform="scale(0.015625)"/>
      <path id="DejaVuSans-45" d="M 628 4666 
L 3578 4666 
L 3578 4134 
L 1259 4134 
L 1259 2753 
L 3481 2753 
L 3481 2222 
L 1259 2222 
L 1259 531 
L 3634 531 
L 3634 0 
L 628 0 
L 628 4666 
z
" transform="scale(0.015625)"/>
      <path id="DejaVuSans-77" d="M 269 3500 
L 844 3500 
L 1563 769 
L 2278 3500 
L 2956 3500 
L 3675 769 
L 4391 3500 
L 4966 3500 
L 4050 0 
L 3372 0 
L 2619 2869 
L 1863 0 
L 1184 0 
L 269 3500 
z
" transform="scale(0.015625)"/>
      <path id="DejaVuSans-6b" d="M 581 4863 
L 1159 4863 
L 1159 1991 
L 2875 3500 
L 3609 3500 
L 1753 1863 
L 3688 0 
L 2938 0 
L 1159 1709 
L 1159 0 
L 581 0 
L 581 4863 
z
" transform="scale(0.015625)"/>
      <path id="DejaVuSans-4f" d="M 2522 4238 
Q 1834 4238 1429 3725 
Q 1025 3213 1025 2328 
Q 1025 1447 1429 934 
Q 1834 422 2522 422 
Q 3209 422 3611 934 
Q 4013 1447 4013 2328 
Q 4013 3213 3611 3725 
Q 3209 4238 2522 4238 
z
M 2522 4750 
Q 3503 4750 4090 4092 
Q 4678 3434 4678 2328 
Q 4678 1225 4090 567 
Q 3503 -91 2522 -91 
Q 1538 -91 948 565 
Q 359 1222 359 2328 
Q 359 3434 948 4092 
Q 1538 4750 2522 4750 
z
" transform="scale(0.015625)"/>
      <path id="DejaVuSans-44" d="M 1259 4147 
L 1259 519 
L 2022 519 
Q 2988 519 3436 956 
Q 3884 1394 3884 2338 
Q 3884 3275 3436 3711 
Q 2988 4147 2022 4147 
L 1259 4147 
z
M 628 4666 
L 1925 4666 
Q 3281 4666 3915 4102 
Q 4550 3538 4550 2338 
Q 4550 1131 3912 565 
Q 3275 0 1925 0 
L 628 0 
L 628 4666 
z
" transform="scale(0.015625)"/>
      <path id="DejaVuSans-43" d="M 4122 4306 
L 4122 3641 
Q 3803 3938 3442 4084 
Q 3081 4231 2675 4231 
Q 1875 4231 1450 3742 
Q 1025 3253 1025 2328 
Q 1025 1406 1450 917 
Q 1875 428 2675 428 
Q 3081 428 3442 575 
Q 3803 722 4122 1019 
L 4122 359 
Q 3791 134 3420 21 
Q 3050 -91 2638 -91 
Q 1578 -91 968 557 
Q 359 1206 359 2328 
Q 359 3453 968 4101 
Q 1578 4750 2638 4750 
Q 3056 4750 3426 4639 
Q 3797 4528 4122 4306 
z
" transform="scale(0.015625)"/>
      <path id="DejaVuSans-57" d="M 213 4666 
L 850 4666 
L 1831 722 
L 2809 4666 
L 3519 4666 
L 4500 722 
L 5478 4666 
L 6119 4666 
L 4947 0 
L 4153 0 
L 3169 4050 
L 2175 0 
L 1381 0 
L 213 4666 
z
" transform="scale(0.015625)"/>
      <path id="DejaVuSans-64" d="M 2906 2969 
L 2906 4863 
L 3481 4863 
L 3481 0 
L 2906 0 
L 2906 525 
Q 2725 213 2448 61 
Q 2172 -91 1784 -91 
Q 1150 -91 751 415 
Q 353 922 353 1747 
Q 353 2572 751 3078 
Q 1150 3584 1784 3584 
Q 2172 3584 2448 3432 
Q 2725 3281 2906 2969 
z
M 947 1747 
Q 947 1113 1208 752 
Q 1469 391 1925 391 
Q 2381 391 2643 752 
Q 2906 1113 2906 1747 
Q 2906 2381 2643 2742 
Q 2381 3103 1925 3103 
Q 1469 3103 1208 2742 
Q 947 2381 947 1747 
z
" transform="scale(0.015625)"/>
      <path id="DejaVuSans-28" d="M 1984 4856 
Q 1566 4138 1362 3434 
Q 1159 2731 1159 2009 
Q 1159 1288 1364 580 
Q 1569 -128 1984 -844 
L 1484 -844 
Q 1016 -109 783 600 
Q 550 1309 550 2009 
Q 550 2706 781 3412 
Q 1013 4119 1484 4856 
L 1984 4856 
z
" transform="scale(0.015625)"/>
      <path id="DejaVuSans-4d" d="M 628 4666 
L 1569 4666 
L 2759 1491 
L 3956 4666 
L 4897 4666 
L 4897 0 
L 4281 0 
L 4281 4097 
L 3078 897 
L 2444 897 
L 1241 4097 
L 1241 0 
L 628 0 
L 628 4666 
z
" transform="scale(0.015625)"/>
      <path id="DejaVuSans-29" d="M 513 4856 
L 1013 4856 
Q 1481 4119 1714 3412 
Q 1947 2706 1947 2009 
Q 1947 1309 1714 600 
Q 1481 -109 1013 -844 
L 513 -844 
Q 928 -128 1133 580 
Q 1338 1288 1338 2009 
Q 1338 2731 1133 3434 
Q 928 4138 513 4856 
z
" transform="scale(0.015625)"/>
     </defs>
     <use xlink:href="#DejaVuSans-50"/>
     <use xlink:href="#DejaVuSans-50" x="60.302734"/>
     <use xlink:href="#DejaVuSans-4c" x="120.605469"/>
     <use xlink:href="#DejaVuSans-20" x="176.318359"/>
     <use xlink:href="#DejaVuSans-76" x="208.105469"/>
     <use xlink:href="#DejaVuSans-73" x="267.285156"/>
     <use xlink:href="#DejaVuSans-2e" x="319.384766"/>
     <use xlink:href="#DejaVuSans-20" x="351.171875"/>
     <use xlink:href="#DejaVuSans-54" x="382.958984"/>
     <use xlink:href="#DejaVuSans-72" x="429.292969"/>
     <use xlink:href="#DejaVuSans-61" x="470.40625"/>
     <use xlink:href="#DejaVuSans-69" x="531.685547"/>
     <use xlink:href="#DejaVuSans-6e" x="559.46875"/>
     <use xlink:href="#DejaVuSans-69" x="622.847656"/>
     <use xlink:href="#DejaVuSans-6e" x="650.630859"/>
     <use xlink:href="#DejaVuSans-67" x="714.009766"/>
     <use xlink:href="#DejaVuSans-20" x="777.486328"/>
     <use xlink:href="#DejaVuSans-53" x="809.273438"/>
     <use xlink:href="#DejaVuSans-74" x="872.75"/>
     <use xlink:href="#DejaVuSans-65" x="911.958984"/>
     <use xlink:href="#DejaVuSans-70" x="973.482422"/>
     <use xlink:href="#DejaVuSans-73" x="1036.958984"/>
     <use xlink:href="#DejaVuSans-20" x="1089.058594"/>
     <use xlink:href="#DejaVuSans-66" x="1120.845703"/>
     <use xlink:href="#DejaVuSans-6f" x="1156.050781"/>
     <use xlink:href="#DejaVuSans-72" x="1217.232422"/>
     <use xlink:href="#DejaVuSans-20" x="1258.345703"/>
     <use xlink:href="#DejaVuSans-45" x="1290.132812"/>
     <use xlink:href="#DejaVuSans-6e" x="1353.316406"/>
     <use xlink:href="#DejaVuSans-77" x="1416.695312"/>
     <use xlink:href="#DejaVuSans-69" x="1498.482422"/>
     <use xlink:href="#DejaVuSans-6b" x="1526.265625"/>
     <use xlink:href="#DejaVuSans-38" x="1584.175781"/>
     <use xlink:href="#DejaVuSans-20" x="1647.798828"/>
     <use xlink:href="#DejaVuSans-4f" x="1679.585938"/>
     <use xlink:href="#DejaVuSans-76" x="1758.296875"/>
     <use xlink:href="#DejaVuSans-65" x="1817.476562"/>
     <use xlink:href="#DejaVuSans-72" x="1879"/>
     <use xlink:href="#DejaVuSans-20" x="1920.113281"/>
     <use xlink:href="#DejaVuSans-44" x="1951.900391"/>
     <use xlink:href="#DejaVuSans-69" x="2028.902344"/>
     <use xlink:href="#DejaVuSans-66" x="2056.685547"/>
     <use xlink:href="#DejaVuSans-66" x="2091.890625"/>
     <use xlink:href="#DejaVuSans-65" x="2127.095703"/>
     <use xlink:href="#DejaVuSans-72" x="2188.619141"/>
     <use xlink:href="#DejaVuSans-65" x="2227.482422"/>
     <use xlink:href="#DejaVuSans-6e" x="2289.005859"/>
     <use xlink:href="#DejaVuSans-74" x="2352.384766"/>
     <use xlink:href="#DejaVuSans-20" x="2391.59375"/>
     <use xlink:href="#DejaVuSans-43" x="2423.380859"/>
     <use xlink:href="#DejaVuSans-6f" x="2493.205078"/>
     <use xlink:href="#DejaVuSans-6e" x="2554.386719"/>
     <use xlink:href="#DejaVuSans-74" x="2617.765625"/>
     <use xlink:href="#DejaVuSans-65" x="2656.974609"/>
     <use xlink:href="#DejaVuSans-78" x="2716.748047"/>
     <use xlink:href="#DejaVuSans-74" x="2775.927734"/>
     <use xlink:href="#DejaVuSans-20" x="2815.136719"/>
     <use xlink:href="#DejaVuSans-57" x="2846.923828"/>
     <use xlink:href="#DejaVuSans-69" x="2943.550781"/>
     <use xlink:href="#DejaVuSans-6e" x="2971.333984"/>
     <use xlink:href="#DejaVuSans-64" x="3034.712891"/>
     <use xlink:href="#DejaVuSans-6f" x="3098.189453"/>
     <use xlink:href="#DejaVuSans-77" x="3159.371094"/>
     <use xlink:href="#DejaVuSans-73" x="3241.158203"/>
     <use xlink:href="#DejaVuSans-20" x="3293.257812"/>
     <use xlink:href="#DejaVuSans-28" x="3325.044922"/>
     <use xlink:href="#DejaVuSans-34" x="3364.058594"/>
     <use xlink:href="#DejaVuSans-31" x="3427.681641"/>
     <use xlink:href="#DejaVuSans-4d" x="3491.304688"/>
     <use xlink:href="#DejaVuSans-29" x="3577.583984"/>
    </g>
   </g>
   <g id="legend_1">
    <g id="patch_7">
     <path d="M 743.5225 167.905 
L 1025.915 167.905 
Q 1029.115 167.905 1029.115 164.705 
L 1029.115 48.88 
Q 1029.115 45.68 1025.915 45.68 
L 743.5225 45.68 
Q 740.3225 45.68 740.3225 48.88 
L 740.3225 164.705 
Q 740.3225 167.905 743.5225 167.905 
z
" style="fill: #ffffff; opacity: 0.8; stroke: #cccccc; stroke-linejoin: miter"/>
    </g>
    <g id="line2d_36">
     <path d="M 746.7225 58.6375 
L 762.7225 58.6375 
L 778.7225 58.6375 
" style="fill: none; stroke: #1f77b4; stroke-width: 1.5; stroke-linecap: square"/>
    </g>
    <g id="text_19">
     <!-- Training PPL (Window=0) -->
     <g transform="translate(791.5225 64.2375) scale(0.16 -0.16)">
      <defs>
       <path id="DejaVuSans-3d" d="M 678 2906 
L 4684 2906 
L 4684 2381 
L 678 2381 
L 678 2906 
z
M 678 1631 
L 4684 1631 
L 4684 1100 
L 678 1100 
L 678 1631 
z
" transform="scale(0.015625)"/>
      </defs>
      <use xlink:href="#DejaVuSans-54"/>
      <use xlink:href="#DejaVuSans-72" x="46.333984"/>
      <use xlink:href="#DejaVuSans-61" x="87.447266"/>
      <use xlink:href="#DejaVuSans-69" x="148.726562"/>
      <use xlink:href="#DejaVuSans-6e" x="176.509766"/>
      <use xlink:href="#DejaVuSans-69" x="239.888672"/>
      <use xlink:href="#DejaVuSans-6e" x="267.671875"/>
      <use xlink:href="#DejaVuSans-67" x="331.050781"/>
      <use xlink:href="#DejaVuSans-20" x="394.527344"/>
      <use xlink:href="#DejaVuSans-50" x="426.314453"/>
      <use xlink:href="#DejaVuSans-50" x="486.617188"/>
      <use xlink:href="#DejaVuSans-4c" x="546.919922"/>
      <use xlink:href="#DejaVuSans-20" x="602.632812"/>
      <use xlink:href="#DejaVuSans-28" x="634.419922"/>
      <use xlink:href="#DejaVuSans-57" x="673.433594"/>
      <use xlink:href="#DejaVuSans-69" x="770.060547"/>
      <use xlink:href="#DejaVuSans-6e" x="797.84375"/>
      <use xlink:href="#DejaVuSans-64" x="861.222656"/>
      <use xlink:href="#DejaVuSans-6f" x="924.699219"/>
      <use xlink:href="#DejaVuSans-77" x="985.880859"/>
      <use xlink:href="#DejaVuSans-3d" x="1067.667969"/>
      <use xlink:href="#DejaVuSans-30" x="1151.457031"/>
      <use xlink:href="#DejaVuSans-29" x="1215.080078"/>
     </g>
    </g>
    <g id="line2d_37">
     <path d="M 746.7225 82.1225 
L 762.7225 82.1225 
L 778.7225 82.1225 
" style="fill: none; stroke: #ff7f0e; stroke-width: 1.5; stroke-linecap: square"/>
    </g>
    <g id="text_20">
     <!-- Training PPL (Window=128) -->
     <g transform="translate(791.5225 87.7225) scale(0.16 -0.16)">
      <use xlink:href="#DejaVuSans-54"/>
      <use xlink:href="#DejaVuSans-72" x="46.333984"/>
      <use xlink:href="#DejaVuSans-61" x="87.447266"/>
      <use xlink:href="#DejaVuSans-69" x="148.726562"/>
      <use xlink:href="#DejaVuSans-6e" x="176.509766"/>
      <use xlink:href="#DejaVuSans-69" x="239.888672"/>
      <use xlink:href="#DejaVuSans-6e" x="267.671875"/>
      <use xlink:href="#DejaVuSans-67" x="331.050781"/>
      <use xlink:href="#DejaVuSans-20" x="394.527344"/>
      <use xlink:href="#DejaVuSans-50" x="426.314453"/>
      <use xlink:href="#DejaVuSans-50" x="486.617188"/>
      <use xlink:href="#DejaVuSans-4c" x="546.919922"/>
      <use xlink:href="#DejaVuSans-20" x="602.632812"/>
      <use xlink:href="#DejaVuSans-28" x="634.419922"/>
      <use xlink:href="#DejaVuSans-57" x="673.433594"/>
      <use xlink:href="#DejaVuSans-69" x="770.060547"/>
      <use xlink:href="#DejaVuSans-6e" x="797.84375"/>
      <use xlink:href="#DejaVuSans-64" x="861.222656"/>
      <use xlink:href="#DejaVuSans-6f" x="924.699219"/>
      <use xlink:href="#DejaVuSans-77" x="985.880859"/>
      <use xlink:href="#DejaVuSans-3d" x="1067.667969"/>
      <use xlink:href="#DejaVuSans-31" x="1151.457031"/>
      <use xlink:href="#DejaVuSans-32" x="1215.080078"/>
      <use xlink:href="#DejaVuSans-38" x="1278.703125"/>
      <use xlink:href="#DejaVuSans-29" x="1342.326172"/>
     </g>
    </g>
    <g id="line2d_38">
     <path d="M 746.7225 105.6075 
L 762.7225 105.6075 
L 778.7225 105.6075 
" style="fill: none; stroke: #2ca02c; stroke-width: 1.5; stroke-linecap: square"/>
    </g>
    <g id="text_21">
     <!-- Training PPL (Window=256) -->
     <g transform="translate(791.5225 111.2075) scale(0.16 -0.16)">
      <defs>
       <path id="DejaVuSans-35" d="M 691 4666 
L 3169 4666 
L 3169 4134 
L 1269 4134 
L 1269 2991 
Q 1406 3038 1543 3061 
Q 1681 3084 1819 3084 
Q 2600 3084 3056 2656 
Q 3513 2228 3513 1497 
Q 3513 744 3044 326 
Q 2575 -91 1722 -91 
Q 1428 -91 1123 -41 
Q 819 9 494 109 
L 494 744 
Q 775 591 1075 516 
Q 1375 441 1709 441 
Q 2250 441 2565 725 
Q 2881 1009 2881 1497 
Q 2881 1984 2565 2268 
Q 2250 2553 1709 2553 
Q 1456 2553 1204 2497 
Q 953 2441 691 2322 
L 691 4666 
z
" transform="scale(0.015625)"/>
      </defs>
      <use xlink:href="#DejaVuSans-54"/>
      <use xlink:href="#DejaVuSans-72" x="46.333984"/>
      <use xlink:href="#DejaVuSans-61" x="87.447266"/>
      <use xlink:href="#DejaVuSans-69" x="148.726562"/>
      <use xlink:href="#DejaVuSans-6e" x="176.509766"/>
      <use xlink:href="#DejaVuSans-69" x="239.888672"/>
      <use xlink:href="#DejaVuSans-6e" x="267.671875"/>
      <use xlink:href="#DejaVuSans-67" x="331.050781"/>
      <use xlink:href="#DejaVuSans-20" x="394.527344"/>
      <use xlink:href="#DejaVuSans-50" x="426.314453"/>
      <use xlink:href="#DejaVuSans-50" x="486.617188"/>
      <use xlink:href="#DejaVuSans-4c" x="546.919922"/>
      <use xlink:href="#DejaVuSans-20" x="602.632812"/>
      <use xlink:href="#DejaVuSans-28" x="634.419922"/>
      <use xlink:href="#DejaVuSans-57" x="673.433594"/>
      <use xlink:href="#DejaVuSans-69" x="770.060547"/>
      <use xlink:href="#DejaVuSans-6e" x="797.84375"/>
      <use xlink:href="#DejaVuSans-64" x="861.222656"/>
      <use xlink:href="#DejaVuSans-6f" x="924.699219"/>
      <use xlink:href="#DejaVuSans-77" x="985.880859"/>
      <use xlink:href="#DejaVuSans-3d" x="1067.667969"/>
      <use xlink:href="#DejaVuSans-32" x="1151.457031"/>
      <use xlink:href="#DejaVuSans-35" x="1215.080078"/>
      <use xlink:href="#DejaVuSans-36" x="1278.703125"/>
      <use xlink:href="#DejaVuSans-29" x="1342.326172"/>
     </g>
    </g>
    <g id="line2d_39">
     <path d="M 746.7225 129.0925 
L 762.7225 129.0925 
L 778.7225 129.0925 
" style="fill: none; stroke: #d62728; stroke-width: 1.5; stroke-linecap: square"/>
    </g>
    <g id="text_22">
     <!-- Training PPL (Window=512) -->
     <g transform="translate(791.5225 134.6925) scale(0.16 -0.16)">
      <use xlink:href="#DejaVuSans-54"/>
      <use xlink:href="#DejaVuSans-72" x="46.333984"/>
      <use xlink:href="#DejaVuSans-61" x="87.447266"/>
      <use xlink:href="#DejaVuSans-69" x="148.726562"/>
      <use xlink:href="#DejaVuSans-6e" x="176.509766"/>
      <use xlink:href="#DejaVuSans-69" x="239.888672"/>
      <use xlink:href="#DejaVuSans-6e" x="267.671875"/>
      <use xlink:href="#DejaVuSans-67" x="331.050781"/>
      <use xlink:href="#DejaVuSans-20" x="394.527344"/>
      <use xlink:href="#DejaVuSans-50" x="426.314453"/>
      <use xlink:href="#DejaVuSans-50" x="486.617188"/>
      <use xlink:href="#DejaVuSans-4c" x="546.919922"/>
      <use xlink:href="#DejaVuSans-20" x="602.632812"/>
      <use xlink:href="#DejaVuSans-28" x="634.419922"/>
      <use xlink:href="#DejaVuSans-57" x="673.433594"/>
      <use xlink:href="#DejaVuSans-69" x="770.060547"/>
      <use xlink:href="#DejaVuSans-6e" x="797.84375"/>
      <use xlink:href="#DejaVuSans-64" x="861.222656"/>
      <use xlink:href="#DejaVuSans-6f" x="924.699219"/>
      <use xlink:href="#DejaVuSans-77" x="985.880859"/>
      <use xlink:href="#DejaVuSans-3d" x="1067.667969"/>
      <use xlink:href="#DejaVuSans-35" x="1151.457031"/>
      <use xlink:href="#DejaVuSans-31" x="1215.080078"/>
      <use xlink:href="#DejaVuSans-32" x="1278.703125"/>
      <use xlink:href="#DejaVuSans-29" x="1342.326172"/>
     </g>
    </g>
    <g id="line2d_40">
     <path d="M 746.7225 152.5775 
L 762.7225 152.5775 
L 778.7225 152.5775 
" style="fill: none; stroke: #9467bd; stroke-width: 1.5; stroke-linecap: square"/>
    </g>
    <g id="text_23">
     <!-- Training PPL (Window=1024) -->
     <g transform="translate(791.5225 158.1775) scale(0.16 -0.16)">
      <use xlink:href="#DejaVuSans-54"/>
      <use xlink:href="#DejaVuSans-72" x="46.333984"/>
      <use xlink:href="#DejaVuSans-61" x="87.447266"/>
      <use xlink:href="#DejaVuSans-69" x="148.726562"/>
      <use xlink:href="#DejaVuSans-6e" x="176.509766"/>
      <use xlink:href="#DejaVuSans-69" x="239.888672"/>
      <use xlink:href="#DejaVuSans-6e" x="267.671875"/>
      <use xlink:href="#DejaVuSans-67" x="331.050781"/>
      <use xlink:href="#DejaVuSans-20" x="394.527344"/>
      <use xlink:href="#DejaVuSans-50" x="426.314453"/>
      <use xlink:href="#DejaVuSans-50" x="486.617188"/>
      <use xlink:href="#DejaVuSans-4c" x="546.919922"/>
      <use xlink:href="#DejaVuSans-20" x="602.632812"/>
      <use xlink:href="#DejaVuSans-28" x="634.419922"/>
      <use xlink:href="#DejaVuSans-57" x="673.433594"/>
      <use xlink:href="#DejaVuSans-69" x="770.060547"/>
      <use xlink:href="#DejaVuSans-6e" x="797.84375"/>
      <use xlink:href="#DejaVuSans-64" x="861.222656"/>
      <use xlink:href="#DejaVuSans-6f" x="924.699219"/>
      <use xlink:href="#DejaVuSans-77" x="985.880859"/>
      <use xlink:href="#DejaVuSans-3d" x="1067.667969"/>
      <use xlink:href="#DejaVuSans-31" x="1151.457031"/>
      <use xlink:href="#DejaVuSans-30" x="1215.080078"/>
      <use xlink:href="#DejaVuSans-32" x="1278.703125"/>
      <use xlink:href="#DejaVuSans-34" x="1342.326172"/>
      <use xlink:href="#DejaVuSans-29" x="1405.949219"/>
     </g>
    </g>
   </g>
  </g>
 </g>
 <defs>
  <clipPath id="pabede794b6">
   <rect x="68.15" y="37.68" width="968.965" height="337.24"/>
  </clipPath>
 </defs>
</svg>
