<?xml version="1.0" encoding="utf-8" standalone="no"?>
<!DOCTYPE svg PUBLIC "-//W3C//DTD SVG 1.1//EN"
  "http://www.w3.org/Graphics/SVG/1.1/DTD/svg11.dtd">
<svg xmlns:xlink="http://www.w3.org/1999/xlink" width="1080pt" height="576pt" viewBox="0 0 1080 576" xmlns="http://www.w3.org/2000/svg" version="1.1">
 <metadata>
  <rdf:RDF xmlns:dc="http://purl.org/dc/elements/1.1/" xmlns:cc="http://creativecommons.org/ns#" xmlns:rdf="http://www.w3.org/1999/02/22-rdf-syntax-ns#">
   <cc:Work>
    <dc:type rdf:resource="http://purl.org/dc/dcmitype/StillImage"/>
    <dc:date>2026-04-02T11:28:08.507366</dc:date>
    <dc:format>image/svg+xml</dc:format>
    <dc:creator>
     <cc:Agent>
      <dc:title>Matplotlib v3.8.3, https://matplotlib.org/</dc:title>
     </cc:Agent>
    </dc:creator>
   </cc:Work>
  </rdf:RDF>
 </metadata>
 <defs>
  <style type="text/css">*{stroke-linejoin: round; stroke-linecap: butt}</style>
 </defs>
 <g id="figure_1">
  <g id="patch_1">
   <path d="M 0 576 
L 1080 576 
L 1080 0 
L 0 0 
z
" style="fill: #ffffff"/>
  </g>
  <g id="axes_1">
   <g id="patch_2">
    <path d="M 135 512.64 
L 972 512.64 
L 972 69.12 
L 135 69.12 
z
" style="fill: #ffffff"/>
   </g>
   <g id="matplotlib.axis_1">
    <g id="xtick_1">
     <g id="line2d_1">
      <path d="M 173.045455 512.64 
L 173.045455 69.12 
" clip-path="url(#pb86717ffe0)" style="fill: none; stroke: #b0b0b0; stroke-width: 0.8; stroke-linecap: square"/>
     </g>
     <g id="line2d_2">
      <defs>
       <path id="m40654511d0" d="M 0 0 
L 0 3.5 
" style="stroke: #000000; stroke-width: 0.8"/>
      </defs>
      <g>
       <use xlink:href="#m40654511d0" x="173.045455" y="512.64" style="stroke: #000000; stroke-width: 0.8"/>
      </g>
     </g>
     <g id="text_1">
      <!-- 0 -->
      <g transform="translate(167.955455 531.7975) scale(0.16 -0.16)">
       <defs>
        <path id="DejaVuSans-30" d="M 2034 4250 
Q 1547 4250 1301 3770 
Q 1056 3291 1056 2328 
Q 1056 1369 1301 889 
Q 1547 409 2034 409 
Q 2525 409 2770 889 
Q 3016 1369 3016 2328 
Q 3016 3291 2770 3770 
Q 2525 4250 2034 4250 
z
M 2034 4750 
Q 2819 4750 3233 4129 
Q 3647 3509 3647 2328 
Q 3647 1150 3233 529 
Q 2819 -91 2034 -91 
Q 1250 -91 836 529 
Q 422 1150 422 2328 
Q 422 3509 836 4129 
Q 1250 4750 2034 4750 
z
" transform="scale(0.015625)"/>
       </defs>
       <use xlink:href="#DejaVuSans-30"/>
      </g>
     </g>
    </g>
    <g id="xtick_2">
     <g id="line2d_3">
      <path d="M 308.679874 512.64 
L 308.679874 69.12 
" clip-path="url(#pb86717ffe0)" style="fill: none; stroke: #b0b0b0; stroke-width: 0.8; stroke-linecap: square"/>
     </g>
     <g id="line2d_4">
      <g>
       <use xlink:href="#m40654511d0" x="308.679874" y="512.64" style="stroke: #000000; stroke-width: 0.8"/>
      </g>
     </g>
     <g id="text_2">
      <!-- 10000 -->
      <g transform="translate(283.229874 531.7975) scale(0.16 -0.16)">
       <defs>
        <path id="DejaVuSans-31" d="M 794 531 
L 1825 531 
L 1825 4091 
L 703 3866 
L 703 4441 
L 1819 4666 
L 2450 4666 
L 2450 531 
L 3481 531 
L 3481 0 
L 794 0 
L 794 531 
z
" transform="scale(0.015625)"/>
       </defs>
       <use xlink:href="#DejaVuSans-31"/>
       <use xlink:href="#DejaVuSans-30" x="63.623047"/>
       <use xlink:href="#DejaVuSans-30" x="127.246094"/>
       <use xlink:href="#DejaVuSans-30" x="190.869141"/>
       <use xlink:href="#DejaVuSans-30" x="254.492188"/>
      </g>
     </g>
    </g>
    <g id="xtick_3">
     <g id="line2d_5">
      <path d="M 444.314293 512.64 
L 444.314293 69.12 
" clip-path="url(#pb86717ffe0)" style="fill: none; stroke: #b0b0b0; stroke-width: 0.8; stroke-linecap: square"/>
     </g>
     <g id="line2d_6">
      <g>
       <use xlink:href="#m40654511d0" x="444.314293" y="512.64" style="stroke: #000000; stroke-width: 0.8"/>
      </g>
     </g>
     <g id="text_3">
      <!-- 20000 -->
      <g transform="translate(418.864293 531.7975) scale(0.16 -0.16)">
       <defs>
        <path id="DejaVuSans-32" d="M 1228 531 
L 3431 531 
L 3431 0 
L 469 0 
L 469 531 
Q 828 903 1448 1529 
Q 2069 2156 2228 2338 
Q 2531 2678 2651 2914 
Q 2772 3150 2772 3378 
Q 2772 3750 2511 3984 
Q 2250 4219 1831 4219 
Q 1534 4219 1204 4116 
Q 875 4013 500 3803 
L 500 4441 
Q 881 4594 1212 4672 
Q 1544 4750 1819 4750 
Q 2544 4750 2975 4387 
Q 3406 4025 3406 3419 
Q 3406 3131 3298 2873 
Q 3191 2616 2906 2266 
Q 2828 2175 2409 1742 
Q 1991 1309 1228 531 
z
" transform="scale(0.015625)"/>
       </defs>
       <use xlink:href="#DejaVuSans-32"/>
       <use xlink:href="#DejaVuSans-30" x="63.623047"/>
       <use xlink:href="#DejaVuSans-30" x="127.246094"/>
       <use xlink:href="#DejaVuSans-30" x="190.869141"/>
       <use xlink:href="#DejaVuSans-30" x="254.492188"/>
      </g>
     </g>
    </g>
    <g id="xtick_4">
     <g id="line2d_7">
      <path d="M 579.948712 512.64 
L 579.948712 69.12 
" clip-path="url(#pb86717ffe0)" style="fill: none; stroke: #b0b0b0; stroke-width: 0.8; stroke-linecap: square"/>
     </g>
     <g id="line2d_8">
      <g>
       <use xlink:href="#m40654511d0" x="579.948712" y="512.64" style="stroke: #000000; stroke-width: 0.8"/>
      </g>
     </g>
     <g id="text_4">
      <!-- 30000 -->
      <g transform="translate(554.498712 531.7975) scale(0.16 -0.16)">
       <defs>
        <path id="DejaVuSans-33" d="M 2597 2516 
Q 3050 2419 3304 2112 
Q 3559 1806 3559 1356 
Q 3559 666 3084 287 
Q 2609 -91 1734 -91 
Q 1441 -91 1130 -33 
Q 819 25 488 141 
L 488 750 
Q 750 597 1062 519 
Q 1375 441 1716 441 
Q 2309 441 2620 675 
Q 2931 909 2931 1356 
Q 2931 1769 2642 2001 
Q 2353 2234 1838 2234 
L 1294 2234 
L 1294 2753 
L 1863 2753 
Q 2328 2753 2575 2939 
Q 2822 3125 2822 3475 
Q 2822 3834 2567 4026 
Q 2313 4219 1838 4219 
Q 1578 4219 1281 4162 
Q 984 4106 628 3988 
L 628 4550 
Q 988 4650 1302 4700 
Q 1616 4750 1894 4750 
Q 2613 4750 3031 4423 
Q 3450 4097 3450 3541 
Q 3450 3153 3228 2886 
Q 3006 2619 2597 2516 
z
" transform="scale(0.015625)"/>
       </defs>
       <use xlink:href="#DejaVuSans-33"/>
       <use xlink:href="#DejaVuSans-30" x="63.623047"/>
       <use xlink:href="#DejaVuSans-30" x="127.246094"/>
       <use xlink:href="#DejaVuSans-30" x="190.869141"/>
       <use xlink:href="#DejaVuSans-30" x="254.492188"/>
      </g>
     </g>
    </g>
    <g id="xtick_5">
     <g id="line2d_9">
      <path d="M 715.583131 512.64 
L 715.583131 69.12 
" clip-path="url(#pb86717ffe0)" style="fill: none; stroke: #b0b0b0; stroke-width: 0.8; stroke-linecap: square"/>
     </g>
     <g id="line2d_10">
      <g>
       <use xlink:href="#m40654511d0" x="715.583131" y="512.64" style="stroke: #000000; stroke-width: 0.8"/>
      </g>
     </g>
     <g id="text_5">
      <!-- 40000 -->
      <g transform="translate(690.133131 531.7975) scale(0.16 -0.16)">
       <defs>
        <path id="DejaVuSans-34" d="M 2419 4116 
L 825 1625 
L 2419 1625 
L 2419 4116 
z
M 2253 4666 
L 3047 4666 
L 3047 1625 
L 3713 1625 
L 3713 1100 
L 3047 1100 
L 3047 0 
L 2419 0 
L 2419 1100 
L 313 1100 
L 313 1709 
L 2253 4666 
z
" transform="scale(0.015625)"/>
       </defs>
       <use xlink:href="#DejaVuSans-34"/>
       <use xlink:href="#DejaVuSans-30" x="63.623047"/>
       <use xlink:href="#DejaVuSans-30" x="127.246094"/>
       <use xlink:href="#DejaVuSans-30" x="190.869141"/>
       <use xlink:href="#DejaVuSans-30" x="254.492188"/>
      </g>
     </g>
    </g>
    <g id="xtick_6">
     <g id="line2d_11">
      <path d="M 851.21755 512.64 
L 851.21755 69.12 
" clip-path="url(#pb86717ffe0)" style="fill: none; stroke: #b0b0b0; stroke-width: 0.8; stroke-linecap: square"/>
     </g>
     <g id="line2d_12">
      <g>
       <use xlink:href="#m40654511d0" x="851.21755" y="512.64" style="stroke: #000000; stroke-width: 0.8"/>
      </g>
     </g>
     <g id="text_6">
      <!-- 50000 -->
      <g transform="translate(825.76755 531.7975) scale(0.16 -0.16)">
       <defs>
        <path id="DejaVuSans-35" d="M 691 4666 
L 3169 4666 
L 3169 4134 
L 1269 4134 
L 1269 2991 
Q 1406 3038 1543 3061 
Q 1681 3084 1819 3084 
Q 2600 3084 3056 2656 
Q 3513 2228 3513 1497 
Q 3513 744 3044 326 
Q 2575 -91 1722 -91 
Q 1428 -91 1123 -41 
Q 819 9 494 109 
L 494 744 
Q 775 591 1075 516 
Q 1375 441 1709 441 
Q 2250 441 2565 725 
Q 2881 1009 2881 1497 
Q 2881 1984 2565 2268 
Q 2250 2553 1709 2553 
Q 1456 2553 1204 2497 
Q 953 2441 691 2322 
L 691 4666 
z
" transform="scale(0.015625)"/>
       </defs>
       <use xlink:href="#DejaVuSans-35"/>
       <use xlink:href="#DejaVuSans-30" x="63.623047"/>
       <use xlink:href="#DejaVuSans-30" x="127.246094"/>
       <use xlink:href="#DejaVuSans-30" x="190.869141"/>
       <use xlink:href="#DejaVuSans-30" x="254.492188"/>
      </g>
     </g>
    </g>
    <g id="text_7">
     <!-- Training Steps -->
     <g transform="translate(497.0125 551.2825) scale(0.16 -0.16)">
      <defs>
       <path id="DejaVuSans-54" d="M -19 4666 
L 3928 4666 
L 3928 4134 
L 2272 4134 
L 2272 0 
L 1638 0 
L 1638 4134 
L -19 4134 
L -19 4666 
z
" transform="scale(0.015625)"/>
       <path id="DejaVuSans-72" d="M 2631 2963 
Q 2534 3019 2420 3045 
Q 2306 3072 2169 3072 
Q 1681 3072 1420 2755 
Q 1159 2438 1159 1844 
L 1159 0 
L 581 0 
L 581 3500 
L 1159 3500 
L 1159 2956 
Q 1341 3275 1631 3429 
Q 1922 3584 2338 3584 
Q 2397 3584 2469 3576 
Q 2541 3569 2628 3553 
L 2631 2963 
z
" transform="scale(0.015625)"/>
       <path id="DejaVuSans-61" d="M 2194 1759 
Q 1497 1759 1228 1600 
Q 959 1441 959 1056 
Q 959 750 1161 570 
Q 1363 391 1709 391 
Q 2188 391 2477 730 
Q 2766 1069 2766 1631 
L 2766 1759 
L 2194 1759 
z
M 3341 1997 
L 3341 0 
L 2766 0 
L 2766 531 
Q 2569 213 2275 61 
Q 1981 -91 1556 -91 
Q 1019 -91 701 211 
Q 384 513 384 1019 
Q 384 1609 779 1909 
Q 1175 2209 1959 2209 
L 2766 2209 
L 2766 2266 
Q 2766 2663 2505 2880 
Q 2244 3097 1772 3097 
Q 1472 3097 1187 3025 
Q 903 2953 641 2809 
L 641 3341 
Q 956 3463 1253 3523 
Q 1550 3584 1831 3584 
Q 2591 3584 2966 3190 
Q 3341 2797 3341 1997 
z
" transform="scale(0.015625)"/>
       <path id="DejaVuSans-69" d="M 603 3500 
L 1178 3500 
L 1178 0 
L 603 0 
L 603 3500 
z
M 603 4863 
L 1178 4863 
L 1178 4134 
L 603 4134 
L 603 4863 
z
" transform="scale(0.015625)"/>
       <path id="DejaVuSans-6e" d="M 3513 2113 
L 3513 0 
L 2938 0 
L 2938 2094 
Q 2938 2591 2744 2837 
Q 2550 3084 2163 3084 
Q 1697 3084 1428 2787 
Q 1159 2491 1159 1978 
L 1159 0 
L 581 0 
L 581 3500 
L 1159 3500 
L 1159 2956 
Q 1366 3272 1645 3428 
Q 1925 3584 2291 3584 
Q 2894 3584 3203 3211 
Q 3513 2838 3513 2113 
z
" transform="scale(0.015625)"/>
       <path id="DejaVuSans-67" d="M 2906 1791 
Q 2906 2416 2648 2759 
Q 2391 3103 1925 3103 
Q 1463 3103 1205 2759 
Q 947 2416 947 1791 
Q 947 1169 1205 825 
Q 1463 481 1925 481 
Q 2391 481 2648 825 
Q 2906 1169 2906 1791 
z
M 3481 434 
Q 3481 -459 3084 -895 
Q 2688 -1331 1869 -1331 
Q 1566 -1331 1297 -1286 
Q 1028 -1241 775 -1147 
L 775 -588 
Q 1028 -725 1275 -790 
Q 1522 -856 1778 -856 
Q 2344 -856 2625 -561 
Q 2906 -266 2906 331 
L 2906 616 
Q 2728 306 2450 153 
Q 2172 0 1784 0 
Q 1141 0 747 490 
Q 353 981 353 1791 
Q 353 2603 747 3093 
Q 1141 3584 1784 3584 
Q 2172 3584 2450 3431 
Q 2728 3278 2906 2969 
L 2906 3500 
L 3481 3500 
L 3481 434 
z
" transform="scale(0.015625)"/>
       <path id="DejaVuSans-20" transform="scale(0.015625)"/>
       <path id="DejaVuSans-53" d="M 3425 4513 
L 3425 3897 
Q 3066 4069 2747 4153 
Q 2428 4238 2131 4238 
Q 1616 4238 1336 4038 
Q 1056 3838 1056 3469 
Q 1056 3159 1242 3001 
Q 1428 2844 1947 2747 
L 2328 2669 
Q 3034 2534 3370 2195 
Q 3706 1856 3706 1288 
Q 3706 609 3251 259 
Q 2797 -91 1919 -91 
Q 1588 -91 1214 -16 
Q 841 59 441 206 
L 441 856 
Q 825 641 1194 531 
Q 1563 422 1919 422 
Q 2459 422 2753 634 
Q 3047 847 3047 1241 
Q 3047 1584 2836 1778 
Q 2625 1972 2144 2069 
L 1759 2144 
Q 1053 2284 737 2584 
Q 422 2884 422 3419 
Q 422 4038 858 4394 
Q 1294 4750 2059 4750 
Q 2388 4750 2728 4690 
Q 3069 4631 3425 4513 
z
" transform="scale(0.015625)"/>
       <path id="DejaVuSans-74" d="M 1172 4494 
L 1172 3500 
L 2356 3500 
L 2356 3053 
L 1172 3053 
L 1172 1153 
Q 1172 725 1289 603 
Q 1406 481 1766 481 
L 2356 481 
L 2356 0 
L 1766 0 
Q 1100 0 847 248 
Q 594 497 594 1153 
L 594 3053 
L 172 3053 
L 172 3500 
L 594 3500 
L 594 4494 
L 1172 4494 
z
" transform="scale(0.015625)"/>
       <path id="DejaVuSans-65" d="M 3597 1894 
L 3597 1613 
L 953 1613 
Q 991 1019 1311 708 
Q 1631 397 2203 397 
Q 2534 397 2845 478 
Q 3156 559 3463 722 
L 3463 178 
Q 3153 47 2828 -22 
Q 2503 -91 2169 -91 
Q 1331 -91 842 396 
Q 353 884 353 1716 
Q 353 2575 817 3079 
Q 1281 3584 2069 3584 
Q 2775 3584 3186 3129 
Q 3597 2675 3597 1894 
z
M 3022 2063 
Q 3016 2534 2758 2815 
Q 2500 3097 2075 3097 
Q 1594 3097 1305 2825 
Q 1016 2553 972 2059 
L 3022 2063 
z
" transform="scale(0.015625)"/>
       <path id="DejaVuSans-70" d="M 1159 525 
L 1159 -1331 
L 581 -1331 
L 581 3500 
L 1159 3500 
L 1159 2969 
Q 1341 3281 1617 3432 
Q 1894 3584 2278 3584 
Q 2916 3584 3314 3078 
Q 3713 2572 3713 1747 
Q 3713 922 3314 415 
Q 2916 -91 2278 -91 
Q 1894 -91 1617 61 
Q 1341 213 1159 525 
z
M 3116 1747 
Q 3116 2381 2855 2742 
Q 2594 3103 2138 3103 
Q 1681 3103 1420 2742 
Q 1159 2381 1159 1747 
Q 1159 1113 1420 752 
Q 1681 391 2138 391 
Q 2594 391 2855 752 
Q 3116 1113 3116 1747 
z
" transform="scale(0.015625)"/>
       <path id="DejaVuSans-73" d="M 2834 3397 
L 2834 2853 
Q 2591 2978 2328 3040 
Q 2066 3103 1784 3103 
Q 1356 3103 1142 2972 
Q 928 2841 928 2578 
Q 928 2378 1081 2264 
Q 1234 2150 1697 2047 
L 1894 2003 
Q 2506 1872 2764 1633 
Q 3022 1394 3022 966 
Q 3022 478 2636 193 
Q 2250 -91 1575 -91 
Q 1294 -91 989 -36 
Q 684 19 347 128 
L 347 722 
Q 666 556 975 473 
Q 1284 391 1588 391 
Q 1994 391 2212 530 
Q 2431 669 2431 922 
Q 2431 1156 2273 1281 
Q 2116 1406 1581 1522 
L 1381 1569 
Q 847 1681 609 1914 
Q 372 2147 372 2553 
Q 372 3047 722 3315 
Q 1072 3584 1716 3584 
Q 2034 3584 2315 3537 
Q 2597 3491 2834 3397 
z
" transform="scale(0.015625)"/>
      </defs>
      <use xlink:href="#DejaVuSans-54"/>
      <use xlink:href="#DejaVuSans-72" x="46.333984"/>
      <use xlink:href="#DejaVuSans-61" x="87.447266"/>
      <use xlink:href="#DejaVuSans-69" x="148.726562"/>
      <use xlink:href="#DejaVuSans-6e" x="176.509766"/>
      <use xlink:href="#DejaVuSans-69" x="239.888672"/>
      <use xlink:href="#DejaVuSans-6e" x="267.671875"/>
      <use xlink:href="#DejaVuSans-67" x="331.050781"/>
      <use xlink:href="#DejaVuSans-20" x="394.527344"/>
      <use xlink:href="#DejaVuSans-53" x="426.314453"/>
      <use xlink:href="#DejaVuSans-74" x="489.791016"/>
      <use xlink:href="#DejaVuSans-65" x="529"/>
      <use xlink:href="#DejaVuSans-70" x="590.523438"/>
      <use xlink:href="#DejaVuSans-73" x="654"/>
     </g>
    </g>
   </g>
   <g id="matplotlib.axis_2">
    <g id="ytick_1">
     <g id="line2d_13">
      <path d="M 135 512.64 
L 972 512.64 
" clip-path="url(#pb86717ffe0)" style="fill: none; stroke: #b0b0b0; stroke-width: 0.8; stroke-linecap: square"/>
     </g>
     <g id="line2d_14">
      <defs>
       <path id="m64d97948b7" d="M 0 0 
L -3.5 0 
" style="stroke: #000000; stroke-width: 0.8"/>
      </defs>
      <g>
       <use xlink:href="#m64d97948b7" x="135" y="512.64" style="stroke: #000000; stroke-width: 0.8"/>
      </g>
     </g>
     <g id="text_8">
      <!-- 20 -->
      <g transform="translate(107.64 518.71875) scale(0.16 -0.16)">
       <use xlink:href="#DejaVuSans-32"/>
       <use xlink:href="#DejaVuSans-30" x="63.623047"/>
      </g>
     </g>
    </g>
    <g id="ytick_2">
     <g id="line2d_15">
      <path d="M 135 457.2 
L 972 457.2 
" clip-path="url(#pb86717ffe0)" style="fill: none; stroke: #b0b0b0; stroke-width: 0.8; stroke-linecap: square"/>
     </g>
     <g id="line2d_16">
      <g>
       <use xlink:href="#m64d97948b7" x="135" y="457.2" style="stroke: #000000; stroke-width: 0.8"/>
      </g>
     </g>
     <g id="text_9">
      <!-- 30 -->
      <g transform="translate(107.64 463.27875) scale(0.16 -0.16)">
       <use xlink:href="#DejaVuSans-33"/>
       <use xlink:href="#DejaVuSans-30" x="63.623047"/>
      </g>
     </g>
    </g>
    <g id="ytick_3">
     <g id="line2d_17">
      <path d="M 135 401.76 
L 972 401.76 
" clip-path="url(#pb86717ffe0)" style="fill: none; stroke: #b0b0b0; stroke-width: 0.8; stroke-linecap: square"/>
     </g>
     <g id="line2d_18">
      <g>
       <use xlink:href="#m64d97948b7" x="135" y="401.76" style="stroke: #000000; stroke-width: 0.8"/>
      </g>
     </g>
     <g id="text_10">
      <!-- 40 -->
      <g transform="translate(107.64 407.83875) scale(0.16 -0.16)">
       <use xlink:href="#DejaVuSans-34"/>
       <use xlink:href="#DejaVuSans-30" x="63.623047"/>
      </g>
     </g>
    </g>
    <g id="ytick_4">
     <g id="line2d_19">
      <path d="M 135 346.32 
L 972 346.32 
" clip-path="url(#pb86717ffe0)" style="fill: none; stroke: #b0b0b0; stroke-width: 0.8; stroke-linecap: square"/>
     </g>
     <g id="line2d_20">
      <g>
       <use xlink:href="#m64d97948b7" x="135" y="346.32" style="stroke: #000000; stroke-width: 0.8"/>
      </g>
     </g>
     <g id="text_11">
      <!-- 50 -->
      <g transform="translate(107.64 352.39875) scale(0.16 -0.16)">
       <use xlink:href="#DejaVuSans-35"/>
       <use xlink:href="#DejaVuSans-30" x="63.623047"/>
      </g>
     </g>
    </g>
    <g id="ytick_5">
     <g id="line2d_21">
      <path d="M 135 290.88 
L 972 290.88 
" clip-path="url(#pb86717ffe0)" style="fill: none; stroke: #b0b0b0; stroke-width: 0.8; stroke-linecap: square"/>
     </g>
     <g id="line2d_22">
      <g>
       <use xlink:href="#m64d97948b7" x="135" y="290.88" style="stroke: #000000; stroke-width: 0.8"/>
      </g>
     </g>
     <g id="text_12">
      <!-- 60 -->
      <g transform="translate(107.64 296.95875) scale(0.16 -0.16)">
       <defs>
        <path id="DejaVuSans-36" d="M 2113 2584 
Q 1688 2584 1439 2293 
Q 1191 2003 1191 1497 
Q 1191 994 1439 701 
Q 1688 409 2113 409 
Q 2538 409 2786 701 
Q 3034 994 3034 1497 
Q 3034 2003 2786 2293 
Q 2538 2584 2113 2584 
z
M 3366 4563 
L 3366 3988 
Q 3128 4100 2886 4159 
Q 2644 4219 2406 4219 
Q 1781 4219 1451 3797 
Q 1122 3375 1075 2522 
Q 1259 2794 1537 2939 
Q 1816 3084 2150 3084 
Q 2853 3084 3261 2657 
Q 3669 2231 3669 1497 
Q 3669 778 3244 343 
Q 2819 -91 2113 -91 
Q 1303 -91 875 529 
Q 447 1150 447 2328 
Q 447 3434 972 4092 
Q 1497 4750 2381 4750 
Q 2619 4750 2861 4703 
Q 3103 4656 3366 4563 
z
" transform="scale(0.015625)"/>
       </defs>
       <use xlink:href="#DejaVuSans-36"/>
       <use xlink:href="#DejaVuSans-30" x="63.623047"/>
      </g>
     </g>
    </g>
    <g id="ytick_6">
     <g id="line2d_23">
      <path d="M 135 235.44 
L 972 235.44 
" clip-path="url(#pb86717ffe0)" style="fill: none; stroke: #b0b0b0; stroke-width: 0.8; stroke-linecap: square"/>
     </g>
     <g id="line2d_24">
      <g>
       <use xlink:href="#m64d97948b7" x="135" y="235.44" style="stroke: #000000; stroke-width: 0.8"/>
      </g>
     </g>
     <g id="text_13">
      <!-- 70 -->
      <g transform="translate(107.64 241.51875) scale(0.16 -0.16)">
       <defs>
        <path id="DejaVuSans-37" d="M 525 4666 
L 3525 4666 
L 3525 4397 
L 1831 0 
L 1172 0 
L 2766 4134 
L 525 4134 
L 525 4666 
z
" transform="scale(0.015625)"/>
       </defs>
       <use xlink:href="#DejaVuSans-37"/>
       <use xlink:href="#DejaVuSans-30" x="63.623047"/>
      </g>
     </g>
    </g>
    <g id="ytick_7">
     <g id="line2d_25">
      <path d="M 135 180 
L 972 180 
" clip-path="url(#pb86717ffe0)" style="fill: none; stroke: #b0b0b0; stroke-width: 0.8; stroke-linecap: square"/>
     </g>
     <g id="line2d_26">
      <g>
       <use xlink:href="#m64d97948b7" x="135" y="180" style="stroke: #000000; stroke-width: 0.8"/>
      </g>
     </g>
     <g id="text_14">
      <!-- 80 -->
      <g transform="translate(107.64 186.07875) scale(0.16 -0.16)">
       <defs>
        <path id="DejaVuSans-38" d="M 2034 2216 
Q 1584 2216 1326 1975 
Q 1069 1734 1069 1313 
Q 1069 891 1326 650 
Q 1584 409 2034 409 
Q 2484 409 2743 651 
Q 3003 894 3003 1313 
Q 3003 1734 2745 1975 
Q 2488 2216 2034 2216 
z
M 1403 2484 
Q 997 2584 770 2862 
Q 544 3141 544 3541 
Q 544 4100 942 4425 
Q 1341 4750 2034 4750 
Q 2731 4750 3128 4425 
Q 3525 4100 3525 3541 
Q 3525 3141 3298 2862 
Q 3072 2584 2669 2484 
Q 3125 2378 3379 2068 
Q 3634 1759 3634 1313 
Q 3634 634 3220 271 
Q 2806 -91 2034 -91 
Q 1263 -91 848 271 
Q 434 634 434 1313 
Q 434 1759 690 2068 
Q 947 2378 1403 2484 
z
M 1172 3481 
Q 1172 3119 1398 2916 
Q 1625 2713 2034 2713 
Q 2441 2713 2670 2916 
Q 2900 3119 2900 3481 
Q 2900 3844 2670 4047 
Q 2441 4250 2034 4250 
Q 1625 4250 1398 4047 
Q 1172 3844 1172 3481 
z
" transform="scale(0.015625)"/>
       </defs>
       <use xlink:href="#DejaVuSans-38"/>
       <use xlink:href="#DejaVuSans-30" x="63.623047"/>
      </g>
     </g>
    </g>
    <g id="ytick_8">
     <g id="line2d_27">
      <path d="M 135 124.56 
L 972 124.56 
" clip-path="url(#pb86717ffe0)" style="fill: none; stroke: #b0b0b0; stroke-width: 0.8; stroke-linecap: square"/>
     </g>
     <g id="line2d_28">
      <g>
       <use xlink:href="#m64d97948b7" x="135" y="124.56" style="stroke: #000000; stroke-width: 0.8"/>
      </g>
     </g>
     <g id="text_15">
      <!-- 90 -->
      <g transform="translate(107.64 130.63875) scale(0.16 -0.16)">
       <defs>
        <path id="DejaVuSans-39" d="M 703 97 
L 703 672 
Q 941 559 1184 500 
Q 1428 441 1663 441 
Q 2288 441 2617 861 
Q 2947 1281 2994 2138 
Q 2813 1869 2534 1725 
Q 2256 1581 1919 1581 
Q 1219 1581 811 2004 
Q 403 2428 403 3163 
Q 403 3881 828 4315 
Q 1253 4750 1959 4750 
Q 2769 4750 3195 4129 
Q 3622 3509 3622 2328 
Q 3622 1225 3098 567 
Q 2575 -91 1691 -91 
Q 1453 -91 1209 -44 
Q 966 3 703 97 
z
M 1959 2075 
Q 2384 2075 2632 2365 
Q 2881 2656 2881 3163 
Q 2881 3666 2632 3958 
Q 2384 4250 1959 4250 
Q 1534 4250 1286 3958 
Q 1038 3666 1038 3163 
Q 1038 2656 1286 2365 
Q 1534 2075 1959 2075 
z
" transform="scale(0.015625)"/>
       </defs>
       <use xlink:href="#DejaVuSans-39"/>
       <use xlink:href="#DejaVuSans-30" x="63.623047"/>
      </g>
     </g>
    </g>
    <g id="ytick_9">
     <g id="line2d_29">
      <path d="M 135 69.12 
L 972 69.12 
" clip-path="url(#pb86717ffe0)" style="fill: none; stroke: #b0b0b0; stroke-width: 0.8; stroke-linecap: square"/>
     </g>
     <g id="line2d_30">
      <g>
       <use xlink:href="#m64d97948b7" x="135" y="69.12" style="stroke: #000000; stroke-width: 0.8"/>
      </g>
     </g>
     <g id="text_16">
      <!-- 100 -->
      <g transform="translate(97.46 75.19875) scale(0.16 -0.16)">
       <use xlink:href="#DejaVuSans-31"/>
       <use xlink:href="#DejaVuSans-30" x="63.623047"/>
       <use xlink:href="#DejaVuSans-30" x="127.246094"/>
      </g>
     </g>
    </g>
    <g id="text_17">
     <!-- Perplexity -->
     <g transform="translate(90.1325 330.5375) rotate(-90) scale(0.16 -0.16)">
      <defs>
       <path id="DejaVuSans-50" d="M 1259 4147 
L 1259 2394 
L 2053 2394 
Q 2494 2394 2734 2622 
Q 2975 2850 2975 3272 
Q 2975 3691 2734 3919 
Q 2494 4147 2053 4147 
L 1259 4147 
z
M 628 4666 
L 2053 4666 
Q 2838 4666 3239 4311 
Q 3641 3956 3641 3272 
Q 3641 2581 3239 2228 
Q 2838 1875 2053 1875 
L 1259 1875 
L 1259 0 
L 628 0 
L 628 4666 
z
" transform="scale(0.015625)"/>
       <path id="DejaVuSans-6c" d="M 603 4863 
L 1178 4863 
L 1178 0 
L 603 0 
L 603 4863 
z
" transform="scale(0.015625)"/>
       <path id="DejaVuSans-78" d="M 3513 3500 
L 2247 1797 
L 3578 0 
L 2900 0 
L 1881 1375 
L 863 0 
L 184 0 
L 1544 1831 
L 300 3500 
L 978 3500 
L 1906 2253 
L 2834 3500 
L 3513 3500 
z
" transform="scale(0.015625)"/>
       <path id="DejaVuSans-79" d="M 2059 -325 
Q 1816 -950 1584 -1140 
Q 1353 -1331 966 -1331 
L 506 -1331 
L 506 -850 
L 844 -850 
Q 1081 -850 1212 -737 
Q 1344 -625 1503 -206 
L 1606 56 
L 191 3500 
L 800 3500 
L 1894 763 
L 2988 3500 
L 3597 3500 
L 2059 -325 
z
" transform="scale(0.015625)"/>
      </defs>
      <use xlink:href="#DejaVuSans-50"/>
      <use xlink:href="#DejaVuSans-65" x="56.677734"/>
      <use xlink:href="#DejaVuSans-72" x="118.201172"/>
      <use xlink:href="#DejaVuSans-70" x="159.314453"/>
      <use xlink:href="#DejaVuSans-6c" x="222.791016"/>
      <use xlink:href="#DejaVuSans-65" x="250.574219"/>
      <use xlink:href="#DejaVuSans-78" x="310.347656"/>
      <use xlink:href="#DejaVuSans-69" x="369.527344"/>
      <use xlink:href="#DejaVuSans-74" x="397.310547"/>
      <use xlink:href="#DejaVuSans-79" x="436.519531"/>
     </g>
    </g>
   </g>
   <g id="line2d_31">
    <path d="M 207.816181 -1 
L 208.310404 3.20184 
L 208.445309 -1 
M 209.189727 -1 
L 209.666748 39.12696 
L 210.34492 35.46792 
L 211.023092 41.78808 
L 211.701264 66.40344 
L 212.379436 51.54552 
L 213.057608 1.70496 
L 213.73578 51.43464 
L 214.413952 64.24128 
L 215.092124 98.72496 
L 215.770297 42.17616 
L 216.448469 65.68272 
L 217.126641 70.2288 
L 217.804813 92.682 
L 218.482985 97.06176 
L 219.161157 84.19968 
L 219.839329 128.10816 
L 220.517501 115.46784 
L 221.195673 116.74296 
L 221.873845 129.93768 
L 222.552018 89.74368 
L 223.23019 86.0292 
L 223.908362 107.87256 
L 224.586534 112.41864 
L 225.264706 129.38328 
L 225.942878 118.4616 
L 226.62105 117.51912 
L 227.299222 114.0264 
L 227.977394 148.28832 
L 228.655566 145.0728 
L 229.333738 143.74224 
L 230.011911 138.25368 
L 230.690083 154.66392 
L 231.368255 137.5884 
L 232.046427 156.04992 
L 232.724599 158.43384 
L 233.402771 169.57728 
L 234.080943 127.38744 
L 234.759115 161.92656 
L 235.437287 188.92584 
L 236.115459 192.03048 
L 236.793632 176.1192 
L 237.471804 178.11504 
L 238.149976 188.42688 
L 238.828148 161.48304 
L 239.50632 180.94248 
L 240.184492 164.4768 
L 240.862664 170.68608 
L 241.540836 214.15104 
L 242.219008 187.53984 
L 242.89718 170.46432 
L 243.575352 201.01176 
L 244.253525 219.25152 
L 244.931697 214.3728 
L 245.609869 196.46568 
L 246.288041 237.54672 
L 246.966213 214.65 
L 247.644385 198.73872 
L 248.322557 206.27856 
L 249.000729 209.3832 
L 249.678901 180.8316 
L 250.357073 231.50376 
L 251.035246 207.9972 
L 251.713418 217.36656 
L 252.39159 223.90848 
L 253.069762 231.78096 
L 253.747934 228.73176 
L 254.426106 231.33744 
L 255.104278 225.84888 
L 255.78245 225.95976 
L 256.460622 259.16832 
L 257.138794 244.14408 
L 257.816966 209.54952 
L 258.495139 212.59872 
L 259.173311 220.63752 
L 259.851483 250.63056 
L 260.529655 226.18152 
L 261.207827 260.83152 
L 261.885999 254.89944 
L 262.564171 255.84192 
L 263.242343 249.24456 
L 263.920515 256.83984 
L 264.598687 247.58136 
L 265.27686 249.18912 
L 265.955032 253.62432 
L 266.633204 249.18912 
L 267.311376 248.80104 
L 267.989548 252.84816 
L 268.66772 270.58896 
L 269.345892 259.8336 
L 270.024064 291.1572 
L 270.702236 250.57512 
L 271.380408 281.28888 
L 272.05858 280.12464 
L 272.736753 263.04912 
L 273.414925 260.55432 
L 274.093097 271.1988 
L 274.771269 271.58688 
L 275.449441 292.93128 
L 276.805785 265.6548 
L 277.483957 262.21752 
L 278.162129 261.33048 
L 278.840301 290.38104 
L 279.518474 263.49264 
L 280.196646 269.14752 
L 280.874818 279.792 
L 281.55299 272.862 
L 282.231162 279.57024 
L 282.909334 272.3076 
L 283.587506 290.88 
L 284.265678 283.61736 
L 284.94385 274.13712 
L 285.622022 285.00336 
L 286.300194 274.8024 
L 286.978367 277.51896 
L 288.334711 293.04216 
L 289.012883 286.50024 
L 289.691055 277.24176 
L 290.369227 292.76496 
L 291.047399 277.8516 
L 291.725571 286.77744 
L 292.403743 270.75528 
L 293.081915 307.95552 
L 293.760088 291.32352 
L 294.43826 287.66448 
L 295.116432 285.66864 
L 295.794604 296.53488 
L 296.472776 289.32768 
L 297.150948 307.73376 
L 297.82912 293.81832 
L 298.507292 298.86336 
L 299.185464 289.27224 
L 299.863636 303.354 
L 300.541808 288.82872 
L 301.219981 284.39352 
L 301.898153 289.88208 
L 302.576325 280.9008 
L 303.254497 306.23688 
L 303.932669 302.13432 
L 304.610841 316.43784 
L 305.289013 296.92296 
L 305.967185 307.73376 
L 306.645357 313.49952 
L 307.323529 291.9888 
L 308.001702 287.33184 
L 308.679874 311.9472 
L 309.358046 291.82248 
L 310.036218 325.69632 
L 310.71439 329.02272 
L 311.392562 304.01928 
L 312.070734 312.11352 
L 312.748906 299.7504 
L 314.10525 330.90768 
L 314.783422 300.91464 
L 315.461595 295.98048 
L 316.817939 323.14608 
L 317.496111 307.67832 
L 318.174283 328.96728 
L 318.852455 320.37408 
L 319.530627 324.86472 
L 320.208799 306.73584 
L 320.886971 325.2528 
L 322.243316 291.76704 
L 322.921488 319.93056 
L 323.59966 307.2348 
L 324.277832 311.3928 
L 324.956004 327.13776 
L 325.634176 287.8308 
L 326.312348 337.61592 
L 326.99052 322.97976 
L 327.668692 316.1052 
L 328.346864 311.55912 
L 329.025036 326.916 
L 329.703209 337.33872 
L 330.381381 329.18904 
L 331.059553 337.78224 
L 331.737725 351.53136 
L 332.415897 338.33664 
L 333.094069 320.87304 
L 333.772241 330.18696 
L 334.450413 334.73304 
L 335.128585 329.46624 
L 335.806757 336.11904 
L 336.48493 350.69976 
L 337.163102 352.4184 
L 337.841274 333.95688 
L 338.519446 327.85848 
L 339.197618 329.24448 
L 339.87579 325.19736 
L 340.553962 357.79608 
L 341.232134 350.478 
L 341.910306 337.39416 
L 342.588478 332.95896 
L 343.26665 331.85016 
L 343.944823 338.05944 
L 344.622995 348.03864 
L 345.301167 345.54384 
L 345.979339 345.59928 
L 346.657511 337.00608 
L 347.335683 351.42048 
L 348.013855 342.162 
L 348.692027 355.63392 
L 349.370199 336.3408 
L 350.048371 350.81064 
L 350.726544 353.41632 
L 351.404716 345.87648 
L 352.082888 340.83144 
L 352.76106 344.98944 
L 353.439232 346.5972 
L 354.117404 358.68312 
L 354.795576 338.004 
L 355.473748 327.30408 
L 356.15192 335.67552 
L 356.830092 348.5376 
L 357.508264 351.19872 
L 358.186437 349.9236 
L 358.864609 342.88272 
L 359.542781 340.94232 
L 360.220953 361.45512 
L 360.899125 346.65264 
L 361.577297 343.93608 
L 362.255469 359.57016 
L 362.933641 352.58472 
L 363.611813 355.41216 
L 364.289985 343.04904 
L 364.968158 354.69144 
L 365.64633 373.31928 
L 366.324502 360.29088 
L 367.002674 359.40384 
L 367.680846 370.1592 
L 368.359018 350.31168 
L 369.03719 346.20912 
L 369.715362 351.80856 
L 370.393534 374.04 
L 371.071706 360.51264 
L 371.749878 344.71224 
L 372.428051 360.95616 
L 373.106223 356.52096 
L 373.784395 368.05248 
L 374.462567 353.08368 
L 375.140739 372.82032 
L 375.818911 370.60272 
L 376.497083 370.1592 
L 377.175255 360.4572 
L 377.853427 369.3276 
L 378.531599 344.43504 
L 379.209772 359.95824 
L 379.887944 366.77736 
L 380.566116 359.6256 
L 381.244288 363.94992 
L 381.92246 354.636 
L 382.600632 362.61936 
L 383.278804 358.62768 
L 383.956976 363.72816 
L 384.635148 374.3172 
L 385.31332 361.23336 
L 385.991492 359.6256 
L 386.669665 366.50016 
L 387.347837 364.83696 
L 388.026009 370.1592 
L 388.704181 368.93952 
L 389.382353 353.47176 
L 390.060525 359.23752 
L 390.738697 374.76072 
L 391.416869 384.5736 
L 392.095041 369.93744 
L 392.773213 370.10376 
L 393.451386 375.09336 
L 394.129558 373.7628 
L 394.80773 364.78152 
L 395.485902 358.40592 
L 396.164074 356.35464 
L 396.842246 385.9596 
L 397.520418 372.654 
L 398.19859 366.5556 
L 398.876762 361.67688 
L 399.554934 376.86744 
L 400.233106 385.23888 
L 400.911279 370.4364 
L 401.589451 392.16888 
L 402.267623 377.42184 
L 402.945795 375.64776 
L 403.623967 363.56184 
L 404.302139 383.63112 
L 404.980311 358.84944 
L 405.658483 375.81408 
L 406.336655 369.882 
L 407.014827 376.2576 
L 407.693 371.48976 
L 408.371172 387.67824 
L 409.049344 373.59648 
L 409.727516 381.91248 
L 411.08386 370.38096 
L 411.762032 389.78496 
L 412.440204 384.96168 
L 413.118376 375.9804 
L 413.796548 355.7448 
L 415.152893 378.58608 
L 415.831065 383.07672 
L 416.509237 381.57984 
L 417.187409 396.32688 
L 417.865581 386.62488 
L 418.543753 382.9104 
L 419.221925 386.34768 
L 419.900097 383.07672 
L 420.578269 384.13008 
L 421.256441 382.85496 
L 421.934614 377.3664 
L 422.612786 381.69072 
L 423.290958 376.5348 
L 423.96913 391.00464 
L 424.647302 386.45856 
L 425.325474 396.4932 
L 426.003646 394.49736 
L 426.681818 382.41144 
L 427.35999 400.15224 
L 428.038162 390.17304 
L 428.716334 376.70112 
L 429.394507 391.5036 
L 430.072679 384.5736 
L 430.750851 394.99632 
L 431.429023 396.93672 
L 432.785367 375.20424 
L 433.463539 385.6824 
L 434.141711 391.66992 
L 434.819883 386.73576 
L 435.498055 387.12384 
L 436.176228 385.07256 
L 436.8544 384.46272 
L 437.532572 388.23264 
L 438.210744 384.8508 
L 438.888916 382.0788 
L 439.567088 402.36984 
L 440.24526 381.30264 
L 440.923432 388.01088 
L 441.601604 380.63736 
L 442.279776 382.24512 
L 442.957948 393.22224 
L 443.636121 394.2756 
L 444.314293 392.16888 
L 444.992465 375.53688 
L 445.670637 394.88544 
L 446.348809 380.24928 
L 447.026981 392.11344 
L 447.705153 376.03584 
L 448.383325 391.94712 
L 449.061497 394.2756 
L 449.739669 386.12592 
L 450.417842 383.02128 
L 451.096014 385.57152 
L 451.774186 396.82584 
L 452.452358 391.89168 
L 453.13053 391.89168 
L 453.808702 394.16472 
L 454.486874 381.63528 
L 455.165046 397.10304 
L 455.843218 382.356 
L 456.52139 385.18344 
L 457.199562 380.36016 
L 457.877735 376.42392 
L 458.555907 396.65952 
L 459.234079 390.89376 
L 459.912251 397.99008 
L 460.590423 391.39272 
L 461.268595 389.67408 
L 461.946767 399.04344 
L 462.624939 393.05592 
L 463.303111 380.47104 
L 463.981283 387.51192 
L 464.659456 388.62072 
L 465.337628 391.66992 
L 466.0158 411.96096 
L 466.693972 394.10928 
L 467.372144 391.89168 
L 468.050316 392.83416 
L 468.728488 390.83832 
L 469.40666 399.65328 
L 470.084832 394.49736 
L 470.763004 377.69904 
L 471.441176 386.95752 
L 472.119349 399.98592 
L 472.797521 386.07048 
L 473.475693 402.42528 
L 474.153865 400.20768 
L 474.832037 402.48072 
L 476.188381 390.06216 
L 476.866553 399.5424 
L 477.544725 382.0788 
L 478.222897 379.19592 
L 478.90107 396.99216 
L 479.579242 389.11968 
L 480.257414 394.88544 
L 480.935586 382.13424 
L 481.613758 397.21392 
L 482.29193 404.97552 
L 482.970102 387.0684 
L 483.648274 392.72328 
L 484.326446 394.16472 
L 485.004618 401.98176 
L 485.68279 406.91592 
L 486.360963 397.82376 
L 487.039135 415.39824 
L 488.395479 397.82376 
L 489.073651 398.4336 
L 489.751823 394.83 
L 490.429995 399.76416 
L 491.108167 396.88128 
L 491.786339 410.57496 
L 492.464511 418.392 
L 493.142684 401.37192 
L 494.499028 391.72536 
L 495.1772 398.48904 
L 495.855372 407.41488 
L 496.533544 417.89304 
L 497.211716 399.32064 
L 497.889888 401.4828 
L 498.56806 387.3456 
L 499.246232 399.65328 
L 499.924404 403.58952 
L 500.602577 409.46616 
L 501.280749 403.36776 
L 501.958921 400.59576 
L 502.637093 404.14392 
L 503.315265 406.1952 
L 503.993437 406.7496 
L 504.671609 404.14392 
L 505.349781 406.86048 
L 506.027953 413.6796 
L 506.706125 397.99008 
L 507.384298 410.74128 
L 508.06247 392.16888 
L 508.740642 405.25272 
L 509.418814 410.51952 
L 510.096986 397.0476 
L 511.45333 390.45024 
L 512.131502 402.75792 
L 512.809674 402.36984 
L 513.487846 405.30816 
L 514.166018 397.10304 
L 514.844191 402.5916 
L 515.522363 404.36568 
L 516.200535 411.29568 
L 516.878707 394.44192 
L 517.556879 408.35736 
L 518.235051 408.69 
L 518.913223 406.91592 
L 520.269567 397.15848 
L 520.947739 422.88264 
L 521.625912 411.62832 
L 522.304084 411.40656 
L 522.982256 419.72256 
L 524.3386 395.05176 
L 525.016772 405.19728 
L 525.694944 412.18272 
L 526.373116 417.33864 
L 527.051288 396.4932 
L 527.72946 409.29984 
L 528.407632 401.37192 
L 529.085805 411.90552 
L 529.763977 409.07808 
L 530.442149 410.85216 
L 531.120321 421.94016 
L 531.798493 412.45992 
L 532.476665 408.80088 
L 533.154837 420.6096 
L 533.833009 399.59784 
L 534.511181 402.42528 
L 535.189353 411.7392 
L 535.867526 410.076 
L 536.545698 411.79464 
L 537.22387 403.75584 
L 537.902042 406.52784 
L 538.580214 402.81336 
L 539.258386 416.4516 
L 539.936558 411.7392 
L 540.61473 405.30816 
L 541.292902 408.80088 
L 541.971074 414.40032 
L 542.649246 405.6408 
L 543.327419 410.076 
L 544.005591 410.13144 
L 544.683763 412.0164 
L 545.361935 395.49528 
L 546.718279 424.82304 
L 547.396451 416.22984 
L 548.074623 413.90136 
L 548.752795 417.94848 
L 549.430967 416.56248 
L 550.10914 407.24856 
L 550.787312 406.58328 
L 551.465484 404.03304 
L 552.143656 409.41072 
L 552.821828 422.88264 
L 554.178172 403.09056 
L 555.534516 426.4308 
L 556.212688 416.22984 
L 556.89086 414.34488 
L 557.569033 426.81888 
L 558.247205 421.05312 
L 558.925377 403.47864 
L 559.603549 417.50496 
L 560.281721 409.74336 
L 560.959893 405.75168 
L 561.638065 422.49456 
L 562.316237 409.13352 
L 562.994409 412.79256 
L 563.672581 417.06144 
L 564.350754 417.50496 
L 565.028926 416.95056 
L 565.707098 419.72256 
L 566.38527 410.57496 
L 567.063442 416.7288 
L 567.741614 428.094 
L 569.097958 402.09264 
L 569.77613 403.64496 
L 570.454302 408.69 
L 571.132474 428.81472 
L 571.810647 413.56872 
L 572.488819 430.3116 
L 573.166991 425.43288 
L 573.845163 421.4412 
L 574.523335 420.83136 
L 575.201507 420.77592 
L 575.879679 418.78008 
L 576.557851 418.44744 
L 577.236023 415.50912 
L 577.914195 420.6096 
L 578.592368 412.51536 
L 579.948712 428.59296 
L 580.626884 420.11064 
L 581.305056 436.29912 
L 581.983228 410.6304 
L 582.6614 434.63592 
L 583.339572 426.59712 
L 584.017744 414.01224 
L 584.695916 421.82928 
L 585.374088 422.77176 
L 586.052261 424.82304 
L 586.730433 432.36288 
L 587.408605 424.82304 
L 588.086777 413.84592 
L 588.764949 415.56456 
L 589.443121 418.72464 
L 590.121293 430.36704 
L 590.799465 419.94432 
L 591.477637 416.1744 
L 592.155809 424.43496 
L 592.833982 418.33656 
L 593.512154 420.66504 
L 594.190326 416.00808 
L 594.868498 434.1924 
L 595.54667 417.33864 
L 596.224842 419.66712 
L 596.903014 417.11688 
L 597.581186 419.05728 
L 598.259358 421.66296 
L 598.93753 423.27072 
L 599.615702 422.66088 
L 600.293875 417.78216 
L 600.972047 419.2236 
L 601.650219 421.05312 
L 602.328391 419.94432 
L 603.006563 419.44536 
L 603.684735 412.73712 
L 604.362907 430.0344 
L 605.041079 418.61376 
L 605.719251 415.3428 
L 606.397423 416.89512 
L 607.075596 427.42872 
L 607.753768 418.33656 
L 608.43194 429.03648 
L 609.110112 423.60336 
L 609.788284 420.99768 
L 610.466456 418.9464 
L 611.144628 422.16192 
L 611.8228 417.89304 
L 612.500972 412.2936 
L 613.179144 413.90136 
L 613.857316 417.06144 
L 614.535489 423.21528 
L 615.213661 420.3324 
L 615.891833 430.08984 
L 616.570005 418.05936 
L 617.248177 428.14944 
L 617.926349 430.64424 
L 618.604521 413.18064 
L 619.282693 409.85424 
L 619.960865 429.97896 
L 620.639037 414.5112 
L 621.31721 433.24992 
L 621.995382 434.63592 
L 622.673554 416.61792 
L 623.351726 426.09816 
L 624.029898 416.83968 
L 624.70807 425.322 
L 625.386242 430.69968 
L 626.064414 411.12936 
L 626.742586 413.6796 
L 627.420758 421.9956 
L 628.09893 423.1044 
L 628.777103 418.61376 
L 629.455275 437.29704 
L 630.133447 426.09816 
L 630.811619 431.03232 
L 631.489791 418.89096 
L 632.167963 430.64424 
L 632.846135 415.8972 
L 633.524307 407.63664 
L 634.202479 423.99144 
L 634.880651 412.848 
L 635.558824 423.3816 
L 636.236996 425.43288 
L 636.915168 410.68584 
L 637.59334 434.63592 
L 638.271512 421.10856 
L 638.949684 418.50288 
L 639.627856 421.05312 
L 640.306028 424.87848 
L 640.9842 434.24784 
L 641.662372 422.71632 
L 642.340544 437.5188 
L 643.018717 437.29704 
L 643.696889 428.48208 
L 644.375061 422.8272 
L 645.053233 421.164 
L 645.731405 428.59296 
L 646.409577 420.0552 
L 647.087749 433.74888 
L 647.765921 436.63176 
L 648.444093 436.18824 
L 649.122265 422.93808 
L 649.800438 422.21736 
L 650.47861 422.2728 
L 651.156782 421.05312 
L 651.834954 443.28456 
L 652.513126 431.03232 
L 653.191298 424.71216 
L 653.86947 421.60752 
L 654.547642 423.54792 
L 655.225814 424.65672 
L 655.903986 435.24576 
L 656.582158 429.81264 
L 657.260331 426.26448 
L 657.938503 425.15568 
L 658.616675 432.41832 
L 659.294847 425.21112 
L 659.973019 437.07528 
L 660.651191 423.6588 
L 661.329363 435.8556 
L 662.007535 429.25824 
L 662.685707 431.47584 
L 663.363879 422.21736 
L 664.042052 430.53336 
L 664.720224 428.6484 
L 665.398396 428.81472 
L 666.076568 420.22152 
L 666.75474 414.45576 
L 668.789256 431.80848 
L 669.467428 425.71008 
L 670.1456 426.04272 
L 670.823772 420.3324 
L 671.501945 437.85144 
L 672.180117 419.5008 
L 672.858289 429.7572 
L 673.536461 434.35872 
L 674.214633 429.7572 
L 674.892805 427.98312 
L 675.570977 421.05312 
L 676.249149 435.024 
L 676.927321 441.6768 
L 677.605493 435.24576 
L 678.283666 434.52504 
L 678.961838 438.6276 
L 679.64001 420.0552 
L 680.318182 426.09816 
L 680.996354 427.48416 
L 681.674526 440.67888 
L 682.352698 426.1536 
L 683.03087 427.09608 
L 683.709042 427.20696 
L 684.387214 429.09192 
L 685.065386 436.41 
L 685.743559 427.2624 
L 686.421731 440.90064 
L 687.099903 433.69344 
L 687.778075 434.69136 
L 688.456247 433.97064 
L 689.134419 433.97064 
L 689.812591 423.21528 
L 691.168935 437.5188 
L 691.847107 430.81056 
L 692.52528 430.81056 
L 693.203452 425.82096 
L 693.881624 425.65464 
L 694.559796 430.42248 
L 695.237968 430.69968 
L 695.91614 435.63384 
L 697.272484 428.6484 
L 697.950656 428.53752 
L 699.307 434.69136 
L 699.985173 430.92144 
L 700.663345 419.5008 
L 701.341517 423.49248 
L 702.019689 440.67888 
L 702.697861 444.67056 
L 703.376033 432.8064 
L 704.054205 433.0836 
L 704.732377 438.3504 
L 705.410549 434.41416 
L 706.088721 429.7572 
L 706.766894 422.21736 
L 707.445066 421.88472 
L 708.123238 447.38712 
L 708.80141 433.80432 
L 709.479582 430.08984 
L 710.157754 432.252 
L 710.835926 437.85144 
L 711.514098 440.12448 
L 712.19227 431.9748 
L 712.870442 448.55136 
L 713.548614 437.46336 
L 714.226787 431.08776 
L 714.904959 429.48 
L 715.583131 440.12448 
L 716.261303 421.21944 
L 716.939475 441.89856 
L 717.617647 425.93184 
L 718.295819 435.3012 
L 718.973991 431.4204 
L 719.652163 441.954 
L 720.330335 435.46752 
L 721.008508 437.35248 
L 721.68668 435.24576 
L 722.364852 428.14944 
L 723.043024 445.8348 
L 723.721196 435.74472 
L 725.07754 424.32408 
L 725.755712 426.9852 
L 726.433884 439.68096 
L 727.112056 437.18616 
L 727.790228 445.33584 
L 728.468401 445.8348 
L 729.146573 441.34416 
L 729.824745 438.23952 
L 730.502917 441.45504 
L 731.181089 435.19032 
L 731.859261 438.23952 
L 732.537433 437.18616 
L 733.215605 435.80016 
L 733.893777 434.96856 
L 734.571949 433.85976 
L 735.250122 443.8944 
L 735.928294 435.46752 
L 736.606466 453.81816 
L 737.284638 443.39544 
L 737.96281 439.40376 
L 738.640982 447.10992 
L 739.997326 431.4204 
L 740.675498 441.73224 
L 741.35367 439.84728 
L 742.031842 449.1612 
L 742.710015 444.55968 
L 743.388187 438.51672 
L 744.066359 429.48 
L 744.744531 440.90064 
L 745.422703 442.84104 
L 746.100875 437.29704 
L 746.779047 439.90272 
L 747.457219 440.12448 
L 748.135391 434.52504 
L 748.813563 438.46128 
L 749.491736 436.18824 
L 750.169908 439.57008 
L 750.84808 446.33376 
L 751.526252 435.52296 
L 752.204424 436.35456 
L 752.882596 434.1924 
L 753.560768 435.63384 
L 754.23894 442.39752 
L 754.917112 444.28248 
L 755.595284 440.90064 
L 756.273456 431.30952 
L 756.951629 443.28456 
L 757.629801 428.26032 
L 758.307973 443.56176 
L 758.986145 427.59504 
L 759.664317 443.0628 
L 760.342489 440.12448 
L 761.020661 436.52088 
L 761.698833 434.13696 
L 763.055177 440.0136 
L 763.73335 447.2208 
L 764.411522 434.52504 
L 765.089694 442.67472 
L 765.767866 432.19656 
L 766.446038 444.78144 
L 767.12421 434.02608 
L 767.802382 433.85976 
L 768.480554 432.97272 
L 769.158726 425.0448 
L 769.836898 444.78144 
L 770.51507 433.74888 
L 771.193243 447.498 
L 771.871415 437.13072 
L 772.549587 441.01152 
L 773.227759 445.77936 
L 774.584103 428.75928 
L 775.262275 443.45088 
L 775.940447 431.19864 
L 776.618619 442.56384 
L 777.296791 450.99072 
L 777.974964 437.96232 
L 778.653136 439.90272 
L 779.331308 438.6276 
L 780.00948 436.1328 
L 780.687652 447.7752 
L 781.365824 431.64216 
L 782.043996 426.31992 
L 782.722168 433.30536 
L 783.40034 446.77728 
L 784.078512 432.86184 
L 784.756684 448.10784 
L 785.434857 444.50424 
L 786.113029 447.38712 
L 786.791201 439.68096 
L 787.469373 439.7364 
L 788.147545 438.79392 
L 788.825717 427.76136 
L 790.182061 437.796 
L 790.860233 431.25408 
L 791.538405 441.78768 
L 792.216578 424.71216 
L 792.89475 445.72392 
L 793.572922 442.73016 
L 794.251094 434.35872 
L 794.929266 436.35456 
L 795.607438 440.62344 
L 796.28561 443.45088 
L 796.963782 445.50216 
L 797.641954 441.56592 
L 798.320126 455.64768 
L 798.998298 444.89232 
L 799.676471 437.01984 
L 800.354643 441.17784 
L 801.032815 438.9048 
L 802.389159 437.74056 
L 803.067331 453.09744 
L 803.745503 454.37256 
L 804.423675 440.17992 
L 805.101847 434.91312 
L 805.780019 438.68304 
L 806.458192 438.96024 
L 807.136364 449.93736 
L 807.814536 452.2104 
L 808.492708 441.56592 
L 809.17088 439.29288 
L 809.849052 430.97688 
L 810.527224 439.68096 
L 811.205396 446.50008 
L 811.883568 446.27832 
L 812.56174 444.89232 
L 813.239912 440.06904 
L 813.918085 443.94984 
L 814.596257 443.0628 
L 815.274429 448.0524 
L 815.952601 440.8452 
L 816.630773 445.39128 
L 817.308945 450.93528 
L 817.987117 435.8556 
L 818.665289 446.6664 
L 819.343461 435.5784 
L 820.021633 441.62136 
L 820.699806 448.99488 
L 821.377978 435.19032 
L 822.05615 430.81056 
L 822.734322 432.30744 
L 823.412494 441.84312 
L 824.090666 443.34 
L 824.768838 443.34 
L 825.44701 436.74264 
L 826.125182 436.02192 
L 826.803354 446.61096 
L 827.481526 444.06072 
L 828.159699 435.024 
L 828.837871 447.2208 
L 829.516043 445.61304 
L 830.194215 443.28456 
L 830.872387 438.57216 
L 831.550559 436.74264 
L 826.125182 436.02192 
L 826.803354 446.61096 
L 827.481526 444.06072 
L 828.159699 435.024 
L 828.837871 447.2208 
L 829.516043 445.61304 
L 830.194215 443.28456 
L 830.872387 438.57216 
L 831.550559 436.74264 
L 832.228731 462.1896 
L 832.906903 445.72392 
L 833.585075 445.66848 
L 834.263247 454.31712 
L 834.94142 440.8452 
L 835.619592 437.18616 
L 836.297764 437.62968 
L 836.975936 450.27 
L 837.654108 448.49592 
L 838.33228 432.69552 
L 839.010452 446.99904 
L 839.688624 438.84936 
L 840.366796 446.99904 
L 841.044968 442.00944 
L 841.72314 450.76896 
L 842.401313 450.93528 
L 843.079485 449.7156 
L 843.757657 441.78768 
L 844.435829 453.81816 
L 845.114001 434.08152 
L 845.792173 443.94984 
L 846.470345 447.05448 
L 847.148517 445.2804 
L 847.826689 445.50216 
L 848.504861 438.18408 
L 849.183034 444.06072 
L 849.861206 438.23952 
L 850.539378 447.83064 
L 851.21755 447.16536 
L 851.895722 445.05864 
L 852.573894 438.9048 
L 853.252066 447.33168 
L 853.930238 442.45296 
L 854.60841 444.4488 
L 855.286582 445.2804 
L 856.642927 434.7468 
L 857.999271 457.08912 
L 858.677443 445.94568 
L 859.355615 444.78144 
L 860.033787 450.43632 
L 860.711959 448.99488 
L 861.390131 445.39128 
L 862.068303 435.07944 
L 862.746475 438.73848 
L 863.424648 449.7156 
L 864.10282 451.3788 
L 864.780992 446.112 
L 865.459164 438.29496 
L 866.137336 448.71768 
L 866.815508 455.09328 
L 867.49368 446.3892 
L 868.171852 454.53888 
L 868.850024 449.93736 
L 869.528196 449.4384 
L 870.206368 439.62552 
L 870.884541 452.2104 
L 871.562713 438.40584 
L 872.240885 442.06488 
L 872.919057 449.9928 
L 873.597229 443.17368 
L 874.275401 445.44672 
L 874.953573 451.21248 
L 875.631745 445.77936 
L 876.309917 450.32544 
L 876.988089 448.55136 
L 877.666262 441.51048 
L 878.344434 451.48968 
L 879.022606 454.31712 
L 879.700778 446.50008 
L 880.37895 435.07944 
L 881.057122 436.07736 
L 881.735294 445.16952 
L 882.413466 455.98032 
L 883.091638 448.44048 
L 883.76981 459.972 
L 884.447982 454.20624 
L 885.126155 451.82232 
L 885.804327 452.32128 
L 886.482499 449.93736 
L 887.160671 448.21872 
L 887.838843 449.9928 
L 888.517015 443.34 
L 889.195187 450.10368 
L 889.873359 444.4488 
L 890.551531 451.21248 
L 891.229703 456.31296 
L 891.907876 451.87776 
L 892.586048 461.85696 
L 893.26422 445.61304 
L 893.942392 461.02536 
L 895.298736 443.67264 
L 895.976908 454.48344 
L 896.65508 450.8244 
L 897.333252 452.87568 
L 898.011424 462.35592 
L 898.689596 452.7648 
L 899.367769 440.34624 
L 900.045941 449.82648 
L 900.724113 451.26792 
L 901.402285 454.92696 
L 902.080457 449.49384 
L 902.758629 448.44048 
L 903.436801 448.71768 
L 904.114973 449.77104 
L 904.793145 449.38296 
L 905.471317 447.16536 
L 906.14949 462.13416 
L 906.827662 445.33584 
L 907.505834 449.1612 
L 908.184006 443.78352 
L 909.54035 453.48552 
L 910.218522 452.98656 
L 910.896694 450.5472 
L 911.574866 443.78352 
L 912.253038 452.7648 
L 912.931211 445.33584 
L 913.609383 452.87568 
L 914.287555 444.78144 
L 914.965727 444.11616 
L 915.643899 453.70728 
L 916.322071 448.71768 
L 917.000243 447.10992 
L 917.678415 444.00528 
L 918.356587 457.53264 
L 919.034759 448.0524 
L 919.712931 454.81608 
L 920.391104 452.43216 
L 921.069276 446.3892 
L 921.747448 451.1016 
L 922.42562 446.55552 
L 923.103792 447.88608 
L 923.781964 440.90064 
L 924.460136 443.6172 
L 925.138308 448.21872 
L 925.81648 450.04824 
L 926.494652 451.15704 
L 927.172825 454.76064 
L 927.850997 445.0032 
L 928.529169 456.97824 
L 929.207341 454.09536 
L 929.885513 442.00944 
L 930.563685 442.45296 
L 931.241857 452.93112 
L 931.920029 446.05656 
L 932.598201 460.91448 
L 933.276373 456.03576 
L 933.954545 444.89232 
L 933.954545 444.89232 
" clip-path="url(#pb86717ffe0)" style="fill: none; stroke: #1f77b4; stroke-width: 1.5; stroke-linecap: square"/>
   </g>
   <g id="LineCollection_1">
    <path d="M 173.045455 490.464 
L 933.954545 490.464 
" clip-path="url(#pb86717ffe0)" style="fill: none; stroke: #ff0000; stroke-width: 1.5"/>
   </g>
   <g id="LineCollection_2">
    <path d="M 173.045455 458.8632 
L 933.954545 458.8632 
" clip-path="url(#pb86717ffe0)" style="fill: none; stroke: #008000; stroke-width: 1.5"/>
   </g>
   <g id="patch_3">
    <path d="M 135 512.64 
L 135 69.12 
" style="fill: none; stroke: #000000; stroke-width: 0.8; stroke-linejoin: miter; stroke-linecap: square"/>
   </g>
   <g id="patch_4">
    <path d="M 972 512.64 
L 972 69.12 
" style="fill: none; stroke: #000000; stroke-width: 0.8; stroke-linejoin: miter; stroke-linecap: square"/>
   </g>
   <g id="patch_5">
    <path d="M 135 512.64 
L 972 512.64 
" style="fill: none; stroke: #000000; stroke-width: 0.8; stroke-linejoin: miter; stroke-linecap: square"/>
   </g>
   <g id="patch_6">
    <path d="M 135 69.12 
L 972 69.12 
" style="fill: none; stroke: #000000; stroke-width: 0.8; stroke-linejoin: miter; stroke-linecap: square"/>
   </g>
   <g id="text_18">
    <!-- Perplexity vs. Training Steps for WikiText-103 (151M) -->
    <g transform="translate(300.4665 63.12) scale(0.192 -0.192)">
     <defs>
      <path id="DejaVuSans-76" d="M 191 3500 
L 800 3500 
L 1894 563 
L 2988 3500 
L 3597 3500 
L 2284 0 
L 1503 0 
L 191 3500 
z
" transform="scale(0.015625)"/>
      <path id="DejaVuSans-2e" d="M 684 794 
L 1344 794 
L 1344 0 
L 684 0 
L 684 794 
z
" transform="scale(0.015625)"/>
      <path id="DejaVuSans-66" d="M 2375 4863 
L 2375 4384 
L 1825 4384 
Q 1516 4384 1395 4259 
Q 1275 4134 1275 3809 
L 1275 3500 
L 2222 3500 
L 2222 3053 
L 1275 3053 
L 1275 0 
L 697 0 
L 697 3053 
L 147 3053 
L 147 3500 
L 697 3500 
L 697 3744 
Q 697 4328 969 4595 
Q 1241 4863 1831 4863 
L 2375 4863 
z
" transform="scale(0.015625)"/>
      <path id="DejaVuSans-6f" d="M 1959 3097 
Q 1497 3097 1228 2736 
Q 959 2375 959 1747 
Q 959 1119 1226 758 
Q 1494 397 1959 397 
Q 2419 397 2687 759 
Q 2956 1122 2956 1747 
Q 2956 2369 2687 2733 
Q 2419 3097 1959 3097 
z
M 1959 3584 
Q 2709 3584 3137 3096 
Q 3566 2609 3566 1747 
Q 3566 888 3137 398 
Q 2709 -91 1959 -91 
Q 1206 -91 779 398 
Q 353 888 353 1747 
Q 353 2609 779 3096 
Q 1206 3584 1959 3584 
z
" transform="scale(0.015625)"/>
      <path id="DejaVuSans-57" d="M 213 4666 
L 850 4666 
L 1831 722 
L 2809 4666 
L 3519 4666 
L 4500 722 
L 5478 4666 
L 6119 4666 
L 4947 0 
L 4153 0 
L 3169 4050 
L 2175 0 
L 1381 0 
L 213 4666 
z
" transform="scale(0.015625)"/>
      <path id="DejaVuSans-6b" d="M 581 4863 
L 1159 4863 
L 1159 1991 
L 2875 3500 
L 3609 3500 
L 1753 1863 
L 3688 0 
L 2938 0 
L 1159 1709 
L 1159 0 
L 581 0 
L 581 4863 
z
" transform="scale(0.015625)"/>
      <path id="DejaVuSans-2d" d="M 313 2009 
L 1997 2009 
L 1997 1497 
L 313 1497 
L 313 2009 
z
" transform="scale(0.015625)"/>
      <path id="DejaVuSans-28" d="M 1984 4856 
Q 1566 4138 1362 3434 
Q 1159 2731 1159 2009 
Q 1159 1288 1364 580 
Q 1569 -128 1984 -844 
L 1484 -844 
Q 1016 -109 783 600 
Q 550 1309 550 2009 
Q 550 2706 781 3412 
Q 1013 4119 1484 4856 
L 1984 4856 
z
" transform="scale(0.015625)"/>
      <path id="DejaVuSans-4d" d="M 628 4666 
L 1569 4666 
L 2759 1491 
L 3956 4666 
L 4897 4666 
L 4897 0 
L 4281 0 
L 4281 4097 
L 3078 897 
L 2444 897 
L 1241 4097 
L 1241 0 
L 628 0 
L 628 4666 
z
" transform="scale(0.015625)"/>
      <path id="DejaVuSans-29" d="M 513 4856 
L 1013 4856 
Q 1481 4119 1714 3412 
Q 1947 2706 1947 2009 
Q 1947 1309 1714 600 
Q 1481 -109 1013 -844 
L 513 -844 
Q 928 -128 1133 580 
Q 1338 1288 1338 2009 
Q 1338 2731 1133 3434 
Q 928 4138 513 4856 
z
" transform="scale(0.015625)"/>
     </defs>
     <use xlink:href="#DejaVuSans-50"/>
     <use xlink:href="#DejaVuSans-65" x="56.677734"/>
     <use xlink:href="#DejaVuSans-72" x="118.201172"/>
     <use xlink:href="#DejaVuSans-70" x="159.314453"/>
     <use xlink:href="#DejaVuSans-6c" x="222.791016"/>
     <use xlink:href="#DejaVuSans-65" x="250.574219"/>
     <use xlink:href="#DejaVuSans-78" x="310.347656"/>
     <use xlink:href="#DejaVuSans-69" x="369.527344"/>
     <use xlink:href="#DejaVuSans-74" x="397.310547"/>
     <use xlink:href="#DejaVuSans-79" x="436.519531"/>
     <use xlink:href="#DejaVuSans-20" x="495.699219"/>
     <use xlink:href="#DejaVuSans-76" x="527.486328"/>
     <use xlink:href="#DejaVuSans-73" x="586.666016"/>
     <use xlink:href="#DejaVuSans-2e" x="638.765625"/>
     <use xlink:href="#DejaVuSans-20" x="670.552734"/>
     <use xlink:href="#DejaVuSans-54" x="702.339844"/>
     <use xlink:href="#DejaVuSans-72" x="748.673828"/>
     <use xlink:href="#DejaVuSans-61" x="789.787109"/>
     <use xlink:href="#DejaVuSans-69" x="851.066406"/>
     <use xlink:href="#DejaVuSans-6e" x="878.849609"/>
     <use xlink:href="#DejaVuSans-69" x="942.228516"/>
     <use xlink:href="#DejaVuSans-6e" x="970.011719"/>
     <use xlink:href="#DejaVuSans-67" x="1033.390625"/>
     <use xlink:href="#DejaVuSans-20" x="1096.867188"/>
     <use xlink:href="#DejaVuSans-53" x="1128.654297"/>
     <use xlink:href="#DejaVuSans-74" x="1192.130859"/>
     <use xlink:href="#DejaVuSans-65" x="1231.339844"/>
     <use xlink:href="#DejaVuSans-70" x="1292.863281"/>
     <use xlink:href="#DejaVuSans-73" x="1356.339844"/>
     <use xlink:href="#DejaVuSans-20" x="1408.439453"/>
     <use xlink:href="#DejaVuSans-66" x="1440.226562"/>
     <use xlink:href="#DejaVuSans-6f" x="1475.431641"/>
     <use xlink:href="#DejaVuSans-72" x="1536.613281"/>
     <use xlink:href="#DejaVuSans-20" x="1577.726562"/>
     <use xlink:href="#DejaVuSans-57" x="1609.513672"/>
     <use xlink:href="#DejaVuSans-69" x="1706.140625"/>
     <use xlink:href="#DejaVuSans-6b" x="1733.923828"/>
     <use xlink:href="#DejaVuSans-69" x="1791.833984"/>
     <use xlink:href="#DejaVuSans-54" x="1819.617188"/>
     <use xlink:href="#DejaVuSans-65" x="1863.701172"/>
     <use xlink:href="#DejaVuSans-78" x="1923.474609"/>
     <use xlink:href="#DejaVuSans-74" x="1982.654297"/>
     <use xlink:href="#DejaVuSans-2d" x="2021.863281"/>
     <use xlink:href="#DejaVuSans-31" x="2057.947266"/>
     <use xlink:href="#DejaVuSans-30" x="2121.570312"/>
     <use xlink:href="#DejaVuSans-33" x="2185.193359"/>
     <use xlink:href="#DejaVuSans-20" x="2248.816406"/>
     <use xlink:href="#DejaVuSans-28" x="2280.603516"/>
     <use xlink:href="#DejaVuSans-31" x="2319.617188"/>
     <use xlink:href="#DejaVuSans-35" x="2383.240234"/>
     <use xlink:href="#DejaVuSans-31" x="2446.863281"/>
     <use xlink:href="#DejaVuSans-4d" x="2510.486328"/>
     <use xlink:href="#DejaVuSans-29" x="2596.765625"/>
    </g>
   </g>
   <g id="legend_1">
    <g id="patch_7">
     <path d="M 696.145 152.375 
L 960.8 152.375 
Q 964 152.375 964 149.175 
L 964 80.32 
Q 964 77.12 960.8 77.12 
L 696.145 77.12 
Q 692.945 77.12 692.945 80.32 
L 692.945 149.175 
Q 692.945 152.375 696.145 152.375 
z
" style="fill: #ffffff; opacity: 0.8; stroke: #cccccc; stroke-linejoin: miter"/>
    </g>
    <g id="line2d_32">
     <path d="M 699.345 90.0775 
L 715.345 90.0775 
L 731.345 90.0775 
" style="fill: none; stroke: #1f77b4; stroke-width: 1.5; stroke-linecap: square"/>
    </g>
    <g id="text_19">
     <!-- PPL Value on Train Dataset -->
     <g transform="translate(744.145 95.6775) scale(0.16 -0.16)">
      <defs>
       <path id="DejaVuSans-4c" d="M 628 4666 
L 1259 4666 
L 1259 531 
L 3531 531 
L 3531 0 
L 628 0 
L 628 4666 
z
" transform="scale(0.015625)"/>
       <path id="DejaVuSans-56" d="M 1831 0 
L 50 4666 
L 709 4666 
L 2188 738 
L 3669 4666 
L 4325 4666 
L 2547 0 
L 1831 0 
z
" transform="scale(0.015625)"/>
       <path id="DejaVuSans-75" d="M 544 1381 
L 544 3500 
L 1119 3500 
L 1119 1403 
Q 1119 906 1312 657 
Q 1506 409 1894 409 
Q 2359 409 2629 706 
Q 2900 1003 2900 1516 
L 2900 3500 
L 3475 3500 
L 3475 0 
L 2900 0 
L 2900 538 
Q 2691 219 2414 64 
Q 2138 -91 1772 -91 
Q 1169 -91 856 284 
Q 544 659 544 1381 
z
M 1991 3584 
L 1991 3584 
z
" transform="scale(0.015625)"/>
       <path id="DejaVuSans-44" d="M 1259 4147 
L 1259 519 
L 2022 519 
Q 2988 519 3436 956 
Q 3884 1394 3884 2338 
Q 3884 3275 3436 3711 
Q 2988 4147 2022 4147 
L 1259 4147 
z
M 628 4666 
L 1925 4666 
Q 3281 4666 3915 4102 
Q 4550 3538 4550 2338 
Q 4550 1131 3912 565 
Q 3275 0 1925 0 
L 628 0 
L 628 4666 
z
" transform="scale(0.015625)"/>
      </defs>
      <use xlink:href="#DejaVuSans-50"/>
      <use xlink:href="#DejaVuSans-50" x="60.302734"/>
      <use xlink:href="#DejaVuSans-4c" x="120.605469"/>
      <use xlink:href="#DejaVuSans-20" x="176.318359"/>
      <use xlink:href="#DejaVuSans-56" x="208.105469"/>
      <use xlink:href="#DejaVuSans-61" x="268.763672"/>
      <use xlink:href="#DejaVuSans-6c" x="330.042969"/>
      <use xlink:href="#DejaVuSans-75" x="357.826172"/>
      <use xlink:href="#DejaVuSans-65" x="421.205078"/>
      <use xlink:href="#DejaVuSans-20" x="482.728516"/>
      <use xlink:href="#DejaVuSans-6f" x="514.515625"/>
      <use xlink:href="#DejaVuSans-6e" x="575.697266"/>
      <use xlink:href="#DejaVuSans-20" x="639.076172"/>
      <use xlink:href="#DejaVuSans-54" x="670.863281"/>
      <use xlink:href="#DejaVuSans-72" x="717.197266"/>
      <use xlink:href="#DejaVuSans-61" x="758.310547"/>
      <use xlink:href="#DejaVuSans-69" x="819.589844"/>
      <use xlink:href="#DejaVuSans-6e" x="847.373047"/>
      <use xlink:href="#DejaVuSans-20" x="910.751953"/>
      <use xlink:href="#DejaVuSans-44" x="942.539062"/>
      <use xlink:href="#DejaVuSans-61" x="1019.541016"/>
      <use xlink:href="#DejaVuSans-74" x="1080.820312"/>
      <use xlink:href="#DejaVuSans-61" x="1120.029297"/>
      <use xlink:href="#DejaVuSans-73" x="1181.308594"/>
      <use xlink:href="#DejaVuSans-65" x="1233.408203"/>
      <use xlink:href="#DejaVuSans-74" x="1294.931641"/>
     </g>
    </g>
    <g id="line2d_33">
     <path d="M 699.345 113.5625 
L 731.345 113.5625 
" style="fill: none; stroke: #ff0000; stroke-width: 1.5"/>
    </g>
    <g id="text_20">
     <!-- Target PPL Value -->
     <g transform="translate(744.145 119.1625) scale(0.16 -0.16)">
      <use xlink:href="#DejaVuSans-54"/>
      <use xlink:href="#DejaVuSans-61" x="44.583984"/>
      <use xlink:href="#DejaVuSans-72" x="105.863281"/>
      <use xlink:href="#DejaVuSans-67" x="145.226562"/>
      <use xlink:href="#DejaVuSans-65" x="208.703125"/>
      <use xlink:href="#DejaVuSans-74" x="270.226562"/>
      <use xlink:href="#DejaVuSans-20" x="309.435547"/>
      <use xlink:href="#DejaVuSans-50" x="341.222656"/>
      <use xlink:href="#DejaVuSans-50" x="401.525391"/>
      <use xlink:href="#DejaVuSans-4c" x="461.828125"/>
      <use xlink:href="#DejaVuSans-20" x="517.541016"/>
      <use xlink:href="#DejaVuSans-56" x="549.328125"/>
      <use xlink:href="#DejaVuSans-61" x="609.986328"/>
      <use xlink:href="#DejaVuSans-6c" x="671.265625"/>
      <use xlink:href="#DejaVuSans-75" x="699.048828"/>
      <use xlink:href="#DejaVuSans-65" x="762.427734"/>
     </g>
    </g>
    <g id="line2d_34">
     <path d="M 699.345 137.0475 
L 731.345 137.0475 
" style="fill: none; stroke: #008000; stroke-width: 1.5"/>
    </g>
    <g id="text_21">
     <!-- Final Test PPL Value -->
     <g transform="translate(744.145 142.6475) scale(0.16 -0.16)">
      <defs>
       <path id="DejaVuSans-46" d="M 628 4666 
L 3309 4666 
L 3309 4134 
L 1259 4134 
L 1259 2759 
L 3109 2759 
L 3109 2228 
L 1259 2228 
L 1259 0 
L 628 0 
L 628 4666 
z
" transform="scale(0.015625)"/>
      </defs>
      <use xlink:href="#DejaVuSans-46"/>
      <use xlink:href="#DejaVuSans-69" x="50.269531"/>
      <use xlink:href="#DejaVuSans-6e" x="78.052734"/>
      <use xlink:href="#DejaVuSans-61" x="141.431641"/>
      <use xlink:href="#DejaVuSans-6c" x="202.710938"/>
      <use xlink:href="#DejaVuSans-20" x="230.494141"/>
      <use xlink:href="#DejaVuSans-54" x="262.28125"/>
      <use xlink:href="#DejaVuSans-65" x="306.365234"/>
      <use xlink:href="#DejaVuSans-73" x="367.888672"/>
      <use xlink:href="#DejaVuSans-74" x="419.988281"/>
      <use xlink:href="#DejaVuSans-20" x="459.197266"/>
      <use xlink:href="#DejaVuSans-50" x="490.984375"/>
      <use xlink:href="#DejaVuSans-50" x="551.287109"/>
      <use xlink:href="#DejaVuSans-4c" x="611.589844"/>
      <use xlink:href="#DejaVuSans-20" x="667.302734"/>
      <use xlink:href="#DejaVuSans-56" x="699.089844"/>
      <use xlink:href="#DejaVuSans-61" x="759.748047"/>
      <use xlink:href="#DejaVuSans-6c" x="821.027344"/>
      <use xlink:href="#DejaVuSans-75" x="848.810547"/>
      <use xlink:href="#DejaVuSans-65" x="912.189453"/>
     </g>
    </g>
   </g>
  </g>
 </g>
 <defs>
  <clipPath id="pb86717ffe0">
   <rect x="135" y="69.12" width="837" height="443.52"/>
  </clipPath>
 </defs>
</svg>
